<svg width="15" height="16" viewBox="0 0 15 16" fill="none" xmlns="http://www.w3.org/2000/svg">
<g clip-path="url(#clip0_1_10)">
<path d="M14.375 14.25H3.125C2.62772 14.25 2.15081 14.0525 1.79917 13.7008C1.44754 13.3492 1.25 12.8723 1.25 12.375V1.125C1.25 0.95924 1.18415 0.800269 1.06694 0.683058C0.949732 0.565848 0.79076 0.5 0.625 0.5C0.45924 0.5 0.300269 0.565848 0.183058 0.683058C0.065848 0.800269 0 0.95924 0 1.125L0 12.375C0.000992411 13.2035 0.330551 13.9978 0.916387 14.5836C1.50222 15.1694 2.2965 15.499 3.125 15.5H14.375C14.5408 15.5 14.6997 15.4342 14.8169 15.3169C14.9342 15.1997 15 15.0408 15 14.875C15 14.7092 14.9342 14.5503 14.8169 14.4331C14.6997 14.3158 14.5408 14.25 14.375 14.25Z" fill="#1E1E1E"/>
<path d="M14.375 14.25H3.125C2.62772 14.25 2.15081 14.0525 1.79917 13.7008C1.44754 13.3492 1.25 12.8723 1.25 12.375V1.125C1.25 0.95924 1.18415 0.800269 1.06694 0.683058C0.949732 0.565848 0.79076 0.5 0.625 0.5C0.45924 0.5 0.300269 0.565848 0.183058 0.683058C0.065848 0.800269 0 0.95924 0 1.125L0 12.375C0.000992411 13.2035 0.330551 13.9978 0.916387 14.5836C1.50222 15.1694 2.2965 15.499 3.125 15.5H14.375C14.5408 15.5 14.6997 15.4342 14.8169 15.3169C14.9342 15.1997 15 15.0408 15 14.875C15 14.7092 14.9342 14.5503 14.8169 14.4331C14.6997 14.3158 14.5408 14.25 14.375 14.25Z" fill="black" fill-opacity="0.2"/>
<path d="M14.375 14.25H3.125C2.62772 14.25 2.15081 14.0525 1.79917 13.7008C1.44754 13.3492 1.25 12.8723 1.25 12.375V1.125C1.25 0.95924 1.18415 0.800269 1.06694 0.683058C0.949732 0.565848 0.79076 0.5 0.625 0.5C0.45924 0.5 0.300269 0.565848 0.183058 0.683058C0.065848 0.800269 0 0.95924 0 1.125L0 12.375C0.000992411 13.2035 0.330551 13.9978 0.916387 14.5836C1.50222 15.1694 2.2965 15.499 3.125 15.5H14.375C14.5408 15.5 14.6997 15.4342 14.8169 15.3169C14.9342 15.1997 15 15.0408 15 14.875C15 14.7092 14.9342 14.5503 14.8169 14.4331C14.6997 14.3158 14.5408 14.25 14.375 14.25Z" fill="black" fill-opacity="0.2"/>
<path d="M14.375 14.25H3.125C2.62772 14.25 2.15081 14.0525 1.79917 13.7008C1.44754 13.3492 1.25 12.8723 1.25 12.375V1.125C1.25 0.95924 1.18415 0.800269 1.06694 0.683058C0.949732 0.565848 0.79076 0.5 0.625 0.5C0.45924 0.5 0.300269 0.565848 0.183058 0.683058C0.065848 0.800269 0 0.95924 0 1.125L0 12.375C0.000992411 13.2035 0.330551 13.9978 0.916387 14.5836C1.50222 15.1694 2.2965 15.499 3.125 15.5H14.375C14.5408 15.5 14.6997 15.4342 14.8169 15.3169C14.9342 15.1997 15 15.0408 15 14.875C15 14.7092 14.9342 14.5503 14.8169 14.4331C14.6997 14.3158 14.5408 14.25 14.375 14.25Z" fill="black" fill-opacity="0.2"/>
<path d="M14.375 14.25H3.125C2.62772 14.25 2.15081 14.0525 1.79917 13.7008C1.44754 13.3492 1.25 12.8723 1.25 12.375V1.125C1.25 0.95924 1.18415 0.800269 1.06694 0.683058C0.949732 0.565848 0.79076 0.5 0.625 0.5C0.45924 0.5 0.300269 0.565848 0.183058 0.683058C0.065848 0.800269 0 0.95924 0 1.125L0 12.375C0.000992411 13.2035 0.330551 13.9978 0.916387 14.5836C1.50222 15.1694 2.2965 15.499 3.125 15.5H14.375C14.5408 15.5 14.6997 15.4342 14.8169 15.3169C14.9342 15.1997 15 15.0408 15 14.875C15 14.7092 14.9342 14.5503 14.8169 14.4331C14.6997 14.3158 14.5408 14.25 14.375 14.25Z" fill="black" fill-opacity="0.2"/>
<path d="M14.375 14.25H3.125C2.62772 14.25 2.15081 14.0525 1.79917 13.7008C1.44754 13.3492 1.25 12.8723 1.25 12.375V1.125C1.25 0.95924 1.18415 0.800269 1.06694 0.683058C0.949732 0.565848 0.79076 0.5 0.625 0.5C0.45924 0.5 0.300269 0.565848 0.183058 0.683058C0.065848 0.800269 0 0.95924 0 1.125L0 12.375C0.000992411 13.2035 0.330551 13.9978 0.916387 14.5836C1.50222 15.1694 2.2965 15.499 3.125 15.5H14.375C14.5408 15.5 14.6997 15.4342 14.8169 15.3169C14.9342 15.1997 15 15.0408 15 14.875C15 14.7092 14.9342 14.5503 14.8169 14.4331C14.6997 14.3158 14.5408 14.25 14.375 14.25Z" fill="black" fill-opacity="0.2"/>
<path d="M14.375 14.25H3.125C2.62772 14.25 2.15081 14.0525 1.79917 13.7008C1.44754 13.3492 1.25 12.8723 1.25 12.375V1.125C1.25 0.95924 1.18415 0.800269 1.06694 0.683058C0.949732 0.565848 0.79076 0.5 0.625 0.5C0.45924 0.5 0.300269 0.565848 0.183058 0.683058C0.065848 0.800269 0 0.95924 0 1.125L0 12.375C0.000992411 13.2035 0.330551 13.9978 0.916387 14.5836C1.50222 15.1694 2.2965 15.499 3.125 15.5H14.375C14.5408 15.5 14.6997 15.4342 14.8169 15.3169C14.9342 15.1997 15 15.0408 15 14.875C15 14.7092 14.9342 14.5503 14.8169 14.4331C14.6997 14.3158 14.5408 14.25 14.375 14.25Z" fill="black" fill-opacity="0.2"/>
<path d="M14.375 14.25H3.125C2.62772 14.25 2.15081 14.0525 1.79917 13.7008C1.44754 13.3492 1.25 12.8723 1.25 12.375V1.125C1.25 0.95924 1.18415 0.800269 1.06694 0.683058C0.949732 0.565848 0.79076 0.5 0.625 0.5C0.45924 0.5 0.300269 0.565848 0.183058 0.683058C0.065848 0.800269 0 0.95924 0 1.125L0 12.375C0.000992411 13.2035 0.330551 13.9978 0.916387 14.5836C1.50222 15.1694 2.2965 15.499 3.125 15.5H14.375C14.5408 15.5 14.6997 15.4342 14.8169 15.3169C14.9342 15.1997 15 15.0408 15 14.875C15 14.7092 14.9342 14.5503 14.8169 14.4331C14.6997 14.3158 14.5408 14.25 14.375 14.25Z" fill="black" fill-opacity="0.2"/>
<path d="M14.375 14.25H3.125C2.62772 14.25 2.15081 14.0525 1.79917 13.7008C1.44754 13.3492 1.25 12.8723 1.25 12.375V1.125C1.25 0.95924 1.18415 0.800269 1.06694 0.683058C0.949732 0.565848 0.79076 0.5 0.625 0.5C0.45924 0.5 0.300269 0.565848 0.183058 0.683058C0.065848 0.800269 0 0.95924 0 1.125L0 12.375C0.000992411 13.2035 0.330551 13.9978 0.916387 14.5836C1.50222 15.1694 2.2965 15.499 3.125 15.5H14.375C14.5408 15.5 14.6997 15.4342 14.8169 15.3169C14.9342 15.1997 15 15.0408 15 14.875C15 14.7092 14.9342 14.5503 14.8169 14.4331C14.6997 14.3158 14.5408 14.25 14.375 14.25Z" fill="black" fill-opacity="0.2"/>
<path d="M14.375 14.25H3.125C2.62772 14.25 2.15081 14.0525 1.79917 13.7008C1.44754 13.3492 1.25 12.8723 1.25 12.375V1.125C1.25 0.95924 1.18415 0.800269 1.06694 0.683058C0.949732 0.565848 0.79076 0.5 0.625 0.5C0.45924 0.5 0.300269 0.565848 0.183058 0.683058C0.065848 0.800269 0 0.95924 0 1.125L0 12.375C0.000992411 13.2035 0.330551 13.9978 0.916387 14.5836C1.50222 15.1694 2.2965 15.499 3.125 15.5H14.375C14.5408 15.5 14.6997 15.4342 14.8169 15.3169C14.9342 15.1997 15 15.0408 15 14.875C15 14.7092 14.9342 14.5503 14.8169 14.4331C14.6997 14.3158 14.5408 14.25 14.375 14.25Z" fill="black" fill-opacity="0.2"/>
<path d="M14.375 14.25H3.125C2.62772 14.25 2.15081 14.0525 1.79917 13.7008C1.44754 13.3492 1.25 12.8723 1.25 12.375V1.125C1.25 0.95924 1.18415 0.800269 1.06694 0.683058C0.949732 0.565848 0.79076 0.5 0.625 0.5C0.45924 0.5 0.300269 0.565848 0.183058 0.683058C0.065848 0.800269 0 0.95924 0 1.125L0 12.375C0.000992411 13.2035 0.330551 13.9978 0.916387 14.5836C1.50222 15.1694 2.2965 15.499 3.125 15.5H14.375C14.5408 15.5 14.6997 15.4342 14.8169 15.3169C14.9342 15.1997 15 15.0408 15 14.875C15 14.7092 14.9342 14.5503 14.8169 14.4331C14.6997 14.3158 14.5408 14.25 14.375 14.25Z" fill="black" fill-opacity="0.2"/>
<path d="M14.375 14.25H3.125C2.62772 14.25 2.15081 14.0525 1.79917 13.7008C1.44754 13.3492 1.25 12.8723 1.25 12.375V1.125C1.25 0.95924 1.18415 0.800269 1.06694 0.683058C0.949732 0.565848 0.79076 0.5 0.625 0.5C0.45924 0.5 0.300269 0.565848 0.183058 0.683058C0.065848 0.800269 0 0.95924 0 1.125L0 12.375C0.000992411 13.2035 0.330551 13.9978 0.916387 14.5836C1.50222 15.1694 2.2965 15.499 3.125 15.5H14.375C14.5408 15.5 14.6997 15.4342 14.8169 15.3169C14.9342 15.1997 15 15.0408 15 14.875C15 14.7092 14.9342 14.5503 14.8169 14.4331C14.6997 14.3158 14.5408 14.25 14.375 14.25Z" fill="black" fill-opacity="0.2"/>
<path d="M14.375 14.25H3.125C2.62772 14.25 2.15081 14.0525 1.79917 13.7008C1.44754 13.3492 1.25 12.8723 1.25 12.375V1.125C1.25 0.95924 1.18415 0.800269 1.06694 0.683058C0.949732 0.565848 0.79076 0.5 0.625 0.5C0.45924 0.5 0.300269 0.565848 0.183058 0.683058C0.065848 0.800269 0 0.95924 0 1.125L0 12.375C0.000992411 13.2035 0.330551 13.9978 0.916387 14.5836C1.50222 15.1694 2.2965 15.499 3.125 15.5H14.375C14.5408 15.5 14.6997 15.4342 14.8169 15.3169C14.9342 15.1997 15 15.0408 15 14.875C15 14.7092 14.9342 14.5503 14.8169 14.4331C14.6997 14.3158 14.5408 14.25 14.375 14.25Z" fill="black" fill-opacity="0.2"/>
<path d="M14.375 14.25H3.125C2.62772 14.25 2.15081 14.0525 1.79917 13.7008C1.44754 13.3492 1.25 12.8723 1.25 12.375V1.125C1.25 0.95924 1.18415 0.800269 1.06694 0.683058C0.949732 0.565848 0.79076 0.5 0.625 0.5C0.45924 0.5 0.300269 0.565848 0.183058 0.683058C0.065848 0.800269 0 0.95924 0 1.125L0 12.375C0.000992411 13.2035 0.330551 13.9978 0.916387 14.5836C1.50222 15.1694 2.2965 15.499 3.125 15.5H14.375C14.5408 15.5 14.6997 15.4342 14.8169 15.3169C14.9342 15.1997 15 15.0408 15 14.875C15 14.7092 14.9342 14.5503 14.8169 14.4331C14.6997 14.3158 14.5408 14.25 14.375 14.25Z" fill="black" fill-opacity="0.2"/>
<path d="M14.375 14.25H3.125C2.62772 14.25 2.15081 14.0525 1.79917 13.7008C1.44754 13.3492 1.25 12.8723 1.25 12.375V1.125C1.25 0.95924 1.18415 0.800269 1.06694 0.683058C0.949732 0.565848 0.79076 0.5 0.625 0.5C0.45924 0.5 0.300269 0.565848 0.183058 0.683058C0.065848 0.800269 0 0.95924 0 1.125L0 12.375C0.000992411 13.2035 0.330551 13.9978 0.916387 14.5836C1.50222 15.1694 2.2965 15.499 3.125 15.5H14.375C14.5408 15.5 14.6997 15.4342 14.8169 15.3169C14.9342 15.1997 15 15.0408 15 14.875C15 14.7092 14.9342 14.5503 14.8169 14.4331C14.6997 14.3158 14.5408 14.25 14.375 14.25Z" fill="black" fill-opacity="0.2"/>
<path d="M14.375 14.25H3.125C2.62772 14.25 2.15081 14.0525 1.79917 13.7008C1.44754 13.3492 1.25 12.8723 1.25 12.375V1.125C1.25 0.95924 1.18415 0.800269 1.06694 0.683058C0.949732 0.565848 0.79076 0.5 0.625 0.5C0.45924 0.5 0.300269 0.565848 0.183058 0.683058C0.065848 0.800269 0 0.95924 0 1.125L0 12.375C0.000992411 13.2035 0.330551 13.9978 0.916387 14.5836C1.50222 15.1694 2.2965 15.499 3.125 15.5H14.375C14.5408 15.5 14.6997 15.4342 14.8169 15.3169C14.9342 15.1997 15 15.0408 15 14.875C15 14.7092 14.9342 14.5503 14.8169 14.4331C14.6997 14.3158 14.5408 14.25 14.375 14.25Z" fill="black" fill-opacity="0.2"/>
<path d="M14.375 14.25H3.125C2.62772 14.25 2.15081 14.0525 1.79917 13.7008C1.44754 13.3492 1.25 12.8723 1.25 12.375V1.125C1.25 0.95924 1.18415 0.800269 1.06694 0.683058C0.949732 0.565848 0.79076 0.5 0.625 0.5C0.45924 0.5 0.300269 0.565848 0.183058 0.683058C0.065848 0.800269 0 0.95924 0 1.125L0 12.375C0.000992411 13.2035 0.330551 13.9978 0.916387 14.5836C1.50222 15.1694 2.2965 15.499 3.125 15.5H14.375C14.5408 15.5 14.6997 15.4342 14.8169 15.3169C14.9342 15.1997 15 15.0408 15 14.875C15 14.7092 14.9342 14.5503 14.8169 14.4331C14.6997 14.3158 14.5408 14.25 14.375 14.25Z" fill="black" fill-opacity="0.2"/>
<path d="M3.75009 13C3.91585 13 4.07482 12.9341 4.19203 12.8169C4.30924 12.6997 4.37509 12.5407 4.37509 12.375V7.99995C4.37509 7.83419 4.30924 7.67522 4.19203 7.55801C4.07482 7.4408 3.91585 7.37495 3.75009 7.37495C3.58433 7.37495 3.42536 7.4408 3.30815 7.55801C3.19094 7.67522 3.1251 7.83419 3.1251 7.99995V12.375C3.1251 12.5407 3.19094 12.6997 3.30815 12.8169C3.42536 12.9341 3.58433 13 3.75009 13Z" fill="#1E1E1E"/>
<path d="M3.75009 13C3.91585 13 4.07482 12.9341 4.19203 12.8169C4.30924 12.6997 4.37509 12.5407 4.37509 12.375V7.99995C4.37509 7.83419 4.30924 7.67522 4.19203 7.55801C4.07482 7.4408 3.91585 7.37495 3.75009 7.37495C3.58433 7.37495 3.42536 7.4408 3.30815 7.55801C3.19094 7.67522 3.1251 7.83419 3.1251 7.99995V12.375C3.1251 12.5407 3.19094 12.6997 3.30815 12.8169C3.42536 12.9341 3.58433 13 3.75009 13Z" fill="black" fill-opacity="0.2"/>
<path d="M3.75009 13C3.91585 13 4.07482 12.9341 4.19203 12.8169C4.30924 12.6997 4.37509 12.5407 4.37509 12.375V7.99995C4.37509 7.83419 4.30924 7.67522 4.19203 7.55801C4.07482 7.4408 3.91585 7.37495 3.75009 7.37495C3.58433 7.37495 3.42536 7.4408 3.30815 7.55801C3.19094 7.67522 3.1251 7.83419 3.1251 7.99995V12.375C3.1251 12.5407 3.19094 12.6997 3.30815 12.8169C3.42536 12.9341 3.58433 13 3.75009 13Z" fill="black" fill-opacity="0.2"/>
<path d="M3.75009 13C3.91585 13 4.07482 12.9341 4.19203 12.8169C4.30924 12.6997 4.37509 12.5407 4.37509 12.375V7.99995C4.37509 7.83419 4.30924 7.67522 4.19203 7.55801C4.07482 7.4408 3.91585 7.37495 3.75009 7.37495C3.58433 7.37495 3.42536 7.4408 3.30815 7.55801C3.19094 7.67522 3.1251 7.83419 3.1251 7.99995V12.375C3.1251 12.5407 3.19094 12.6997 3.30815 12.8169C3.42536 12.9341 3.58433 13 3.75009 13Z" fill="black" fill-opacity="0.2"/>
<path d="M3.75009 13C3.91585 13 4.07482 12.9341 4.19203 12.8169C4.30924 12.6997 4.37509 12.5407 4.37509 12.375V7.99995C4.37509 7.83419 4.30924 7.67522 4.19203 7.55801C4.07482 7.4408 3.91585 7.37495 3.75009 7.37495C3.58433 7.37495 3.42536 7.4408 3.30815 7.55801C3.19094 7.67522 3.1251 7.83419 3.1251 7.99995V12.375C3.1251 12.5407 3.19094 12.6997 3.30815 12.8169C3.42536 12.9341 3.58433 13 3.75009 13Z" fill="black" fill-opacity="0.2"/>
<path d="M3.75009 13C3.91585 13 4.07482 12.9341 4.19203 12.8169C4.30924 12.6997 4.37509 12.5407 4.37509 12.375V7.99995C4.37509 7.83419 4.30924 7.67522 4.19203 7.55801C4.07482 7.4408 3.91585 7.37495 3.75009 7.37495C3.58433 7.37495 3.42536 7.4408 3.30815 7.55801C3.19094 7.67522 3.1251 7.83419 3.1251 7.99995V12.375C3.1251 12.5407 3.19094 12.6997 3.30815 12.8169C3.42536 12.9341 3.58433 13 3.75009 13Z" fill="black" fill-opacity="0.2"/>
<path d="M3.75009 13C3.91585 13 4.07482 12.9341 4.19203 12.8169C4.30924 12.6997 4.37509 12.5407 4.37509 12.375V7.99995C4.37509 7.83419 4.30924 7.67522 4.19203 7.55801C4.07482 7.4408 3.91585 7.37495 3.75009 7.37495C3.58433 7.37495 3.42536 7.4408 3.30815 7.55801C3.19094 7.67522 3.1251 7.83419 3.1251 7.99995V12.375C3.1251 12.5407 3.19094 12.6997 3.30815 12.8169C3.42536 12.9341 3.58433 13 3.75009 13Z" fill="black" fill-opacity="0.2"/>
<path d="M3.75009 13C3.91585 13 4.07482 12.9341 4.19203 12.8169C4.30924 12.6997 4.37509 12.5407 4.37509 12.375V7.99995C4.37509 7.83419 4.30924 7.67522 4.19203 7.55801C4.07482 7.4408 3.91585 7.37495 3.75009 7.37495C3.58433 7.37495 3.42536 7.4408 3.30815 7.55801C3.19094 7.67522 3.1251 7.83419 3.1251 7.99995V12.375C3.1251 12.5407 3.19094 12.6997 3.30815 12.8169C3.42536 12.9341 3.58433 13 3.75009 13Z" fill="black" fill-opacity="0.2"/>
<path d="M3.75009 13C3.91585 13 4.07482 12.9341 4.19203 12.8169C4.30924 12.6997 4.37509 12.5407 4.37509 12.375V7.99995C4.37509 7.83419 4.30924 7.67522 4.19203 7.55801C4.07482 7.4408 3.91585 7.37495 3.75009 7.37495C3.58433 7.37495 3.42536 7.4408 3.30815 7.55801C3.19094 7.67522 3.1251 7.83419 3.1251 7.99995V12.375C3.1251 12.5407 3.19094 12.6997 3.30815 12.8169C3.42536 12.9341 3.58433 13 3.75009 13Z" fill="black" fill-opacity="0.2"/>
<path d="M3.75009 13C3.91585 13 4.07482 12.9341 4.19203 12.8169C4.30924 12.6997 4.37509 12.5407 4.37509 12.375V7.99995C4.37509 7.83419 4.30924 7.67522 4.19203 7.55801C4.07482 7.4408 3.91585 7.37495 3.75009 7.37495C3.58433 7.37495 3.42536 7.4408 3.30815 7.55801C3.19094 7.67522 3.1251 7.83419 3.1251 7.99995V12.375C3.1251 12.5407 3.19094 12.6997 3.30815 12.8169C3.42536 12.9341 3.58433 13 3.75009 13Z" fill="black" fill-opacity="0.2"/>
<path d="M3.75009 13C3.91585 13 4.07482 12.9341 4.19203 12.8169C4.30924 12.6997 4.37509 12.5407 4.37509 12.375V7.99995C4.37509 7.83419 4.30924 7.67522 4.19203 7.55801C4.07482 7.4408 3.91585 7.37495 3.75009 7.37495C3.58433 7.37495 3.42536 7.4408 3.30815 7.55801C3.19094 7.67522 3.1251 7.83419 3.1251 7.99995V12.375C3.1251 12.5407 3.19094 12.6997 3.30815 12.8169C3.42536 12.9341 3.58433 13 3.75009 13Z" fill="black" fill-opacity="0.2"/>
<path d="M3.75009 13C3.91585 13 4.07482 12.9341 4.19203 12.8169C4.30924 12.6997 4.37509 12.5407 4.37509 12.375V7.99995C4.37509 7.83419 4.30924 7.67522 4.19203 7.55801C4.07482 7.4408 3.91585 7.37495 3.75009 7.37495C3.58433 7.37495 3.42536 7.4408 3.30815 7.55801C3.19094 7.67522 3.1251 7.83419 3.1251 7.99995V12.375C3.1251 12.5407 3.19094 12.6997 3.30815 12.8169C3.42536 12.9341 3.58433 13 3.75009 13Z" fill="black" fill-opacity="0.2"/>
<path d="M3.75009 13C3.91585 13 4.07482 12.9341 4.19203 12.8169C4.30924 12.6997 4.37509 12.5407 4.37509 12.375V7.99995C4.37509 7.83419 4.30924 7.67522 4.19203 7.55801C4.07482 7.4408 3.91585 7.37495 3.75009 7.37495C3.58433 7.37495 3.42536 7.4408 3.30815 7.55801C3.19094 7.67522 3.1251 7.83419 3.1251 7.99995V12.375C3.1251 12.5407 3.19094 12.6997 3.30815 12.8169C3.42536 12.9341 3.58433 13 3.75009 13Z" fill="black" fill-opacity="0.2"/>
<path d="M3.75009 13C3.91585 13 4.07482 12.9341 4.19203 12.8169C4.30924 12.6997 4.37509 12.5407 4.37509 12.375V7.99995C4.37509 7.83419 4.30924 7.67522 4.19203 7.55801C4.07482 7.4408 3.91585 7.37495 3.75009 7.37495C3.58433 7.37495 3.42536 7.4408 3.30815 7.55801C3.19094 7.67522 3.1251 7.83419 3.1251 7.99995V12.375C3.1251 12.5407 3.19094 12.6997 3.30815 12.8169C3.42536 12.9341 3.58433 13 3.75009 13Z" fill="black" fill-opacity="0.2"/>
<path d="M3.75009 13C3.91585 13 4.07482 12.9341 4.19203 12.8169C4.30924 12.6997 4.37509 12.5407 4.37509 12.375V7.99995C4.37509 7.83419 4.30924 7.67522 4.19203 7.55801C4.07482 7.4408 3.91585 7.37495 3.75009 7.37495C3.58433 7.37495 3.42536 7.4408 3.30815 7.55801C3.19094 7.67522 3.1251 7.83419 3.1251 7.99995V12.375C3.1251 12.5407 3.19094 12.6997 3.30815 12.8169C3.42536 12.9341 3.58433 13 3.75009 13Z" fill="black" fill-opacity="0.2"/>
<path d="M3.75009 13C3.91585 13 4.07482 12.9341 4.19203 12.8169C4.30924 12.6997 4.37509 12.5407 4.37509 12.375V7.99995C4.37509 7.83419 4.30924 7.67522 4.19203 7.55801C4.07482 7.4408 3.91585 7.37495 3.75009 7.37495C3.58433 7.37495 3.42536 7.4408 3.30815 7.55801C3.19094 7.67522 3.1251 7.83419 3.1251 7.99995V12.375C3.1251 12.5407 3.19094 12.6997 3.30815 12.8169C3.42536 12.9341 3.58433 13 3.75009 13Z" fill="black" fill-opacity="0.2"/>
<path d="M3.75009 13C3.91585 13 4.07482 12.9341 4.19203 12.8169C4.30924 12.6997 4.37509 12.5407 4.37509 12.375V7.99995C4.37509 7.83419 4.30924 7.67522 4.19203 7.55801C4.07482 7.4408 3.91585 7.37495 3.75009 7.37495C3.58433 7.37495 3.42536 7.4408 3.30815 7.55801C3.19094 7.67522 3.1251 7.83419 3.1251 7.99995V12.375C3.1251 12.5407 3.19094 12.6997 3.30815 12.8169C3.42536 12.9341 3.58433 13 3.75009 13Z" fill="black" fill-opacity="0.2"/>
<path d="M6.2499 6.75V12.375C6.2499 12.5408 6.31575 12.6997 6.43296 12.8169C6.55017 12.9341 6.70914 13 6.8749 13C7.04067 13 7.19964 12.9341 7.31685 12.8169C7.43406 12.6997 7.49991 12.5408 7.49991 12.375V6.75C7.49991 6.58424 7.43406 6.42527 7.31685 6.30806C7.19964 6.19085 7.04067 6.125 6.8749 6.125C6.70914 6.125 6.55017 6.19085 6.43296 6.30806C6.31575 6.42527 6.2499 6.58424 6.2499 6.75Z" fill="#1E1E1E"/>
<path d="M6.2499 6.75V12.375C6.2499 12.5408 6.31575 12.6997 6.43296 12.8169C6.55017 12.9341 6.70914 13 6.8749 13C7.04067 13 7.19964 12.9341 7.31685 12.8169C7.43406 12.6997 7.49991 12.5408 7.49991 12.375V6.75C7.49991 6.58424 7.43406 6.42527 7.31685 6.30806C7.19964 6.19085 7.04067 6.125 6.8749 6.125C6.70914 6.125 6.55017 6.19085 6.43296 6.30806C6.31575 6.42527 6.2499 6.58424 6.2499 6.75Z" fill="black" fill-opacity="0.2"/>
<path d="M6.2499 6.75V12.375C6.2499 12.5408 6.31575 12.6997 6.43296 12.8169C6.55017 12.9341 6.70914 13 6.8749 13C7.04067 13 7.19964 12.9341 7.31685 12.8169C7.43406 12.6997 7.49991 12.5408 7.49991 12.375V6.75C7.49991 6.58424 7.43406 6.42527 7.31685 6.30806C7.19964 6.19085 7.04067 6.125 6.8749 6.125C6.70914 6.125 6.55017 6.19085 6.43296 6.30806C6.31575 6.42527 6.2499 6.58424 6.2499 6.75Z" fill="black" fill-opacity="0.2"/>
<path d="M6.2499 6.75V12.375C6.2499 12.5408 6.31575 12.6997 6.43296 12.8169C6.55017 12.9341 6.70914 13 6.8749 13C7.04067 13 7.19964 12.9341 7.31685 12.8169C7.43406 12.6997 7.49991 12.5408 7.49991 12.375V6.75C7.49991 6.58424 7.43406 6.42527 7.31685 6.30806C7.19964 6.19085 7.04067 6.125 6.8749 6.125C6.70914 6.125 6.55017 6.19085 6.43296 6.30806C6.31575 6.42527 6.2499 6.58424 6.2499 6.75Z" fill="black" fill-opacity="0.2"/>
<path d="M6.2499 6.75V12.375C6.2499 12.5408 6.31575 12.6997 6.43296 12.8169C6.55017 12.9341 6.70914 13 6.8749 13C7.04067 13 7.19964 12.9341 7.31685 12.8169C7.43406 12.6997 7.49991 12.5408 7.49991 12.375V6.75C7.49991 6.58424 7.43406 6.42527 7.31685 6.30806C7.19964 6.19085 7.04067 6.125 6.8749 6.125C6.70914 6.125 6.55017 6.19085 6.43296 6.30806C6.31575 6.42527 6.2499 6.58424 6.2499 6.75Z" fill="black" fill-opacity="0.2"/>
<path d="M6.2499 6.75V12.375C6.2499 12.5408 6.31575 12.6997 6.43296 12.8169C6.55017 12.9341 6.70914 13 6.8749 13C7.04067 13 7.19964 12.9341 7.31685 12.8169C7.43406 12.6997 7.49991 12.5408 7.49991 12.375V6.75C7.49991 6.58424 7.43406 6.42527 7.31685 6.30806C7.19964 6.19085 7.04067 6.125 6.8749 6.125C6.70914 6.125 6.55017 6.19085 6.43296 6.30806C6.31575 6.42527 6.2499 6.58424 6.2499 6.75Z" fill="black" fill-opacity="0.2"/>
<path d="M6.2499 6.75V12.375C6.2499 12.5408 6.31575 12.6997 6.43296 12.8169C6.55017 12.9341 6.70914 13 6.8749 13C7.04067 13 7.19964 12.9341 7.31685 12.8169C7.43406 12.6997 7.49991 12.5408 7.49991 12.375V6.75C7.49991 6.58424 7.43406 6.42527 7.31685 6.30806C7.19964 6.19085 7.04067 6.125 6.8749 6.125C6.70914 6.125 6.55017 6.19085 6.43296 6.30806C6.31575 6.42527 6.2499 6.58424 6.2499 6.75Z" fill="black" fill-opacity="0.2"/>
<path d="M6.2499 6.75V12.375C6.2499 12.5408 6.31575 12.6997 6.43296 12.8169C6.55017 12.9341 6.70914 13 6.8749 13C7.04067 13 7.19964 12.9341 7.31685 12.8169C7.43406 12.6997 7.49991 12.5408 7.49991 12.375V6.75C7.49991 6.58424 7.43406 6.42527 7.31685 6.30806C7.19964 6.19085 7.04067 6.125 6.8749 6.125C6.70914 6.125 6.55017 6.19085 6.43296 6.30806C6.31575 6.42527 6.2499 6.58424 6.2499 6.75Z" fill="black" fill-opacity="0.2"/>
<path d="M6.2499 6.75V12.375C6.2499 12.5408 6.31575 12.6997 6.43296 12.8169C6.55017 12.9341 6.70914 13 6.8749 13C7.04067 13 7.19964 12.9341 7.31685 12.8169C7.43406 12.6997 7.49991 12.5408 7.49991 12.375V6.75C7.49991 6.58424 7.43406 6.42527 7.31685 6.30806C7.19964 6.19085 7.04067 6.125 6.8749 6.125C6.70914 6.125 6.55017 6.19085 6.43296 6.30806C6.31575 6.42527 6.2499 6.58424 6.2499 6.75Z" fill="black" fill-opacity="0.2"/>
<path d="M6.2499 6.75V12.375C6.2499 12.5408 6.31575 12.6997 6.43296 12.8169C6.55017 12.9341 6.70914 13 6.8749 13C7.04067 13 7.19964 12.9341 7.31685 12.8169C7.43406 12.6997 7.49991 12.5408 7.49991 12.375V6.75C7.49991 6.58424 7.43406 6.42527 7.31685 6.30806C7.19964 6.19085 7.04067 6.125 6.8749 6.125C6.70914 6.125 6.55017 6.19085 6.43296 6.30806C6.31575 6.42527 6.2499 6.58424 6.2499 6.75Z" fill="black" fill-opacity="0.2"/>
<path d="M6.2499 6.75V12.375C6.2499 12.5408 6.31575 12.6997 6.43296 12.8169C6.55017 12.9341 6.70914 13 6.8749 13C7.04067 13 7.19964 12.9341 7.31685 12.8169C7.43406 12.6997 7.49991 12.5408 7.49991 12.375V6.75C7.49991 6.58424 7.43406 6.42527 7.31685 6.30806C7.19964 6.19085 7.04067 6.125 6.8749 6.125C6.70914 6.125 6.55017 6.19085 6.43296 6.30806C6.31575 6.42527 6.2499 6.58424 6.2499 6.75Z" fill="black" fill-opacity="0.2"/>
<path d="M6.2499 6.75V12.375C6.2499 12.5408 6.31575 12.6997 6.43296 12.8169C6.55017 12.9341 6.70914 13 6.8749 13C7.04067 13 7.19964 12.9341 7.31685 12.8169C7.43406 12.6997 7.49991 12.5408 7.49991 12.375V6.75C7.49991 6.58424 7.43406 6.42527 7.31685 6.30806C7.19964 6.19085 7.04067 6.125 6.8749 6.125C6.70914 6.125 6.55017 6.19085 6.43296 6.30806C6.31575 6.42527 6.2499 6.58424 6.2499 6.75Z" fill="black" fill-opacity="0.2"/>
<path d="M6.2499 6.75V12.375C6.2499 12.5408 6.31575 12.6997 6.43296 12.8169C6.55017 12.9341 6.70914 13 6.8749 13C7.04067 13 7.19964 12.9341 7.31685 12.8169C7.43406 12.6997 7.49991 12.5408 7.49991 12.375V6.75C7.49991 6.58424 7.43406 6.42527 7.31685 6.30806C7.19964 6.19085 7.04067 6.125 6.8749 6.125C6.70914 6.125 6.55017 6.19085 6.43296 6.30806C6.31575 6.42527 6.2499 6.58424 6.2499 6.75Z" fill="black" fill-opacity="0.2"/>
<path d="M6.2499 6.75V12.375C6.2499 12.5408 6.31575 12.6997 6.43296 12.8169C6.55017 12.9341 6.70914 13 6.8749 13C7.04067 13 7.19964 12.9341 7.31685 12.8169C7.43406 12.6997 7.49991 12.5408 7.49991 12.375V6.75C7.49991 6.58424 7.43406 6.42527 7.31685 6.30806C7.19964 6.19085 7.04067 6.125 6.8749 6.125C6.70914 6.125 6.55017 6.19085 6.43296 6.30806C6.31575 6.42527 6.2499 6.58424 6.2499 6.75Z" fill="black" fill-opacity="0.2"/>
<path d="M6.2499 6.75V12.375C6.2499 12.5408 6.31575 12.6997 6.43296 12.8169C6.55017 12.9341 6.70914 13 6.8749 13C7.04067 13 7.19964 12.9341 7.31685 12.8169C7.43406 12.6997 7.49991 12.5408 7.49991 12.375V6.75C7.49991 6.58424 7.43406 6.42527 7.31685 6.30806C7.19964 6.19085 7.04067 6.125 6.8749 6.125C6.70914 6.125 6.55017 6.19085 6.43296 6.30806C6.31575 6.42527 6.2499 6.58424 6.2499 6.75Z" fill="black" fill-opacity="0.2"/>
<path d="M6.2499 6.75V12.375C6.2499 12.5408 6.31575 12.6997 6.43296 12.8169C6.55017 12.9341 6.70914 13 6.8749 13C7.04067 13 7.19964 12.9341 7.31685 12.8169C7.43406 12.6997 7.49991 12.5408 7.49991 12.375V6.75C7.49991 6.58424 7.43406 6.42527 7.31685 6.30806C7.19964 6.19085 7.04067 6.125 6.8749 6.125C6.70914 6.125 6.55017 6.19085 6.43296 6.30806C6.31575 6.42527 6.2499 6.58424 6.2499 6.75Z" fill="black" fill-opacity="0.2"/>
<path d="M6.2499 6.75V12.375C6.2499 12.5408 6.31575 12.6997 6.43296 12.8169C6.55017 12.9341 6.70914 13 6.8749 13C7.04067 13 7.19964 12.9341 7.31685 12.8169C7.43406 12.6997 7.49991 12.5408 7.49991 12.375V6.75C7.49991 6.58424 7.43406 6.42527 7.31685 6.30806C7.19964 6.19085 7.04067 6.125 6.8749 6.125C6.70914 6.125 6.55017 6.19085 6.43296 6.30806C6.31575 6.42527 6.2499 6.58424 6.2499 6.75Z" fill="black" fill-opacity="0.2"/>
<path d="M9.375 8.625V12.375C9.375 12.5408 9.44085 12.6997 9.55806 12.8169C9.67527 12.9341 9.83424 13 10 13C10.1658 13 10.3247 12.9341 10.4419 12.8169C10.5592 12.6997 10.625 12.5408 10.625 12.375V8.625C10.625 8.45924 10.5592 8.30027 10.4419 8.18306C10.3247 8.06585 10.1658 8 10 8C9.83424 8 9.67527 8.06585 9.55806 8.18306C9.44085 8.30027 9.375 8.45924 9.375 8.625Z" fill="#1E1E1E"/>
<path d="M9.375 8.625V12.375C9.375 12.5408 9.44085 12.6997 9.55806 12.8169C9.67527 12.9341 9.83424 13 10 13C10.1658 13 10.3247 12.9341 10.4419 12.8169C10.5592 12.6997 10.625 12.5408 10.625 12.375V8.625C10.625 8.45924 10.5592 8.30027 10.4419 8.18306C10.3247 8.06585 10.1658 8 10 8C9.83424 8 9.67527 8.06585 9.55806 8.18306C9.44085 8.30027 9.375 8.45924 9.375 8.625Z" fill="black" fill-opacity="0.2"/>
<path d="M9.375 8.625V12.375C9.375 12.5408 9.44085 12.6997 9.55806 12.8169C9.67527 12.9341 9.83424 13 10 13C10.1658 13 10.3247 12.9341 10.4419 12.8169C10.5592 12.6997 10.625 12.5408 10.625 12.375V8.625C10.625 8.45924 10.5592 8.30027 10.4419 8.18306C10.3247 8.06585 10.1658 8 10 8C9.83424 8 9.67527 8.06585 9.55806 8.18306C9.44085 8.30027 9.375 8.45924 9.375 8.625Z" fill="black" fill-opacity="0.2"/>
<path d="M9.375 8.625V12.375C9.375 12.5408 9.44085 12.6997 9.55806 12.8169C9.67527 12.9341 9.83424 13 10 13C10.1658 13 10.3247 12.9341 10.4419 12.8169C10.5592 12.6997 10.625 12.5408 10.625 12.375V8.625C10.625 8.45924 10.5592 8.30027 10.4419 8.18306C10.3247 8.06585 10.1658 8 10 8C9.83424 8 9.67527 8.06585 9.55806 8.18306C9.44085 8.30027 9.375 8.45924 9.375 8.625Z" fill="black" fill-opacity="0.2"/>
<path d="M9.375 8.625V12.375C9.375 12.5408 9.44085 12.6997 9.55806 12.8169C9.67527 12.9341 9.83424 13 10 13C10.1658 13 10.3247 12.9341 10.4419 12.8169C10.5592 12.6997 10.625 12.5408 10.625 12.375V8.625C10.625 8.45924 10.5592 8.30027 10.4419 8.18306C10.3247 8.06585 10.1658 8 10 8C9.83424 8 9.67527 8.06585 9.55806 8.18306C9.44085 8.30027 9.375 8.45924 9.375 8.625Z" fill="black" fill-opacity="0.2"/>
<path d="M9.375 8.625V12.375C9.375 12.5408 9.44085 12.6997 9.55806 12.8169C9.67527 12.9341 9.83424 13 10 13C10.1658 13 10.3247 12.9341 10.4419 12.8169C10.5592 12.6997 10.625 12.5408 10.625 12.375V8.625C10.625 8.45924 10.5592 8.30027 10.4419 8.18306C10.3247 8.06585 10.1658 8 10 8C9.83424 8 9.67527 8.06585 9.55806 8.18306C9.44085 8.30027 9.375 8.45924 9.375 8.625Z" fill="black" fill-opacity="0.2"/>
<path d="M9.375 8.625V12.375C9.375 12.5408 9.44085 12.6997 9.55806 12.8169C9.67527 12.9341 9.83424 13 10 13C10.1658 13 10.3247 12.9341 10.4419 12.8169C10.5592 12.6997 10.625 12.5408 10.625 12.375V8.625C10.625 8.45924 10.5592 8.30027 10.4419 8.18306C10.3247 8.06585 10.1658 8 10 8C9.83424 8 9.67527 8.06585 9.55806 8.18306C9.44085 8.30027 9.375 8.45924 9.375 8.625Z" fill="black" fill-opacity="0.2"/>
<path d="M9.375 8.625V12.375C9.375 12.5408 9.44085 12.6997 9.55806 12.8169C9.67527 12.9341 9.83424 13 10 13C10.1658 13 10.3247 12.9341 10.4419 12.8169C10.5592 12.6997 10.625 12.5408 10.625 12.375V8.625C10.625 8.45924 10.5592 8.30027 10.4419 8.18306C10.3247 8.06585 10.1658 8 10 8C9.83424 8 9.67527 8.06585 9.55806 8.18306C9.44085 8.30027 9.375 8.45924 9.375 8.625Z" fill="black" fill-opacity="0.2"/>
<path d="M9.375 8.625V12.375C9.375 12.5408 9.44085 12.6997 9.55806 12.8169C9.67527 12.9341 9.83424 13 10 13C10.1658 13 10.3247 12.9341 10.4419 12.8169C10.5592 12.6997 10.625 12.5408 10.625 12.375V8.625C10.625 8.45924 10.5592 8.30027 10.4419 8.18306C10.3247 8.06585 10.1658 8 10 8C9.83424 8 9.67527 8.06585 9.55806 8.18306C9.44085 8.30027 9.375 8.45924 9.375 8.625Z" fill="black" fill-opacity="0.2"/>
<path d="M9.375 8.625V12.375C9.375 12.5408 9.44085 12.6997 9.55806 12.8169C9.67527 12.9341 9.83424 13 10 13C10.1658 13 10.3247 12.9341 10.4419 12.8169C10.5592 12.6997 10.625 12.5408 10.625 12.375V8.625C10.625 8.45924 10.5592 8.30027 10.4419 8.18306C10.3247 8.06585 10.1658 8 10 8C9.83424 8 9.67527 8.06585 9.55806 8.18306C9.44085 8.30027 9.375 8.45924 9.375 8.625Z" fill="black" fill-opacity="0.2"/>
<path d="M9.375 8.625V12.375C9.375 12.5408 9.44085 12.6997 9.55806 12.8169C9.67527 12.9341 9.83424 13 10 13C10.1658 13 10.3247 12.9341 10.4419 12.8169C10.5592 12.6997 10.625 12.5408 10.625 12.375V8.625C10.625 8.45924 10.5592 8.30027 10.4419 8.18306C10.3247 8.06585 10.1658 8 10 8C9.83424 8 9.67527 8.06585 9.55806 8.18306C9.44085 8.30027 9.375 8.45924 9.375 8.625Z" fill="black" fill-opacity="0.2"/>
<path d="M9.375 8.625V12.375C9.375 12.5408 9.44085 12.6997 9.55806 12.8169C9.67527 12.9341 9.83424 13 10 13C10.1658 13 10.3247 12.9341 10.4419 12.8169C10.5592 12.6997 10.625 12.5408 10.625 12.375V8.625C10.625 8.45924 10.5592 8.30027 10.4419 8.18306C10.3247 8.06585 10.1658 8 10 8C9.83424 8 9.67527 8.06585 9.55806 8.18306C9.44085 8.30027 9.375 8.45924 9.375 8.625Z" fill="black" fill-opacity="0.2"/>
<path d="M9.375 8.625V12.375C9.375 12.5408 9.44085 12.6997 9.55806 12.8169C9.67527 12.9341 9.83424 13 10 13C10.1658 13 10.3247 12.9341 10.4419 12.8169C10.5592 12.6997 10.625 12.5408 10.625 12.375V8.625C10.625 8.45924 10.5592 8.30027 10.4419 8.18306C10.3247 8.06585 10.1658 8 10 8C9.83424 8 9.67527 8.06585 9.55806 8.18306C9.44085 8.30027 9.375 8.45924 9.375 8.625Z" fill="black" fill-opacity="0.2"/>
<path d="M9.375 8.625V12.375C9.375 12.5408 9.44085 12.6997 9.55806 12.8169C9.67527 12.9341 9.83424 13 10 13C10.1658 13 10.3247 12.9341 10.4419 12.8169C10.5592 12.6997 10.625 12.5408 10.625 12.375V8.625C10.625 8.45924 10.5592 8.30027 10.4419 8.18306C10.3247 8.06585 10.1658 8 10 8C9.83424 8 9.67527 8.06585 9.55806 8.18306C9.44085 8.30027 9.375 8.45924 9.375 8.625Z" fill="black" fill-opacity="0.2"/>
<path d="M9.375 8.625V12.375C9.375 12.5408 9.44085 12.6997 9.55806 12.8169C9.67527 12.9341 9.83424 13 10 13C10.1658 13 10.3247 12.9341 10.4419 12.8169C10.5592 12.6997 10.625 12.5408 10.625 12.375V8.625C10.625 8.45924 10.5592 8.30027 10.4419 8.18306C10.3247 8.06585 10.1658 8 10 8C9.83424 8 9.67527 8.06585 9.55806 8.18306C9.44085 8.30027 9.375 8.45924 9.375 8.625Z" fill="black" fill-opacity="0.2"/>
<path d="M9.375 8.625V12.375C9.375 12.5408 9.44085 12.6997 9.55806 12.8169C9.67527 12.9341 9.83424 13 10 13C10.1658 13 10.3247 12.9341 10.4419 12.8169C10.5592 12.6997 10.625 12.5408 10.625 12.375V8.625C10.625 8.45924 10.5592 8.30027 10.4419 8.18306C10.3247 8.06585 10.1658 8 10 8C9.83424 8 9.67527 8.06585 9.55806 8.18306C9.44085 8.30027 9.375 8.45924 9.375 8.625Z" fill="black" fill-opacity="0.2"/>
<path d="M9.375 8.625V12.375C9.375 12.5408 9.44085 12.6997 9.55806 12.8169C9.67527 12.9341 9.83424 13 10 13C10.1658 13 10.3247 12.9341 10.4419 12.8169C10.5592 12.6997 10.625 12.5408 10.625 12.375V8.625C10.625 8.45924 10.5592 8.30027 10.4419 8.18306C10.3247 8.06585 10.1658 8 10 8C9.83424 8 9.67527 8.06585 9.55806 8.18306C9.44085 8.30027 9.375 8.45924 9.375 8.625Z" fill="black" fill-opacity="0.2"/>
<path d="M12.5001 6.12495V12.3749C12.5001 12.5407 12.566 12.6997 12.6832 12.8169C12.8004 12.9341 12.9594 12.9999 13.1251 12.9999C13.2909 12.9999 13.4498 12.9341 13.5671 12.8169C13.6843 12.6997 13.7501 12.5407 13.7501 12.3749V6.12495C13.7501 5.95919 13.6843 5.80022 13.5671 5.683C13.4498 5.56579 13.2909 5.49995 13.1251 5.49995C12.9594 5.49995 12.8004 5.56579 12.6832 5.683C12.566 5.80022 12.5001 5.95919 12.5001 6.12495Z" fill="#1E1E1E"/>
<path d="M12.5001 6.12495V12.3749C12.5001 12.5407 12.566 12.6997 12.6832 12.8169C12.8004 12.9341 12.9594 12.9999 13.1251 12.9999C13.2909 12.9999 13.4498 12.9341 13.5671 12.8169C13.6843 12.6997 13.7501 12.5407 13.7501 12.3749V6.12495C13.7501 5.95919 13.6843 5.80022 13.5671 5.683C13.4498 5.56579 13.2909 5.49995 13.1251 5.49995C12.9594 5.49995 12.8004 5.56579 12.6832 5.683C12.566 5.80022 12.5001 5.95919 12.5001 6.12495Z" fill="black" fill-opacity="0.2"/>
<path d="M12.5001 6.12495V12.3749C12.5001 12.5407 12.566 12.6997 12.6832 12.8169C12.8004 12.9341 12.9594 12.9999 13.1251 12.9999C13.2909 12.9999 13.4498 12.9341 13.5671 12.8169C13.6843 12.6997 13.7501 12.5407 13.7501 12.3749V6.12495C13.7501 5.95919 13.6843 5.80022 13.5671 5.683C13.4498 5.56579 13.2909 5.49995 13.1251 5.49995C12.9594 5.49995 12.8004 5.56579 12.6832 5.683C12.566 5.80022 12.5001 5.95919 12.5001 6.12495Z" fill="black" fill-opacity="0.2"/>
<path d="M12.5001 6.12495V12.3749C12.5001 12.5407 12.566 12.6997 12.6832 12.8169C12.8004 12.9341 12.9594 12.9999 13.1251 12.9999C13.2909 12.9999 13.4498 12.9341 13.5671 12.8169C13.6843 12.6997 13.7501 12.5407 13.7501 12.3749V6.12495C13.7501 5.95919 13.6843 5.80022 13.5671 5.683C13.4498 5.56579 13.2909 5.49995 13.1251 5.49995C12.9594 5.49995 12.8004 5.56579 12.6832 5.683C12.566 5.80022 12.5001 5.95919 12.5001 6.12495Z" fill="black" fill-opacity="0.2"/>
<path d="M12.5001 6.12495V12.3749C12.5001 12.5407 12.566 12.6997 12.6832 12.8169C12.8004 12.9341 12.9594 12.9999 13.1251 12.9999C13.2909 12.9999 13.4498 12.9341 13.5671 12.8169C13.6843 12.6997 13.7501 12.5407 13.7501 12.3749V6.12495C13.7501 5.95919 13.6843 5.80022 13.5671 5.683C13.4498 5.56579 13.2909 5.49995 13.1251 5.49995C12.9594 5.49995 12.8004 5.56579 12.6832 5.683C12.566 5.80022 12.5001 5.95919 12.5001 6.12495Z" fill="black" fill-opacity="0.2"/>
<path d="M12.5001 6.12495V12.3749C12.5001 12.5407 12.566 12.6997 12.6832 12.8169C12.8004 12.9341 12.9594 12.9999 13.1251 12.9999C13.2909 12.9999 13.4498 12.9341 13.5671 12.8169C13.6843 12.6997 13.7501 12.5407 13.7501 12.3749V6.12495C13.7501 5.95919 13.6843 5.80022 13.5671 5.683C13.4498 5.56579 13.2909 5.49995 13.1251 5.49995C12.9594 5.49995 12.8004 5.56579 12.6832 5.683C12.566 5.80022 12.5001 5.95919 12.5001 6.12495Z" fill="black" fill-opacity="0.2"/>
<path d="M12.5001 6.12495V12.3749C12.5001 12.5407 12.566 12.6997 12.6832 12.8169C12.8004 12.9341 12.9594 12.9999 13.1251 12.9999C13.2909 12.9999 13.4498 12.9341 13.5671 12.8169C13.6843 12.6997 13.7501 12.5407 13.7501 12.3749V6.12495C13.7501 5.95919 13.6843 5.80022 13.5671 5.683C13.4498 5.56579 13.2909 5.49995 13.1251 5.49995C12.9594 5.49995 12.8004 5.56579 12.6832 5.683C12.566 5.80022 12.5001 5.95919 12.5001 6.12495Z" fill="black" fill-opacity="0.2"/>
<path d="M12.5001 6.12495V12.3749C12.5001 12.5407 12.566 12.6997 12.6832 12.8169C12.8004 12.9341 12.9594 12.9999 13.1251 12.9999C13.2909 12.9999 13.4498 12.9341 13.5671 12.8169C13.6843 12.6997 13.7501 12.5407 13.7501 12.3749V6.12495C13.7501 5.95919 13.6843 5.80022 13.5671 5.683C13.4498 5.56579 13.2909 5.49995 13.1251 5.49995C12.9594 5.49995 12.8004 5.56579 12.6832 5.683C12.566 5.80022 12.5001 5.95919 12.5001 6.12495Z" fill="black" fill-opacity="0.2"/>
<path d="M12.5001 6.12495V12.3749C12.5001 12.5407 12.566 12.6997 12.6832 12.8169C12.8004 12.9341 12.9594 12.9999 13.1251 12.9999C13.2909 12.9999 13.4498 12.9341 13.5671 12.8169C13.6843 12.6997 13.7501 12.5407 13.7501 12.3749V6.12495C13.7501 5.95919 13.6843 5.80022 13.5671 5.683C13.4498 5.56579 13.2909 5.49995 13.1251 5.49995C12.9594 5.49995 12.8004 5.56579 12.6832 5.683C12.566 5.80022 12.5001 5.95919 12.5001 6.12495Z" fill="black" fill-opacity="0.2"/>
<path d="M12.5001 6.12495V12.3749C12.5001 12.5407 12.566 12.6997 12.6832 12.8169C12.8004 12.9341 12.9594 12.9999 13.1251 12.9999C13.2909 12.9999 13.4498 12.9341 13.5671 12.8169C13.6843 12.6997 13.7501 12.5407 13.7501 12.3749V6.12495C13.7501 5.95919 13.6843 5.80022 13.5671 5.683C13.4498 5.56579 13.2909 5.49995 13.1251 5.49995C12.9594 5.49995 12.8004 5.56579 12.6832 5.683C12.566 5.80022 12.5001 5.95919 12.5001 6.12495Z" fill="black" fill-opacity="0.2"/>
<path d="M12.5001 6.12495V12.3749C12.5001 12.5407 12.566 12.6997 12.6832 12.8169C12.8004 12.9341 12.9594 12.9999 13.1251 12.9999C13.2909 12.9999 13.4498 12.9341 13.5671 12.8169C13.6843 12.6997 13.7501 12.5407 13.7501 12.3749V6.12495C13.7501 5.95919 13.6843 5.80022 13.5671 5.683C13.4498 5.56579 13.2909 5.49995 13.1251 5.49995C12.9594 5.49995 12.8004 5.56579 12.6832 5.683C12.566 5.80022 12.5001 5.95919 12.5001 6.12495Z" fill="black" fill-opacity="0.2"/>
<path d="M12.5001 6.12495V12.3749C12.5001 12.5407 12.566 12.6997 12.6832 12.8169C12.8004 12.9341 12.9594 12.9999 13.1251 12.9999C13.2909 12.9999 13.4498 12.9341 13.5671 12.8169C13.6843 12.6997 13.7501 12.5407 13.7501 12.3749V6.12495C13.7501 5.95919 13.6843 5.80022 13.5671 5.683C13.4498 5.56579 13.2909 5.49995 13.1251 5.49995C12.9594 5.49995 12.8004 5.56579 12.6832 5.683C12.566 5.80022 12.5001 5.95919 12.5001 6.12495Z" fill="black" fill-opacity="0.2"/>
<path d="M12.5001 6.12495V12.3749C12.5001 12.5407 12.566 12.6997 12.6832 12.8169C12.8004 12.9341 12.9594 12.9999 13.1251 12.9999C13.2909 12.9999 13.4498 12.9341 13.5671 12.8169C13.6843 12.6997 13.7501 12.5407 13.7501 12.3749V6.12495C13.7501 5.95919 13.6843 5.80022 13.5671 5.683C13.4498 5.56579 13.2909 5.49995 13.1251 5.49995C12.9594 5.49995 12.8004 5.56579 12.6832 5.683C12.566 5.80022 12.5001 5.95919 12.5001 6.12495Z" fill="black" fill-opacity="0.2"/>
<path d="M12.5001 6.12495V12.3749C12.5001 12.5407 12.566 12.6997 12.6832 12.8169C12.8004 12.9341 12.9594 12.9999 13.1251 12.9999C13.2909 12.9999 13.4498 12.9341 13.5671 12.8169C13.6843 12.6997 13.7501 12.5407 13.7501 12.3749V6.12495C13.7501 5.95919 13.6843 5.80022 13.5671 5.683C13.4498 5.56579 13.2909 5.49995 13.1251 5.49995C12.9594 5.49995 12.8004 5.56579 12.6832 5.683C12.566 5.80022 12.5001 5.95919 12.5001 6.12495Z" fill="black" fill-opacity="0.2"/>
<path d="M12.5001 6.12495V12.3749C12.5001 12.5407 12.566 12.6997 12.6832 12.8169C12.8004 12.9341 12.9594 12.9999 13.1251 12.9999C13.2909 12.9999 13.4498 12.9341 13.5671 12.8169C13.6843 12.6997 13.7501 12.5407 13.7501 12.3749V6.12495C13.7501 5.95919 13.6843 5.80022 13.5671 5.683C13.4498 5.56579 13.2909 5.49995 13.1251 5.49995C12.9594 5.49995 12.8004 5.56579 12.6832 5.683C12.566 5.80022 12.5001 5.95919 12.5001 6.12495Z" fill="black" fill-opacity="0.2"/>
<path d="M12.5001 6.12495V12.3749C12.5001 12.5407 12.566 12.6997 12.6832 12.8169C12.8004 12.9341 12.9594 12.9999 13.1251 12.9999C13.2909 12.9999 13.4498 12.9341 13.5671 12.8169C13.6843 12.6997 13.7501 12.5407 13.7501 12.3749V6.12495C13.7501 5.95919 13.6843 5.80022 13.5671 5.683C13.4498 5.56579 13.2909 5.49995 13.1251 5.49995C12.9594 5.49995 12.8004 5.56579 12.6832 5.683C12.566 5.80022 12.5001 5.95919 12.5001 6.12495Z" fill="black" fill-opacity="0.2"/>
<path d="M12.5001 6.12495V12.3749C12.5001 12.5407 12.566 12.6997 12.6832 12.8169C12.8004 12.9341 12.9594 12.9999 13.1251 12.9999C13.2909 12.9999 13.4498 12.9341 13.5671 12.8169C13.6843 12.6997 13.7501 12.5407 13.7501 12.3749V6.12495C13.7501 5.95919 13.6843 5.80022 13.5671 5.683C13.4498 5.56579 13.2909 5.49995 13.1251 5.49995C12.9594 5.49995 12.8004 5.56579 12.6832 5.683C12.566 5.80022 12.5001 5.95919 12.5001 6.12495Z" fill="black" fill-opacity="0.2"/>
<path d="M3.7499 6.12496C3.91564 6.12492 4.07459 6.05905 4.19177 5.94183L6.43302 3.70058C6.55215 3.5871 6.71037 3.5238 6.8749 3.5238C7.03943 3.5238 7.19765 3.5871 7.31677 3.70058L8.67427 5.05808C9.02589 5.40959 9.50271 5.60706 9.9999 5.60706C10.4971 5.60706 10.9739 5.40959 11.3255 5.05808L14.8168 1.56683C14.9306 1.44896 14.9936 1.29108 14.9922 1.12721C14.9908 0.963333 14.925 0.806575 14.8092 0.690695C14.6933 0.574815 14.5365 0.509085 14.3726 0.507661C14.2088 0.506237 14.0509 0.569233 13.933 0.683082L10.4418 4.17371C10.3246 4.29088 10.1656 4.3567 9.9999 4.3567C9.83417 4.3567 9.67523 4.29088 9.55802 4.17371L8.20052 2.81683C7.84891 2.46532 7.37208 2.26786 6.8749 2.26786C6.37771 2.26786 5.90089 2.46532 5.54927 2.81683L3.30802 5.05808C3.22064 5.14549 3.16114 5.25684 3.13703 5.37806C3.11293 5.49928 3.1253 5.62493 3.1726 5.73912C3.21989 5.8533 3.29998 5.95091 3.40274 6.01958C3.50549 6.08826 3.6263 6.12493 3.7499 6.12496V6.12496Z" fill="#1E1E1E"/>
<path d="M3.7499 6.12496C3.91564 6.12492 4.07459 6.05905 4.19177 5.94183L6.43302 3.70058C6.55215 3.5871 6.71037 3.5238 6.8749 3.5238C7.03943 3.5238 7.19765 3.5871 7.31677 3.70058L8.67427 5.05808C9.02589 5.40959 9.50271 5.60706 9.9999 5.60706C10.4971 5.60706 10.9739 5.40959 11.3255 5.05808L14.8168 1.56683C14.9306 1.44896 14.9936 1.29108 14.9922 1.12721C14.9908 0.963333 14.925 0.806575 14.8092 0.690695C14.6933 0.574815 14.5365 0.509085 14.3726 0.507661C14.2088 0.506237 14.0509 0.569233 13.933 0.683082L10.4418 4.17371C10.3246 4.29088 10.1656 4.3567 9.9999 4.3567C9.83417 4.3567 9.67523 4.29088 9.55802 4.17371L8.20052 2.81683C7.84891 2.46532 7.37208 2.26786 6.8749 2.26786C6.37771 2.26786 5.90089 2.46532 5.54927 2.81683L3.30802 5.05808C3.22064 5.14549 3.16114 5.25684 3.13703 5.37806C3.11293 5.49928 3.1253 5.62493 3.1726 5.73912C3.21989 5.8533 3.29998 5.95091 3.40274 6.01958C3.50549 6.08826 3.6263 6.12493 3.7499 6.12496V6.12496Z" fill="black" fill-opacity="0.2"/>
<path d="M3.7499 6.12496C3.91564 6.12492 4.07459 6.05905 4.19177 5.94183L6.43302 3.70058C6.55215 3.5871 6.71037 3.5238 6.8749 3.5238C7.03943 3.5238 7.19765 3.5871 7.31677 3.70058L8.67427 5.05808C9.02589 5.40959 9.50271 5.60706 9.9999 5.60706C10.4971 5.60706 10.9739 5.40959 11.3255 5.05808L14.8168 1.56683C14.9306 1.44896 14.9936 1.29108 14.9922 1.12721C14.9908 0.963333 14.925 0.806575 14.8092 0.690695C14.6933 0.574815 14.5365 0.509085 14.3726 0.507661C14.2088 0.506237 14.0509 0.569233 13.933 0.683082L10.4418 4.17371C10.3246 4.29088 10.1656 4.3567 9.9999 4.3567C9.83417 4.3567 9.67523 4.29088 9.55802 4.17371L8.20052 2.81683C7.84891 2.46532 7.37208 2.26786 6.8749 2.26786C6.37771 2.26786 5.90089 2.46532 5.54927 2.81683L3.30802 5.05808C3.22064 5.14549 3.16114 5.25684 3.13703 5.37806C3.11293 5.49928 3.1253 5.62493 3.1726 5.73912C3.21989 5.8533 3.29998 5.95091 3.40274 6.01958C3.50549 6.08826 3.6263 6.12493 3.7499 6.12496V6.12496Z" fill="black" fill-opacity="0.2"/>
<path d="M3.7499 6.12496C3.91564 6.12492 4.07459 6.05905 4.19177 5.94183L6.43302 3.70058C6.55215 3.5871 6.71037 3.5238 6.8749 3.5238C7.03943 3.5238 7.19765 3.5871 7.31677 3.70058L8.67427 5.05808C9.02589 5.40959 9.50271 5.60706 9.9999 5.60706C10.4971 5.60706 10.9739 5.40959 11.3255 5.05808L14.8168 1.56683C14.9306 1.44896 14.9936 1.29108 14.9922 1.12721C14.9908 0.963333 14.925 0.806575 14.8092 0.690695C14.6933 0.574815 14.5365 0.509085 14.3726 0.507661C14.2088 0.506237 14.0509 0.569233 13.933 0.683082L10.4418 4.17371C10.3246 4.29088 10.1656 4.3567 9.9999 4.3567C9.83417 4.3567 9.67523 4.29088 9.55802 4.17371L8.20052 2.81683C7.84891 2.46532 7.37208 2.26786 6.8749 2.26786C6.37771 2.26786 5.90089 2.46532 5.54927 2.81683L3.30802 5.05808C3.22064 5.14549 3.16114 5.25684 3.13703 5.37806C3.11293 5.49928 3.1253 5.62493 3.1726 5.73912C3.21989 5.8533 3.29998 5.95091 3.40274 6.01958C3.50549 6.08826 3.6263 6.12493 3.7499 6.12496V6.12496Z" fill="black" fill-opacity="0.2"/>
<path d="M3.7499 6.12496C3.91564 6.12492 4.07459 6.05905 4.19177 5.94183L6.43302 3.70058C6.55215 3.5871 6.71037 3.5238 6.8749 3.5238C7.03943 3.5238 7.19765 3.5871 7.31677 3.70058L8.67427 5.05808C9.02589 5.40959 9.50271 5.60706 9.9999 5.60706C10.4971 5.60706 10.9739 5.40959 11.3255 5.05808L14.8168 1.56683C14.9306 1.44896 14.9936 1.29108 14.9922 1.12721C14.9908 0.963333 14.925 0.806575 14.8092 0.690695C14.6933 0.574815 14.5365 0.509085 14.3726 0.507661C14.2088 0.506237 14.0509 0.569233 13.933 0.683082L10.4418 4.17371C10.3246 4.29088 10.1656 4.3567 9.9999 4.3567C9.83417 4.3567 9.67523 4.29088 9.55802 4.17371L8.20052 2.81683C7.84891 2.46532 7.37208 2.26786 6.8749 2.26786C6.37771 2.26786 5.90089 2.46532 5.54927 2.81683L3.30802 5.05808C3.22064 5.14549 3.16114 5.25684 3.13703 5.37806C3.11293 5.49928 3.1253 5.62493 3.1726 5.73912C3.21989 5.8533 3.29998 5.95091 3.40274 6.01958C3.50549 6.08826 3.6263 6.12493 3.7499 6.12496V6.12496Z" fill="black" fill-opacity="0.2"/>
<path d="M3.7499 6.12496C3.91564 6.12492 4.07459 6.05905 4.19177 5.94183L6.43302 3.70058C6.55215 3.5871 6.71037 3.5238 6.8749 3.5238C7.03943 3.5238 7.19765 3.5871 7.31677 3.70058L8.67427 5.05808C9.02589 5.40959 9.50271 5.60706 9.9999 5.60706C10.4971 5.60706 10.9739 5.40959 11.3255 5.05808L14.8168 1.56683C14.9306 1.44896 14.9936 1.29108 14.9922 1.12721C14.9908 0.963333 14.925 0.806575 14.8092 0.690695C14.6933 0.574815 14.5365 0.509085 14.3726 0.507661C14.2088 0.506237 14.0509 0.569233 13.933 0.683082L10.4418 4.17371C10.3246 4.29088 10.1656 4.3567 9.9999 4.3567C9.83417 4.3567 9.67523 4.29088 9.55802 4.17371L8.20052 2.81683C7.84891 2.46532 7.37208 2.26786 6.8749 2.26786C6.37771 2.26786 5.90089 2.46532 5.54927 2.81683L3.30802 5.05808C3.22064 5.14549 3.16114 5.25684 3.13703 5.37806C3.11293 5.49928 3.1253 5.62493 3.1726 5.73912C3.21989 5.8533 3.29998 5.95091 3.40274 6.01958C3.50549 6.08826 3.6263 6.12493 3.7499 6.12496V6.12496Z" fill="black" fill-opacity="0.2"/>
<path d="M3.7499 6.12496C3.91564 6.12492 4.07459 6.05905 4.19177 5.94183L6.43302 3.70058C6.55215 3.5871 6.71037 3.5238 6.8749 3.5238C7.03943 3.5238 7.19765 3.5871 7.31677 3.70058L8.67427 5.05808C9.02589 5.40959 9.50271 5.60706 9.9999 5.60706C10.4971 5.60706 10.9739 5.40959 11.3255 5.05808L14.8168 1.56683C14.9306 1.44896 14.9936 1.29108 14.9922 1.12721C14.9908 0.963333 14.925 0.806575 14.8092 0.690695C14.6933 0.574815 14.5365 0.509085 14.3726 0.507661C14.2088 0.506237 14.0509 0.569233 13.933 0.683082L10.4418 4.17371C10.3246 4.29088 10.1656 4.3567 9.9999 4.3567C9.83417 4.3567 9.67523 4.29088 9.55802 4.17371L8.20052 2.81683C7.84891 2.46532 7.37208 2.26786 6.8749 2.26786C6.37771 2.26786 5.90089 2.46532 5.54927 2.81683L3.30802 5.05808C3.22064 5.14549 3.16114 5.25684 3.13703 5.37806C3.11293 5.49928 3.1253 5.62493 3.1726 5.73912C3.21989 5.8533 3.29998 5.95091 3.40274 6.01958C3.50549 6.08826 3.6263 6.12493 3.7499 6.12496V6.12496Z" fill="black" fill-opacity="0.2"/>
<path d="M3.7499 6.12496C3.91564 6.12492 4.07459 6.05905 4.19177 5.94183L6.43302 3.70058C6.55215 3.5871 6.71037 3.5238 6.8749 3.5238C7.03943 3.5238 7.19765 3.5871 7.31677 3.70058L8.67427 5.05808C9.02589 5.40959 9.50271 5.60706 9.9999 5.60706C10.4971 5.60706 10.9739 5.40959 11.3255 5.05808L14.8168 1.56683C14.9306 1.44896 14.9936 1.29108 14.9922 1.12721C14.9908 0.963333 14.925 0.806575 14.8092 0.690695C14.6933 0.574815 14.5365 0.509085 14.3726 0.507661C14.2088 0.506237 14.0509 0.569233 13.933 0.683082L10.4418 4.17371C10.3246 4.29088 10.1656 4.3567 9.9999 4.3567C9.83417 4.3567 9.67523 4.29088 9.55802 4.17371L8.20052 2.81683C7.84891 2.46532 7.37208 2.26786 6.8749 2.26786C6.37771 2.26786 5.90089 2.46532 5.54927 2.81683L3.30802 5.05808C3.22064 5.14549 3.16114 5.25684 3.13703 5.37806C3.11293 5.49928 3.1253 5.62493 3.1726 5.73912C3.21989 5.8533 3.29998 5.95091 3.40274 6.01958C3.50549 6.08826 3.6263 6.12493 3.7499 6.12496V6.12496Z" fill="black" fill-opacity="0.2"/>
<path d="M3.7499 6.12496C3.91564 6.12492 4.07459 6.05905 4.19177 5.94183L6.43302 3.70058C6.55215 3.5871 6.71037 3.5238 6.8749 3.5238C7.03943 3.5238 7.19765 3.5871 7.31677 3.70058L8.67427 5.05808C9.02589 5.40959 9.50271 5.60706 9.9999 5.60706C10.4971 5.60706 10.9739 5.40959 11.3255 5.05808L14.8168 1.56683C14.9306 1.44896 14.9936 1.29108 14.9922 1.12721C14.9908 0.963333 14.925 0.806575 14.8092 0.690695C14.6933 0.574815 14.5365 0.509085 14.3726 0.507661C14.2088 0.506237 14.0509 0.569233 13.933 0.683082L10.4418 4.17371C10.3246 4.29088 10.1656 4.3567 9.9999 4.3567C9.83417 4.3567 9.67523 4.29088 9.55802 4.17371L8.20052 2.81683C7.84891 2.46532 7.37208 2.26786 6.8749 2.26786C6.37771 2.26786 5.90089 2.46532 5.54927 2.81683L3.30802 5.05808C3.22064 5.14549 3.16114 5.25684 3.13703 5.37806C3.11293 5.49928 3.1253 5.62493 3.1726 5.73912C3.21989 5.8533 3.29998 5.95091 3.40274 6.01958C3.50549 6.08826 3.6263 6.12493 3.7499 6.12496V6.12496Z" fill="black" fill-opacity="0.2"/>
<path d="M3.7499 6.12496C3.91564 6.12492 4.07459 6.05905 4.19177 5.94183L6.43302 3.70058C6.55215 3.5871 6.71037 3.5238 6.8749 3.5238C7.03943 3.5238 7.19765 3.5871 7.31677 3.70058L8.67427 5.05808C9.02589 5.40959 9.50271 5.60706 9.9999 5.60706C10.4971 5.60706 10.9739 5.40959 11.3255 5.05808L14.8168 1.56683C14.9306 1.44896 14.9936 1.29108 14.9922 1.12721C14.9908 0.963333 14.925 0.806575 14.8092 0.690695C14.6933 0.574815 14.5365 0.509085 14.3726 0.507661C14.2088 0.506237 14.0509 0.569233 13.933 0.683082L10.4418 4.17371C10.3246 4.29088 10.1656 4.3567 9.9999 4.3567C9.83417 4.3567 9.67523 4.29088 9.55802 4.17371L8.20052 2.81683C7.84891 2.46532 7.37208 2.26786 6.8749 2.26786C6.37771 2.26786 5.90089 2.46532 5.54927 2.81683L3.30802 5.05808C3.22064 5.14549 3.16114 5.25684 3.13703 5.37806C3.11293 5.49928 3.1253 5.62493 3.1726 5.73912C3.21989 5.8533 3.29998 5.95091 3.40274 6.01958C3.50549 6.08826 3.6263 6.12493 3.7499 6.12496V6.12496Z" fill="black" fill-opacity="0.2"/>
<path d="M3.7499 6.12496C3.91564 6.12492 4.07459 6.05905 4.19177 5.94183L6.43302 3.70058C6.55215 3.5871 6.71037 3.5238 6.8749 3.5238C7.03943 3.5238 7.19765 3.5871 7.31677 3.70058L8.67427 5.05808C9.02589 5.40959 9.50271 5.60706 9.9999 5.60706C10.4971 5.60706 10.9739 5.40959 11.3255 5.05808L14.8168 1.56683C14.9306 1.44896 14.9936 1.29108 14.9922 1.12721C14.9908 0.963333 14.925 0.806575 14.8092 0.690695C14.6933 0.574815 14.5365 0.509085 14.3726 0.507661C14.2088 0.506237 14.0509 0.569233 13.933 0.683082L10.4418 4.17371C10.3246 4.29088 10.1656 4.3567 9.9999 4.3567C9.83417 4.3567 9.67523 4.29088 9.55802 4.17371L8.20052 2.81683C7.84891 2.46532 7.37208 2.26786 6.8749 2.26786C6.37771 2.26786 5.90089 2.46532 5.54927 2.81683L3.30802 5.05808C3.22064 5.14549 3.16114 5.25684 3.13703 5.37806C3.11293 5.49928 3.1253 5.62493 3.1726 5.73912C3.21989 5.8533 3.29998 5.95091 3.40274 6.01958C3.50549 6.08826 3.6263 6.12493 3.7499 6.12496V6.12496Z" fill="black" fill-opacity="0.2"/>
<path d="M3.7499 6.12496C3.91564 6.12492 4.07459 6.05905 4.19177 5.94183L6.43302 3.70058C6.55215 3.5871 6.71037 3.5238 6.8749 3.5238C7.03943 3.5238 7.19765 3.5871 7.31677 3.70058L8.67427 5.05808C9.02589 5.40959 9.50271 5.60706 9.9999 5.60706C10.4971 5.60706 10.9739 5.40959 11.3255 5.05808L14.8168 1.56683C14.9306 1.44896 14.9936 1.29108 14.9922 1.12721C14.9908 0.963333 14.925 0.806575 14.8092 0.690695C14.6933 0.574815 14.5365 0.509085 14.3726 0.507661C14.2088 0.506237 14.0509 0.569233 13.933 0.683082L10.4418 4.17371C10.3246 4.29088 10.1656 4.3567 9.9999 4.3567C9.83417 4.3567 9.67523 4.29088 9.55802 4.17371L8.20052 2.81683C7.84891 2.46532 7.37208 2.26786 6.8749 2.26786C6.37771 2.26786 5.90089 2.46532 5.54927 2.81683L3.30802 5.05808C3.22064 5.14549 3.16114 5.25684 3.13703 5.37806C3.11293 5.49928 3.1253 5.62493 3.1726 5.73912C3.21989 5.8533 3.29998 5.95091 3.40274 6.01958C3.50549 6.08826 3.6263 6.12493 3.7499 6.12496V6.12496Z" fill="black" fill-opacity="0.2"/>
<path d="M3.7499 6.12496C3.91564 6.12492 4.07459 6.05905 4.19177 5.94183L6.43302 3.70058C6.55215 3.5871 6.71037 3.5238 6.8749 3.5238C7.03943 3.5238 7.19765 3.5871 7.31677 3.70058L8.67427 5.05808C9.02589 5.40959 9.50271 5.60706 9.9999 5.60706C10.4971 5.60706 10.9739 5.40959 11.3255 5.05808L14.8168 1.56683C14.9306 1.44896 14.9936 1.29108 14.9922 1.12721C14.9908 0.963333 14.925 0.806575 14.8092 0.690695C14.6933 0.574815 14.5365 0.509085 14.3726 0.507661C14.2088 0.506237 14.0509 0.569233 13.933 0.683082L10.4418 4.17371C10.3246 4.29088 10.1656 4.3567 9.9999 4.3567C9.83417 4.3567 9.67523 4.29088 9.55802 4.17371L8.20052 2.81683C7.84891 2.46532 7.37208 2.26786 6.8749 2.26786C6.37771 2.26786 5.90089 2.46532 5.54927 2.81683L3.30802 5.05808C3.22064 5.14549 3.16114 5.25684 3.13703 5.37806C3.11293 5.49928 3.1253 5.62493 3.1726 5.73912C3.21989 5.8533 3.29998 5.95091 3.40274 6.01958C3.50549 6.08826 3.6263 6.12493 3.7499 6.12496V6.12496Z" fill="black" fill-opacity="0.2"/>
<path d="M3.7499 6.12496C3.91564 6.12492 4.07459 6.05905 4.19177 5.94183L6.43302 3.70058C6.55215 3.5871 6.71037 3.5238 6.8749 3.5238C7.03943 3.5238 7.19765 3.5871 7.31677 3.70058L8.67427 5.05808C9.02589 5.40959 9.50271 5.60706 9.9999 5.60706C10.4971 5.60706 10.9739 5.40959 11.3255 5.05808L14.8168 1.56683C14.9306 1.44896 14.9936 1.29108 14.9922 1.12721C14.9908 0.963333 14.925 0.806575 14.8092 0.690695C14.6933 0.574815 14.5365 0.509085 14.3726 0.507661C14.2088 0.506237 14.0509 0.569233 13.933 0.683082L10.4418 4.17371C10.3246 4.29088 10.1656 4.3567 9.9999 4.3567C9.83417 4.3567 9.67523 4.29088 9.55802 4.17371L8.20052 2.81683C7.84891 2.46532 7.37208 2.26786 6.8749 2.26786C6.37771 2.26786 5.90089 2.46532 5.54927 2.81683L3.30802 5.05808C3.22064 5.14549 3.16114 5.25684 3.13703 5.37806C3.11293 5.49928 3.1253 5.62493 3.1726 5.73912C3.21989 5.8533 3.29998 5.95091 3.40274 6.01958C3.50549 6.08826 3.6263 6.12493 3.7499 6.12496V6.12496Z" fill="black" fill-opacity="0.2"/>
<path d="M3.7499 6.12496C3.91564 6.12492 4.07459 6.05905 4.19177 5.94183L6.43302 3.70058C6.55215 3.5871 6.71037 3.5238 6.8749 3.5238C7.03943 3.5238 7.19765 3.5871 7.31677 3.70058L8.67427 5.05808C9.02589 5.40959 9.50271 5.60706 9.9999 5.60706C10.4971 5.60706 10.9739 5.40959 11.3255 5.05808L14.8168 1.56683C14.9306 1.44896 14.9936 1.29108 14.9922 1.12721C14.9908 0.963333 14.925 0.806575 14.8092 0.690695C14.6933 0.574815 14.5365 0.509085 14.3726 0.507661C14.2088 0.506237 14.0509 0.569233 13.933 0.683082L10.4418 4.17371C10.3246 4.29088 10.1656 4.3567 9.9999 4.3567C9.83417 4.3567 9.67523 4.29088 9.55802 4.17371L8.20052 2.81683C7.84891 2.46532 7.37208 2.26786 6.8749 2.26786C6.37771 2.26786 5.90089 2.46532 5.54927 2.81683L3.30802 5.05808C3.22064 5.14549 3.16114 5.25684 3.13703 5.37806C3.11293 5.49928 3.1253 5.62493 3.1726 5.73912C3.21989 5.8533 3.29998 5.95091 3.40274 6.01958C3.50549 6.08826 3.6263 6.12493 3.7499 6.12496V6.12496Z" fill="black" fill-opacity="0.2"/>
<path d="M3.7499 6.12496C3.91564 6.12492 4.07459 6.05905 4.19177 5.94183L6.43302 3.70058C6.55215 3.5871 6.71037 3.5238 6.8749 3.5238C7.03943 3.5238 7.19765 3.5871 7.31677 3.70058L8.67427 5.05808C9.02589 5.40959 9.50271 5.60706 9.9999 5.60706C10.4971 5.60706 10.9739 5.40959 11.3255 5.05808L14.8168 1.56683C14.9306 1.44896 14.9936 1.29108 14.9922 1.12721C14.9908 0.963333 14.925 0.806575 14.8092 0.690695C14.6933 0.574815 14.5365 0.509085 14.3726 0.507661C14.2088 0.506237 14.0509 0.569233 13.933 0.683082L10.4418 4.17371C10.3246 4.29088 10.1656 4.3567 9.9999 4.3567C9.83417 4.3567 9.67523 4.29088 9.55802 4.17371L8.20052 2.81683C7.84891 2.46532 7.37208 2.26786 6.8749 2.26786C6.37771 2.26786 5.90089 2.46532 5.54927 2.81683L3.30802 5.05808C3.22064 5.14549 3.16114 5.25684 3.13703 5.37806C3.11293 5.49928 3.1253 5.62493 3.1726 5.73912C3.21989 5.8533 3.29998 5.95091 3.40274 6.01958C3.50549 6.08826 3.6263 6.12493 3.7499 6.12496V6.12496Z" fill="black" fill-opacity="0.2"/>
<path d="M3.7499 6.12496C3.91564 6.12492 4.07459 6.05905 4.19177 5.94183L6.43302 3.70058C6.55215 3.5871 6.71037 3.5238 6.8749 3.5238C7.03943 3.5238 7.19765 3.5871 7.31677 3.70058L8.67427 5.05808C9.02589 5.40959 9.50271 5.60706 9.9999 5.60706C10.4971 5.60706 10.9739 5.40959 11.3255 5.05808L14.8168 1.56683C14.9306 1.44896 14.9936 1.29108 14.9922 1.12721C14.9908 0.963333 14.925 0.806575 14.8092 0.690695C14.6933 0.574815 14.5365 0.509085 14.3726 0.507661C14.2088 0.506237 14.0509 0.569233 13.933 0.683082L10.4418 4.17371C10.3246 4.29088 10.1656 4.3567 9.9999 4.3567C9.83417 4.3567 9.67523 4.29088 9.55802 4.17371L8.20052 2.81683C7.84891 2.46532 7.37208 2.26786 6.8749 2.26786C6.37771 2.26786 5.90089 2.46532 5.54927 2.81683L3.30802 5.05808C3.22064 5.14549 3.16114 5.25684 3.13703 5.37806C3.11293 5.49928 3.1253 5.62493 3.1726 5.73912C3.21989 5.8533 3.29998 5.95091 3.40274 6.01958C3.50549 6.08826 3.6263 6.12493 3.7499 6.12496V6.12496Z" fill="black" fill-opacity="0.2"/>
</g>
<defs>
<clipPath id="clip0_1_10">
<rect width="15" height="15" fill="white" transform="translate(0 0.5)"/>
</clipPath>
</defs>
</svg>
