<svg width="15" height="16" viewBox="0 0 15 16" fill="none" xmlns="http://www.w3.org/2000/svg">
<g clip-path="url(#clip0_7243_39300)">
<path d="M14.0969 9.03874L12.9094 4.76624C12.5614 3.51457 11.8049 2.41517 10.7603 1.64278C9.71564 0.870398 8.44281 0.469356 7.14409 0.503406C5.84537 0.537456 4.59531 1.00464 3.59259 1.83071C2.58987 2.65677 1.89205 3.7943 1.61005 5.06249L0.690675 9.19686C0.589122 9.6537 0.59147 10.1275 0.697545 10.5833C0.803621 11.0391 1.01071 11.4653 1.30354 11.8303C1.59636 12.1954 1.96744 12.49 2.38937 12.6925C2.8113 12.8949 3.27331 13 3.7413 13H4.43755C4.581 13.7064 4.96426 14.3415 5.52239 14.7977C6.08052 15.2539 6.7792 15.5031 7.50005 15.5031C8.2209 15.5031 8.91958 15.2539 9.47771 14.7977C10.0358 14.3415 10.4191 13.7064 10.5625 13H11.0863C11.5681 13 12.0433 12.8887 12.4749 12.6746C12.9065 12.4606 13.2828 12.1497 13.5743 11.7662C13.8659 11.3826 14.0648 10.9369 14.1556 10.4638C14.2463 9.99063 14.2265 9.50293 14.0975 9.03874H14.0969ZM7.50005 14.25C7.11364 14.2484 6.73716 14.1274 6.42211 13.9037C6.10707 13.6799 5.86885 13.3643 5.74005 13H9.26005C9.13125 13.3643 8.89303 13.6799 8.57799 13.9037C8.26294 14.1274 7.88646 14.2484 7.50005 14.25ZM12.5788 11.0094C12.4046 11.2404 12.179 11.4276 11.9198 11.5562C11.6606 11.6848 11.375 11.7511 11.0857 11.75H3.7413C3.46054 11.7499 3.18338 11.6868 2.93026 11.5654C2.67715 11.4439 2.45455 11.2671 2.2789 11.0481C2.10325 10.829 1.97903 10.5733 1.9154 10.2999C1.85178 10.0264 1.85037 9.74218 1.9113 9.46811L2.83005 5.33311C3.05152 4.33699 3.59962 3.44349 4.38721 2.79465C5.1748 2.1458 6.15669 1.77885 7.17678 1.75212C8.19688 1.7254 9.19663 2.04044 10.0171 2.64716C10.8376 3.25388 11.4317 4.11746 11.705 5.10061L12.8925 9.37311C12.971 9.65147 12.9835 9.94429 12.929 10.2283C12.8746 10.5124 12.7547 10.7798 12.5788 11.0094Z" fill="#1E1E1E"/>
<path d="M14.0969 9.03874L12.9094 4.76624C12.5614 3.51457 11.8049 2.41517 10.7603 1.64278C9.71564 0.870398 8.44281 0.469356 7.14409 0.503406C5.84537 0.537456 4.59531 1.00464 3.59259 1.83071C2.58987 2.65677 1.89205 3.7943 1.61005 5.06249L0.690675 9.19686C0.589122 9.6537 0.59147 10.1275 0.697545 10.5833C0.803621 11.0391 1.01071 11.4653 1.30354 11.8303C1.59636 12.1954 1.96744 12.49 2.38937 12.6925C2.8113 12.8949 3.27331 13 3.7413 13H4.43755C4.581 13.7064 4.96426 14.3415 5.52239 14.7977C6.08052 15.2539 6.7792 15.5031 7.50005 15.5031C8.2209 15.5031 8.91958 15.2539 9.47771 14.7977C10.0358 14.3415 10.4191 13.7064 10.5625 13H11.0863C11.5681 13 12.0433 12.8887 12.4749 12.6746C12.9065 12.4606 13.2828 12.1497 13.5743 11.7662C13.8659 11.3826 14.0648 10.9369 14.1556 10.4638C14.2463 9.99063 14.2265 9.50293 14.0975 9.03874H14.0969ZM7.50005 14.25C7.11364 14.2484 6.73716 14.1274 6.42211 13.9037C6.10707 13.6799 5.86885 13.3643 5.74005 13H9.26005C9.13125 13.3643 8.89303 13.6799 8.57799 13.9037C8.26294 14.1274 7.88646 14.2484 7.50005 14.25ZM12.5788 11.0094C12.4046 11.2404 12.179 11.4276 11.9198 11.5562C11.6606 11.6848 11.375 11.7511 11.0857 11.75H3.7413C3.46054 11.7499 3.18338 11.6868 2.93026 11.5654C2.67715 11.4439 2.45455 11.2671 2.2789 11.0481C2.10325 10.829 1.97903 10.5733 1.9154 10.2999C1.85178 10.0264 1.85037 9.74218 1.9113 9.46811L2.83005 5.33311C3.05152 4.33699 3.59962 3.44349 4.38721 2.79465C5.1748 2.1458 6.15669 1.77885 7.17678 1.75212C8.19688 1.7254 9.19663 2.04044 10.0171 2.64716C10.8376 3.25388 11.4317 4.11746 11.705 5.10061L12.8925 9.37311C12.971 9.65147 12.9835 9.94429 12.929 10.2283C12.8746 10.5124 12.7547 10.7798 12.5788 11.0094Z" fill="black" fill-opacity="0.2"/>
<path d="M14.0969 9.03874L12.9094 4.76624C12.5614 3.51457 11.8049 2.41517 10.7603 1.64278C9.71564 0.870398 8.44281 0.469356 7.14409 0.503406C5.84537 0.537456 4.59531 1.00464 3.59259 1.83071C2.58987 2.65677 1.89205 3.7943 1.61005 5.06249L0.690675 9.19686C0.589122 9.6537 0.59147 10.1275 0.697545 10.5833C0.803621 11.0391 1.01071 11.4653 1.30354 11.8303C1.59636 12.1954 1.96744 12.49 2.38937 12.6925C2.8113 12.8949 3.27331 13 3.7413 13H4.43755C4.581 13.7064 4.96426 14.3415 5.52239 14.7977C6.08052 15.2539 6.7792 15.5031 7.50005 15.5031C8.2209 15.5031 8.91958 15.2539 9.47771 14.7977C10.0358 14.3415 10.4191 13.7064 10.5625 13H11.0863C11.5681 13 12.0433 12.8887 12.4749 12.6746C12.9065 12.4606 13.2828 12.1497 13.5743 11.7662C13.8659 11.3826 14.0648 10.9369 14.1556 10.4638C14.2463 9.99063 14.2265 9.50293 14.0975 9.03874H14.0969ZM7.50005 14.25C7.11364 14.2484 6.73716 14.1274 6.42211 13.9037C6.10707 13.6799 5.86885 13.3643 5.74005 13H9.26005C9.13125 13.3643 8.89303 13.6799 8.57799 13.9037C8.26294 14.1274 7.88646 14.2484 7.50005 14.25ZM12.5788 11.0094C12.4046 11.2404 12.179 11.4276 11.9198 11.5562C11.6606 11.6848 11.375 11.7511 11.0857 11.75H3.7413C3.46054 11.7499 3.18338 11.6868 2.93026 11.5654C2.67715 11.4439 2.45455 11.2671 2.2789 11.0481C2.10325 10.829 1.97903 10.5733 1.9154 10.2999C1.85178 10.0264 1.85037 9.74218 1.9113 9.46811L2.83005 5.33311C3.05152 4.33699 3.59962 3.44349 4.38721 2.79465C5.1748 2.1458 6.15669 1.77885 7.17678 1.75212C8.19688 1.7254 9.19663 2.04044 10.0171 2.64716C10.8376 3.25388 11.4317 4.11746 11.705 5.10061L12.8925 9.37311C12.971 9.65147 12.9835 9.94429 12.929 10.2283C12.8746 10.5124 12.7547 10.7798 12.5788 11.0094Z" fill="black" fill-opacity="0.2"/>
<path d="M14.0969 9.03874L12.9094 4.76624C12.5614 3.51457 11.8049 2.41517 10.7603 1.64278C9.71564 0.870398 8.44281 0.469356 7.14409 0.503406C5.84537 0.537456 4.59531 1.00464 3.59259 1.83071C2.58987 2.65677 1.89205 3.7943 1.61005 5.06249L0.690675 9.19686C0.589122 9.6537 0.59147 10.1275 0.697545 10.5833C0.803621 11.0391 1.01071 11.4653 1.30354 11.8303C1.59636 12.1954 1.96744 12.49 2.38937 12.6925C2.8113 12.8949 3.27331 13 3.7413 13H4.43755C4.581 13.7064 4.96426 14.3415 5.52239 14.7977C6.08052 15.2539 6.7792 15.5031 7.50005 15.5031C8.2209 15.5031 8.91958 15.2539 9.47771 14.7977C10.0358 14.3415 10.4191 13.7064 10.5625 13H11.0863C11.5681 13 12.0433 12.8887 12.4749 12.6746C12.9065 12.4606 13.2828 12.1497 13.5743 11.7662C13.8659 11.3826 14.0648 10.9369 14.1556 10.4638C14.2463 9.99063 14.2265 9.50293 14.0975 9.03874H14.0969ZM7.50005 14.25C7.11364 14.2484 6.73716 14.1274 6.42211 13.9037C6.10707 13.6799 5.86885 13.3643 5.74005 13H9.26005C9.13125 13.3643 8.89303 13.6799 8.57799 13.9037C8.26294 14.1274 7.88646 14.2484 7.50005 14.25ZM12.5788 11.0094C12.4046 11.2404 12.179 11.4276 11.9198 11.5562C11.6606 11.6848 11.375 11.7511 11.0857 11.75H3.7413C3.46054 11.7499 3.18338 11.6868 2.93026 11.5654C2.67715 11.4439 2.45455 11.2671 2.2789 11.0481C2.10325 10.829 1.97903 10.5733 1.9154 10.2999C1.85178 10.0264 1.85037 9.74218 1.9113 9.46811L2.83005 5.33311C3.05152 4.33699 3.59962 3.44349 4.38721 2.79465C5.1748 2.1458 6.15669 1.77885 7.17678 1.75212C8.19688 1.7254 9.19663 2.04044 10.0171 2.64716C10.8376 3.25388 11.4317 4.11746 11.705 5.10061L12.8925 9.37311C12.971 9.65147 12.9835 9.94429 12.929 10.2283C12.8746 10.5124 12.7547 10.7798 12.5788 11.0094Z" fill="black" fill-opacity="0.2"/>
<path d="M14.0969 9.03874L12.9094 4.76624C12.5614 3.51457 11.8049 2.41517 10.7603 1.64278C9.71564 0.870398 8.44281 0.469356 7.14409 0.503406C5.84537 0.537456 4.59531 1.00464 3.59259 1.83071C2.58987 2.65677 1.89205 3.7943 1.61005 5.06249L0.690675 9.19686C0.589122 9.6537 0.59147 10.1275 0.697545 10.5833C0.803621 11.0391 1.01071 11.4653 1.30354 11.8303C1.59636 12.1954 1.96744 12.49 2.38937 12.6925C2.8113 12.8949 3.27331 13 3.7413 13H4.43755C4.581 13.7064 4.96426 14.3415 5.52239 14.7977C6.08052 15.2539 6.7792 15.5031 7.50005 15.5031C8.2209 15.5031 8.91958 15.2539 9.47771 14.7977C10.0358 14.3415 10.4191 13.7064 10.5625 13H11.0863C11.5681 13 12.0433 12.8887 12.4749 12.6746C12.9065 12.4606 13.2828 12.1497 13.5743 11.7662C13.8659 11.3826 14.0648 10.9369 14.1556 10.4638C14.2463 9.99063 14.2265 9.50293 14.0975 9.03874H14.0969ZM7.50005 14.25C7.11364 14.2484 6.73716 14.1274 6.42211 13.9037C6.10707 13.6799 5.86885 13.3643 5.74005 13H9.26005C9.13125 13.3643 8.89303 13.6799 8.57799 13.9037C8.26294 14.1274 7.88646 14.2484 7.50005 14.25ZM12.5788 11.0094C12.4046 11.2404 12.179 11.4276 11.9198 11.5562C11.6606 11.6848 11.375 11.7511 11.0857 11.75H3.7413C3.46054 11.7499 3.18338 11.6868 2.93026 11.5654C2.67715 11.4439 2.45455 11.2671 2.2789 11.0481C2.10325 10.829 1.97903 10.5733 1.9154 10.2999C1.85178 10.0264 1.85037 9.74218 1.9113 9.46811L2.83005 5.33311C3.05152 4.33699 3.59962 3.44349 4.38721 2.79465C5.1748 2.1458 6.15669 1.77885 7.17678 1.75212C8.19688 1.7254 9.19663 2.04044 10.0171 2.64716C10.8376 3.25388 11.4317 4.11746 11.705 5.10061L12.8925 9.37311C12.971 9.65147 12.9835 9.94429 12.929 10.2283C12.8746 10.5124 12.7547 10.7798 12.5788 11.0094Z" fill="black" fill-opacity="0.2"/>
<path d="M14.0969 9.03874L12.9094 4.76624C12.5614 3.51457 11.8049 2.41517 10.7603 1.64278C9.71564 0.870398 8.44281 0.469356 7.14409 0.503406C5.84537 0.537456 4.59531 1.00464 3.59259 1.83071C2.58987 2.65677 1.89205 3.7943 1.61005 5.06249L0.690675 9.19686C0.589122 9.6537 0.59147 10.1275 0.697545 10.5833C0.803621 11.0391 1.01071 11.4653 1.30354 11.8303C1.59636 12.1954 1.96744 12.49 2.38937 12.6925C2.8113 12.8949 3.27331 13 3.7413 13H4.43755C4.581 13.7064 4.96426 14.3415 5.52239 14.7977C6.08052 15.2539 6.7792 15.5031 7.50005 15.5031C8.2209 15.5031 8.91958 15.2539 9.47771 14.7977C10.0358 14.3415 10.4191 13.7064 10.5625 13H11.0863C11.5681 13 12.0433 12.8887 12.4749 12.6746C12.9065 12.4606 13.2828 12.1497 13.5743 11.7662C13.8659 11.3826 14.0648 10.9369 14.1556 10.4638C14.2463 9.99063 14.2265 9.50293 14.0975 9.03874H14.0969ZM7.50005 14.25C7.11364 14.2484 6.73716 14.1274 6.42211 13.9037C6.10707 13.6799 5.86885 13.3643 5.74005 13H9.26005C9.13125 13.3643 8.89303 13.6799 8.57799 13.9037C8.26294 14.1274 7.88646 14.2484 7.50005 14.25ZM12.5788 11.0094C12.4046 11.2404 12.179 11.4276 11.9198 11.5562C11.6606 11.6848 11.375 11.7511 11.0857 11.75H3.7413C3.46054 11.7499 3.18338 11.6868 2.93026 11.5654C2.67715 11.4439 2.45455 11.2671 2.2789 11.0481C2.10325 10.829 1.97903 10.5733 1.9154 10.2999C1.85178 10.0264 1.85037 9.74218 1.9113 9.46811L2.83005 5.33311C3.05152 4.33699 3.59962 3.44349 4.38721 2.79465C5.1748 2.1458 6.15669 1.77885 7.17678 1.75212C8.19688 1.7254 9.19663 2.04044 10.0171 2.64716C10.8376 3.25388 11.4317 4.11746 11.705 5.10061L12.8925 9.37311C12.971 9.65147 12.9835 9.94429 12.929 10.2283C12.8746 10.5124 12.7547 10.7798 12.5788 11.0094Z" fill="black" fill-opacity="0.2"/>
<path d="M14.0969 9.03874L12.9094 4.76624C12.5614 3.51457 11.8049 2.41517 10.7603 1.64278C9.71564 0.870398 8.44281 0.469356 7.14409 0.503406C5.84537 0.537456 4.59531 1.00464 3.59259 1.83071C2.58987 2.65677 1.89205 3.7943 1.61005 5.06249L0.690675 9.19686C0.589122 9.6537 0.59147 10.1275 0.697545 10.5833C0.803621 11.0391 1.01071 11.4653 1.30354 11.8303C1.59636 12.1954 1.96744 12.49 2.38937 12.6925C2.8113 12.8949 3.27331 13 3.7413 13H4.43755C4.581 13.7064 4.96426 14.3415 5.52239 14.7977C6.08052 15.2539 6.7792 15.5031 7.50005 15.5031C8.2209 15.5031 8.91958 15.2539 9.47771 14.7977C10.0358 14.3415 10.4191 13.7064 10.5625 13H11.0863C11.5681 13 12.0433 12.8887 12.4749 12.6746C12.9065 12.4606 13.2828 12.1497 13.5743 11.7662C13.8659 11.3826 14.0648 10.9369 14.1556 10.4638C14.2463 9.99063 14.2265 9.50293 14.0975 9.03874H14.0969ZM7.50005 14.25C7.11364 14.2484 6.73716 14.1274 6.42211 13.9037C6.10707 13.6799 5.86885 13.3643 5.74005 13H9.26005C9.13125 13.3643 8.89303 13.6799 8.57799 13.9037C8.26294 14.1274 7.88646 14.2484 7.50005 14.25ZM12.5788 11.0094C12.4046 11.2404 12.179 11.4276 11.9198 11.5562C11.6606 11.6848 11.375 11.7511 11.0857 11.75H3.7413C3.46054 11.7499 3.18338 11.6868 2.93026 11.5654C2.67715 11.4439 2.45455 11.2671 2.2789 11.0481C2.10325 10.829 1.97903 10.5733 1.9154 10.2999C1.85178 10.0264 1.85037 9.74218 1.9113 9.46811L2.83005 5.33311C3.05152 4.33699 3.59962 3.44349 4.38721 2.79465C5.1748 2.1458 6.15669 1.77885 7.17678 1.75212C8.19688 1.7254 9.19663 2.04044 10.0171 2.64716C10.8376 3.25388 11.4317 4.11746 11.705 5.10061L12.8925 9.37311C12.971 9.65147 12.9835 9.94429 12.929 10.2283C12.8746 10.5124 12.7547 10.7798 12.5788 11.0094Z" fill="black" fill-opacity="0.2"/>
<path d="M14.0969 9.03874L12.9094 4.76624C12.5614 3.51457 11.8049 2.41517 10.7603 1.64278C9.71564 0.870398 8.44281 0.469356 7.14409 0.503406C5.84537 0.537456 4.59531 1.00464 3.59259 1.83071C2.58987 2.65677 1.89205 3.7943 1.61005 5.06249L0.690675 9.19686C0.589122 9.6537 0.59147 10.1275 0.697545 10.5833C0.803621 11.0391 1.01071 11.4653 1.30354 11.8303C1.59636 12.1954 1.96744 12.49 2.38937 12.6925C2.8113 12.8949 3.27331 13 3.7413 13H4.43755C4.581 13.7064 4.96426 14.3415 5.52239 14.7977C6.08052 15.2539 6.7792 15.5031 7.50005 15.5031C8.2209 15.5031 8.91958 15.2539 9.47771 14.7977C10.0358 14.3415 10.4191 13.7064 10.5625 13H11.0863C11.5681 13 12.0433 12.8887 12.4749 12.6746C12.9065 12.4606 13.2828 12.1497 13.5743 11.7662C13.8659 11.3826 14.0648 10.9369 14.1556 10.4638C14.2463 9.99063 14.2265 9.50293 14.0975 9.03874H14.0969ZM7.50005 14.25C7.11364 14.2484 6.73716 14.1274 6.42211 13.9037C6.10707 13.6799 5.86885 13.3643 5.74005 13H9.26005C9.13125 13.3643 8.89303 13.6799 8.57799 13.9037C8.26294 14.1274 7.88646 14.2484 7.50005 14.25ZM12.5788 11.0094C12.4046 11.2404 12.179 11.4276 11.9198 11.5562C11.6606 11.6848 11.375 11.7511 11.0857 11.75H3.7413C3.46054 11.7499 3.18338 11.6868 2.93026 11.5654C2.67715 11.4439 2.45455 11.2671 2.2789 11.0481C2.10325 10.829 1.97903 10.5733 1.9154 10.2999C1.85178 10.0264 1.85037 9.74218 1.9113 9.46811L2.83005 5.33311C3.05152 4.33699 3.59962 3.44349 4.38721 2.79465C5.1748 2.1458 6.15669 1.77885 7.17678 1.75212C8.19688 1.7254 9.19663 2.04044 10.0171 2.64716C10.8376 3.25388 11.4317 4.11746 11.705 5.10061L12.8925 9.37311C12.971 9.65147 12.9835 9.94429 12.929 10.2283C12.8746 10.5124 12.7547 10.7798 12.5788 11.0094Z" fill="black" fill-opacity="0.2"/>
<path d="M14.0969 9.03874L12.9094 4.76624C12.5614 3.51457 11.8049 2.41517 10.7603 1.64278C9.71564 0.870398 8.44281 0.469356 7.14409 0.503406C5.84537 0.537456 4.59531 1.00464 3.59259 1.83071C2.58987 2.65677 1.89205 3.7943 1.61005 5.06249L0.690675 9.19686C0.589122 9.6537 0.59147 10.1275 0.697545 10.5833C0.803621 11.0391 1.01071 11.4653 1.30354 11.8303C1.59636 12.1954 1.96744 12.49 2.38937 12.6925C2.8113 12.8949 3.27331 13 3.7413 13H4.43755C4.581 13.7064 4.96426 14.3415 5.52239 14.7977C6.08052 15.2539 6.7792 15.5031 7.50005 15.5031C8.2209 15.5031 8.91958 15.2539 9.47771 14.7977C10.0358 14.3415 10.4191 13.7064 10.5625 13H11.0863C11.5681 13 12.0433 12.8887 12.4749 12.6746C12.9065 12.4606 13.2828 12.1497 13.5743 11.7662C13.8659 11.3826 14.0648 10.9369 14.1556 10.4638C14.2463 9.99063 14.2265 9.50293 14.0975 9.03874H14.0969ZM7.50005 14.25C7.11364 14.2484 6.73716 14.1274 6.42211 13.9037C6.10707 13.6799 5.86885 13.3643 5.74005 13H9.26005C9.13125 13.3643 8.89303 13.6799 8.57799 13.9037C8.26294 14.1274 7.88646 14.2484 7.50005 14.25ZM12.5788 11.0094C12.4046 11.2404 12.179 11.4276 11.9198 11.5562C11.6606 11.6848 11.375 11.7511 11.0857 11.75H3.7413C3.46054 11.7499 3.18338 11.6868 2.93026 11.5654C2.67715 11.4439 2.45455 11.2671 2.2789 11.0481C2.10325 10.829 1.97903 10.5733 1.9154 10.2999C1.85178 10.0264 1.85037 9.74218 1.9113 9.46811L2.83005 5.33311C3.05152 4.33699 3.59962 3.44349 4.38721 2.79465C5.1748 2.1458 6.15669 1.77885 7.17678 1.75212C8.19688 1.7254 9.19663 2.04044 10.0171 2.64716C10.8376 3.25388 11.4317 4.11746 11.705 5.10061L12.8925 9.37311C12.971 9.65147 12.9835 9.94429 12.929 10.2283C12.8746 10.5124 12.7547 10.7798 12.5788 11.0094Z" fill="black" fill-opacity="0.2"/>
<path d="M14.0969 9.03874L12.9094 4.76624C12.5614 3.51457 11.8049 2.41517 10.7603 1.64278C9.71564 0.870398 8.44281 0.469356 7.14409 0.503406C5.84537 0.537456 4.59531 1.00464 3.59259 1.83071C2.58987 2.65677 1.89205 3.7943 1.61005 5.06249L0.690675 9.19686C0.589122 9.6537 0.59147 10.1275 0.697545 10.5833C0.803621 11.0391 1.01071 11.4653 1.30354 11.8303C1.59636 12.1954 1.96744 12.49 2.38937 12.6925C2.8113 12.8949 3.27331 13 3.7413 13H4.43755C4.581 13.7064 4.96426 14.3415 5.52239 14.7977C6.08052 15.2539 6.7792 15.5031 7.50005 15.5031C8.2209 15.5031 8.91958 15.2539 9.47771 14.7977C10.0358 14.3415 10.4191 13.7064 10.5625 13H11.0863C11.5681 13 12.0433 12.8887 12.4749 12.6746C12.9065 12.4606 13.2828 12.1497 13.5743 11.7662C13.8659 11.3826 14.0648 10.9369 14.1556 10.4638C14.2463 9.99063 14.2265 9.50293 14.0975 9.03874H14.0969ZM7.50005 14.25C7.11364 14.2484 6.73716 14.1274 6.42211 13.9037C6.10707 13.6799 5.86885 13.3643 5.74005 13H9.26005C9.13125 13.3643 8.89303 13.6799 8.57799 13.9037C8.26294 14.1274 7.88646 14.2484 7.50005 14.25ZM12.5788 11.0094C12.4046 11.2404 12.179 11.4276 11.9198 11.5562C11.6606 11.6848 11.375 11.7511 11.0857 11.75H3.7413C3.46054 11.7499 3.18338 11.6868 2.93026 11.5654C2.67715 11.4439 2.45455 11.2671 2.2789 11.0481C2.10325 10.829 1.97903 10.5733 1.9154 10.2999C1.85178 10.0264 1.85037 9.74218 1.9113 9.46811L2.83005 5.33311C3.05152 4.33699 3.59962 3.44349 4.38721 2.79465C5.1748 2.1458 6.15669 1.77885 7.17678 1.75212C8.19688 1.7254 9.19663 2.04044 10.0171 2.64716C10.8376 3.25388 11.4317 4.11746 11.705 5.10061L12.8925 9.37311C12.971 9.65147 12.9835 9.94429 12.929 10.2283C12.8746 10.5124 12.7547 10.7798 12.5788 11.0094Z" fill="black" fill-opacity="0.2"/>
<path d="M14.0969 9.03874L12.9094 4.76624C12.5614 3.51457 11.8049 2.41517 10.7603 1.64278C9.71564 0.870398 8.44281 0.469356 7.14409 0.503406C5.84537 0.537456 4.59531 1.00464 3.59259 1.83071C2.58987 2.65677 1.89205 3.7943 1.61005 5.06249L0.690675 9.19686C0.589122 9.6537 0.59147 10.1275 0.697545 10.5833C0.803621 11.0391 1.01071 11.4653 1.30354 11.8303C1.59636 12.1954 1.96744 12.49 2.38937 12.6925C2.8113 12.8949 3.27331 13 3.7413 13H4.43755C4.581 13.7064 4.96426 14.3415 5.52239 14.7977C6.08052 15.2539 6.7792 15.5031 7.50005 15.5031C8.2209 15.5031 8.91958 15.2539 9.47771 14.7977C10.0358 14.3415 10.4191 13.7064 10.5625 13H11.0863C11.5681 13 12.0433 12.8887 12.4749 12.6746C12.9065 12.4606 13.2828 12.1497 13.5743 11.7662C13.8659 11.3826 14.0648 10.9369 14.1556 10.4638C14.2463 9.99063 14.2265 9.50293 14.0975 9.03874H14.0969ZM7.50005 14.25C7.11364 14.2484 6.73716 14.1274 6.42211 13.9037C6.10707 13.6799 5.86885 13.3643 5.74005 13H9.26005C9.13125 13.3643 8.89303 13.6799 8.57799 13.9037C8.26294 14.1274 7.88646 14.2484 7.50005 14.25ZM12.5788 11.0094C12.4046 11.2404 12.179 11.4276 11.9198 11.5562C11.6606 11.6848 11.375 11.7511 11.0857 11.75H3.7413C3.46054 11.7499 3.18338 11.6868 2.93026 11.5654C2.67715 11.4439 2.45455 11.2671 2.2789 11.0481C2.10325 10.829 1.97903 10.5733 1.9154 10.2999C1.85178 10.0264 1.85037 9.74218 1.9113 9.46811L2.83005 5.33311C3.05152 4.33699 3.59962 3.44349 4.38721 2.79465C5.1748 2.1458 6.15669 1.77885 7.17678 1.75212C8.19688 1.7254 9.19663 2.04044 10.0171 2.64716C10.8376 3.25388 11.4317 4.11746 11.705 5.10061L12.8925 9.37311C12.971 9.65147 12.9835 9.94429 12.929 10.2283C12.8746 10.5124 12.7547 10.7798 12.5788 11.0094Z" fill="black" fill-opacity="0.2"/>
<path d="M14.0969 9.03874L12.9094 4.76624C12.5614 3.51457 11.8049 2.41517 10.7603 1.64278C9.71564 0.870398 8.44281 0.469356 7.14409 0.503406C5.84537 0.537456 4.59531 1.00464 3.59259 1.83071C2.58987 2.65677 1.89205 3.7943 1.61005 5.06249L0.690675 9.19686C0.589122 9.6537 0.59147 10.1275 0.697545 10.5833C0.803621 11.0391 1.01071 11.4653 1.30354 11.8303C1.59636 12.1954 1.96744 12.49 2.38937 12.6925C2.8113 12.8949 3.27331 13 3.7413 13H4.43755C4.581 13.7064 4.96426 14.3415 5.52239 14.7977C6.08052 15.2539 6.7792 15.5031 7.50005 15.5031C8.2209 15.5031 8.91958 15.2539 9.47771 14.7977C10.0358 14.3415 10.4191 13.7064 10.5625 13H11.0863C11.5681 13 12.0433 12.8887 12.4749 12.6746C12.9065 12.4606 13.2828 12.1497 13.5743 11.7662C13.8659 11.3826 14.0648 10.9369 14.1556 10.4638C14.2463 9.99063 14.2265 9.50293 14.0975 9.03874H14.0969ZM7.50005 14.25C7.11364 14.2484 6.73716 14.1274 6.42211 13.9037C6.10707 13.6799 5.86885 13.3643 5.74005 13H9.26005C9.13125 13.3643 8.89303 13.6799 8.57799 13.9037C8.26294 14.1274 7.88646 14.2484 7.50005 14.25ZM12.5788 11.0094C12.4046 11.2404 12.179 11.4276 11.9198 11.5562C11.6606 11.6848 11.375 11.7511 11.0857 11.75H3.7413C3.46054 11.7499 3.18338 11.6868 2.93026 11.5654C2.67715 11.4439 2.45455 11.2671 2.2789 11.0481C2.10325 10.829 1.97903 10.5733 1.9154 10.2999C1.85178 10.0264 1.85037 9.74218 1.9113 9.46811L2.83005 5.33311C3.05152 4.33699 3.59962 3.44349 4.38721 2.79465C5.1748 2.1458 6.15669 1.77885 7.17678 1.75212C8.19688 1.7254 9.19663 2.04044 10.0171 2.64716C10.8376 3.25388 11.4317 4.11746 11.705 5.10061L12.8925 9.37311C12.971 9.65147 12.9835 9.94429 12.929 10.2283C12.8746 10.5124 12.7547 10.7798 12.5788 11.0094Z" fill="black" fill-opacity="0.2"/>
<path d="M14.0969 9.03874L12.9094 4.76624C12.5614 3.51457 11.8049 2.41517 10.7603 1.64278C9.71564 0.870398 8.44281 0.469356 7.14409 0.503406C5.84537 0.537456 4.59531 1.00464 3.59259 1.83071C2.58987 2.65677 1.89205 3.7943 1.61005 5.06249L0.690675 9.19686C0.589122 9.6537 0.59147 10.1275 0.697545 10.5833C0.803621 11.0391 1.01071 11.4653 1.30354 11.8303C1.59636 12.1954 1.96744 12.49 2.38937 12.6925C2.8113 12.8949 3.27331 13 3.7413 13H4.43755C4.581 13.7064 4.96426 14.3415 5.52239 14.7977C6.08052 15.2539 6.7792 15.5031 7.50005 15.5031C8.2209 15.5031 8.91958 15.2539 9.47771 14.7977C10.0358 14.3415 10.4191 13.7064 10.5625 13H11.0863C11.5681 13 12.0433 12.8887 12.4749 12.6746C12.9065 12.4606 13.2828 12.1497 13.5743 11.7662C13.8659 11.3826 14.0648 10.9369 14.1556 10.4638C14.2463 9.99063 14.2265 9.50293 14.0975 9.03874H14.0969ZM7.50005 14.25C7.11364 14.2484 6.73716 14.1274 6.42211 13.9037C6.10707 13.6799 5.86885 13.3643 5.74005 13H9.26005C9.13125 13.3643 8.89303 13.6799 8.57799 13.9037C8.26294 14.1274 7.88646 14.2484 7.50005 14.25ZM12.5788 11.0094C12.4046 11.2404 12.179 11.4276 11.9198 11.5562C11.6606 11.6848 11.375 11.7511 11.0857 11.75H3.7413C3.46054 11.7499 3.18338 11.6868 2.93026 11.5654C2.67715 11.4439 2.45455 11.2671 2.2789 11.0481C2.10325 10.829 1.97903 10.5733 1.9154 10.2999C1.85178 10.0264 1.85037 9.74218 1.9113 9.46811L2.83005 5.33311C3.05152 4.33699 3.59962 3.44349 4.38721 2.79465C5.1748 2.1458 6.15669 1.77885 7.17678 1.75212C8.19688 1.7254 9.19663 2.04044 10.0171 2.64716C10.8376 3.25388 11.4317 4.11746 11.705 5.10061L12.8925 9.37311C12.971 9.65147 12.9835 9.94429 12.929 10.2283C12.8746 10.5124 12.7547 10.7798 12.5788 11.0094Z" fill="black" fill-opacity="0.2"/>
<path d="M14.0969 9.03874L12.9094 4.76624C12.5614 3.51457 11.8049 2.41517 10.7603 1.64278C9.71564 0.870398 8.44281 0.469356 7.14409 0.503406C5.84537 0.537456 4.59531 1.00464 3.59259 1.83071C2.58987 2.65677 1.89205 3.7943 1.61005 5.06249L0.690675 9.19686C0.589122 9.6537 0.59147 10.1275 0.697545 10.5833C0.803621 11.0391 1.01071 11.4653 1.30354 11.8303C1.59636 12.1954 1.96744 12.49 2.38937 12.6925C2.8113 12.8949 3.27331 13 3.7413 13H4.43755C4.581 13.7064 4.96426 14.3415 5.52239 14.7977C6.08052 15.2539 6.7792 15.5031 7.50005 15.5031C8.2209 15.5031 8.91958 15.2539 9.47771 14.7977C10.0358 14.3415 10.4191 13.7064 10.5625 13H11.0863C11.5681 13 12.0433 12.8887 12.4749 12.6746C12.9065 12.4606 13.2828 12.1497 13.5743 11.7662C13.8659 11.3826 14.0648 10.9369 14.1556 10.4638C14.2463 9.99063 14.2265 9.50293 14.0975 9.03874H14.0969ZM7.50005 14.25C7.11364 14.2484 6.73716 14.1274 6.42211 13.9037C6.10707 13.6799 5.86885 13.3643 5.74005 13H9.26005C9.13125 13.3643 8.89303 13.6799 8.57799 13.9037C8.26294 14.1274 7.88646 14.2484 7.50005 14.25ZM12.5788 11.0094C12.4046 11.2404 12.179 11.4276 11.9198 11.5562C11.6606 11.6848 11.375 11.7511 11.0857 11.75H3.7413C3.46054 11.7499 3.18338 11.6868 2.93026 11.5654C2.67715 11.4439 2.45455 11.2671 2.2789 11.0481C2.10325 10.829 1.97903 10.5733 1.9154 10.2999C1.85178 10.0264 1.85037 9.74218 1.9113 9.46811L2.83005 5.33311C3.05152 4.33699 3.59962 3.44349 4.38721 2.79465C5.1748 2.1458 6.15669 1.77885 7.17678 1.75212C8.19688 1.7254 9.19663 2.04044 10.0171 2.64716C10.8376 3.25388 11.4317 4.11746 11.705 5.10061L12.8925 9.37311C12.971 9.65147 12.9835 9.94429 12.929 10.2283C12.8746 10.5124 12.7547 10.7798 12.5788 11.0094Z" fill="black" fill-opacity="0.2"/>
<path d="M14.0969 9.03874L12.9094 4.76624C12.5614 3.51457 11.8049 2.41517 10.7603 1.64278C9.71564 0.870398 8.44281 0.469356 7.14409 0.503406C5.84537 0.537456 4.59531 1.00464 3.59259 1.83071C2.58987 2.65677 1.89205 3.7943 1.61005 5.06249L0.690675 9.19686C0.589122 9.6537 0.59147 10.1275 0.697545 10.5833C0.803621 11.0391 1.01071 11.4653 1.30354 11.8303C1.59636 12.1954 1.96744 12.49 2.38937 12.6925C2.8113 12.8949 3.27331 13 3.7413 13H4.43755C4.581 13.7064 4.96426 14.3415 5.52239 14.7977C6.08052 15.2539 6.7792 15.5031 7.50005 15.5031C8.2209 15.5031 8.91958 15.2539 9.47771 14.7977C10.0358 14.3415 10.4191 13.7064 10.5625 13H11.0863C11.5681 13 12.0433 12.8887 12.4749 12.6746C12.9065 12.4606 13.2828 12.1497 13.5743 11.7662C13.8659 11.3826 14.0648 10.9369 14.1556 10.4638C14.2463 9.99063 14.2265 9.50293 14.0975 9.03874H14.0969ZM7.50005 14.25C7.11364 14.2484 6.73716 14.1274 6.42211 13.9037C6.10707 13.6799 5.86885 13.3643 5.74005 13H9.26005C9.13125 13.3643 8.89303 13.6799 8.57799 13.9037C8.26294 14.1274 7.88646 14.2484 7.50005 14.25ZM12.5788 11.0094C12.4046 11.2404 12.179 11.4276 11.9198 11.5562C11.6606 11.6848 11.375 11.7511 11.0857 11.75H3.7413C3.46054 11.7499 3.18338 11.6868 2.93026 11.5654C2.67715 11.4439 2.45455 11.2671 2.2789 11.0481C2.10325 10.829 1.97903 10.5733 1.9154 10.2999C1.85178 10.0264 1.85037 9.74218 1.9113 9.46811L2.83005 5.33311C3.05152 4.33699 3.59962 3.44349 4.38721 2.79465C5.1748 2.1458 6.15669 1.77885 7.17678 1.75212C8.19688 1.7254 9.19663 2.04044 10.0171 2.64716C10.8376 3.25388 11.4317 4.11746 11.705 5.10061L12.8925 9.37311C12.971 9.65147 12.9835 9.94429 12.929 10.2283C12.8746 10.5124 12.7547 10.7798 12.5788 11.0094Z" fill="black" fill-opacity="0.2"/>
<path d="M14.0969 9.03874L12.9094 4.76624C12.5614 3.51457 11.8049 2.41517 10.7603 1.64278C9.71564 0.870398 8.44281 0.469356 7.14409 0.503406C5.84537 0.537456 4.59531 1.00464 3.59259 1.83071C2.58987 2.65677 1.89205 3.7943 1.61005 5.06249L0.690675 9.19686C0.589122 9.6537 0.59147 10.1275 0.697545 10.5833C0.803621 11.0391 1.01071 11.4653 1.30354 11.8303C1.59636 12.1954 1.96744 12.49 2.38937 12.6925C2.8113 12.8949 3.27331 13 3.7413 13H4.43755C4.581 13.7064 4.96426 14.3415 5.52239 14.7977C6.08052 15.2539 6.7792 15.5031 7.50005 15.5031C8.2209 15.5031 8.91958 15.2539 9.47771 14.7977C10.0358 14.3415 10.4191 13.7064 10.5625 13H11.0863C11.5681 13 12.0433 12.8887 12.4749 12.6746C12.9065 12.4606 13.2828 12.1497 13.5743 11.7662C13.8659 11.3826 14.0648 10.9369 14.1556 10.4638C14.2463 9.99063 14.2265 9.50293 14.0975 9.03874H14.0969ZM7.50005 14.25C7.11364 14.2484 6.73716 14.1274 6.42211 13.9037C6.10707 13.6799 5.86885 13.3643 5.74005 13H9.26005C9.13125 13.3643 8.89303 13.6799 8.57799 13.9037C8.26294 14.1274 7.88646 14.2484 7.50005 14.25ZM12.5788 11.0094C12.4046 11.2404 12.179 11.4276 11.9198 11.5562C11.6606 11.6848 11.375 11.7511 11.0857 11.75H3.7413C3.46054 11.7499 3.18338 11.6868 2.93026 11.5654C2.67715 11.4439 2.45455 11.2671 2.2789 11.0481C2.10325 10.829 1.97903 10.5733 1.9154 10.2999C1.85178 10.0264 1.85037 9.74218 1.9113 9.46811L2.83005 5.33311C3.05152 4.33699 3.59962 3.44349 4.38721 2.79465C5.1748 2.1458 6.15669 1.77885 7.17678 1.75212C8.19688 1.7254 9.19663 2.04044 10.0171 2.64716C10.8376 3.25388 11.4317 4.11746 11.705 5.10061L12.8925 9.37311C12.971 9.65147 12.9835 9.94429 12.929 10.2283C12.8746 10.5124 12.7547 10.7798 12.5788 11.0094Z" fill="black" fill-opacity="0.2"/>
<path d="M14.0969 9.03874L12.9094 4.76624C12.5614 3.51457 11.8049 2.41517 10.7603 1.64278C9.71564 0.870398 8.44281 0.469356 7.14409 0.503406C5.84537 0.537456 4.59531 1.00464 3.59259 1.83071C2.58987 2.65677 1.89205 3.7943 1.61005 5.06249L0.690675 9.19686C0.589122 9.6537 0.59147 10.1275 0.697545 10.5833C0.803621 11.0391 1.01071 11.4653 1.30354 11.8303C1.59636 12.1954 1.96744 12.49 2.38937 12.6925C2.8113 12.8949 3.27331 13 3.7413 13H4.43755C4.581 13.7064 4.96426 14.3415 5.52239 14.7977C6.08052 15.2539 6.7792 15.5031 7.50005 15.5031C8.2209 15.5031 8.91958 15.2539 9.47771 14.7977C10.0358 14.3415 10.4191 13.7064 10.5625 13H11.0863C11.5681 13 12.0433 12.8887 12.4749 12.6746C12.9065 12.4606 13.2828 12.1497 13.5743 11.7662C13.8659 11.3826 14.0648 10.9369 14.1556 10.4638C14.2463 9.99063 14.2265 9.50293 14.0975 9.03874H14.0969ZM7.50005 14.25C7.11364 14.2484 6.73716 14.1274 6.42211 13.9037C6.10707 13.6799 5.86885 13.3643 5.74005 13H9.26005C9.13125 13.3643 8.89303 13.6799 8.57799 13.9037C8.26294 14.1274 7.88646 14.2484 7.50005 14.25ZM12.5788 11.0094C12.4046 11.2404 12.179 11.4276 11.9198 11.5562C11.6606 11.6848 11.375 11.7511 11.0857 11.75H3.7413C3.46054 11.7499 3.18338 11.6868 2.93026 11.5654C2.67715 11.4439 2.45455 11.2671 2.2789 11.0481C2.10325 10.829 1.97903 10.5733 1.9154 10.2999C1.85178 10.0264 1.85037 9.74218 1.9113 9.46811L2.83005 5.33311C3.05152 4.33699 3.59962 3.44349 4.38721 2.79465C5.1748 2.1458 6.15669 1.77885 7.17678 1.75212C8.19688 1.7254 9.19663 2.04044 10.0171 2.64716C10.8376 3.25388 11.4317 4.11746 11.705 5.10061L12.8925 9.37311C12.971 9.65147 12.9835 9.94429 12.929 10.2283C12.8746 10.5124 12.7547 10.7798 12.5788 11.0094Z" fill="black" fill-opacity="0.2"/>
<path d="M14.0969 9.03874L12.9094 4.76624C12.5614 3.51457 11.8049 2.41517 10.7603 1.64278C9.71564 0.870398 8.44281 0.469356 7.14409 0.503406C5.84537 0.537456 4.59531 1.00464 3.59259 1.83071C2.58987 2.65677 1.89205 3.7943 1.61005 5.06249L0.690675 9.19686C0.589122 9.6537 0.59147 10.1275 0.697545 10.5833C0.803621 11.0391 1.01071 11.4653 1.30354 11.8303C1.59636 12.1954 1.96744 12.49 2.38937 12.6925C2.8113 12.8949 3.27331 13 3.7413 13H4.43755C4.581 13.7064 4.96426 14.3415 5.52239 14.7977C6.08052 15.2539 6.7792 15.5031 7.50005 15.5031C8.2209 15.5031 8.91958 15.2539 9.47771 14.7977C10.0358 14.3415 10.4191 13.7064 10.5625 13H11.0863C11.5681 13 12.0433 12.8887 12.4749 12.6746C12.9065 12.4606 13.2828 12.1497 13.5743 11.7662C13.8659 11.3826 14.0648 10.9369 14.1556 10.4638C14.2463 9.99063 14.2265 9.50293 14.0975 9.03874H14.0969ZM7.50005 14.25C7.11364 14.2484 6.73716 14.1274 6.42211 13.9037C6.10707 13.6799 5.86885 13.3643 5.74005 13H9.26005C9.13125 13.3643 8.89303 13.6799 8.57799 13.9037C8.26294 14.1274 7.88646 14.2484 7.50005 14.25ZM12.5788 11.0094C12.4046 11.2404 12.179 11.4276 11.9198 11.5562C11.6606 11.6848 11.375 11.7511 11.0857 11.75H3.7413C3.46054 11.7499 3.18338 11.6868 2.93026 11.5654C2.67715 11.4439 2.45455 11.2671 2.2789 11.0481C2.10325 10.829 1.97903 10.5733 1.9154 10.2999C1.85178 10.0264 1.85037 9.74218 1.9113 9.46811L2.83005 5.33311C3.05152 4.33699 3.59962 3.44349 4.38721 2.79465C5.1748 2.1458 6.15669 1.77885 7.17678 1.75212C8.19688 1.7254 9.19663 2.04044 10.0171 2.64716C10.8376 3.25388 11.4317 4.11746 11.705 5.10061L12.8925 9.37311C12.971 9.65147 12.9835 9.94429 12.929 10.2283C12.8746 10.5124 12.7547 10.7798 12.5788 11.0094Z" fill="black" fill-opacity="0.2"/>
<path d="M14.0969 9.03874L12.9094 4.76624C12.5614 3.51457 11.8049 2.41517 10.7603 1.64278C9.71564 0.870398 8.44281 0.469356 7.14409 0.503406C5.84537 0.537456 4.59531 1.00464 3.59259 1.83071C2.58987 2.65677 1.89205 3.7943 1.61005 5.06249L0.690675 9.19686C0.589122 9.6537 0.59147 10.1275 0.697545 10.5833C0.803621 11.0391 1.01071 11.4653 1.30354 11.8303C1.59636 12.1954 1.96744 12.49 2.38937 12.6925C2.8113 12.8949 3.27331 13 3.7413 13H4.43755C4.581 13.7064 4.96426 14.3415 5.52239 14.7977C6.08052 15.2539 6.7792 15.5031 7.50005 15.5031C8.2209 15.5031 8.91958 15.2539 9.47771 14.7977C10.0358 14.3415 10.4191 13.7064 10.5625 13H11.0863C11.5681 13 12.0433 12.8887 12.4749 12.6746C12.9065 12.4606 13.2828 12.1497 13.5743 11.7662C13.8659 11.3826 14.0648 10.9369 14.1556 10.4638C14.2463 9.99063 14.2265 9.50293 14.0975 9.03874H14.0969ZM7.50005 14.25C7.11364 14.2484 6.73716 14.1274 6.42211 13.9037C6.10707 13.6799 5.86885 13.3643 5.74005 13H9.26005C9.13125 13.3643 8.89303 13.6799 8.57799 13.9037C8.26294 14.1274 7.88646 14.2484 7.50005 14.25ZM12.5788 11.0094C12.4046 11.2404 12.179 11.4276 11.9198 11.5562C11.6606 11.6848 11.375 11.7511 11.0857 11.75H3.7413C3.46054 11.7499 3.18338 11.6868 2.93026 11.5654C2.67715 11.4439 2.45455 11.2671 2.2789 11.0481C2.10325 10.829 1.97903 10.5733 1.9154 10.2999C1.85178 10.0264 1.85037 9.74218 1.9113 9.46811L2.83005 5.33311C3.05152 4.33699 3.59962 3.44349 4.38721 2.79465C5.1748 2.1458 6.15669 1.77885 7.17678 1.75212C8.19688 1.7254 9.19663 2.04044 10.0171 2.64716C10.8376 3.25388 11.4317 4.11746 11.705 5.10061L12.8925 9.37311C12.971 9.65147 12.9835 9.94429 12.929 10.2283C12.8746 10.5124 12.7547 10.7798 12.5788 11.0094Z" fill="black" fill-opacity="0.2"/>
<path d="M14.0969 9.03874L12.9094 4.76624C12.5614 3.51457 11.8049 2.41517 10.7603 1.64278C9.71564 0.870398 8.44281 0.469356 7.14409 0.503406C5.84537 0.537456 4.59531 1.00464 3.59259 1.83071C2.58987 2.65677 1.89205 3.7943 1.61005 5.06249L0.690675 9.19686C0.589122 9.6537 0.59147 10.1275 0.697545 10.5833C0.803621 11.0391 1.01071 11.4653 1.30354 11.8303C1.59636 12.1954 1.96744 12.49 2.38937 12.6925C2.8113 12.8949 3.27331 13 3.7413 13H4.43755C4.581 13.7064 4.96426 14.3415 5.52239 14.7977C6.08052 15.2539 6.7792 15.5031 7.50005 15.5031C8.2209 15.5031 8.91958 15.2539 9.47771 14.7977C10.0358 14.3415 10.4191 13.7064 10.5625 13H11.0863C11.5681 13 12.0433 12.8887 12.4749 12.6746C12.9065 12.4606 13.2828 12.1497 13.5743 11.7662C13.8659 11.3826 14.0648 10.9369 14.1556 10.4638C14.2463 9.99063 14.2265 9.50293 14.0975 9.03874H14.0969ZM7.50005 14.25C7.11364 14.2484 6.73716 14.1274 6.42211 13.9037C6.10707 13.6799 5.86885 13.3643 5.74005 13H9.26005C9.13125 13.3643 8.89303 13.6799 8.57799 13.9037C8.26294 14.1274 7.88646 14.2484 7.50005 14.25ZM12.5788 11.0094C12.4046 11.2404 12.179 11.4276 11.9198 11.5562C11.6606 11.6848 11.375 11.7511 11.0857 11.75H3.7413C3.46054 11.7499 3.18338 11.6868 2.93026 11.5654C2.67715 11.4439 2.45455 11.2671 2.2789 11.0481C2.10325 10.829 1.97903 10.5733 1.9154 10.2999C1.85178 10.0264 1.85037 9.74218 1.9113 9.46811L2.83005 5.33311C3.05152 4.33699 3.59962 3.44349 4.38721 2.79465C5.1748 2.1458 6.15669 1.77885 7.17678 1.75212C8.19688 1.7254 9.19663 2.04044 10.0171 2.64716C10.8376 3.25388 11.4317 4.11746 11.705 5.10061L12.8925 9.37311C12.971 9.65147 12.9835 9.94429 12.929 10.2283C12.8746 10.5124 12.7547 10.7798 12.5788 11.0094Z" fill="black" fill-opacity="0.2"/>
<path d="M14.0969 9.03874L12.9094 4.76624C12.5614 3.51457 11.8049 2.41517 10.7603 1.64278C9.71564 0.870398 8.44281 0.469356 7.14409 0.503406C5.84537 0.537456 4.59531 1.00464 3.59259 1.83071C2.58987 2.65677 1.89205 3.7943 1.61005 5.06249L0.690675 9.19686C0.589122 9.6537 0.59147 10.1275 0.697545 10.5833C0.803621 11.0391 1.01071 11.4653 1.30354 11.8303C1.59636 12.1954 1.96744 12.49 2.38937 12.6925C2.8113 12.8949 3.27331 13 3.7413 13H4.43755C4.581 13.7064 4.96426 14.3415 5.52239 14.7977C6.08052 15.2539 6.7792 15.5031 7.50005 15.5031C8.2209 15.5031 8.91958 15.2539 9.47771 14.7977C10.0358 14.3415 10.4191 13.7064 10.5625 13H11.0863C11.5681 13 12.0433 12.8887 12.4749 12.6746C12.9065 12.4606 13.2828 12.1497 13.5743 11.7662C13.8659 11.3826 14.0648 10.9369 14.1556 10.4638C14.2463 9.99063 14.2265 9.50293 14.0975 9.03874H14.0969ZM7.50005 14.25C7.11364 14.2484 6.73716 14.1274 6.42211 13.9037C6.10707 13.6799 5.86885 13.3643 5.74005 13H9.26005C9.13125 13.3643 8.89303 13.6799 8.57799 13.9037C8.26294 14.1274 7.88646 14.2484 7.50005 14.25ZM12.5788 11.0094C12.4046 11.2404 12.179 11.4276 11.9198 11.5562C11.6606 11.6848 11.375 11.7511 11.0857 11.75H3.7413C3.46054 11.7499 3.18338 11.6868 2.93026 11.5654C2.67715 11.4439 2.45455 11.2671 2.2789 11.0481C2.10325 10.829 1.97903 10.5733 1.9154 10.2999C1.85178 10.0264 1.85037 9.74218 1.9113 9.46811L2.83005 5.33311C3.05152 4.33699 3.59962 3.44349 4.38721 2.79465C5.1748 2.1458 6.15669 1.77885 7.17678 1.75212C8.19688 1.7254 9.19663 2.04044 10.0171 2.64716C10.8376 3.25388 11.4317 4.11746 11.705 5.10061L12.8925 9.37311C12.971 9.65147 12.9835 9.94429 12.929 10.2283C12.8746 10.5124 12.7547 10.7798 12.5788 11.0094Z" fill="black" fill-opacity="0.2"/>
<path d="M14.0969 9.03874L12.9094 4.76624C12.5614 3.51457 11.8049 2.41517 10.7603 1.64278C9.71564 0.870398 8.44281 0.469356 7.14409 0.503406C5.84537 0.537456 4.59531 1.00464 3.59259 1.83071C2.58987 2.65677 1.89205 3.7943 1.61005 5.06249L0.690675 9.19686C0.589122 9.6537 0.59147 10.1275 0.697545 10.5833C0.803621 11.0391 1.01071 11.4653 1.30354 11.8303C1.59636 12.1954 1.96744 12.49 2.38937 12.6925C2.8113 12.8949 3.27331 13 3.7413 13H4.43755C4.581 13.7064 4.96426 14.3415 5.52239 14.7977C6.08052 15.2539 6.7792 15.5031 7.50005 15.5031C8.2209 15.5031 8.91958 15.2539 9.47771 14.7977C10.0358 14.3415 10.4191 13.7064 10.5625 13H11.0863C11.5681 13 12.0433 12.8887 12.4749 12.6746C12.9065 12.4606 13.2828 12.1497 13.5743 11.7662C13.8659 11.3826 14.0648 10.9369 14.1556 10.4638C14.2463 9.99063 14.2265 9.50293 14.0975 9.03874H14.0969ZM7.50005 14.25C7.11364 14.2484 6.73716 14.1274 6.42211 13.9037C6.10707 13.6799 5.86885 13.3643 5.74005 13H9.26005C9.13125 13.3643 8.89303 13.6799 8.57799 13.9037C8.26294 14.1274 7.88646 14.2484 7.50005 14.25ZM12.5788 11.0094C12.4046 11.2404 12.179 11.4276 11.9198 11.5562C11.6606 11.6848 11.375 11.7511 11.0857 11.75H3.7413C3.46054 11.7499 3.18338 11.6868 2.93026 11.5654C2.67715 11.4439 2.45455 11.2671 2.2789 11.0481C2.10325 10.829 1.97903 10.5733 1.9154 10.2999C1.85178 10.0264 1.85037 9.74218 1.9113 9.46811L2.83005 5.33311C3.05152 4.33699 3.59962 3.44349 4.38721 2.79465C5.1748 2.1458 6.15669 1.77885 7.17678 1.75212C8.19688 1.7254 9.19663 2.04044 10.0171 2.64716C10.8376 3.25388 11.4317 4.11746 11.705 5.10061L12.8925 9.37311C12.971 9.65147 12.9835 9.94429 12.929 10.2283C12.8746 10.5124 12.7547 10.7798 12.5788 11.0094Z" fill="black" fill-opacity="0.2"/>
</g>
<defs>
<clipPath id="clip0_7243_39300">
<rect width="15" height="15" fill="white" transform="translate(0 0.5)"/>
</clipPath>
</defs>
</svg>
