<svg width="15" height="16" viewBox="0 0 15 16" fill="none" xmlns="http://www.w3.org/2000/svg">
<g clip-path="url(#clip0_6765_4071)">
<path d="M14.1956 3.04813C14.0198 2.83715 13.7997 2.66747 13.551 2.55113C13.3022 2.4348 13.0309 2.37466 12.7563 2.375H2.65125L2.625 2.15562C2.57128 1.69964 2.35212 1.27921 2.00906 0.974049C1.666 0.66889 1.22289 0.500214 0.76375 0.5L0.625 0.5C0.45924 0.5 0.300269 0.565848 0.183058 0.683058C0.065848 0.800269 0 0.95924 0 1.125C0 1.29076 0.065848 1.44973 0.183058 1.56694C0.300269 1.68415 0.45924 1.75 0.625 1.75H0.76375C0.916833 1.75002 1.06459 1.80622 1.17898 1.90795C1.29338 2.00967 1.36646 2.14984 1.38437 2.30187L2.24437 9.61438C2.33366 10.3749 2.69905 11.0761 3.27119 11.585C3.84334 12.0939 4.58241 12.375 5.34812 12.375H11.875C12.0408 12.375 12.1997 12.3092 12.3169 12.1919C12.4342 12.0747 12.5 11.9158 12.5 11.75C12.5 11.5842 12.4342 11.4253 12.3169 11.3081C12.1997 11.1908 12.0408 11.125 11.875 11.125H5.34812C4.96129 11.1239 4.58425 11.0032 4.26871 10.7794C3.95317 10.5556 3.71457 10.2397 3.58562 9.875H11.0356C11.7683 9.87504 12.4777 9.61764 13.0399 9.14777C13.6021 8.6779 13.9813 8.02544 14.1112 7.30438L14.6019 4.58313C14.6508 4.31313 14.6398 4.03567 14.5696 3.7704C14.4994 3.50513 14.3717 3.25855 14.1956 3.04813ZM13.375 4.36125L12.8837 7.0825C12.8057 7.51562 12.5778 7.9075 12.2399 8.1895C11.902 8.4715 11.4757 8.62567 11.0356 8.625H3.38688L2.79875 3.625H12.7563C12.8481 3.62445 12.9389 3.64414 13.0222 3.68266C13.1056 3.72118 13.1794 3.77759 13.2385 3.84788C13.2975 3.91817 13.3404 4.00061 13.364 4.08934C13.3876 4.17806 13.3913 4.2709 13.375 4.36125Z" fill="#1E1E1E"/>
<path d="M14.1956 3.04813C14.0198 2.83715 13.7997 2.66747 13.551 2.55113C13.3022 2.4348 13.0309 2.37466 12.7563 2.375H2.65125L2.625 2.15562C2.57128 1.69964 2.35212 1.27921 2.00906 0.974049C1.666 0.66889 1.22289 0.500214 0.76375 0.5L0.625 0.5C0.45924 0.5 0.300269 0.565848 0.183058 0.683058C0.065848 0.800269 0 0.95924 0 1.125C0 1.29076 0.065848 1.44973 0.183058 1.56694C0.300269 1.68415 0.45924 1.75 0.625 1.75H0.76375C0.916833 1.75002 1.06459 1.80622 1.17898 1.90795C1.29338 2.00967 1.36646 2.14984 1.38437 2.30187L2.24437 9.61438C2.33366 10.3749 2.69905 11.0761 3.27119 11.585C3.84334 12.0939 4.58241 12.375 5.34812 12.375H11.875C12.0408 12.375 12.1997 12.3092 12.3169 12.1919C12.4342 12.0747 12.5 11.9158 12.5 11.75C12.5 11.5842 12.4342 11.4253 12.3169 11.3081C12.1997 11.1908 12.0408 11.125 11.875 11.125H5.34812C4.96129 11.1239 4.58425 11.0032 4.26871 10.7794C3.95317 10.5556 3.71457 10.2397 3.58562 9.875H11.0356C11.7683 9.87504 12.4777 9.61764 13.0399 9.14777C13.6021 8.6779 13.9813 8.02544 14.1112 7.30438L14.6019 4.58313C14.6508 4.31313 14.6398 4.03567 14.5696 3.7704C14.4994 3.50513 14.3717 3.25855 14.1956 3.04813ZM13.375 4.36125L12.8837 7.0825C12.8057 7.51562 12.5778 7.9075 12.2399 8.1895C11.902 8.4715 11.4757 8.62567 11.0356 8.625H3.38688L2.79875 3.625H12.7563C12.8481 3.62445 12.9389 3.64414 13.0222 3.68266C13.1056 3.72118 13.1794 3.77759 13.2385 3.84788C13.2975 3.91817 13.3404 4.00061 13.364 4.08934C13.3876 4.17806 13.3913 4.2709 13.375 4.36125Z" fill="black" fill-opacity="0.2"/>
<path d="M14.1956 3.04813C14.0198 2.83715 13.7997 2.66747 13.551 2.55113C13.3022 2.4348 13.0309 2.37466 12.7563 2.375H2.65125L2.625 2.15562C2.57128 1.69964 2.35212 1.27921 2.00906 0.974049C1.666 0.66889 1.22289 0.500214 0.76375 0.5L0.625 0.5C0.45924 0.5 0.300269 0.565848 0.183058 0.683058C0.065848 0.800269 0 0.95924 0 1.125C0 1.29076 0.065848 1.44973 0.183058 1.56694C0.300269 1.68415 0.45924 1.75 0.625 1.75H0.76375C0.916833 1.75002 1.06459 1.80622 1.17898 1.90795C1.29338 2.00967 1.36646 2.14984 1.38437 2.30187L2.24437 9.61438C2.33366 10.3749 2.69905 11.0761 3.27119 11.585C3.84334 12.0939 4.58241 12.375 5.34812 12.375H11.875C12.0408 12.375 12.1997 12.3092 12.3169 12.1919C12.4342 12.0747 12.5 11.9158 12.5 11.75C12.5 11.5842 12.4342 11.4253 12.3169 11.3081C12.1997 11.1908 12.0408 11.125 11.875 11.125H5.34812C4.96129 11.1239 4.58425 11.0032 4.26871 10.7794C3.95317 10.5556 3.71457 10.2397 3.58562 9.875H11.0356C11.7683 9.87504 12.4777 9.61764 13.0399 9.14777C13.6021 8.6779 13.9813 8.02544 14.1112 7.30438L14.6019 4.58313C14.6508 4.31313 14.6398 4.03567 14.5696 3.7704C14.4994 3.50513 14.3717 3.25855 14.1956 3.04813ZM13.375 4.36125L12.8837 7.0825C12.8057 7.51562 12.5778 7.9075 12.2399 8.1895C11.902 8.4715 11.4757 8.62567 11.0356 8.625H3.38688L2.79875 3.625H12.7563C12.8481 3.62445 12.9389 3.64414 13.0222 3.68266C13.1056 3.72118 13.1794 3.77759 13.2385 3.84788C13.2975 3.91817 13.3404 4.00061 13.364 4.08934C13.3876 4.17806 13.3913 4.2709 13.375 4.36125Z" fill="black" fill-opacity="0.2"/>
<path d="M14.1956 3.04813C14.0198 2.83715 13.7997 2.66747 13.551 2.55113C13.3022 2.4348 13.0309 2.37466 12.7563 2.375H2.65125L2.625 2.15562C2.57128 1.69964 2.35212 1.27921 2.00906 0.974049C1.666 0.66889 1.22289 0.500214 0.76375 0.5L0.625 0.5C0.45924 0.5 0.300269 0.565848 0.183058 0.683058C0.065848 0.800269 0 0.95924 0 1.125C0 1.29076 0.065848 1.44973 0.183058 1.56694C0.300269 1.68415 0.45924 1.75 0.625 1.75H0.76375C0.916833 1.75002 1.06459 1.80622 1.17898 1.90795C1.29338 2.00967 1.36646 2.14984 1.38437 2.30187L2.24437 9.61438C2.33366 10.3749 2.69905 11.0761 3.27119 11.585C3.84334 12.0939 4.58241 12.375 5.34812 12.375H11.875C12.0408 12.375 12.1997 12.3092 12.3169 12.1919C12.4342 12.0747 12.5 11.9158 12.5 11.75C12.5 11.5842 12.4342 11.4253 12.3169 11.3081C12.1997 11.1908 12.0408 11.125 11.875 11.125H5.34812C4.96129 11.1239 4.58425 11.0032 4.26871 10.7794C3.95317 10.5556 3.71457 10.2397 3.58562 9.875H11.0356C11.7683 9.87504 12.4777 9.61764 13.0399 9.14777C13.6021 8.6779 13.9813 8.02544 14.1112 7.30438L14.6019 4.58313C14.6508 4.31313 14.6398 4.03567 14.5696 3.7704C14.4994 3.50513 14.3717 3.25855 14.1956 3.04813ZM13.375 4.36125L12.8837 7.0825C12.8057 7.51562 12.5778 7.9075 12.2399 8.1895C11.902 8.4715 11.4757 8.62567 11.0356 8.625H3.38688L2.79875 3.625H12.7563C12.8481 3.62445 12.9389 3.64414 13.0222 3.68266C13.1056 3.72118 13.1794 3.77759 13.2385 3.84788C13.2975 3.91817 13.3404 4.00061 13.364 4.08934C13.3876 4.17806 13.3913 4.2709 13.375 4.36125Z" fill="black" fill-opacity="0.2"/>
<path d="M14.1956 3.04813C14.0198 2.83715 13.7997 2.66747 13.551 2.55113C13.3022 2.4348 13.0309 2.37466 12.7563 2.375H2.65125L2.625 2.15562C2.57128 1.69964 2.35212 1.27921 2.00906 0.974049C1.666 0.66889 1.22289 0.500214 0.76375 0.5L0.625 0.5C0.45924 0.5 0.300269 0.565848 0.183058 0.683058C0.065848 0.800269 0 0.95924 0 1.125C0 1.29076 0.065848 1.44973 0.183058 1.56694C0.300269 1.68415 0.45924 1.75 0.625 1.75H0.76375C0.916833 1.75002 1.06459 1.80622 1.17898 1.90795C1.29338 2.00967 1.36646 2.14984 1.38437 2.30187L2.24437 9.61438C2.33366 10.3749 2.69905 11.0761 3.27119 11.585C3.84334 12.0939 4.58241 12.375 5.34812 12.375H11.875C12.0408 12.375 12.1997 12.3092 12.3169 12.1919C12.4342 12.0747 12.5 11.9158 12.5 11.75C12.5 11.5842 12.4342 11.4253 12.3169 11.3081C12.1997 11.1908 12.0408 11.125 11.875 11.125H5.34812C4.96129 11.1239 4.58425 11.0032 4.26871 10.7794C3.95317 10.5556 3.71457 10.2397 3.58562 9.875H11.0356C11.7683 9.87504 12.4777 9.61764 13.0399 9.14777C13.6021 8.6779 13.9813 8.02544 14.1112 7.30438L14.6019 4.58313C14.6508 4.31313 14.6398 4.03567 14.5696 3.7704C14.4994 3.50513 14.3717 3.25855 14.1956 3.04813ZM13.375 4.36125L12.8837 7.0825C12.8057 7.51562 12.5778 7.9075 12.2399 8.1895C11.902 8.4715 11.4757 8.62567 11.0356 8.625H3.38688L2.79875 3.625H12.7563C12.8481 3.62445 12.9389 3.64414 13.0222 3.68266C13.1056 3.72118 13.1794 3.77759 13.2385 3.84788C13.2975 3.91817 13.3404 4.00061 13.364 4.08934C13.3876 4.17806 13.3913 4.2709 13.375 4.36125Z" fill="black" fill-opacity="0.2"/>
<path d="M14.1956 3.04813C14.0198 2.83715 13.7997 2.66747 13.551 2.55113C13.3022 2.4348 13.0309 2.37466 12.7563 2.375H2.65125L2.625 2.15562C2.57128 1.69964 2.35212 1.27921 2.00906 0.974049C1.666 0.66889 1.22289 0.500214 0.76375 0.5L0.625 0.5C0.45924 0.5 0.300269 0.565848 0.183058 0.683058C0.065848 0.800269 0 0.95924 0 1.125C0 1.29076 0.065848 1.44973 0.183058 1.56694C0.300269 1.68415 0.45924 1.75 0.625 1.75H0.76375C0.916833 1.75002 1.06459 1.80622 1.17898 1.90795C1.29338 2.00967 1.36646 2.14984 1.38437 2.30187L2.24437 9.61438C2.33366 10.3749 2.69905 11.0761 3.27119 11.585C3.84334 12.0939 4.58241 12.375 5.34812 12.375H11.875C12.0408 12.375 12.1997 12.3092 12.3169 12.1919C12.4342 12.0747 12.5 11.9158 12.5 11.75C12.5 11.5842 12.4342 11.4253 12.3169 11.3081C12.1997 11.1908 12.0408 11.125 11.875 11.125H5.34812C4.96129 11.1239 4.58425 11.0032 4.26871 10.7794C3.95317 10.5556 3.71457 10.2397 3.58562 9.875H11.0356C11.7683 9.87504 12.4777 9.61764 13.0399 9.14777C13.6021 8.6779 13.9813 8.02544 14.1112 7.30438L14.6019 4.58313C14.6508 4.31313 14.6398 4.03567 14.5696 3.7704C14.4994 3.50513 14.3717 3.25855 14.1956 3.04813ZM13.375 4.36125L12.8837 7.0825C12.8057 7.51562 12.5778 7.9075 12.2399 8.1895C11.902 8.4715 11.4757 8.62567 11.0356 8.625H3.38688L2.79875 3.625H12.7563C12.8481 3.62445 12.9389 3.64414 13.0222 3.68266C13.1056 3.72118 13.1794 3.77759 13.2385 3.84788C13.2975 3.91817 13.3404 4.00061 13.364 4.08934C13.3876 4.17806 13.3913 4.2709 13.375 4.36125Z" fill="black" fill-opacity="0.2"/>
<path d="M14.1956 3.04813C14.0198 2.83715 13.7997 2.66747 13.551 2.55113C13.3022 2.4348 13.0309 2.37466 12.7563 2.375H2.65125L2.625 2.15562C2.57128 1.69964 2.35212 1.27921 2.00906 0.974049C1.666 0.66889 1.22289 0.500214 0.76375 0.5L0.625 0.5C0.45924 0.5 0.300269 0.565848 0.183058 0.683058C0.065848 0.800269 0 0.95924 0 1.125C0 1.29076 0.065848 1.44973 0.183058 1.56694C0.300269 1.68415 0.45924 1.75 0.625 1.75H0.76375C0.916833 1.75002 1.06459 1.80622 1.17898 1.90795C1.29338 2.00967 1.36646 2.14984 1.38437 2.30187L2.24437 9.61438C2.33366 10.3749 2.69905 11.0761 3.27119 11.585C3.84334 12.0939 4.58241 12.375 5.34812 12.375H11.875C12.0408 12.375 12.1997 12.3092 12.3169 12.1919C12.4342 12.0747 12.5 11.9158 12.5 11.75C12.5 11.5842 12.4342 11.4253 12.3169 11.3081C12.1997 11.1908 12.0408 11.125 11.875 11.125H5.34812C4.96129 11.1239 4.58425 11.0032 4.26871 10.7794C3.95317 10.5556 3.71457 10.2397 3.58562 9.875H11.0356C11.7683 9.87504 12.4777 9.61764 13.0399 9.14777C13.6021 8.6779 13.9813 8.02544 14.1112 7.30438L14.6019 4.58313C14.6508 4.31313 14.6398 4.03567 14.5696 3.7704C14.4994 3.50513 14.3717 3.25855 14.1956 3.04813ZM13.375 4.36125L12.8837 7.0825C12.8057 7.51562 12.5778 7.9075 12.2399 8.1895C11.902 8.4715 11.4757 8.62567 11.0356 8.625H3.38688L2.79875 3.625H12.7563C12.8481 3.62445 12.9389 3.64414 13.0222 3.68266C13.1056 3.72118 13.1794 3.77759 13.2385 3.84788C13.2975 3.91817 13.3404 4.00061 13.364 4.08934C13.3876 4.17806 13.3913 4.2709 13.375 4.36125Z" fill="black" fill-opacity="0.2"/>
<path d="M14.1956 3.04813C14.0198 2.83715 13.7997 2.66747 13.551 2.55113C13.3022 2.4348 13.0309 2.37466 12.7563 2.375H2.65125L2.625 2.15562C2.57128 1.69964 2.35212 1.27921 2.00906 0.974049C1.666 0.66889 1.22289 0.500214 0.76375 0.5L0.625 0.5C0.45924 0.5 0.300269 0.565848 0.183058 0.683058C0.065848 0.800269 0 0.95924 0 1.125C0 1.29076 0.065848 1.44973 0.183058 1.56694C0.300269 1.68415 0.45924 1.75 0.625 1.75H0.76375C0.916833 1.75002 1.06459 1.80622 1.17898 1.90795C1.29338 2.00967 1.36646 2.14984 1.38437 2.30187L2.24437 9.61438C2.33366 10.3749 2.69905 11.0761 3.27119 11.585C3.84334 12.0939 4.58241 12.375 5.34812 12.375H11.875C12.0408 12.375 12.1997 12.3092 12.3169 12.1919C12.4342 12.0747 12.5 11.9158 12.5 11.75C12.5 11.5842 12.4342 11.4253 12.3169 11.3081C12.1997 11.1908 12.0408 11.125 11.875 11.125H5.34812C4.96129 11.1239 4.58425 11.0032 4.26871 10.7794C3.95317 10.5556 3.71457 10.2397 3.58562 9.875H11.0356C11.7683 9.87504 12.4777 9.61764 13.0399 9.14777C13.6021 8.6779 13.9813 8.02544 14.1112 7.30438L14.6019 4.58313C14.6508 4.31313 14.6398 4.03567 14.5696 3.7704C14.4994 3.50513 14.3717 3.25855 14.1956 3.04813ZM13.375 4.36125L12.8837 7.0825C12.8057 7.51562 12.5778 7.9075 12.2399 8.1895C11.902 8.4715 11.4757 8.62567 11.0356 8.625H3.38688L2.79875 3.625H12.7563C12.8481 3.62445 12.9389 3.64414 13.0222 3.68266C13.1056 3.72118 13.1794 3.77759 13.2385 3.84788C13.2975 3.91817 13.3404 4.00061 13.364 4.08934C13.3876 4.17806 13.3913 4.2709 13.375 4.36125Z" fill="black" fill-opacity="0.2"/>
<path d="M14.1956 3.04813C14.0198 2.83715 13.7997 2.66747 13.551 2.55113C13.3022 2.4348 13.0309 2.37466 12.7563 2.375H2.65125L2.625 2.15562C2.57128 1.69964 2.35212 1.27921 2.00906 0.974049C1.666 0.66889 1.22289 0.500214 0.76375 0.5L0.625 0.5C0.45924 0.5 0.300269 0.565848 0.183058 0.683058C0.065848 0.800269 0 0.95924 0 1.125C0 1.29076 0.065848 1.44973 0.183058 1.56694C0.300269 1.68415 0.45924 1.75 0.625 1.75H0.76375C0.916833 1.75002 1.06459 1.80622 1.17898 1.90795C1.29338 2.00967 1.36646 2.14984 1.38437 2.30187L2.24437 9.61438C2.33366 10.3749 2.69905 11.0761 3.27119 11.585C3.84334 12.0939 4.58241 12.375 5.34812 12.375H11.875C12.0408 12.375 12.1997 12.3092 12.3169 12.1919C12.4342 12.0747 12.5 11.9158 12.5 11.75C12.5 11.5842 12.4342 11.4253 12.3169 11.3081C12.1997 11.1908 12.0408 11.125 11.875 11.125H5.34812C4.96129 11.1239 4.58425 11.0032 4.26871 10.7794C3.95317 10.5556 3.71457 10.2397 3.58562 9.875H11.0356C11.7683 9.87504 12.4777 9.61764 13.0399 9.14777C13.6021 8.6779 13.9813 8.02544 14.1112 7.30438L14.6019 4.58313C14.6508 4.31313 14.6398 4.03567 14.5696 3.7704C14.4994 3.50513 14.3717 3.25855 14.1956 3.04813ZM13.375 4.36125L12.8837 7.0825C12.8057 7.51562 12.5778 7.9075 12.2399 8.1895C11.902 8.4715 11.4757 8.62567 11.0356 8.625H3.38688L2.79875 3.625H12.7563C12.8481 3.62445 12.9389 3.64414 13.0222 3.68266C13.1056 3.72118 13.1794 3.77759 13.2385 3.84788C13.2975 3.91817 13.3404 4.00061 13.364 4.08934C13.3876 4.17806 13.3913 4.2709 13.375 4.36125Z" fill="black" fill-opacity="0.2"/>
<path d="M14.1956 3.04813C14.0198 2.83715 13.7997 2.66747 13.551 2.55113C13.3022 2.4348 13.0309 2.37466 12.7563 2.375H2.65125L2.625 2.15562C2.57128 1.69964 2.35212 1.27921 2.00906 0.974049C1.666 0.66889 1.22289 0.500214 0.76375 0.5L0.625 0.5C0.45924 0.5 0.300269 0.565848 0.183058 0.683058C0.065848 0.800269 0 0.95924 0 1.125C0 1.29076 0.065848 1.44973 0.183058 1.56694C0.300269 1.68415 0.45924 1.75 0.625 1.75H0.76375C0.916833 1.75002 1.06459 1.80622 1.17898 1.90795C1.29338 2.00967 1.36646 2.14984 1.38437 2.30187L2.24437 9.61438C2.33366 10.3749 2.69905 11.0761 3.27119 11.585C3.84334 12.0939 4.58241 12.375 5.34812 12.375H11.875C12.0408 12.375 12.1997 12.3092 12.3169 12.1919C12.4342 12.0747 12.5 11.9158 12.5 11.75C12.5 11.5842 12.4342 11.4253 12.3169 11.3081C12.1997 11.1908 12.0408 11.125 11.875 11.125H5.34812C4.96129 11.1239 4.58425 11.0032 4.26871 10.7794C3.95317 10.5556 3.71457 10.2397 3.58562 9.875H11.0356C11.7683 9.87504 12.4777 9.61764 13.0399 9.14777C13.6021 8.6779 13.9813 8.02544 14.1112 7.30438L14.6019 4.58313C14.6508 4.31313 14.6398 4.03567 14.5696 3.7704C14.4994 3.50513 14.3717 3.25855 14.1956 3.04813ZM13.375 4.36125L12.8837 7.0825C12.8057 7.51562 12.5778 7.9075 12.2399 8.1895C11.902 8.4715 11.4757 8.62567 11.0356 8.625H3.38688L2.79875 3.625H12.7563C12.8481 3.62445 12.9389 3.64414 13.0222 3.68266C13.1056 3.72118 13.1794 3.77759 13.2385 3.84788C13.2975 3.91817 13.3404 4.00061 13.364 4.08934C13.3876 4.17806 13.3913 4.2709 13.375 4.36125Z" fill="black" fill-opacity="0.2"/>
<path d="M14.1956 3.04813C14.0198 2.83715 13.7997 2.66747 13.551 2.55113C13.3022 2.4348 13.0309 2.37466 12.7563 2.375H2.65125L2.625 2.15562C2.57128 1.69964 2.35212 1.27921 2.00906 0.974049C1.666 0.66889 1.22289 0.500214 0.76375 0.5L0.625 0.5C0.45924 0.5 0.300269 0.565848 0.183058 0.683058C0.065848 0.800269 0 0.95924 0 1.125C0 1.29076 0.065848 1.44973 0.183058 1.56694C0.300269 1.68415 0.45924 1.75 0.625 1.75H0.76375C0.916833 1.75002 1.06459 1.80622 1.17898 1.90795C1.29338 2.00967 1.36646 2.14984 1.38437 2.30187L2.24437 9.61438C2.33366 10.3749 2.69905 11.0761 3.27119 11.585C3.84334 12.0939 4.58241 12.375 5.34812 12.375H11.875C12.0408 12.375 12.1997 12.3092 12.3169 12.1919C12.4342 12.0747 12.5 11.9158 12.5 11.75C12.5 11.5842 12.4342 11.4253 12.3169 11.3081C12.1997 11.1908 12.0408 11.125 11.875 11.125H5.34812C4.96129 11.1239 4.58425 11.0032 4.26871 10.7794C3.95317 10.5556 3.71457 10.2397 3.58562 9.875H11.0356C11.7683 9.87504 12.4777 9.61764 13.0399 9.14777C13.6021 8.6779 13.9813 8.02544 14.1112 7.30438L14.6019 4.58313C14.6508 4.31313 14.6398 4.03567 14.5696 3.7704C14.4994 3.50513 14.3717 3.25855 14.1956 3.04813ZM13.375 4.36125L12.8837 7.0825C12.8057 7.51562 12.5778 7.9075 12.2399 8.1895C11.902 8.4715 11.4757 8.62567 11.0356 8.625H3.38688L2.79875 3.625H12.7563C12.8481 3.62445 12.9389 3.64414 13.0222 3.68266C13.1056 3.72118 13.1794 3.77759 13.2385 3.84788C13.2975 3.91817 13.3404 4.00061 13.364 4.08934C13.3876 4.17806 13.3913 4.2709 13.375 4.36125Z" fill="black" fill-opacity="0.2"/>
<path d="M14.1956 3.04813C14.0198 2.83715 13.7997 2.66747 13.551 2.55113C13.3022 2.4348 13.0309 2.37466 12.7563 2.375H2.65125L2.625 2.15562C2.57128 1.69964 2.35212 1.27921 2.00906 0.974049C1.666 0.66889 1.22289 0.500214 0.76375 0.5L0.625 0.5C0.45924 0.5 0.300269 0.565848 0.183058 0.683058C0.065848 0.800269 0 0.95924 0 1.125C0 1.29076 0.065848 1.44973 0.183058 1.56694C0.300269 1.68415 0.45924 1.75 0.625 1.75H0.76375C0.916833 1.75002 1.06459 1.80622 1.17898 1.90795C1.29338 2.00967 1.36646 2.14984 1.38437 2.30187L2.24437 9.61438C2.33366 10.3749 2.69905 11.0761 3.27119 11.585C3.84334 12.0939 4.58241 12.375 5.34812 12.375H11.875C12.0408 12.375 12.1997 12.3092 12.3169 12.1919C12.4342 12.0747 12.5 11.9158 12.5 11.75C12.5 11.5842 12.4342 11.4253 12.3169 11.3081C12.1997 11.1908 12.0408 11.125 11.875 11.125H5.34812C4.96129 11.1239 4.58425 11.0032 4.26871 10.7794C3.95317 10.5556 3.71457 10.2397 3.58562 9.875H11.0356C11.7683 9.87504 12.4777 9.61764 13.0399 9.14777C13.6021 8.6779 13.9813 8.02544 14.1112 7.30438L14.6019 4.58313C14.6508 4.31313 14.6398 4.03567 14.5696 3.7704C14.4994 3.50513 14.3717 3.25855 14.1956 3.04813ZM13.375 4.36125L12.8837 7.0825C12.8057 7.51562 12.5778 7.9075 12.2399 8.1895C11.902 8.4715 11.4757 8.62567 11.0356 8.625H3.38688L2.79875 3.625H12.7563C12.8481 3.62445 12.9389 3.64414 13.0222 3.68266C13.1056 3.72118 13.1794 3.77759 13.2385 3.84788C13.2975 3.91817 13.3404 4.00061 13.364 4.08934C13.3876 4.17806 13.3913 4.2709 13.375 4.36125Z" fill="black" fill-opacity="0.2"/>
<path d="M14.1956 3.04813C14.0198 2.83715 13.7997 2.66747 13.551 2.55113C13.3022 2.4348 13.0309 2.37466 12.7563 2.375H2.65125L2.625 2.15562C2.57128 1.69964 2.35212 1.27921 2.00906 0.974049C1.666 0.66889 1.22289 0.500214 0.76375 0.5L0.625 0.5C0.45924 0.5 0.300269 0.565848 0.183058 0.683058C0.065848 0.800269 0 0.95924 0 1.125C0 1.29076 0.065848 1.44973 0.183058 1.56694C0.300269 1.68415 0.45924 1.75 0.625 1.75H0.76375C0.916833 1.75002 1.06459 1.80622 1.17898 1.90795C1.29338 2.00967 1.36646 2.14984 1.38437 2.30187L2.24437 9.61438C2.33366 10.3749 2.69905 11.0761 3.27119 11.585C3.84334 12.0939 4.58241 12.375 5.34812 12.375H11.875C12.0408 12.375 12.1997 12.3092 12.3169 12.1919C12.4342 12.0747 12.5 11.9158 12.5 11.75C12.5 11.5842 12.4342 11.4253 12.3169 11.3081C12.1997 11.1908 12.0408 11.125 11.875 11.125H5.34812C4.96129 11.1239 4.58425 11.0032 4.26871 10.7794C3.95317 10.5556 3.71457 10.2397 3.58562 9.875H11.0356C11.7683 9.87504 12.4777 9.61764 13.0399 9.14777C13.6021 8.6779 13.9813 8.02544 14.1112 7.30438L14.6019 4.58313C14.6508 4.31313 14.6398 4.03567 14.5696 3.7704C14.4994 3.50513 14.3717 3.25855 14.1956 3.04813ZM13.375 4.36125L12.8837 7.0825C12.8057 7.51562 12.5778 7.9075 12.2399 8.1895C11.902 8.4715 11.4757 8.62567 11.0356 8.625H3.38688L2.79875 3.625H12.7563C12.8481 3.62445 12.9389 3.64414 13.0222 3.68266C13.1056 3.72118 13.1794 3.77759 13.2385 3.84788C13.2975 3.91817 13.3404 4.00061 13.364 4.08934C13.3876 4.17806 13.3913 4.2709 13.375 4.36125Z" fill="black" fill-opacity="0.2"/>
<path d="M14.1956 3.04813C14.0198 2.83715 13.7997 2.66747 13.551 2.55113C13.3022 2.4348 13.0309 2.37466 12.7563 2.375H2.65125L2.625 2.15562C2.57128 1.69964 2.35212 1.27921 2.00906 0.974049C1.666 0.66889 1.22289 0.500214 0.76375 0.5L0.625 0.5C0.45924 0.5 0.300269 0.565848 0.183058 0.683058C0.065848 0.800269 0 0.95924 0 1.125C0 1.29076 0.065848 1.44973 0.183058 1.56694C0.300269 1.68415 0.45924 1.75 0.625 1.75H0.76375C0.916833 1.75002 1.06459 1.80622 1.17898 1.90795C1.29338 2.00967 1.36646 2.14984 1.38437 2.30187L2.24437 9.61438C2.33366 10.3749 2.69905 11.0761 3.27119 11.585C3.84334 12.0939 4.58241 12.375 5.34812 12.375H11.875C12.0408 12.375 12.1997 12.3092 12.3169 12.1919C12.4342 12.0747 12.5 11.9158 12.5 11.75C12.5 11.5842 12.4342 11.4253 12.3169 11.3081C12.1997 11.1908 12.0408 11.125 11.875 11.125H5.34812C4.96129 11.1239 4.58425 11.0032 4.26871 10.7794C3.95317 10.5556 3.71457 10.2397 3.58562 9.875H11.0356C11.7683 9.87504 12.4777 9.61764 13.0399 9.14777C13.6021 8.6779 13.9813 8.02544 14.1112 7.30438L14.6019 4.58313C14.6508 4.31313 14.6398 4.03567 14.5696 3.7704C14.4994 3.50513 14.3717 3.25855 14.1956 3.04813ZM13.375 4.36125L12.8837 7.0825C12.8057 7.51562 12.5778 7.9075 12.2399 8.1895C11.902 8.4715 11.4757 8.62567 11.0356 8.625H3.38688L2.79875 3.625H12.7563C12.8481 3.62445 12.9389 3.64414 13.0222 3.68266C13.1056 3.72118 13.1794 3.77759 13.2385 3.84788C13.2975 3.91817 13.3404 4.00061 13.364 4.08934C13.3876 4.17806 13.3913 4.2709 13.375 4.36125Z" fill="black" fill-opacity="0.2"/>
<path d="M14.1956 3.04813C14.0198 2.83715 13.7997 2.66747 13.551 2.55113C13.3022 2.4348 13.0309 2.37466 12.7563 2.375H2.65125L2.625 2.15562C2.57128 1.69964 2.35212 1.27921 2.00906 0.974049C1.666 0.66889 1.22289 0.500214 0.76375 0.5L0.625 0.5C0.45924 0.5 0.300269 0.565848 0.183058 0.683058C0.065848 0.800269 0 0.95924 0 1.125C0 1.29076 0.065848 1.44973 0.183058 1.56694C0.300269 1.68415 0.45924 1.75 0.625 1.75H0.76375C0.916833 1.75002 1.06459 1.80622 1.17898 1.90795C1.29338 2.00967 1.36646 2.14984 1.38437 2.30187L2.24437 9.61438C2.33366 10.3749 2.69905 11.0761 3.27119 11.585C3.84334 12.0939 4.58241 12.375 5.34812 12.375H11.875C12.0408 12.375 12.1997 12.3092 12.3169 12.1919C12.4342 12.0747 12.5 11.9158 12.5 11.75C12.5 11.5842 12.4342 11.4253 12.3169 11.3081C12.1997 11.1908 12.0408 11.125 11.875 11.125H5.34812C4.96129 11.1239 4.58425 11.0032 4.26871 10.7794C3.95317 10.5556 3.71457 10.2397 3.58562 9.875H11.0356C11.7683 9.87504 12.4777 9.61764 13.0399 9.14777C13.6021 8.6779 13.9813 8.02544 14.1112 7.30438L14.6019 4.58313C14.6508 4.31313 14.6398 4.03567 14.5696 3.7704C14.4994 3.50513 14.3717 3.25855 14.1956 3.04813ZM13.375 4.36125L12.8837 7.0825C12.8057 7.51562 12.5778 7.9075 12.2399 8.1895C11.902 8.4715 11.4757 8.62567 11.0356 8.625H3.38688L2.79875 3.625H12.7563C12.8481 3.62445 12.9389 3.64414 13.0222 3.68266C13.1056 3.72118 13.1794 3.77759 13.2385 3.84788C13.2975 3.91817 13.3404 4.00061 13.364 4.08934C13.3876 4.17806 13.3913 4.2709 13.375 4.36125Z" fill="black" fill-opacity="0.2"/>
<path d="M14.1956 3.04813C14.0198 2.83715 13.7997 2.66747 13.551 2.55113C13.3022 2.4348 13.0309 2.37466 12.7563 2.375H2.65125L2.625 2.15562C2.57128 1.69964 2.35212 1.27921 2.00906 0.974049C1.666 0.66889 1.22289 0.500214 0.76375 0.5L0.625 0.5C0.45924 0.5 0.300269 0.565848 0.183058 0.683058C0.065848 0.800269 0 0.95924 0 1.125C0 1.29076 0.065848 1.44973 0.183058 1.56694C0.300269 1.68415 0.45924 1.75 0.625 1.75H0.76375C0.916833 1.75002 1.06459 1.80622 1.17898 1.90795C1.29338 2.00967 1.36646 2.14984 1.38437 2.30187L2.24437 9.61438C2.33366 10.3749 2.69905 11.0761 3.27119 11.585C3.84334 12.0939 4.58241 12.375 5.34812 12.375H11.875C12.0408 12.375 12.1997 12.3092 12.3169 12.1919C12.4342 12.0747 12.5 11.9158 12.5 11.75C12.5 11.5842 12.4342 11.4253 12.3169 11.3081C12.1997 11.1908 12.0408 11.125 11.875 11.125H5.34812C4.96129 11.1239 4.58425 11.0032 4.26871 10.7794C3.95317 10.5556 3.71457 10.2397 3.58562 9.875H11.0356C11.7683 9.87504 12.4777 9.61764 13.0399 9.14777C13.6021 8.6779 13.9813 8.02544 14.1112 7.30438L14.6019 4.58313C14.6508 4.31313 14.6398 4.03567 14.5696 3.7704C14.4994 3.50513 14.3717 3.25855 14.1956 3.04813ZM13.375 4.36125L12.8837 7.0825C12.8057 7.51562 12.5778 7.9075 12.2399 8.1895C11.902 8.4715 11.4757 8.62567 11.0356 8.625H3.38688L2.79875 3.625H12.7563C12.8481 3.62445 12.9389 3.64414 13.0222 3.68266C13.1056 3.72118 13.1794 3.77759 13.2385 3.84788C13.2975 3.91817 13.3404 4.00061 13.364 4.08934C13.3876 4.17806 13.3913 4.2709 13.375 4.36125Z" fill="black" fill-opacity="0.2"/>
<path d="M14.1956 3.04813C14.0198 2.83715 13.7997 2.66747 13.551 2.55113C13.3022 2.4348 13.0309 2.37466 12.7563 2.375H2.65125L2.625 2.15562C2.57128 1.69964 2.35212 1.27921 2.00906 0.974049C1.666 0.66889 1.22289 0.500214 0.76375 0.5L0.625 0.5C0.45924 0.5 0.300269 0.565848 0.183058 0.683058C0.065848 0.800269 0 0.95924 0 1.125C0 1.29076 0.065848 1.44973 0.183058 1.56694C0.300269 1.68415 0.45924 1.75 0.625 1.75H0.76375C0.916833 1.75002 1.06459 1.80622 1.17898 1.90795C1.29338 2.00967 1.36646 2.14984 1.38437 2.30187L2.24437 9.61438C2.33366 10.3749 2.69905 11.0761 3.27119 11.585C3.84334 12.0939 4.58241 12.375 5.34812 12.375H11.875C12.0408 12.375 12.1997 12.3092 12.3169 12.1919C12.4342 12.0747 12.5 11.9158 12.5 11.75C12.5 11.5842 12.4342 11.4253 12.3169 11.3081C12.1997 11.1908 12.0408 11.125 11.875 11.125H5.34812C4.96129 11.1239 4.58425 11.0032 4.26871 10.7794C3.95317 10.5556 3.71457 10.2397 3.58562 9.875H11.0356C11.7683 9.87504 12.4777 9.61764 13.0399 9.14777C13.6021 8.6779 13.9813 8.02544 14.1112 7.30438L14.6019 4.58313C14.6508 4.31313 14.6398 4.03567 14.5696 3.7704C14.4994 3.50513 14.3717 3.25855 14.1956 3.04813ZM13.375 4.36125L12.8837 7.0825C12.8057 7.51562 12.5778 7.9075 12.2399 8.1895C11.902 8.4715 11.4757 8.62567 11.0356 8.625H3.38688L2.79875 3.625H12.7563C12.8481 3.62445 12.9389 3.64414 13.0222 3.68266C13.1056 3.72118 13.1794 3.77759 13.2385 3.84788C13.2975 3.91817 13.3404 4.00061 13.364 4.08934C13.3876 4.17806 13.3913 4.2709 13.375 4.36125Z" fill="black" fill-opacity="0.2"/>
<path d="M4.375 15.5004C5.06535 15.5004 5.625 14.9407 5.625 14.2504C5.625 13.56 5.06535 13.0004 4.375 13.0004C3.68464 13.0004 3.125 13.56 3.125 14.2504C3.125 14.9407 3.68464 15.5004 4.375 15.5004Z" fill="#1E1E1E"/>
<path d="M4.375 15.5004C5.06535 15.5004 5.625 14.9407 5.625 14.2504C5.625 13.56 5.06535 13.0004 4.375 13.0004C3.68464 13.0004 3.125 13.56 3.125 14.2504C3.125 14.9407 3.68464 15.5004 4.375 15.5004Z" fill="black" fill-opacity="0.2"/>
<path d="M4.375 15.5004C5.06535 15.5004 5.625 14.9407 5.625 14.2504C5.625 13.56 5.06535 13.0004 4.375 13.0004C3.68464 13.0004 3.125 13.56 3.125 14.2504C3.125 14.9407 3.68464 15.5004 4.375 15.5004Z" fill="black" fill-opacity="0.2"/>
<path d="M4.375 15.5004C5.06535 15.5004 5.625 14.9407 5.625 14.2504C5.625 13.56 5.06535 13.0004 4.375 13.0004C3.68464 13.0004 3.125 13.56 3.125 14.2504C3.125 14.9407 3.68464 15.5004 4.375 15.5004Z" fill="black" fill-opacity="0.2"/>
<path d="M4.375 15.5004C5.06535 15.5004 5.625 14.9407 5.625 14.2504C5.625 13.56 5.06535 13.0004 4.375 13.0004C3.68464 13.0004 3.125 13.56 3.125 14.2504C3.125 14.9407 3.68464 15.5004 4.375 15.5004Z" fill="black" fill-opacity="0.2"/>
<path d="M4.375 15.5004C5.06535 15.5004 5.625 14.9407 5.625 14.2504C5.625 13.56 5.06535 13.0004 4.375 13.0004C3.68464 13.0004 3.125 13.56 3.125 14.2504C3.125 14.9407 3.68464 15.5004 4.375 15.5004Z" fill="black" fill-opacity="0.2"/>
<path d="M4.375 15.5004C5.06535 15.5004 5.625 14.9407 5.625 14.2504C5.625 13.56 5.06535 13.0004 4.375 13.0004C3.68464 13.0004 3.125 13.56 3.125 14.2504C3.125 14.9407 3.68464 15.5004 4.375 15.5004Z" fill="black" fill-opacity="0.2"/>
<path d="M4.375 15.5004C5.06535 15.5004 5.625 14.9407 5.625 14.2504C5.625 13.56 5.06535 13.0004 4.375 13.0004C3.68464 13.0004 3.125 13.56 3.125 14.2504C3.125 14.9407 3.68464 15.5004 4.375 15.5004Z" fill="black" fill-opacity="0.2"/>
<path d="M4.375 15.5004C5.06535 15.5004 5.625 14.9407 5.625 14.2504C5.625 13.56 5.06535 13.0004 4.375 13.0004C3.68464 13.0004 3.125 13.56 3.125 14.2504C3.125 14.9407 3.68464 15.5004 4.375 15.5004Z" fill="black" fill-opacity="0.2"/>
<path d="M4.375 15.5004C5.06535 15.5004 5.625 14.9407 5.625 14.2504C5.625 13.56 5.06535 13.0004 4.375 13.0004C3.68464 13.0004 3.125 13.56 3.125 14.2504C3.125 14.9407 3.68464 15.5004 4.375 15.5004Z" fill="black" fill-opacity="0.2"/>
<path d="M4.375 15.5004C5.06535 15.5004 5.625 14.9407 5.625 14.2504C5.625 13.56 5.06535 13.0004 4.375 13.0004C3.68464 13.0004 3.125 13.56 3.125 14.2504C3.125 14.9407 3.68464 15.5004 4.375 15.5004Z" fill="black" fill-opacity="0.2"/>
<path d="M4.375 15.5004C5.06535 15.5004 5.625 14.9407 5.625 14.2504C5.625 13.56 5.06535 13.0004 4.375 13.0004C3.68464 13.0004 3.125 13.56 3.125 14.2504C3.125 14.9407 3.68464 15.5004 4.375 15.5004Z" fill="black" fill-opacity="0.2"/>
<path d="M4.375 15.5004C5.06535 15.5004 5.625 14.9407 5.625 14.2504C5.625 13.56 5.06535 13.0004 4.375 13.0004C3.68464 13.0004 3.125 13.56 3.125 14.2504C3.125 14.9407 3.68464 15.5004 4.375 15.5004Z" fill="black" fill-opacity="0.2"/>
<path d="M4.375 15.5004C5.06535 15.5004 5.625 14.9407 5.625 14.2504C5.625 13.56 5.06535 13.0004 4.375 13.0004C3.68464 13.0004 3.125 13.56 3.125 14.2504C3.125 14.9407 3.68464 15.5004 4.375 15.5004Z" fill="black" fill-opacity="0.2"/>
<path d="M4.375 15.5004C5.06535 15.5004 5.625 14.9407 5.625 14.2504C5.625 13.56 5.06535 13.0004 4.375 13.0004C3.68464 13.0004 3.125 13.56 3.125 14.2504C3.125 14.9407 3.68464 15.5004 4.375 15.5004Z" fill="black" fill-opacity="0.2"/>
<path d="M4.375 15.5004C5.06535 15.5004 5.625 14.9407 5.625 14.2504C5.625 13.56 5.06535 13.0004 4.375 13.0004C3.68464 13.0004 3.125 13.56 3.125 14.2504C3.125 14.9407 3.68464 15.5004 4.375 15.5004Z" fill="black" fill-opacity="0.2"/>
<path d="M4.375 15.5004C5.06535 15.5004 5.625 14.9407 5.625 14.2504C5.625 13.56 5.06535 13.0004 4.375 13.0004C3.68464 13.0004 3.125 13.56 3.125 14.2504C3.125 14.9407 3.68464 15.5004 4.375 15.5004Z" fill="black" fill-opacity="0.2"/>
<path d="M10.625 15.5004C11.3154 15.5004 11.875 14.9407 11.875 14.2504C11.875 13.56 11.3154 13.0004 10.625 13.0004C9.93464 13.0004 9.375 13.56 9.375 14.2504C9.375 14.9407 9.93464 15.5004 10.625 15.5004Z" fill="#1E1E1E"/>
<path d="M10.625 15.5004C11.3154 15.5004 11.875 14.9407 11.875 14.2504C11.875 13.56 11.3154 13.0004 10.625 13.0004C9.93464 13.0004 9.375 13.56 9.375 14.2504C9.375 14.9407 9.93464 15.5004 10.625 15.5004Z" fill="black" fill-opacity="0.2"/>
<path d="M10.625 15.5004C11.3154 15.5004 11.875 14.9407 11.875 14.2504C11.875 13.56 11.3154 13.0004 10.625 13.0004C9.93464 13.0004 9.375 13.56 9.375 14.2504C9.375 14.9407 9.93464 15.5004 10.625 15.5004Z" fill="black" fill-opacity="0.2"/>
<path d="M10.625 15.5004C11.3154 15.5004 11.875 14.9407 11.875 14.2504C11.875 13.56 11.3154 13.0004 10.625 13.0004C9.93464 13.0004 9.375 13.56 9.375 14.2504C9.375 14.9407 9.93464 15.5004 10.625 15.5004Z" fill="black" fill-opacity="0.2"/>
<path d="M10.625 15.5004C11.3154 15.5004 11.875 14.9407 11.875 14.2504C11.875 13.56 11.3154 13.0004 10.625 13.0004C9.93464 13.0004 9.375 13.56 9.375 14.2504C9.375 14.9407 9.93464 15.5004 10.625 15.5004Z" fill="black" fill-opacity="0.2"/>
<path d="M10.625 15.5004C11.3154 15.5004 11.875 14.9407 11.875 14.2504C11.875 13.56 11.3154 13.0004 10.625 13.0004C9.93464 13.0004 9.375 13.56 9.375 14.2504C9.375 14.9407 9.93464 15.5004 10.625 15.5004Z" fill="black" fill-opacity="0.2"/>
<path d="M10.625 15.5004C11.3154 15.5004 11.875 14.9407 11.875 14.2504C11.875 13.56 11.3154 13.0004 10.625 13.0004C9.93464 13.0004 9.375 13.56 9.375 14.2504C9.375 14.9407 9.93464 15.5004 10.625 15.5004Z" fill="black" fill-opacity="0.2"/>
<path d="M10.625 15.5004C11.3154 15.5004 11.875 14.9407 11.875 14.2504C11.875 13.56 11.3154 13.0004 10.625 13.0004C9.93464 13.0004 9.375 13.56 9.375 14.2504C9.375 14.9407 9.93464 15.5004 10.625 15.5004Z" fill="black" fill-opacity="0.2"/>
<path d="M10.625 15.5004C11.3154 15.5004 11.875 14.9407 11.875 14.2504C11.875 13.56 11.3154 13.0004 10.625 13.0004C9.93464 13.0004 9.375 13.56 9.375 14.2504C9.375 14.9407 9.93464 15.5004 10.625 15.5004Z" fill="black" fill-opacity="0.2"/>
<path d="M10.625 15.5004C11.3154 15.5004 11.875 14.9407 11.875 14.2504C11.875 13.56 11.3154 13.0004 10.625 13.0004C9.93464 13.0004 9.375 13.56 9.375 14.2504C9.375 14.9407 9.93464 15.5004 10.625 15.5004Z" fill="black" fill-opacity="0.2"/>
<path d="M10.625 15.5004C11.3154 15.5004 11.875 14.9407 11.875 14.2504C11.875 13.56 11.3154 13.0004 10.625 13.0004C9.93464 13.0004 9.375 13.56 9.375 14.2504C9.375 14.9407 9.93464 15.5004 10.625 15.5004Z" fill="black" fill-opacity="0.2"/>
<path d="M10.625 15.5004C11.3154 15.5004 11.875 14.9407 11.875 14.2504C11.875 13.56 11.3154 13.0004 10.625 13.0004C9.93464 13.0004 9.375 13.56 9.375 14.2504C9.375 14.9407 9.93464 15.5004 10.625 15.5004Z" fill="black" fill-opacity="0.2"/>
<path d="M10.625 15.5004C11.3154 15.5004 11.875 14.9407 11.875 14.2504C11.875 13.56 11.3154 13.0004 10.625 13.0004C9.93464 13.0004 9.375 13.56 9.375 14.2504C9.375 14.9407 9.93464 15.5004 10.625 15.5004Z" fill="black" fill-opacity="0.2"/>
<path d="M10.625 15.5004C11.3154 15.5004 11.875 14.9407 11.875 14.2504C11.875 13.56 11.3154 13.0004 10.625 13.0004C9.93464 13.0004 9.375 13.56 9.375 14.2504C9.375 14.9407 9.93464 15.5004 10.625 15.5004Z" fill="black" fill-opacity="0.2"/>
<path d="M10.625 15.5004C11.3154 15.5004 11.875 14.9407 11.875 14.2504C11.875 13.56 11.3154 13.0004 10.625 13.0004C9.93464 13.0004 9.375 13.56 9.375 14.2504C9.375 14.9407 9.93464 15.5004 10.625 15.5004Z" fill="black" fill-opacity="0.2"/>
<path d="M10.625 15.5004C11.3154 15.5004 11.875 14.9407 11.875 14.2504C11.875 13.56 11.3154 13.0004 10.625 13.0004C9.93464 13.0004 9.375 13.56 9.375 14.2504C9.375 14.9407 9.93464 15.5004 10.625 15.5004Z" fill="black" fill-opacity="0.2"/>
<path d="M10.625 15.5004C11.3154 15.5004 11.875 14.9407 11.875 14.2504C11.875 13.56 11.3154 13.0004 10.625 13.0004C9.93464 13.0004 9.375 13.56 9.375 14.2504C9.375 14.9407 9.93464 15.5004 10.625 15.5004Z" fill="black" fill-opacity="0.2"/>
</g>
<defs>
<clipPath id="clip0_6765_4071">
<rect width="15" height="15" fill="white" transform="translate(0 0.5)"/>
</clipPath>
</defs>
</svg>
