<svg width="15" height="16" viewBox="0 0 15 16" fill="none" xmlns="http://www.w3.org/2000/svg">
<g clip-path="url(#clip0_6765_4081)">
<path d="M11.25 15.5H3.75C2.9215 15.499 2.12722 15.1694 1.54139 14.5836C0.955551 13.9978 0.625992 13.2035 0.625 12.375V3.625C0.625992 2.7965 0.955551 2.00222 1.54139 1.41639C2.12722 0.830551 2.9215 0.500992 3.75 0.5L11.25 0.5C12.0785 0.500992 12.8728 0.830551 13.4586 1.41639C14.0444 2.00222 14.374 2.7965 14.375 3.625V12.375C14.374 13.2035 14.0444 13.9978 13.4586 14.5836C12.8728 15.1694 12.0785 15.499 11.25 15.5ZM3.75 1.75C3.25272 1.75 2.77581 1.94754 2.42417 2.29917C2.07254 2.65081 1.875 3.12772 1.875 3.625V12.375C1.875 12.8723 2.07254 13.3492 2.42417 13.7008C2.77581 14.0525 3.25272 14.25 3.75 14.25H11.25C11.7473 14.25 12.2242 14.0525 12.5758 13.7008C12.9275 13.3492 13.125 12.8723 13.125 12.375V3.625C13.125 3.12772 12.9275 2.65081 12.5758 2.29917C12.2242 1.94754 11.7473 1.75 11.25 1.75H3.75ZM10 6.75H5C4.50272 6.75 4.02581 6.55246 3.67417 6.20083C3.32254 5.84919 3.125 5.37228 3.125 4.875C3.125 4.37772 3.32254 3.90081 3.67417 3.54917C4.02581 3.19754 4.50272 3 5 3H10C10.4973 3 10.9742 3.19754 11.3258 3.54917C11.6775 3.90081 11.875 4.37772 11.875 4.875C11.875 5.37228 11.6775 5.84919 11.3258 6.20083C10.9742 6.55246 10.4973 6.75 10 6.75ZM5 4.25C4.83424 4.25 4.67527 4.31585 4.55806 4.43306C4.44085 4.55027 4.375 4.70924 4.375 4.875C4.375 5.04076 4.44085 5.19973 4.55806 5.31694C4.67527 5.43415 4.83424 5.5 5 5.5H10C10.1658 5.5 10.3247 5.43415 10.4419 5.31694C10.5592 5.19973 10.625 5.04076 10.625 4.875C10.625 4.70924 10.5592 4.55027 10.4419 4.43306C10.3247 4.31585 10.1658 4.25 10 4.25H5ZM3.75 8.625C3.62639 8.625 3.50555 8.66166 3.40277 8.73033C3.29999 8.79901 3.21988 8.89662 3.17258 9.01082C3.12527 9.12503 3.11289 9.25069 3.13701 9.37193C3.16112 9.49317 3.22065 9.60453 3.30806 9.69194C3.39547 9.77935 3.50683 9.83887 3.62807 9.86299C3.74931 9.88711 3.87497 9.87473 3.98918 9.82743C4.10338 9.78012 4.20099 9.70001 4.26967 9.59723C4.33834 9.49445 4.375 9.37361 4.375 9.25C4.375 9.08424 4.30915 8.92527 4.19194 8.80806C4.07473 8.69085 3.91576 8.625 3.75 8.625ZM6.25 8.625C6.12639 8.625 6.00555 8.66166 5.90277 8.73033C5.79999 8.79901 5.71988 8.89662 5.67257 9.01082C5.62527 9.12503 5.61289 9.25069 5.63701 9.37193C5.66112 9.49317 5.72065 9.60453 5.80806 9.69194C5.89547 9.77935 6.00683 9.83887 6.12807 9.86299C6.24931 9.88711 6.37497 9.87473 6.48918 9.82743C6.60338 9.78012 6.70099 9.70001 6.76967 9.59723C6.83834 9.49445 6.875 9.37361 6.875 9.25C6.875 9.08424 6.80915 8.92527 6.69194 8.80806C6.57473 8.69085 6.41576 8.625 6.25 8.625ZM8.75 8.625C8.62639 8.625 8.50555 8.66166 8.40277 8.73033C8.29999 8.79901 8.21988 8.89662 8.17257 9.01082C8.12527 9.12503 8.11289 9.25069 8.13701 9.37193C8.16112 9.49317 8.22065 9.60453 8.30806 9.69194C8.39547 9.77935 8.50683 9.83887 8.62807 9.86299C8.74931 9.88711 8.87497 9.87473 8.98918 9.82743C9.10338 9.78012 9.20099 9.70001 9.26967 9.59723C9.33834 9.49445 9.375 9.37361 9.375 9.25C9.375 9.08424 9.30915 8.92527 9.19194 8.80806C9.07473 8.69085 8.91576 8.625 8.75 8.625ZM3.75 11.125C3.62639 11.125 3.50555 11.1617 3.40277 11.2303C3.29999 11.299 3.21988 11.3966 3.17258 11.5108C3.12527 11.625 3.11289 11.7507 3.13701 11.8719C3.16112 11.9932 3.22065 12.1045 3.30806 12.1919C3.39547 12.2794 3.50683 12.3389 3.62807 12.363C3.74931 12.3871 3.87497 12.3747 3.98918 12.3274C4.10338 12.2801 4.20099 12.2 4.26967 12.0972C4.33834 11.9945 4.375 11.8736 4.375 11.75C4.375 11.5842 4.30915 11.4253 4.19194 11.3081C4.07473 11.1908 3.91576 11.125 3.75 11.125ZM6.25 11.125C6.12639 11.125 6.00555 11.1617 5.90277 11.2303C5.79999 11.299 5.71988 11.3966 5.67257 11.5108C5.62527 11.625 5.61289 11.7507 5.63701 11.8719C5.66112 11.9932 5.72065 12.1045 5.80806 12.1919C5.89547 12.2794 6.00683 12.3389 6.12807 12.363C6.24931 12.3871 6.37497 12.3747 6.48918 12.3274C6.60338 12.2801 6.70099 12.2 6.76967 12.0972C6.83834 11.9945 6.875 11.8736 6.875 11.75C6.875 11.5842 6.80915 11.4253 6.69194 11.3081C6.57473 11.1908 6.41576 11.125 6.25 11.125ZM11.25 8.625C11.1264 8.625 11.0055 8.66166 10.9028 8.73033C10.8 8.79901 10.7199 8.89662 10.6726 9.01082C10.6253 9.12503 10.6129 9.25069 10.637 9.37193C10.6611 9.49317 10.7206 9.60453 10.8081 9.69194C10.8955 9.77935 11.0068 9.83887 11.1281 9.86299C11.2493 9.88711 11.375 9.87473 11.4892 9.82743C11.6034 9.78012 11.701 9.70001 11.7697 9.59723C11.8383 9.49445 11.875 9.37361 11.875 9.25C11.875 9.08424 11.8092 8.92527 11.6919 8.80806C11.5747 8.69085 11.4158 8.625 11.25 8.625ZM11.875 11.75C11.875 11.5842 11.8092 11.4253 11.6919 11.3081C11.5747 11.1908 11.4158 11.125 11.25 11.125H8.75C8.58424 11.125 8.42527 11.1908 8.30806 11.3081C8.19085 11.4253 8.125 11.5842 8.125 11.75C8.125 11.9158 8.19085 12.0747 8.30806 12.1919C8.42527 12.3092 8.58424 12.375 8.75 12.375H11.25C11.4158 12.375 11.5747 12.3092 11.6919 12.1919C11.8092 12.0747 11.875 11.9158 11.875 11.75Z" fill="#1E1E1E"/>
<path d="M11.25 15.5H3.75C2.9215 15.499 2.12722 15.1694 1.54139 14.5836C0.955551 13.9978 0.625992 13.2035 0.625 12.375V3.625C0.625992 2.7965 0.955551 2.00222 1.54139 1.41639C2.12722 0.830551 2.9215 0.500992 3.75 0.5L11.25 0.5C12.0785 0.500992 12.8728 0.830551 13.4586 1.41639C14.0444 2.00222 14.374 2.7965 14.375 3.625V12.375C14.374 13.2035 14.0444 13.9978 13.4586 14.5836C12.8728 15.1694 12.0785 15.499 11.25 15.5ZM3.75 1.75C3.25272 1.75 2.77581 1.94754 2.42417 2.29917C2.07254 2.65081 1.875 3.12772 1.875 3.625V12.375C1.875 12.8723 2.07254 13.3492 2.42417 13.7008C2.77581 14.0525 3.25272 14.25 3.75 14.25H11.25C11.7473 14.25 12.2242 14.0525 12.5758 13.7008C12.9275 13.3492 13.125 12.8723 13.125 12.375V3.625C13.125 3.12772 12.9275 2.65081 12.5758 2.29917C12.2242 1.94754 11.7473 1.75 11.25 1.75H3.75ZM10 6.75H5C4.50272 6.75 4.02581 6.55246 3.67417 6.20083C3.32254 5.84919 3.125 5.37228 3.125 4.875C3.125 4.37772 3.32254 3.90081 3.67417 3.54917C4.02581 3.19754 4.50272 3 5 3H10C10.4973 3 10.9742 3.19754 11.3258 3.54917C11.6775 3.90081 11.875 4.37772 11.875 4.875C11.875 5.37228 11.6775 5.84919 11.3258 6.20083C10.9742 6.55246 10.4973 6.75 10 6.75ZM5 4.25C4.83424 4.25 4.67527 4.31585 4.55806 4.43306C4.44085 4.55027 4.375 4.70924 4.375 4.875C4.375 5.04076 4.44085 5.19973 4.55806 5.31694C4.67527 5.43415 4.83424 5.5 5 5.5H10C10.1658 5.5 10.3247 5.43415 10.4419 5.31694C10.5592 5.19973 10.625 5.04076 10.625 4.875C10.625 4.70924 10.5592 4.55027 10.4419 4.43306C10.3247 4.31585 10.1658 4.25 10 4.25H5ZM3.75 8.625C3.62639 8.625 3.50555 8.66166 3.40277 8.73033C3.29999 8.79901 3.21988 8.89662 3.17258 9.01082C3.12527 9.12503 3.11289 9.25069 3.13701 9.37193C3.16112 9.49317 3.22065 9.60453 3.30806 9.69194C3.39547 9.77935 3.50683 9.83887 3.62807 9.86299C3.74931 9.88711 3.87497 9.87473 3.98918 9.82743C4.10338 9.78012 4.20099 9.70001 4.26967 9.59723C4.33834 9.49445 4.375 9.37361 4.375 9.25C4.375 9.08424 4.30915 8.92527 4.19194 8.80806C4.07473 8.69085 3.91576 8.625 3.75 8.625ZM6.25 8.625C6.12639 8.625 6.00555 8.66166 5.90277 8.73033C5.79999 8.79901 5.71988 8.89662 5.67257 9.01082C5.62527 9.12503 5.61289 9.25069 5.63701 9.37193C5.66112 9.49317 5.72065 9.60453 5.80806 9.69194C5.89547 9.77935 6.00683 9.83887 6.12807 9.86299C6.24931 9.88711 6.37497 9.87473 6.48918 9.82743C6.60338 9.78012 6.70099 9.70001 6.76967 9.59723C6.83834 9.49445 6.875 9.37361 6.875 9.25C6.875 9.08424 6.80915 8.92527 6.69194 8.80806C6.57473 8.69085 6.41576 8.625 6.25 8.625ZM8.75 8.625C8.62639 8.625 8.50555 8.66166 8.40277 8.73033C8.29999 8.79901 8.21988 8.89662 8.17257 9.01082C8.12527 9.12503 8.11289 9.25069 8.13701 9.37193C8.16112 9.49317 8.22065 9.60453 8.30806 9.69194C8.39547 9.77935 8.50683 9.83887 8.62807 9.86299C8.74931 9.88711 8.87497 9.87473 8.98918 9.82743C9.10338 9.78012 9.20099 9.70001 9.26967 9.59723C9.33834 9.49445 9.375 9.37361 9.375 9.25C9.375 9.08424 9.30915 8.92527 9.19194 8.80806C9.07473 8.69085 8.91576 8.625 8.75 8.625ZM3.75 11.125C3.62639 11.125 3.50555 11.1617 3.40277 11.2303C3.29999 11.299 3.21988 11.3966 3.17258 11.5108C3.12527 11.625 3.11289 11.7507 3.13701 11.8719C3.16112 11.9932 3.22065 12.1045 3.30806 12.1919C3.39547 12.2794 3.50683 12.3389 3.62807 12.363C3.74931 12.3871 3.87497 12.3747 3.98918 12.3274C4.10338 12.2801 4.20099 12.2 4.26967 12.0972C4.33834 11.9945 4.375 11.8736 4.375 11.75C4.375 11.5842 4.30915 11.4253 4.19194 11.3081C4.07473 11.1908 3.91576 11.125 3.75 11.125ZM6.25 11.125C6.12639 11.125 6.00555 11.1617 5.90277 11.2303C5.79999 11.299 5.71988 11.3966 5.67257 11.5108C5.62527 11.625 5.61289 11.7507 5.63701 11.8719C5.66112 11.9932 5.72065 12.1045 5.80806 12.1919C5.89547 12.2794 6.00683 12.3389 6.12807 12.363C6.24931 12.3871 6.37497 12.3747 6.48918 12.3274C6.60338 12.2801 6.70099 12.2 6.76967 12.0972C6.83834 11.9945 6.875 11.8736 6.875 11.75C6.875 11.5842 6.80915 11.4253 6.69194 11.3081C6.57473 11.1908 6.41576 11.125 6.25 11.125ZM11.25 8.625C11.1264 8.625 11.0055 8.66166 10.9028 8.73033C10.8 8.79901 10.7199 8.89662 10.6726 9.01082C10.6253 9.12503 10.6129 9.25069 10.637 9.37193C10.6611 9.49317 10.7206 9.60453 10.8081 9.69194C10.8955 9.77935 11.0068 9.83887 11.1281 9.86299C11.2493 9.88711 11.375 9.87473 11.4892 9.82743C11.6034 9.78012 11.701 9.70001 11.7697 9.59723C11.8383 9.49445 11.875 9.37361 11.875 9.25C11.875 9.08424 11.8092 8.92527 11.6919 8.80806C11.5747 8.69085 11.4158 8.625 11.25 8.625ZM11.875 11.75C11.875 11.5842 11.8092 11.4253 11.6919 11.3081C11.5747 11.1908 11.4158 11.125 11.25 11.125H8.75C8.58424 11.125 8.42527 11.1908 8.30806 11.3081C8.19085 11.4253 8.125 11.5842 8.125 11.75C8.125 11.9158 8.19085 12.0747 8.30806 12.1919C8.42527 12.3092 8.58424 12.375 8.75 12.375H11.25C11.4158 12.375 11.5747 12.3092 11.6919 12.1919C11.8092 12.0747 11.875 11.9158 11.875 11.75Z" fill="black" fill-opacity="0.2"/>
<path d="M11.25 15.5H3.75C2.9215 15.499 2.12722 15.1694 1.54139 14.5836C0.955551 13.9978 0.625992 13.2035 0.625 12.375V3.625C0.625992 2.7965 0.955551 2.00222 1.54139 1.41639C2.12722 0.830551 2.9215 0.500992 3.75 0.5L11.25 0.5C12.0785 0.500992 12.8728 0.830551 13.4586 1.41639C14.0444 2.00222 14.374 2.7965 14.375 3.625V12.375C14.374 13.2035 14.0444 13.9978 13.4586 14.5836C12.8728 15.1694 12.0785 15.499 11.25 15.5ZM3.75 1.75C3.25272 1.75 2.77581 1.94754 2.42417 2.29917C2.07254 2.65081 1.875 3.12772 1.875 3.625V12.375C1.875 12.8723 2.07254 13.3492 2.42417 13.7008C2.77581 14.0525 3.25272 14.25 3.75 14.25H11.25C11.7473 14.25 12.2242 14.0525 12.5758 13.7008C12.9275 13.3492 13.125 12.8723 13.125 12.375V3.625C13.125 3.12772 12.9275 2.65081 12.5758 2.29917C12.2242 1.94754 11.7473 1.75 11.25 1.75H3.75ZM10 6.75H5C4.50272 6.75 4.02581 6.55246 3.67417 6.20083C3.32254 5.84919 3.125 5.37228 3.125 4.875C3.125 4.37772 3.32254 3.90081 3.67417 3.54917C4.02581 3.19754 4.50272 3 5 3H10C10.4973 3 10.9742 3.19754 11.3258 3.54917C11.6775 3.90081 11.875 4.37772 11.875 4.875C11.875 5.37228 11.6775 5.84919 11.3258 6.20083C10.9742 6.55246 10.4973 6.75 10 6.75ZM5 4.25C4.83424 4.25 4.67527 4.31585 4.55806 4.43306C4.44085 4.55027 4.375 4.70924 4.375 4.875C4.375 5.04076 4.44085 5.19973 4.55806 5.31694C4.67527 5.43415 4.83424 5.5 5 5.5H10C10.1658 5.5 10.3247 5.43415 10.4419 5.31694C10.5592 5.19973 10.625 5.04076 10.625 4.875C10.625 4.70924 10.5592 4.55027 10.4419 4.43306C10.3247 4.31585 10.1658 4.25 10 4.25H5ZM3.75 8.625C3.62639 8.625 3.50555 8.66166 3.40277 8.73033C3.29999 8.79901 3.21988 8.89662 3.17258 9.01082C3.12527 9.12503 3.11289 9.25069 3.13701 9.37193C3.16112 9.49317 3.22065 9.60453 3.30806 9.69194C3.39547 9.77935 3.50683 9.83887 3.62807 9.86299C3.74931 9.88711 3.87497 9.87473 3.98918 9.82743C4.10338 9.78012 4.20099 9.70001 4.26967 9.59723C4.33834 9.49445 4.375 9.37361 4.375 9.25C4.375 9.08424 4.30915 8.92527 4.19194 8.80806C4.07473 8.69085 3.91576 8.625 3.75 8.625ZM6.25 8.625C6.12639 8.625 6.00555 8.66166 5.90277 8.73033C5.79999 8.79901 5.71988 8.89662 5.67257 9.01082C5.62527 9.12503 5.61289 9.25069 5.63701 9.37193C5.66112 9.49317 5.72065 9.60453 5.80806 9.69194C5.89547 9.77935 6.00683 9.83887 6.12807 9.86299C6.24931 9.88711 6.37497 9.87473 6.48918 9.82743C6.60338 9.78012 6.70099 9.70001 6.76967 9.59723C6.83834 9.49445 6.875 9.37361 6.875 9.25C6.875 9.08424 6.80915 8.92527 6.69194 8.80806C6.57473 8.69085 6.41576 8.625 6.25 8.625ZM8.75 8.625C8.62639 8.625 8.50555 8.66166 8.40277 8.73033C8.29999 8.79901 8.21988 8.89662 8.17257 9.01082C8.12527 9.12503 8.11289 9.25069 8.13701 9.37193C8.16112 9.49317 8.22065 9.60453 8.30806 9.69194C8.39547 9.77935 8.50683 9.83887 8.62807 9.86299C8.74931 9.88711 8.87497 9.87473 8.98918 9.82743C9.10338 9.78012 9.20099 9.70001 9.26967 9.59723C9.33834 9.49445 9.375 9.37361 9.375 9.25C9.375 9.08424 9.30915 8.92527 9.19194 8.80806C9.07473 8.69085 8.91576 8.625 8.75 8.625ZM3.75 11.125C3.62639 11.125 3.50555 11.1617 3.40277 11.2303C3.29999 11.299 3.21988 11.3966 3.17258 11.5108C3.12527 11.625 3.11289 11.7507 3.13701 11.8719C3.16112 11.9932 3.22065 12.1045 3.30806 12.1919C3.39547 12.2794 3.50683 12.3389 3.62807 12.363C3.74931 12.3871 3.87497 12.3747 3.98918 12.3274C4.10338 12.2801 4.20099 12.2 4.26967 12.0972C4.33834 11.9945 4.375 11.8736 4.375 11.75C4.375 11.5842 4.30915 11.4253 4.19194 11.3081C4.07473 11.1908 3.91576 11.125 3.75 11.125ZM6.25 11.125C6.12639 11.125 6.00555 11.1617 5.90277 11.2303C5.79999 11.299 5.71988 11.3966 5.67257 11.5108C5.62527 11.625 5.61289 11.7507 5.63701 11.8719C5.66112 11.9932 5.72065 12.1045 5.80806 12.1919C5.89547 12.2794 6.00683 12.3389 6.12807 12.363C6.24931 12.3871 6.37497 12.3747 6.48918 12.3274C6.60338 12.2801 6.70099 12.2 6.76967 12.0972C6.83834 11.9945 6.875 11.8736 6.875 11.75C6.875 11.5842 6.80915 11.4253 6.69194 11.3081C6.57473 11.1908 6.41576 11.125 6.25 11.125ZM11.25 8.625C11.1264 8.625 11.0055 8.66166 10.9028 8.73033C10.8 8.79901 10.7199 8.89662 10.6726 9.01082C10.6253 9.12503 10.6129 9.25069 10.637 9.37193C10.6611 9.49317 10.7206 9.60453 10.8081 9.69194C10.8955 9.77935 11.0068 9.83887 11.1281 9.86299C11.2493 9.88711 11.375 9.87473 11.4892 9.82743C11.6034 9.78012 11.701 9.70001 11.7697 9.59723C11.8383 9.49445 11.875 9.37361 11.875 9.25C11.875 9.08424 11.8092 8.92527 11.6919 8.80806C11.5747 8.69085 11.4158 8.625 11.25 8.625ZM11.875 11.75C11.875 11.5842 11.8092 11.4253 11.6919 11.3081C11.5747 11.1908 11.4158 11.125 11.25 11.125H8.75C8.58424 11.125 8.42527 11.1908 8.30806 11.3081C8.19085 11.4253 8.125 11.5842 8.125 11.75C8.125 11.9158 8.19085 12.0747 8.30806 12.1919C8.42527 12.3092 8.58424 12.375 8.75 12.375H11.25C11.4158 12.375 11.5747 12.3092 11.6919 12.1919C11.8092 12.0747 11.875 11.9158 11.875 11.75Z" fill="black" fill-opacity="0.2"/>
<path d="M11.25 15.5H3.75C2.9215 15.499 2.12722 15.1694 1.54139 14.5836C0.955551 13.9978 0.625992 13.2035 0.625 12.375V3.625C0.625992 2.7965 0.955551 2.00222 1.54139 1.41639C2.12722 0.830551 2.9215 0.500992 3.75 0.5L11.25 0.5C12.0785 0.500992 12.8728 0.830551 13.4586 1.41639C14.0444 2.00222 14.374 2.7965 14.375 3.625V12.375C14.374 13.2035 14.0444 13.9978 13.4586 14.5836C12.8728 15.1694 12.0785 15.499 11.25 15.5ZM3.75 1.75C3.25272 1.75 2.77581 1.94754 2.42417 2.29917C2.07254 2.65081 1.875 3.12772 1.875 3.625V12.375C1.875 12.8723 2.07254 13.3492 2.42417 13.7008C2.77581 14.0525 3.25272 14.25 3.75 14.25H11.25C11.7473 14.25 12.2242 14.0525 12.5758 13.7008C12.9275 13.3492 13.125 12.8723 13.125 12.375V3.625C13.125 3.12772 12.9275 2.65081 12.5758 2.29917C12.2242 1.94754 11.7473 1.75 11.25 1.75H3.75ZM10 6.75H5C4.50272 6.75 4.02581 6.55246 3.67417 6.20083C3.32254 5.84919 3.125 5.37228 3.125 4.875C3.125 4.37772 3.32254 3.90081 3.67417 3.54917C4.02581 3.19754 4.50272 3 5 3H10C10.4973 3 10.9742 3.19754 11.3258 3.54917C11.6775 3.90081 11.875 4.37772 11.875 4.875C11.875 5.37228 11.6775 5.84919 11.3258 6.20083C10.9742 6.55246 10.4973 6.75 10 6.75ZM5 4.25C4.83424 4.25 4.67527 4.31585 4.55806 4.43306C4.44085 4.55027 4.375 4.70924 4.375 4.875C4.375 5.04076 4.44085 5.19973 4.55806 5.31694C4.67527 5.43415 4.83424 5.5 5 5.5H10C10.1658 5.5 10.3247 5.43415 10.4419 5.31694C10.5592 5.19973 10.625 5.04076 10.625 4.875C10.625 4.70924 10.5592 4.55027 10.4419 4.43306C10.3247 4.31585 10.1658 4.25 10 4.25H5ZM3.75 8.625C3.62639 8.625 3.50555 8.66166 3.40277 8.73033C3.29999 8.79901 3.21988 8.89662 3.17258 9.01082C3.12527 9.12503 3.11289 9.25069 3.13701 9.37193C3.16112 9.49317 3.22065 9.60453 3.30806 9.69194C3.39547 9.77935 3.50683 9.83887 3.62807 9.86299C3.74931 9.88711 3.87497 9.87473 3.98918 9.82743C4.10338 9.78012 4.20099 9.70001 4.26967 9.59723C4.33834 9.49445 4.375 9.37361 4.375 9.25C4.375 9.08424 4.30915 8.92527 4.19194 8.80806C4.07473 8.69085 3.91576 8.625 3.75 8.625ZM6.25 8.625C6.12639 8.625 6.00555 8.66166 5.90277 8.73033C5.79999 8.79901 5.71988 8.89662 5.67257 9.01082C5.62527 9.12503 5.61289 9.25069 5.63701 9.37193C5.66112 9.49317 5.72065 9.60453 5.80806 9.69194C5.89547 9.77935 6.00683 9.83887 6.12807 9.86299C6.24931 9.88711 6.37497 9.87473 6.48918 9.82743C6.60338 9.78012 6.70099 9.70001 6.76967 9.59723C6.83834 9.49445 6.875 9.37361 6.875 9.25C6.875 9.08424 6.80915 8.92527 6.69194 8.80806C6.57473 8.69085 6.41576 8.625 6.25 8.625ZM8.75 8.625C8.62639 8.625 8.50555 8.66166 8.40277 8.73033C8.29999 8.79901 8.21988 8.89662 8.17257 9.01082C8.12527 9.12503 8.11289 9.25069 8.13701 9.37193C8.16112 9.49317 8.22065 9.60453 8.30806 9.69194C8.39547 9.77935 8.50683 9.83887 8.62807 9.86299C8.74931 9.88711 8.87497 9.87473 8.98918 9.82743C9.10338 9.78012 9.20099 9.70001 9.26967 9.59723C9.33834 9.49445 9.375 9.37361 9.375 9.25C9.375 9.08424 9.30915 8.92527 9.19194 8.80806C9.07473 8.69085 8.91576 8.625 8.75 8.625ZM3.75 11.125C3.62639 11.125 3.50555 11.1617 3.40277 11.2303C3.29999 11.299 3.21988 11.3966 3.17258 11.5108C3.12527 11.625 3.11289 11.7507 3.13701 11.8719C3.16112 11.9932 3.22065 12.1045 3.30806 12.1919C3.39547 12.2794 3.50683 12.3389 3.62807 12.363C3.74931 12.3871 3.87497 12.3747 3.98918 12.3274C4.10338 12.2801 4.20099 12.2 4.26967 12.0972C4.33834 11.9945 4.375 11.8736 4.375 11.75C4.375 11.5842 4.30915 11.4253 4.19194 11.3081C4.07473 11.1908 3.91576 11.125 3.75 11.125ZM6.25 11.125C6.12639 11.125 6.00555 11.1617 5.90277 11.2303C5.79999 11.299 5.71988 11.3966 5.67257 11.5108C5.62527 11.625 5.61289 11.7507 5.63701 11.8719C5.66112 11.9932 5.72065 12.1045 5.80806 12.1919C5.89547 12.2794 6.00683 12.3389 6.12807 12.363C6.24931 12.3871 6.37497 12.3747 6.48918 12.3274C6.60338 12.2801 6.70099 12.2 6.76967 12.0972C6.83834 11.9945 6.875 11.8736 6.875 11.75C6.875 11.5842 6.80915 11.4253 6.69194 11.3081C6.57473 11.1908 6.41576 11.125 6.25 11.125ZM11.25 8.625C11.1264 8.625 11.0055 8.66166 10.9028 8.73033C10.8 8.79901 10.7199 8.89662 10.6726 9.01082C10.6253 9.12503 10.6129 9.25069 10.637 9.37193C10.6611 9.49317 10.7206 9.60453 10.8081 9.69194C10.8955 9.77935 11.0068 9.83887 11.1281 9.86299C11.2493 9.88711 11.375 9.87473 11.4892 9.82743C11.6034 9.78012 11.701 9.70001 11.7697 9.59723C11.8383 9.49445 11.875 9.37361 11.875 9.25C11.875 9.08424 11.8092 8.92527 11.6919 8.80806C11.5747 8.69085 11.4158 8.625 11.25 8.625ZM11.875 11.75C11.875 11.5842 11.8092 11.4253 11.6919 11.3081C11.5747 11.1908 11.4158 11.125 11.25 11.125H8.75C8.58424 11.125 8.42527 11.1908 8.30806 11.3081C8.19085 11.4253 8.125 11.5842 8.125 11.75C8.125 11.9158 8.19085 12.0747 8.30806 12.1919C8.42527 12.3092 8.58424 12.375 8.75 12.375H11.25C11.4158 12.375 11.5747 12.3092 11.6919 12.1919C11.8092 12.0747 11.875 11.9158 11.875 11.75Z" fill="black" fill-opacity="0.2"/>
<path d="M11.25 15.5H3.75C2.9215 15.499 2.12722 15.1694 1.54139 14.5836C0.955551 13.9978 0.625992 13.2035 0.625 12.375V3.625C0.625992 2.7965 0.955551 2.00222 1.54139 1.41639C2.12722 0.830551 2.9215 0.500992 3.75 0.5L11.25 0.5C12.0785 0.500992 12.8728 0.830551 13.4586 1.41639C14.0444 2.00222 14.374 2.7965 14.375 3.625V12.375C14.374 13.2035 14.0444 13.9978 13.4586 14.5836C12.8728 15.1694 12.0785 15.499 11.25 15.5ZM3.75 1.75C3.25272 1.75 2.77581 1.94754 2.42417 2.29917C2.07254 2.65081 1.875 3.12772 1.875 3.625V12.375C1.875 12.8723 2.07254 13.3492 2.42417 13.7008C2.77581 14.0525 3.25272 14.25 3.75 14.25H11.25C11.7473 14.25 12.2242 14.0525 12.5758 13.7008C12.9275 13.3492 13.125 12.8723 13.125 12.375V3.625C13.125 3.12772 12.9275 2.65081 12.5758 2.29917C12.2242 1.94754 11.7473 1.75 11.25 1.75H3.75ZM10 6.75H5C4.50272 6.75 4.02581 6.55246 3.67417 6.20083C3.32254 5.84919 3.125 5.37228 3.125 4.875C3.125 4.37772 3.32254 3.90081 3.67417 3.54917C4.02581 3.19754 4.50272 3 5 3H10C10.4973 3 10.9742 3.19754 11.3258 3.54917C11.6775 3.90081 11.875 4.37772 11.875 4.875C11.875 5.37228 11.6775 5.84919 11.3258 6.20083C10.9742 6.55246 10.4973 6.75 10 6.75ZM5 4.25C4.83424 4.25 4.67527 4.31585 4.55806 4.43306C4.44085 4.55027 4.375 4.70924 4.375 4.875C4.375 5.04076 4.44085 5.19973 4.55806 5.31694C4.67527 5.43415 4.83424 5.5 5 5.5H10C10.1658 5.5 10.3247 5.43415 10.4419 5.31694C10.5592 5.19973 10.625 5.04076 10.625 4.875C10.625 4.70924 10.5592 4.55027 10.4419 4.43306C10.3247 4.31585 10.1658 4.25 10 4.25H5ZM3.75 8.625C3.62639 8.625 3.50555 8.66166 3.40277 8.73033C3.29999 8.79901 3.21988 8.89662 3.17258 9.01082C3.12527 9.12503 3.11289 9.25069 3.13701 9.37193C3.16112 9.49317 3.22065 9.60453 3.30806 9.69194C3.39547 9.77935 3.50683 9.83887 3.62807 9.86299C3.74931 9.88711 3.87497 9.87473 3.98918 9.82743C4.10338 9.78012 4.20099 9.70001 4.26967 9.59723C4.33834 9.49445 4.375 9.37361 4.375 9.25C4.375 9.08424 4.30915 8.92527 4.19194 8.80806C4.07473 8.69085 3.91576 8.625 3.75 8.625ZM6.25 8.625C6.12639 8.625 6.00555 8.66166 5.90277 8.73033C5.79999 8.79901 5.71988 8.89662 5.67257 9.01082C5.62527 9.12503 5.61289 9.25069 5.63701 9.37193C5.66112 9.49317 5.72065 9.60453 5.80806 9.69194C5.89547 9.77935 6.00683 9.83887 6.12807 9.86299C6.24931 9.88711 6.37497 9.87473 6.48918 9.82743C6.60338 9.78012 6.70099 9.70001 6.76967 9.59723C6.83834 9.49445 6.875 9.37361 6.875 9.25C6.875 9.08424 6.80915 8.92527 6.69194 8.80806C6.57473 8.69085 6.41576 8.625 6.25 8.625ZM8.75 8.625C8.62639 8.625 8.50555 8.66166 8.40277 8.73033C8.29999 8.79901 8.21988 8.89662 8.17257 9.01082C8.12527 9.12503 8.11289 9.25069 8.13701 9.37193C8.16112 9.49317 8.22065 9.60453 8.30806 9.69194C8.39547 9.77935 8.50683 9.83887 8.62807 9.86299C8.74931 9.88711 8.87497 9.87473 8.98918 9.82743C9.10338 9.78012 9.20099 9.70001 9.26967 9.59723C9.33834 9.49445 9.375 9.37361 9.375 9.25C9.375 9.08424 9.30915 8.92527 9.19194 8.80806C9.07473 8.69085 8.91576 8.625 8.75 8.625ZM3.75 11.125C3.62639 11.125 3.50555 11.1617 3.40277 11.2303C3.29999 11.299 3.21988 11.3966 3.17258 11.5108C3.12527 11.625 3.11289 11.7507 3.13701 11.8719C3.16112 11.9932 3.22065 12.1045 3.30806 12.1919C3.39547 12.2794 3.50683 12.3389 3.62807 12.363C3.74931 12.3871 3.87497 12.3747 3.98918 12.3274C4.10338 12.2801 4.20099 12.2 4.26967 12.0972C4.33834 11.9945 4.375 11.8736 4.375 11.75C4.375 11.5842 4.30915 11.4253 4.19194 11.3081C4.07473 11.1908 3.91576 11.125 3.75 11.125ZM6.25 11.125C6.12639 11.125 6.00555 11.1617 5.90277 11.2303C5.79999 11.299 5.71988 11.3966 5.67257 11.5108C5.62527 11.625 5.61289 11.7507 5.63701 11.8719C5.66112 11.9932 5.72065 12.1045 5.80806 12.1919C5.89547 12.2794 6.00683 12.3389 6.12807 12.363C6.24931 12.3871 6.37497 12.3747 6.48918 12.3274C6.60338 12.2801 6.70099 12.2 6.76967 12.0972C6.83834 11.9945 6.875 11.8736 6.875 11.75C6.875 11.5842 6.80915 11.4253 6.69194 11.3081C6.57473 11.1908 6.41576 11.125 6.25 11.125ZM11.25 8.625C11.1264 8.625 11.0055 8.66166 10.9028 8.73033C10.8 8.79901 10.7199 8.89662 10.6726 9.01082C10.6253 9.12503 10.6129 9.25069 10.637 9.37193C10.6611 9.49317 10.7206 9.60453 10.8081 9.69194C10.8955 9.77935 11.0068 9.83887 11.1281 9.86299C11.2493 9.88711 11.375 9.87473 11.4892 9.82743C11.6034 9.78012 11.701 9.70001 11.7697 9.59723C11.8383 9.49445 11.875 9.37361 11.875 9.25C11.875 9.08424 11.8092 8.92527 11.6919 8.80806C11.5747 8.69085 11.4158 8.625 11.25 8.625ZM11.875 11.75C11.875 11.5842 11.8092 11.4253 11.6919 11.3081C11.5747 11.1908 11.4158 11.125 11.25 11.125H8.75C8.58424 11.125 8.42527 11.1908 8.30806 11.3081C8.19085 11.4253 8.125 11.5842 8.125 11.75C8.125 11.9158 8.19085 12.0747 8.30806 12.1919C8.42527 12.3092 8.58424 12.375 8.75 12.375H11.25C11.4158 12.375 11.5747 12.3092 11.6919 12.1919C11.8092 12.0747 11.875 11.9158 11.875 11.75Z" fill="black" fill-opacity="0.2"/>
<path d="M11.25 15.5H3.75C2.9215 15.499 2.12722 15.1694 1.54139 14.5836C0.955551 13.9978 0.625992 13.2035 0.625 12.375V3.625C0.625992 2.7965 0.955551 2.00222 1.54139 1.41639C2.12722 0.830551 2.9215 0.500992 3.75 0.5L11.25 0.5C12.0785 0.500992 12.8728 0.830551 13.4586 1.41639C14.0444 2.00222 14.374 2.7965 14.375 3.625V12.375C14.374 13.2035 14.0444 13.9978 13.4586 14.5836C12.8728 15.1694 12.0785 15.499 11.25 15.5ZM3.75 1.75C3.25272 1.75 2.77581 1.94754 2.42417 2.29917C2.07254 2.65081 1.875 3.12772 1.875 3.625V12.375C1.875 12.8723 2.07254 13.3492 2.42417 13.7008C2.77581 14.0525 3.25272 14.25 3.75 14.25H11.25C11.7473 14.25 12.2242 14.0525 12.5758 13.7008C12.9275 13.3492 13.125 12.8723 13.125 12.375V3.625C13.125 3.12772 12.9275 2.65081 12.5758 2.29917C12.2242 1.94754 11.7473 1.75 11.25 1.75H3.75ZM10 6.75H5C4.50272 6.75 4.02581 6.55246 3.67417 6.20083C3.32254 5.84919 3.125 5.37228 3.125 4.875C3.125 4.37772 3.32254 3.90081 3.67417 3.54917C4.02581 3.19754 4.50272 3 5 3H10C10.4973 3 10.9742 3.19754 11.3258 3.54917C11.6775 3.90081 11.875 4.37772 11.875 4.875C11.875 5.37228 11.6775 5.84919 11.3258 6.20083C10.9742 6.55246 10.4973 6.75 10 6.75ZM5 4.25C4.83424 4.25 4.67527 4.31585 4.55806 4.43306C4.44085 4.55027 4.375 4.70924 4.375 4.875C4.375 5.04076 4.44085 5.19973 4.55806 5.31694C4.67527 5.43415 4.83424 5.5 5 5.5H10C10.1658 5.5 10.3247 5.43415 10.4419 5.31694C10.5592 5.19973 10.625 5.04076 10.625 4.875C10.625 4.70924 10.5592 4.55027 10.4419 4.43306C10.3247 4.31585 10.1658 4.25 10 4.25H5ZM3.75 8.625C3.62639 8.625 3.50555 8.66166 3.40277 8.73033C3.29999 8.79901 3.21988 8.89662 3.17258 9.01082C3.12527 9.12503 3.11289 9.25069 3.13701 9.37193C3.16112 9.49317 3.22065 9.60453 3.30806 9.69194C3.39547 9.77935 3.50683 9.83887 3.62807 9.86299C3.74931 9.88711 3.87497 9.87473 3.98918 9.82743C4.10338 9.78012 4.20099 9.70001 4.26967 9.59723C4.33834 9.49445 4.375 9.37361 4.375 9.25C4.375 9.08424 4.30915 8.92527 4.19194 8.80806C4.07473 8.69085 3.91576 8.625 3.75 8.625ZM6.25 8.625C6.12639 8.625 6.00555 8.66166 5.90277 8.73033C5.79999 8.79901 5.71988 8.89662 5.67257 9.01082C5.62527 9.12503 5.61289 9.25069 5.63701 9.37193C5.66112 9.49317 5.72065 9.60453 5.80806 9.69194C5.89547 9.77935 6.00683 9.83887 6.12807 9.86299C6.24931 9.88711 6.37497 9.87473 6.48918 9.82743C6.60338 9.78012 6.70099 9.70001 6.76967 9.59723C6.83834 9.49445 6.875 9.37361 6.875 9.25C6.875 9.08424 6.80915 8.92527 6.69194 8.80806C6.57473 8.69085 6.41576 8.625 6.25 8.625ZM8.75 8.625C8.62639 8.625 8.50555 8.66166 8.40277 8.73033C8.29999 8.79901 8.21988 8.89662 8.17257 9.01082C8.12527 9.12503 8.11289 9.25069 8.13701 9.37193C8.16112 9.49317 8.22065 9.60453 8.30806 9.69194C8.39547 9.77935 8.50683 9.83887 8.62807 9.86299C8.74931 9.88711 8.87497 9.87473 8.98918 9.82743C9.10338 9.78012 9.20099 9.70001 9.26967 9.59723C9.33834 9.49445 9.375 9.37361 9.375 9.25C9.375 9.08424 9.30915 8.92527 9.19194 8.80806C9.07473 8.69085 8.91576 8.625 8.75 8.625ZM3.75 11.125C3.62639 11.125 3.50555 11.1617 3.40277 11.2303C3.29999 11.299 3.21988 11.3966 3.17258 11.5108C3.12527 11.625 3.11289 11.7507 3.13701 11.8719C3.16112 11.9932 3.22065 12.1045 3.30806 12.1919C3.39547 12.2794 3.50683 12.3389 3.62807 12.363C3.74931 12.3871 3.87497 12.3747 3.98918 12.3274C4.10338 12.2801 4.20099 12.2 4.26967 12.0972C4.33834 11.9945 4.375 11.8736 4.375 11.75C4.375 11.5842 4.30915 11.4253 4.19194 11.3081C4.07473 11.1908 3.91576 11.125 3.75 11.125ZM6.25 11.125C6.12639 11.125 6.00555 11.1617 5.90277 11.2303C5.79999 11.299 5.71988 11.3966 5.67257 11.5108C5.62527 11.625 5.61289 11.7507 5.63701 11.8719C5.66112 11.9932 5.72065 12.1045 5.80806 12.1919C5.89547 12.2794 6.00683 12.3389 6.12807 12.363C6.24931 12.3871 6.37497 12.3747 6.48918 12.3274C6.60338 12.2801 6.70099 12.2 6.76967 12.0972C6.83834 11.9945 6.875 11.8736 6.875 11.75C6.875 11.5842 6.80915 11.4253 6.69194 11.3081C6.57473 11.1908 6.41576 11.125 6.25 11.125ZM11.25 8.625C11.1264 8.625 11.0055 8.66166 10.9028 8.73033C10.8 8.79901 10.7199 8.89662 10.6726 9.01082C10.6253 9.12503 10.6129 9.25069 10.637 9.37193C10.6611 9.49317 10.7206 9.60453 10.8081 9.69194C10.8955 9.77935 11.0068 9.83887 11.1281 9.86299C11.2493 9.88711 11.375 9.87473 11.4892 9.82743C11.6034 9.78012 11.701 9.70001 11.7697 9.59723C11.8383 9.49445 11.875 9.37361 11.875 9.25C11.875 9.08424 11.8092 8.92527 11.6919 8.80806C11.5747 8.69085 11.4158 8.625 11.25 8.625ZM11.875 11.75C11.875 11.5842 11.8092 11.4253 11.6919 11.3081C11.5747 11.1908 11.4158 11.125 11.25 11.125H8.75C8.58424 11.125 8.42527 11.1908 8.30806 11.3081C8.19085 11.4253 8.125 11.5842 8.125 11.75C8.125 11.9158 8.19085 12.0747 8.30806 12.1919C8.42527 12.3092 8.58424 12.375 8.75 12.375H11.25C11.4158 12.375 11.5747 12.3092 11.6919 12.1919C11.8092 12.0747 11.875 11.9158 11.875 11.75Z" fill="black" fill-opacity="0.2"/>
<path d="M11.25 15.5H3.75C2.9215 15.499 2.12722 15.1694 1.54139 14.5836C0.955551 13.9978 0.625992 13.2035 0.625 12.375V3.625C0.625992 2.7965 0.955551 2.00222 1.54139 1.41639C2.12722 0.830551 2.9215 0.500992 3.75 0.5L11.25 0.5C12.0785 0.500992 12.8728 0.830551 13.4586 1.41639C14.0444 2.00222 14.374 2.7965 14.375 3.625V12.375C14.374 13.2035 14.0444 13.9978 13.4586 14.5836C12.8728 15.1694 12.0785 15.499 11.25 15.5ZM3.75 1.75C3.25272 1.75 2.77581 1.94754 2.42417 2.29917C2.07254 2.65081 1.875 3.12772 1.875 3.625V12.375C1.875 12.8723 2.07254 13.3492 2.42417 13.7008C2.77581 14.0525 3.25272 14.25 3.75 14.25H11.25C11.7473 14.25 12.2242 14.0525 12.5758 13.7008C12.9275 13.3492 13.125 12.8723 13.125 12.375V3.625C13.125 3.12772 12.9275 2.65081 12.5758 2.29917C12.2242 1.94754 11.7473 1.75 11.25 1.75H3.75ZM10 6.75H5C4.50272 6.75 4.02581 6.55246 3.67417 6.20083C3.32254 5.84919 3.125 5.37228 3.125 4.875C3.125 4.37772 3.32254 3.90081 3.67417 3.54917C4.02581 3.19754 4.50272 3 5 3H10C10.4973 3 10.9742 3.19754 11.3258 3.54917C11.6775 3.90081 11.875 4.37772 11.875 4.875C11.875 5.37228 11.6775 5.84919 11.3258 6.20083C10.9742 6.55246 10.4973 6.75 10 6.75ZM5 4.25C4.83424 4.25 4.67527 4.31585 4.55806 4.43306C4.44085 4.55027 4.375 4.70924 4.375 4.875C4.375 5.04076 4.44085 5.19973 4.55806 5.31694C4.67527 5.43415 4.83424 5.5 5 5.5H10C10.1658 5.5 10.3247 5.43415 10.4419 5.31694C10.5592 5.19973 10.625 5.04076 10.625 4.875C10.625 4.70924 10.5592 4.55027 10.4419 4.43306C10.3247 4.31585 10.1658 4.25 10 4.25H5ZM3.75 8.625C3.62639 8.625 3.50555 8.66166 3.40277 8.73033C3.29999 8.79901 3.21988 8.89662 3.17258 9.01082C3.12527 9.12503 3.11289 9.25069 3.13701 9.37193C3.16112 9.49317 3.22065 9.60453 3.30806 9.69194C3.39547 9.77935 3.50683 9.83887 3.62807 9.86299C3.74931 9.88711 3.87497 9.87473 3.98918 9.82743C4.10338 9.78012 4.20099 9.70001 4.26967 9.59723C4.33834 9.49445 4.375 9.37361 4.375 9.25C4.375 9.08424 4.30915 8.92527 4.19194 8.80806C4.07473 8.69085 3.91576 8.625 3.75 8.625ZM6.25 8.625C6.12639 8.625 6.00555 8.66166 5.90277 8.73033C5.79999 8.79901 5.71988 8.89662 5.67257 9.01082C5.62527 9.12503 5.61289 9.25069 5.63701 9.37193C5.66112 9.49317 5.72065 9.60453 5.80806 9.69194C5.89547 9.77935 6.00683 9.83887 6.12807 9.86299C6.24931 9.88711 6.37497 9.87473 6.48918 9.82743C6.60338 9.78012 6.70099 9.70001 6.76967 9.59723C6.83834 9.49445 6.875 9.37361 6.875 9.25C6.875 9.08424 6.80915 8.92527 6.69194 8.80806C6.57473 8.69085 6.41576 8.625 6.25 8.625ZM8.75 8.625C8.62639 8.625 8.50555 8.66166 8.40277 8.73033C8.29999 8.79901 8.21988 8.89662 8.17257 9.01082C8.12527 9.12503 8.11289 9.25069 8.13701 9.37193C8.16112 9.49317 8.22065 9.60453 8.30806 9.69194C8.39547 9.77935 8.50683 9.83887 8.62807 9.86299C8.74931 9.88711 8.87497 9.87473 8.98918 9.82743C9.10338 9.78012 9.20099 9.70001 9.26967 9.59723C9.33834 9.49445 9.375 9.37361 9.375 9.25C9.375 9.08424 9.30915 8.92527 9.19194 8.80806C9.07473 8.69085 8.91576 8.625 8.75 8.625ZM3.75 11.125C3.62639 11.125 3.50555 11.1617 3.40277 11.2303C3.29999 11.299 3.21988 11.3966 3.17258 11.5108C3.12527 11.625 3.11289 11.7507 3.13701 11.8719C3.16112 11.9932 3.22065 12.1045 3.30806 12.1919C3.39547 12.2794 3.50683 12.3389 3.62807 12.363C3.74931 12.3871 3.87497 12.3747 3.98918 12.3274C4.10338 12.2801 4.20099 12.2 4.26967 12.0972C4.33834 11.9945 4.375 11.8736 4.375 11.75C4.375 11.5842 4.30915 11.4253 4.19194 11.3081C4.07473 11.1908 3.91576 11.125 3.75 11.125ZM6.25 11.125C6.12639 11.125 6.00555 11.1617 5.90277 11.2303C5.79999 11.299 5.71988 11.3966 5.67257 11.5108C5.62527 11.625 5.61289 11.7507 5.63701 11.8719C5.66112 11.9932 5.72065 12.1045 5.80806 12.1919C5.89547 12.2794 6.00683 12.3389 6.12807 12.363C6.24931 12.3871 6.37497 12.3747 6.48918 12.3274C6.60338 12.2801 6.70099 12.2 6.76967 12.0972C6.83834 11.9945 6.875 11.8736 6.875 11.75C6.875 11.5842 6.80915 11.4253 6.69194 11.3081C6.57473 11.1908 6.41576 11.125 6.25 11.125ZM11.25 8.625C11.1264 8.625 11.0055 8.66166 10.9028 8.73033C10.8 8.79901 10.7199 8.89662 10.6726 9.01082C10.6253 9.12503 10.6129 9.25069 10.637 9.37193C10.6611 9.49317 10.7206 9.60453 10.8081 9.69194C10.8955 9.77935 11.0068 9.83887 11.1281 9.86299C11.2493 9.88711 11.375 9.87473 11.4892 9.82743C11.6034 9.78012 11.701 9.70001 11.7697 9.59723C11.8383 9.49445 11.875 9.37361 11.875 9.25C11.875 9.08424 11.8092 8.92527 11.6919 8.80806C11.5747 8.69085 11.4158 8.625 11.25 8.625ZM11.875 11.75C11.875 11.5842 11.8092 11.4253 11.6919 11.3081C11.5747 11.1908 11.4158 11.125 11.25 11.125H8.75C8.58424 11.125 8.42527 11.1908 8.30806 11.3081C8.19085 11.4253 8.125 11.5842 8.125 11.75C8.125 11.9158 8.19085 12.0747 8.30806 12.1919C8.42527 12.3092 8.58424 12.375 8.75 12.375H11.25C11.4158 12.375 11.5747 12.3092 11.6919 12.1919C11.8092 12.0747 11.875 11.9158 11.875 11.75Z" fill="black" fill-opacity="0.2"/>
<path d="M11.25 15.5H3.75C2.9215 15.499 2.12722 15.1694 1.54139 14.5836C0.955551 13.9978 0.625992 13.2035 0.625 12.375V3.625C0.625992 2.7965 0.955551 2.00222 1.54139 1.41639C2.12722 0.830551 2.9215 0.500992 3.75 0.5L11.25 0.5C12.0785 0.500992 12.8728 0.830551 13.4586 1.41639C14.0444 2.00222 14.374 2.7965 14.375 3.625V12.375C14.374 13.2035 14.0444 13.9978 13.4586 14.5836C12.8728 15.1694 12.0785 15.499 11.25 15.5ZM3.75 1.75C3.25272 1.75 2.77581 1.94754 2.42417 2.29917C2.07254 2.65081 1.875 3.12772 1.875 3.625V12.375C1.875 12.8723 2.07254 13.3492 2.42417 13.7008C2.77581 14.0525 3.25272 14.25 3.75 14.25H11.25C11.7473 14.25 12.2242 14.0525 12.5758 13.7008C12.9275 13.3492 13.125 12.8723 13.125 12.375V3.625C13.125 3.12772 12.9275 2.65081 12.5758 2.29917C12.2242 1.94754 11.7473 1.75 11.25 1.75H3.75ZM10 6.75H5C4.50272 6.75 4.02581 6.55246 3.67417 6.20083C3.32254 5.84919 3.125 5.37228 3.125 4.875C3.125 4.37772 3.32254 3.90081 3.67417 3.54917C4.02581 3.19754 4.50272 3 5 3H10C10.4973 3 10.9742 3.19754 11.3258 3.54917C11.6775 3.90081 11.875 4.37772 11.875 4.875C11.875 5.37228 11.6775 5.84919 11.3258 6.20083C10.9742 6.55246 10.4973 6.75 10 6.75ZM5 4.25C4.83424 4.25 4.67527 4.31585 4.55806 4.43306C4.44085 4.55027 4.375 4.70924 4.375 4.875C4.375 5.04076 4.44085 5.19973 4.55806 5.31694C4.67527 5.43415 4.83424 5.5 5 5.5H10C10.1658 5.5 10.3247 5.43415 10.4419 5.31694C10.5592 5.19973 10.625 5.04076 10.625 4.875C10.625 4.70924 10.5592 4.55027 10.4419 4.43306C10.3247 4.31585 10.1658 4.25 10 4.25H5ZM3.75 8.625C3.62639 8.625 3.50555 8.66166 3.40277 8.73033C3.29999 8.79901 3.21988 8.89662 3.17258 9.01082C3.12527 9.12503 3.11289 9.25069 3.13701 9.37193C3.16112 9.49317 3.22065 9.60453 3.30806 9.69194C3.39547 9.77935 3.50683 9.83887 3.62807 9.86299C3.74931 9.88711 3.87497 9.87473 3.98918 9.82743C4.10338 9.78012 4.20099 9.70001 4.26967 9.59723C4.33834 9.49445 4.375 9.37361 4.375 9.25C4.375 9.08424 4.30915 8.92527 4.19194 8.80806C4.07473 8.69085 3.91576 8.625 3.75 8.625ZM6.25 8.625C6.12639 8.625 6.00555 8.66166 5.90277 8.73033C5.79999 8.79901 5.71988 8.89662 5.67257 9.01082C5.62527 9.12503 5.61289 9.25069 5.63701 9.37193C5.66112 9.49317 5.72065 9.60453 5.80806 9.69194C5.89547 9.77935 6.00683 9.83887 6.12807 9.86299C6.24931 9.88711 6.37497 9.87473 6.48918 9.82743C6.60338 9.78012 6.70099 9.70001 6.76967 9.59723C6.83834 9.49445 6.875 9.37361 6.875 9.25C6.875 9.08424 6.80915 8.92527 6.69194 8.80806C6.57473 8.69085 6.41576 8.625 6.25 8.625ZM8.75 8.625C8.62639 8.625 8.50555 8.66166 8.40277 8.73033C8.29999 8.79901 8.21988 8.89662 8.17257 9.01082C8.12527 9.12503 8.11289 9.25069 8.13701 9.37193C8.16112 9.49317 8.22065 9.60453 8.30806 9.69194C8.39547 9.77935 8.50683 9.83887 8.62807 9.86299C8.74931 9.88711 8.87497 9.87473 8.98918 9.82743C9.10338 9.78012 9.20099 9.70001 9.26967 9.59723C9.33834 9.49445 9.375 9.37361 9.375 9.25C9.375 9.08424 9.30915 8.92527 9.19194 8.80806C9.07473 8.69085 8.91576 8.625 8.75 8.625ZM3.75 11.125C3.62639 11.125 3.50555 11.1617 3.40277 11.2303C3.29999 11.299 3.21988 11.3966 3.17258 11.5108C3.12527 11.625 3.11289 11.7507 3.13701 11.8719C3.16112 11.9932 3.22065 12.1045 3.30806 12.1919C3.39547 12.2794 3.50683 12.3389 3.62807 12.363C3.74931 12.3871 3.87497 12.3747 3.98918 12.3274C4.10338 12.2801 4.20099 12.2 4.26967 12.0972C4.33834 11.9945 4.375 11.8736 4.375 11.75C4.375 11.5842 4.30915 11.4253 4.19194 11.3081C4.07473 11.1908 3.91576 11.125 3.75 11.125ZM6.25 11.125C6.12639 11.125 6.00555 11.1617 5.90277 11.2303C5.79999 11.299 5.71988 11.3966 5.67257 11.5108C5.62527 11.625 5.61289 11.7507 5.63701 11.8719C5.66112 11.9932 5.72065 12.1045 5.80806 12.1919C5.89547 12.2794 6.00683 12.3389 6.12807 12.363C6.24931 12.3871 6.37497 12.3747 6.48918 12.3274C6.60338 12.2801 6.70099 12.2 6.76967 12.0972C6.83834 11.9945 6.875 11.8736 6.875 11.75C6.875 11.5842 6.80915 11.4253 6.69194 11.3081C6.57473 11.1908 6.41576 11.125 6.25 11.125ZM11.25 8.625C11.1264 8.625 11.0055 8.66166 10.9028 8.73033C10.8 8.79901 10.7199 8.89662 10.6726 9.01082C10.6253 9.12503 10.6129 9.25069 10.637 9.37193C10.6611 9.49317 10.7206 9.60453 10.8081 9.69194C10.8955 9.77935 11.0068 9.83887 11.1281 9.86299C11.2493 9.88711 11.375 9.87473 11.4892 9.82743C11.6034 9.78012 11.701 9.70001 11.7697 9.59723C11.8383 9.49445 11.875 9.37361 11.875 9.25C11.875 9.08424 11.8092 8.92527 11.6919 8.80806C11.5747 8.69085 11.4158 8.625 11.25 8.625ZM11.875 11.75C11.875 11.5842 11.8092 11.4253 11.6919 11.3081C11.5747 11.1908 11.4158 11.125 11.25 11.125H8.75C8.58424 11.125 8.42527 11.1908 8.30806 11.3081C8.19085 11.4253 8.125 11.5842 8.125 11.75C8.125 11.9158 8.19085 12.0747 8.30806 12.1919C8.42527 12.3092 8.58424 12.375 8.75 12.375H11.25C11.4158 12.375 11.5747 12.3092 11.6919 12.1919C11.8092 12.0747 11.875 11.9158 11.875 11.75Z" fill="black" fill-opacity="0.2"/>
<path d="M11.25 15.5H3.75C2.9215 15.499 2.12722 15.1694 1.54139 14.5836C0.955551 13.9978 0.625992 13.2035 0.625 12.375V3.625C0.625992 2.7965 0.955551 2.00222 1.54139 1.41639C2.12722 0.830551 2.9215 0.500992 3.75 0.5L11.25 0.5C12.0785 0.500992 12.8728 0.830551 13.4586 1.41639C14.0444 2.00222 14.374 2.7965 14.375 3.625V12.375C14.374 13.2035 14.0444 13.9978 13.4586 14.5836C12.8728 15.1694 12.0785 15.499 11.25 15.5ZM3.75 1.75C3.25272 1.75 2.77581 1.94754 2.42417 2.29917C2.07254 2.65081 1.875 3.12772 1.875 3.625V12.375C1.875 12.8723 2.07254 13.3492 2.42417 13.7008C2.77581 14.0525 3.25272 14.25 3.75 14.25H11.25C11.7473 14.25 12.2242 14.0525 12.5758 13.7008C12.9275 13.3492 13.125 12.8723 13.125 12.375V3.625C13.125 3.12772 12.9275 2.65081 12.5758 2.29917C12.2242 1.94754 11.7473 1.75 11.25 1.75H3.75ZM10 6.75H5C4.50272 6.75 4.02581 6.55246 3.67417 6.20083C3.32254 5.84919 3.125 5.37228 3.125 4.875C3.125 4.37772 3.32254 3.90081 3.67417 3.54917C4.02581 3.19754 4.50272 3 5 3H10C10.4973 3 10.9742 3.19754 11.3258 3.54917C11.6775 3.90081 11.875 4.37772 11.875 4.875C11.875 5.37228 11.6775 5.84919 11.3258 6.20083C10.9742 6.55246 10.4973 6.75 10 6.75ZM5 4.25C4.83424 4.25 4.67527 4.31585 4.55806 4.43306C4.44085 4.55027 4.375 4.70924 4.375 4.875C4.375 5.04076 4.44085 5.19973 4.55806 5.31694C4.67527 5.43415 4.83424 5.5 5 5.5H10C10.1658 5.5 10.3247 5.43415 10.4419 5.31694C10.5592 5.19973 10.625 5.04076 10.625 4.875C10.625 4.70924 10.5592 4.55027 10.4419 4.43306C10.3247 4.31585 10.1658 4.25 10 4.25H5ZM3.75 8.625C3.62639 8.625 3.50555 8.66166 3.40277 8.73033C3.29999 8.79901 3.21988 8.89662 3.17258 9.01082C3.12527 9.12503 3.11289 9.25069 3.13701 9.37193C3.16112 9.49317 3.22065 9.60453 3.30806 9.69194C3.39547 9.77935 3.50683 9.83887 3.62807 9.86299C3.74931 9.88711 3.87497 9.87473 3.98918 9.82743C4.10338 9.78012 4.20099 9.70001 4.26967 9.59723C4.33834 9.49445 4.375 9.37361 4.375 9.25C4.375 9.08424 4.30915 8.92527 4.19194 8.80806C4.07473 8.69085 3.91576 8.625 3.75 8.625ZM6.25 8.625C6.12639 8.625 6.00555 8.66166 5.90277 8.73033C5.79999 8.79901 5.71988 8.89662 5.67257 9.01082C5.62527 9.12503 5.61289 9.25069 5.63701 9.37193C5.66112 9.49317 5.72065 9.60453 5.80806 9.69194C5.89547 9.77935 6.00683 9.83887 6.12807 9.86299C6.24931 9.88711 6.37497 9.87473 6.48918 9.82743C6.60338 9.78012 6.70099 9.70001 6.76967 9.59723C6.83834 9.49445 6.875 9.37361 6.875 9.25C6.875 9.08424 6.80915 8.92527 6.69194 8.80806C6.57473 8.69085 6.41576 8.625 6.25 8.625ZM8.75 8.625C8.62639 8.625 8.50555 8.66166 8.40277 8.73033C8.29999 8.79901 8.21988 8.89662 8.17257 9.01082C8.12527 9.12503 8.11289 9.25069 8.13701 9.37193C8.16112 9.49317 8.22065 9.60453 8.30806 9.69194C8.39547 9.77935 8.50683 9.83887 8.62807 9.86299C8.74931 9.88711 8.87497 9.87473 8.98918 9.82743C9.10338 9.78012 9.20099 9.70001 9.26967 9.59723C9.33834 9.49445 9.375 9.37361 9.375 9.25C9.375 9.08424 9.30915 8.92527 9.19194 8.80806C9.07473 8.69085 8.91576 8.625 8.75 8.625ZM3.75 11.125C3.62639 11.125 3.50555 11.1617 3.40277 11.2303C3.29999 11.299 3.21988 11.3966 3.17258 11.5108C3.12527 11.625 3.11289 11.7507 3.13701 11.8719C3.16112 11.9932 3.22065 12.1045 3.30806 12.1919C3.39547 12.2794 3.50683 12.3389 3.62807 12.363C3.74931 12.3871 3.87497 12.3747 3.98918 12.3274C4.10338 12.2801 4.20099 12.2 4.26967 12.0972C4.33834 11.9945 4.375 11.8736 4.375 11.75C4.375 11.5842 4.30915 11.4253 4.19194 11.3081C4.07473 11.1908 3.91576 11.125 3.75 11.125ZM6.25 11.125C6.12639 11.125 6.00555 11.1617 5.90277 11.2303C5.79999 11.299 5.71988 11.3966 5.67257 11.5108C5.62527 11.625 5.61289 11.7507 5.63701 11.8719C5.66112 11.9932 5.72065 12.1045 5.80806 12.1919C5.89547 12.2794 6.00683 12.3389 6.12807 12.363C6.24931 12.3871 6.37497 12.3747 6.48918 12.3274C6.60338 12.2801 6.70099 12.2 6.76967 12.0972C6.83834 11.9945 6.875 11.8736 6.875 11.75C6.875 11.5842 6.80915 11.4253 6.69194 11.3081C6.57473 11.1908 6.41576 11.125 6.25 11.125ZM11.25 8.625C11.1264 8.625 11.0055 8.66166 10.9028 8.73033C10.8 8.79901 10.7199 8.89662 10.6726 9.01082C10.6253 9.12503 10.6129 9.25069 10.637 9.37193C10.6611 9.49317 10.7206 9.60453 10.8081 9.69194C10.8955 9.77935 11.0068 9.83887 11.1281 9.86299C11.2493 9.88711 11.375 9.87473 11.4892 9.82743C11.6034 9.78012 11.701 9.70001 11.7697 9.59723C11.8383 9.49445 11.875 9.37361 11.875 9.25C11.875 9.08424 11.8092 8.92527 11.6919 8.80806C11.5747 8.69085 11.4158 8.625 11.25 8.625ZM11.875 11.75C11.875 11.5842 11.8092 11.4253 11.6919 11.3081C11.5747 11.1908 11.4158 11.125 11.25 11.125H8.75C8.58424 11.125 8.42527 11.1908 8.30806 11.3081C8.19085 11.4253 8.125 11.5842 8.125 11.75C8.125 11.9158 8.19085 12.0747 8.30806 12.1919C8.42527 12.3092 8.58424 12.375 8.75 12.375H11.25C11.4158 12.375 11.5747 12.3092 11.6919 12.1919C11.8092 12.0747 11.875 11.9158 11.875 11.75Z" fill="black" fill-opacity="0.2"/>
<path d="M11.25 15.5H3.75C2.9215 15.499 2.12722 15.1694 1.54139 14.5836C0.955551 13.9978 0.625992 13.2035 0.625 12.375V3.625C0.625992 2.7965 0.955551 2.00222 1.54139 1.41639C2.12722 0.830551 2.9215 0.500992 3.75 0.5L11.25 0.5C12.0785 0.500992 12.8728 0.830551 13.4586 1.41639C14.0444 2.00222 14.374 2.7965 14.375 3.625V12.375C14.374 13.2035 14.0444 13.9978 13.4586 14.5836C12.8728 15.1694 12.0785 15.499 11.25 15.5ZM3.75 1.75C3.25272 1.75 2.77581 1.94754 2.42417 2.29917C2.07254 2.65081 1.875 3.12772 1.875 3.625V12.375C1.875 12.8723 2.07254 13.3492 2.42417 13.7008C2.77581 14.0525 3.25272 14.25 3.75 14.25H11.25C11.7473 14.25 12.2242 14.0525 12.5758 13.7008C12.9275 13.3492 13.125 12.8723 13.125 12.375V3.625C13.125 3.12772 12.9275 2.65081 12.5758 2.29917C12.2242 1.94754 11.7473 1.75 11.25 1.75H3.75ZM10 6.75H5C4.50272 6.75 4.02581 6.55246 3.67417 6.20083C3.32254 5.84919 3.125 5.37228 3.125 4.875C3.125 4.37772 3.32254 3.90081 3.67417 3.54917C4.02581 3.19754 4.50272 3 5 3H10C10.4973 3 10.9742 3.19754 11.3258 3.54917C11.6775 3.90081 11.875 4.37772 11.875 4.875C11.875 5.37228 11.6775 5.84919 11.3258 6.20083C10.9742 6.55246 10.4973 6.75 10 6.75ZM5 4.25C4.83424 4.25 4.67527 4.31585 4.55806 4.43306C4.44085 4.55027 4.375 4.70924 4.375 4.875C4.375 5.04076 4.44085 5.19973 4.55806 5.31694C4.67527 5.43415 4.83424 5.5 5 5.5H10C10.1658 5.5 10.3247 5.43415 10.4419 5.31694C10.5592 5.19973 10.625 5.04076 10.625 4.875C10.625 4.70924 10.5592 4.55027 10.4419 4.43306C10.3247 4.31585 10.1658 4.25 10 4.25H5ZM3.75 8.625C3.62639 8.625 3.50555 8.66166 3.40277 8.73033C3.29999 8.79901 3.21988 8.89662 3.17258 9.01082C3.12527 9.12503 3.11289 9.25069 3.13701 9.37193C3.16112 9.49317 3.22065 9.60453 3.30806 9.69194C3.39547 9.77935 3.50683 9.83887 3.62807 9.86299C3.74931 9.88711 3.87497 9.87473 3.98918 9.82743C4.10338 9.78012 4.20099 9.70001 4.26967 9.59723C4.33834 9.49445 4.375 9.37361 4.375 9.25C4.375 9.08424 4.30915 8.92527 4.19194 8.80806C4.07473 8.69085 3.91576 8.625 3.75 8.625ZM6.25 8.625C6.12639 8.625 6.00555 8.66166 5.90277 8.73033C5.79999 8.79901 5.71988 8.89662 5.67257 9.01082C5.62527 9.12503 5.61289 9.25069 5.63701 9.37193C5.66112 9.49317 5.72065 9.60453 5.80806 9.69194C5.89547 9.77935 6.00683 9.83887 6.12807 9.86299C6.24931 9.88711 6.37497 9.87473 6.48918 9.82743C6.60338 9.78012 6.70099 9.70001 6.76967 9.59723C6.83834 9.49445 6.875 9.37361 6.875 9.25C6.875 9.08424 6.80915 8.92527 6.69194 8.80806C6.57473 8.69085 6.41576 8.625 6.25 8.625ZM8.75 8.625C8.62639 8.625 8.50555 8.66166 8.40277 8.73033C8.29999 8.79901 8.21988 8.89662 8.17257 9.01082C8.12527 9.12503 8.11289 9.25069 8.13701 9.37193C8.16112 9.49317 8.22065 9.60453 8.30806 9.69194C8.39547 9.77935 8.50683 9.83887 8.62807 9.86299C8.74931 9.88711 8.87497 9.87473 8.98918 9.82743C9.10338 9.78012 9.20099 9.70001 9.26967 9.59723C9.33834 9.49445 9.375 9.37361 9.375 9.25C9.375 9.08424 9.30915 8.92527 9.19194 8.80806C9.07473 8.69085 8.91576 8.625 8.75 8.625ZM3.75 11.125C3.62639 11.125 3.50555 11.1617 3.40277 11.2303C3.29999 11.299 3.21988 11.3966 3.17258 11.5108C3.12527 11.625 3.11289 11.7507 3.13701 11.8719C3.16112 11.9932 3.22065 12.1045 3.30806 12.1919C3.39547 12.2794 3.50683 12.3389 3.62807 12.363C3.74931 12.3871 3.87497 12.3747 3.98918 12.3274C4.10338 12.2801 4.20099 12.2 4.26967 12.0972C4.33834 11.9945 4.375 11.8736 4.375 11.75C4.375 11.5842 4.30915 11.4253 4.19194 11.3081C4.07473 11.1908 3.91576 11.125 3.75 11.125ZM6.25 11.125C6.12639 11.125 6.00555 11.1617 5.90277 11.2303C5.79999 11.299 5.71988 11.3966 5.67257 11.5108C5.62527 11.625 5.61289 11.7507 5.63701 11.8719C5.66112 11.9932 5.72065 12.1045 5.80806 12.1919C5.89547 12.2794 6.00683 12.3389 6.12807 12.363C6.24931 12.3871 6.37497 12.3747 6.48918 12.3274C6.60338 12.2801 6.70099 12.2 6.76967 12.0972C6.83834 11.9945 6.875 11.8736 6.875 11.75C6.875 11.5842 6.80915 11.4253 6.69194 11.3081C6.57473 11.1908 6.41576 11.125 6.25 11.125ZM11.25 8.625C11.1264 8.625 11.0055 8.66166 10.9028 8.73033C10.8 8.79901 10.7199 8.89662 10.6726 9.01082C10.6253 9.12503 10.6129 9.25069 10.637 9.37193C10.6611 9.49317 10.7206 9.60453 10.8081 9.69194C10.8955 9.77935 11.0068 9.83887 11.1281 9.86299C11.2493 9.88711 11.375 9.87473 11.4892 9.82743C11.6034 9.78012 11.701 9.70001 11.7697 9.59723C11.8383 9.49445 11.875 9.37361 11.875 9.25C11.875 9.08424 11.8092 8.92527 11.6919 8.80806C11.5747 8.69085 11.4158 8.625 11.25 8.625ZM11.875 11.75C11.875 11.5842 11.8092 11.4253 11.6919 11.3081C11.5747 11.1908 11.4158 11.125 11.25 11.125H8.75C8.58424 11.125 8.42527 11.1908 8.30806 11.3081C8.19085 11.4253 8.125 11.5842 8.125 11.75C8.125 11.9158 8.19085 12.0747 8.30806 12.1919C8.42527 12.3092 8.58424 12.375 8.75 12.375H11.25C11.4158 12.375 11.5747 12.3092 11.6919 12.1919C11.8092 12.0747 11.875 11.9158 11.875 11.75Z" fill="black" fill-opacity="0.2"/>
<path d="M11.25 15.5H3.75C2.9215 15.499 2.12722 15.1694 1.54139 14.5836C0.955551 13.9978 0.625992 13.2035 0.625 12.375V3.625C0.625992 2.7965 0.955551 2.00222 1.54139 1.41639C2.12722 0.830551 2.9215 0.500992 3.75 0.5L11.25 0.5C12.0785 0.500992 12.8728 0.830551 13.4586 1.41639C14.0444 2.00222 14.374 2.7965 14.375 3.625V12.375C14.374 13.2035 14.0444 13.9978 13.4586 14.5836C12.8728 15.1694 12.0785 15.499 11.25 15.5ZM3.75 1.75C3.25272 1.75 2.77581 1.94754 2.42417 2.29917C2.07254 2.65081 1.875 3.12772 1.875 3.625V12.375C1.875 12.8723 2.07254 13.3492 2.42417 13.7008C2.77581 14.0525 3.25272 14.25 3.75 14.25H11.25C11.7473 14.25 12.2242 14.0525 12.5758 13.7008C12.9275 13.3492 13.125 12.8723 13.125 12.375V3.625C13.125 3.12772 12.9275 2.65081 12.5758 2.29917C12.2242 1.94754 11.7473 1.75 11.25 1.75H3.75ZM10 6.75H5C4.50272 6.75 4.02581 6.55246 3.67417 6.20083C3.32254 5.84919 3.125 5.37228 3.125 4.875C3.125 4.37772 3.32254 3.90081 3.67417 3.54917C4.02581 3.19754 4.50272 3 5 3H10C10.4973 3 10.9742 3.19754 11.3258 3.54917C11.6775 3.90081 11.875 4.37772 11.875 4.875C11.875 5.37228 11.6775 5.84919 11.3258 6.20083C10.9742 6.55246 10.4973 6.75 10 6.75ZM5 4.25C4.83424 4.25 4.67527 4.31585 4.55806 4.43306C4.44085 4.55027 4.375 4.70924 4.375 4.875C4.375 5.04076 4.44085 5.19973 4.55806 5.31694C4.67527 5.43415 4.83424 5.5 5 5.5H10C10.1658 5.5 10.3247 5.43415 10.4419 5.31694C10.5592 5.19973 10.625 5.04076 10.625 4.875C10.625 4.70924 10.5592 4.55027 10.4419 4.43306C10.3247 4.31585 10.1658 4.25 10 4.25H5ZM3.75 8.625C3.62639 8.625 3.50555 8.66166 3.40277 8.73033C3.29999 8.79901 3.21988 8.89662 3.17258 9.01082C3.12527 9.12503 3.11289 9.25069 3.13701 9.37193C3.16112 9.49317 3.22065 9.60453 3.30806 9.69194C3.39547 9.77935 3.50683 9.83887 3.62807 9.86299C3.74931 9.88711 3.87497 9.87473 3.98918 9.82743C4.10338 9.78012 4.20099 9.70001 4.26967 9.59723C4.33834 9.49445 4.375 9.37361 4.375 9.25C4.375 9.08424 4.30915 8.92527 4.19194 8.80806C4.07473 8.69085 3.91576 8.625 3.75 8.625ZM6.25 8.625C6.12639 8.625 6.00555 8.66166 5.90277 8.73033C5.79999 8.79901 5.71988 8.89662 5.67257 9.01082C5.62527 9.12503 5.61289 9.25069 5.63701 9.37193C5.66112 9.49317 5.72065 9.60453 5.80806 9.69194C5.89547 9.77935 6.00683 9.83887 6.12807 9.86299C6.24931 9.88711 6.37497 9.87473 6.48918 9.82743C6.60338 9.78012 6.70099 9.70001 6.76967 9.59723C6.83834 9.49445 6.875 9.37361 6.875 9.25C6.875 9.08424 6.80915 8.92527 6.69194 8.80806C6.57473 8.69085 6.41576 8.625 6.25 8.625ZM8.75 8.625C8.62639 8.625 8.50555 8.66166 8.40277 8.73033C8.29999 8.79901 8.21988 8.89662 8.17257 9.01082C8.12527 9.12503 8.11289 9.25069 8.13701 9.37193C8.16112 9.49317 8.22065 9.60453 8.30806 9.69194C8.39547 9.77935 8.50683 9.83887 8.62807 9.86299C8.74931 9.88711 8.87497 9.87473 8.98918 9.82743C9.10338 9.78012 9.20099 9.70001 9.26967 9.59723C9.33834 9.49445 9.375 9.37361 9.375 9.25C9.375 9.08424 9.30915 8.92527 9.19194 8.80806C9.07473 8.69085 8.91576 8.625 8.75 8.625ZM3.75 11.125C3.62639 11.125 3.50555 11.1617 3.40277 11.2303C3.29999 11.299 3.21988 11.3966 3.17258 11.5108C3.12527 11.625 3.11289 11.7507 3.13701 11.8719C3.16112 11.9932 3.22065 12.1045 3.30806 12.1919C3.39547 12.2794 3.50683 12.3389 3.62807 12.363C3.74931 12.3871 3.87497 12.3747 3.98918 12.3274C4.10338 12.2801 4.20099 12.2 4.26967 12.0972C4.33834 11.9945 4.375 11.8736 4.375 11.75C4.375 11.5842 4.30915 11.4253 4.19194 11.3081C4.07473 11.1908 3.91576 11.125 3.75 11.125ZM6.25 11.125C6.12639 11.125 6.00555 11.1617 5.90277 11.2303C5.79999 11.299 5.71988 11.3966 5.67257 11.5108C5.62527 11.625 5.61289 11.7507 5.63701 11.8719C5.66112 11.9932 5.72065 12.1045 5.80806 12.1919C5.89547 12.2794 6.00683 12.3389 6.12807 12.363C6.24931 12.3871 6.37497 12.3747 6.48918 12.3274C6.60338 12.2801 6.70099 12.2 6.76967 12.0972C6.83834 11.9945 6.875 11.8736 6.875 11.75C6.875 11.5842 6.80915 11.4253 6.69194 11.3081C6.57473 11.1908 6.41576 11.125 6.25 11.125ZM11.25 8.625C11.1264 8.625 11.0055 8.66166 10.9028 8.73033C10.8 8.79901 10.7199 8.89662 10.6726 9.01082C10.6253 9.12503 10.6129 9.25069 10.637 9.37193C10.6611 9.49317 10.7206 9.60453 10.8081 9.69194C10.8955 9.77935 11.0068 9.83887 11.1281 9.86299C11.2493 9.88711 11.375 9.87473 11.4892 9.82743C11.6034 9.78012 11.701 9.70001 11.7697 9.59723C11.8383 9.49445 11.875 9.37361 11.875 9.25C11.875 9.08424 11.8092 8.92527 11.6919 8.80806C11.5747 8.69085 11.4158 8.625 11.25 8.625ZM11.875 11.75C11.875 11.5842 11.8092 11.4253 11.6919 11.3081C11.5747 11.1908 11.4158 11.125 11.25 11.125H8.75C8.58424 11.125 8.42527 11.1908 8.30806 11.3081C8.19085 11.4253 8.125 11.5842 8.125 11.75C8.125 11.9158 8.19085 12.0747 8.30806 12.1919C8.42527 12.3092 8.58424 12.375 8.75 12.375H11.25C11.4158 12.375 11.5747 12.3092 11.6919 12.1919C11.8092 12.0747 11.875 11.9158 11.875 11.75Z" fill="black" fill-opacity="0.2"/>
<path d="M11.25 15.5H3.75C2.9215 15.499 2.12722 15.1694 1.54139 14.5836C0.955551 13.9978 0.625992 13.2035 0.625 12.375V3.625C0.625992 2.7965 0.955551 2.00222 1.54139 1.41639C2.12722 0.830551 2.9215 0.500992 3.75 0.5L11.25 0.5C12.0785 0.500992 12.8728 0.830551 13.4586 1.41639C14.0444 2.00222 14.374 2.7965 14.375 3.625V12.375C14.374 13.2035 14.0444 13.9978 13.4586 14.5836C12.8728 15.1694 12.0785 15.499 11.25 15.5ZM3.75 1.75C3.25272 1.75 2.77581 1.94754 2.42417 2.29917C2.07254 2.65081 1.875 3.12772 1.875 3.625V12.375C1.875 12.8723 2.07254 13.3492 2.42417 13.7008C2.77581 14.0525 3.25272 14.25 3.75 14.25H11.25C11.7473 14.25 12.2242 14.0525 12.5758 13.7008C12.9275 13.3492 13.125 12.8723 13.125 12.375V3.625C13.125 3.12772 12.9275 2.65081 12.5758 2.29917C12.2242 1.94754 11.7473 1.75 11.25 1.75H3.75ZM10 6.75H5C4.50272 6.75 4.02581 6.55246 3.67417 6.20083C3.32254 5.84919 3.125 5.37228 3.125 4.875C3.125 4.37772 3.32254 3.90081 3.67417 3.54917C4.02581 3.19754 4.50272 3 5 3H10C10.4973 3 10.9742 3.19754 11.3258 3.54917C11.6775 3.90081 11.875 4.37772 11.875 4.875C11.875 5.37228 11.6775 5.84919 11.3258 6.20083C10.9742 6.55246 10.4973 6.75 10 6.75ZM5 4.25C4.83424 4.25 4.67527 4.31585 4.55806 4.43306C4.44085 4.55027 4.375 4.70924 4.375 4.875C4.375 5.04076 4.44085 5.19973 4.55806 5.31694C4.67527 5.43415 4.83424 5.5 5 5.5H10C10.1658 5.5 10.3247 5.43415 10.4419 5.31694C10.5592 5.19973 10.625 5.04076 10.625 4.875C10.625 4.70924 10.5592 4.55027 10.4419 4.43306C10.3247 4.31585 10.1658 4.25 10 4.25H5ZM3.75 8.625C3.62639 8.625 3.50555 8.66166 3.40277 8.73033C3.29999 8.79901 3.21988 8.89662 3.17258 9.01082C3.12527 9.12503 3.11289 9.25069 3.13701 9.37193C3.16112 9.49317 3.22065 9.60453 3.30806 9.69194C3.39547 9.77935 3.50683 9.83887 3.62807 9.86299C3.74931 9.88711 3.87497 9.87473 3.98918 9.82743C4.10338 9.78012 4.20099 9.70001 4.26967 9.59723C4.33834 9.49445 4.375 9.37361 4.375 9.25C4.375 9.08424 4.30915 8.92527 4.19194 8.80806C4.07473 8.69085 3.91576 8.625 3.75 8.625ZM6.25 8.625C6.12639 8.625 6.00555 8.66166 5.90277 8.73033C5.79999 8.79901 5.71988 8.89662 5.67257 9.01082C5.62527 9.12503 5.61289 9.25069 5.63701 9.37193C5.66112 9.49317 5.72065 9.60453 5.80806 9.69194C5.89547 9.77935 6.00683 9.83887 6.12807 9.86299C6.24931 9.88711 6.37497 9.87473 6.48918 9.82743C6.60338 9.78012 6.70099 9.70001 6.76967 9.59723C6.83834 9.49445 6.875 9.37361 6.875 9.25C6.875 9.08424 6.80915 8.92527 6.69194 8.80806C6.57473 8.69085 6.41576 8.625 6.25 8.625ZM8.75 8.625C8.62639 8.625 8.50555 8.66166 8.40277 8.73033C8.29999 8.79901 8.21988 8.89662 8.17257 9.01082C8.12527 9.12503 8.11289 9.25069 8.13701 9.37193C8.16112 9.49317 8.22065 9.60453 8.30806 9.69194C8.39547 9.77935 8.50683 9.83887 8.62807 9.86299C8.74931 9.88711 8.87497 9.87473 8.98918 9.82743C9.10338 9.78012 9.20099 9.70001 9.26967 9.59723C9.33834 9.49445 9.375 9.37361 9.375 9.25C9.375 9.08424 9.30915 8.92527 9.19194 8.80806C9.07473 8.69085 8.91576 8.625 8.75 8.625ZM3.75 11.125C3.62639 11.125 3.50555 11.1617 3.40277 11.2303C3.29999 11.299 3.21988 11.3966 3.17258 11.5108C3.12527 11.625 3.11289 11.7507 3.13701 11.8719C3.16112 11.9932 3.22065 12.1045 3.30806 12.1919C3.39547 12.2794 3.50683 12.3389 3.62807 12.363C3.74931 12.3871 3.87497 12.3747 3.98918 12.3274C4.10338 12.2801 4.20099 12.2 4.26967 12.0972C4.33834 11.9945 4.375 11.8736 4.375 11.75C4.375 11.5842 4.30915 11.4253 4.19194 11.3081C4.07473 11.1908 3.91576 11.125 3.75 11.125ZM6.25 11.125C6.12639 11.125 6.00555 11.1617 5.90277 11.2303C5.79999 11.299 5.71988 11.3966 5.67257 11.5108C5.62527 11.625 5.61289 11.7507 5.63701 11.8719C5.66112 11.9932 5.72065 12.1045 5.80806 12.1919C5.89547 12.2794 6.00683 12.3389 6.12807 12.363C6.24931 12.3871 6.37497 12.3747 6.48918 12.3274C6.60338 12.2801 6.70099 12.2 6.76967 12.0972C6.83834 11.9945 6.875 11.8736 6.875 11.75C6.875 11.5842 6.80915 11.4253 6.69194 11.3081C6.57473 11.1908 6.41576 11.125 6.25 11.125ZM11.25 8.625C11.1264 8.625 11.0055 8.66166 10.9028 8.73033C10.8 8.79901 10.7199 8.89662 10.6726 9.01082C10.6253 9.12503 10.6129 9.25069 10.637 9.37193C10.6611 9.49317 10.7206 9.60453 10.8081 9.69194C10.8955 9.77935 11.0068 9.83887 11.1281 9.86299C11.2493 9.88711 11.375 9.87473 11.4892 9.82743C11.6034 9.78012 11.701 9.70001 11.7697 9.59723C11.8383 9.49445 11.875 9.37361 11.875 9.25C11.875 9.08424 11.8092 8.92527 11.6919 8.80806C11.5747 8.69085 11.4158 8.625 11.25 8.625ZM11.875 11.75C11.875 11.5842 11.8092 11.4253 11.6919 11.3081C11.5747 11.1908 11.4158 11.125 11.25 11.125H8.75C8.58424 11.125 8.42527 11.1908 8.30806 11.3081C8.19085 11.4253 8.125 11.5842 8.125 11.75C8.125 11.9158 8.19085 12.0747 8.30806 12.1919C8.42527 12.3092 8.58424 12.375 8.75 12.375H11.25C11.4158 12.375 11.5747 12.3092 11.6919 12.1919C11.8092 12.0747 11.875 11.9158 11.875 11.75Z" fill="black" fill-opacity="0.2"/>
<path d="M11.25 15.5H3.75C2.9215 15.499 2.12722 15.1694 1.54139 14.5836C0.955551 13.9978 0.625992 13.2035 0.625 12.375V3.625C0.625992 2.7965 0.955551 2.00222 1.54139 1.41639C2.12722 0.830551 2.9215 0.500992 3.75 0.5L11.25 0.5C12.0785 0.500992 12.8728 0.830551 13.4586 1.41639C14.0444 2.00222 14.374 2.7965 14.375 3.625V12.375C14.374 13.2035 14.0444 13.9978 13.4586 14.5836C12.8728 15.1694 12.0785 15.499 11.25 15.5ZM3.75 1.75C3.25272 1.75 2.77581 1.94754 2.42417 2.29917C2.07254 2.65081 1.875 3.12772 1.875 3.625V12.375C1.875 12.8723 2.07254 13.3492 2.42417 13.7008C2.77581 14.0525 3.25272 14.25 3.75 14.25H11.25C11.7473 14.25 12.2242 14.0525 12.5758 13.7008C12.9275 13.3492 13.125 12.8723 13.125 12.375V3.625C13.125 3.12772 12.9275 2.65081 12.5758 2.29917C12.2242 1.94754 11.7473 1.75 11.25 1.75H3.75ZM10 6.75H5C4.50272 6.75 4.02581 6.55246 3.67417 6.20083C3.32254 5.84919 3.125 5.37228 3.125 4.875C3.125 4.37772 3.32254 3.90081 3.67417 3.54917C4.02581 3.19754 4.50272 3 5 3H10C10.4973 3 10.9742 3.19754 11.3258 3.54917C11.6775 3.90081 11.875 4.37772 11.875 4.875C11.875 5.37228 11.6775 5.84919 11.3258 6.20083C10.9742 6.55246 10.4973 6.75 10 6.75ZM5 4.25C4.83424 4.25 4.67527 4.31585 4.55806 4.43306C4.44085 4.55027 4.375 4.70924 4.375 4.875C4.375 5.04076 4.44085 5.19973 4.55806 5.31694C4.67527 5.43415 4.83424 5.5 5 5.5H10C10.1658 5.5 10.3247 5.43415 10.4419 5.31694C10.5592 5.19973 10.625 5.04076 10.625 4.875C10.625 4.70924 10.5592 4.55027 10.4419 4.43306C10.3247 4.31585 10.1658 4.25 10 4.25H5ZM3.75 8.625C3.62639 8.625 3.50555 8.66166 3.40277 8.73033C3.29999 8.79901 3.21988 8.89662 3.17258 9.01082C3.12527 9.12503 3.11289 9.25069 3.13701 9.37193C3.16112 9.49317 3.22065 9.60453 3.30806 9.69194C3.39547 9.77935 3.50683 9.83887 3.62807 9.86299C3.74931 9.88711 3.87497 9.87473 3.98918 9.82743C4.10338 9.78012 4.20099 9.70001 4.26967 9.59723C4.33834 9.49445 4.375 9.37361 4.375 9.25C4.375 9.08424 4.30915 8.92527 4.19194 8.80806C4.07473 8.69085 3.91576 8.625 3.75 8.625ZM6.25 8.625C6.12639 8.625 6.00555 8.66166 5.90277 8.73033C5.79999 8.79901 5.71988 8.89662 5.67257 9.01082C5.62527 9.12503 5.61289 9.25069 5.63701 9.37193C5.66112 9.49317 5.72065 9.60453 5.80806 9.69194C5.89547 9.77935 6.00683 9.83887 6.12807 9.86299C6.24931 9.88711 6.37497 9.87473 6.48918 9.82743C6.60338 9.78012 6.70099 9.70001 6.76967 9.59723C6.83834 9.49445 6.875 9.37361 6.875 9.25C6.875 9.08424 6.80915 8.92527 6.69194 8.80806C6.57473 8.69085 6.41576 8.625 6.25 8.625ZM8.75 8.625C8.62639 8.625 8.50555 8.66166 8.40277 8.73033C8.29999 8.79901 8.21988 8.89662 8.17257 9.01082C8.12527 9.12503 8.11289 9.25069 8.13701 9.37193C8.16112 9.49317 8.22065 9.60453 8.30806 9.69194C8.39547 9.77935 8.50683 9.83887 8.62807 9.86299C8.74931 9.88711 8.87497 9.87473 8.98918 9.82743C9.10338 9.78012 9.20099 9.70001 9.26967 9.59723C9.33834 9.49445 9.375 9.37361 9.375 9.25C9.375 9.08424 9.30915 8.92527 9.19194 8.80806C9.07473 8.69085 8.91576 8.625 8.75 8.625ZM3.75 11.125C3.62639 11.125 3.50555 11.1617 3.40277 11.2303C3.29999 11.299 3.21988 11.3966 3.17258 11.5108C3.12527 11.625 3.11289 11.7507 3.13701 11.8719C3.16112 11.9932 3.22065 12.1045 3.30806 12.1919C3.39547 12.2794 3.50683 12.3389 3.62807 12.363C3.74931 12.3871 3.87497 12.3747 3.98918 12.3274C4.10338 12.2801 4.20099 12.2 4.26967 12.0972C4.33834 11.9945 4.375 11.8736 4.375 11.75C4.375 11.5842 4.30915 11.4253 4.19194 11.3081C4.07473 11.1908 3.91576 11.125 3.75 11.125ZM6.25 11.125C6.12639 11.125 6.00555 11.1617 5.90277 11.2303C5.79999 11.299 5.71988 11.3966 5.67257 11.5108C5.62527 11.625 5.61289 11.7507 5.63701 11.8719C5.66112 11.9932 5.72065 12.1045 5.80806 12.1919C5.89547 12.2794 6.00683 12.3389 6.12807 12.363C6.24931 12.3871 6.37497 12.3747 6.48918 12.3274C6.60338 12.2801 6.70099 12.2 6.76967 12.0972C6.83834 11.9945 6.875 11.8736 6.875 11.75C6.875 11.5842 6.80915 11.4253 6.69194 11.3081C6.57473 11.1908 6.41576 11.125 6.25 11.125ZM11.25 8.625C11.1264 8.625 11.0055 8.66166 10.9028 8.73033C10.8 8.79901 10.7199 8.89662 10.6726 9.01082C10.6253 9.12503 10.6129 9.25069 10.637 9.37193C10.6611 9.49317 10.7206 9.60453 10.8081 9.69194C10.8955 9.77935 11.0068 9.83887 11.1281 9.86299C11.2493 9.88711 11.375 9.87473 11.4892 9.82743C11.6034 9.78012 11.701 9.70001 11.7697 9.59723C11.8383 9.49445 11.875 9.37361 11.875 9.25C11.875 9.08424 11.8092 8.92527 11.6919 8.80806C11.5747 8.69085 11.4158 8.625 11.25 8.625ZM11.875 11.75C11.875 11.5842 11.8092 11.4253 11.6919 11.3081C11.5747 11.1908 11.4158 11.125 11.25 11.125H8.75C8.58424 11.125 8.42527 11.1908 8.30806 11.3081C8.19085 11.4253 8.125 11.5842 8.125 11.75C8.125 11.9158 8.19085 12.0747 8.30806 12.1919C8.42527 12.3092 8.58424 12.375 8.75 12.375H11.25C11.4158 12.375 11.5747 12.3092 11.6919 12.1919C11.8092 12.0747 11.875 11.9158 11.875 11.75Z" fill="black" fill-opacity="0.2"/>
<path d="M11.25 15.5H3.75C2.9215 15.499 2.12722 15.1694 1.54139 14.5836C0.955551 13.9978 0.625992 13.2035 0.625 12.375V3.625C0.625992 2.7965 0.955551 2.00222 1.54139 1.41639C2.12722 0.830551 2.9215 0.500992 3.75 0.5L11.25 0.5C12.0785 0.500992 12.8728 0.830551 13.4586 1.41639C14.0444 2.00222 14.374 2.7965 14.375 3.625V12.375C14.374 13.2035 14.0444 13.9978 13.4586 14.5836C12.8728 15.1694 12.0785 15.499 11.25 15.5ZM3.75 1.75C3.25272 1.75 2.77581 1.94754 2.42417 2.29917C2.07254 2.65081 1.875 3.12772 1.875 3.625V12.375C1.875 12.8723 2.07254 13.3492 2.42417 13.7008C2.77581 14.0525 3.25272 14.25 3.75 14.25H11.25C11.7473 14.25 12.2242 14.0525 12.5758 13.7008C12.9275 13.3492 13.125 12.8723 13.125 12.375V3.625C13.125 3.12772 12.9275 2.65081 12.5758 2.29917C12.2242 1.94754 11.7473 1.75 11.25 1.75H3.75ZM10 6.75H5C4.50272 6.75 4.02581 6.55246 3.67417 6.20083C3.32254 5.84919 3.125 5.37228 3.125 4.875C3.125 4.37772 3.32254 3.90081 3.67417 3.54917C4.02581 3.19754 4.50272 3 5 3H10C10.4973 3 10.9742 3.19754 11.3258 3.54917C11.6775 3.90081 11.875 4.37772 11.875 4.875C11.875 5.37228 11.6775 5.84919 11.3258 6.20083C10.9742 6.55246 10.4973 6.75 10 6.75ZM5 4.25C4.83424 4.25 4.67527 4.31585 4.55806 4.43306C4.44085 4.55027 4.375 4.70924 4.375 4.875C4.375 5.04076 4.44085 5.19973 4.55806 5.31694C4.67527 5.43415 4.83424 5.5 5 5.5H10C10.1658 5.5 10.3247 5.43415 10.4419 5.31694C10.5592 5.19973 10.625 5.04076 10.625 4.875C10.625 4.70924 10.5592 4.55027 10.4419 4.43306C10.3247 4.31585 10.1658 4.25 10 4.25H5ZM3.75 8.625C3.62639 8.625 3.50555 8.66166 3.40277 8.73033C3.29999 8.79901 3.21988 8.89662 3.17258 9.01082C3.12527 9.12503 3.11289 9.25069 3.13701 9.37193C3.16112 9.49317 3.22065 9.60453 3.30806 9.69194C3.39547 9.77935 3.50683 9.83887 3.62807 9.86299C3.74931 9.88711 3.87497 9.87473 3.98918 9.82743C4.10338 9.78012 4.20099 9.70001 4.26967 9.59723C4.33834 9.49445 4.375 9.37361 4.375 9.25C4.375 9.08424 4.30915 8.92527 4.19194 8.80806C4.07473 8.69085 3.91576 8.625 3.75 8.625ZM6.25 8.625C6.12639 8.625 6.00555 8.66166 5.90277 8.73033C5.79999 8.79901 5.71988 8.89662 5.67257 9.01082C5.62527 9.12503 5.61289 9.25069 5.63701 9.37193C5.66112 9.49317 5.72065 9.60453 5.80806 9.69194C5.89547 9.77935 6.00683 9.83887 6.12807 9.86299C6.24931 9.88711 6.37497 9.87473 6.48918 9.82743C6.60338 9.78012 6.70099 9.70001 6.76967 9.59723C6.83834 9.49445 6.875 9.37361 6.875 9.25C6.875 9.08424 6.80915 8.92527 6.69194 8.80806C6.57473 8.69085 6.41576 8.625 6.25 8.625ZM8.75 8.625C8.62639 8.625 8.50555 8.66166 8.40277 8.73033C8.29999 8.79901 8.21988 8.89662 8.17257 9.01082C8.12527 9.12503 8.11289 9.25069 8.13701 9.37193C8.16112 9.49317 8.22065 9.60453 8.30806 9.69194C8.39547 9.77935 8.50683 9.83887 8.62807 9.86299C8.74931 9.88711 8.87497 9.87473 8.98918 9.82743C9.10338 9.78012 9.20099 9.70001 9.26967 9.59723C9.33834 9.49445 9.375 9.37361 9.375 9.25C9.375 9.08424 9.30915 8.92527 9.19194 8.80806C9.07473 8.69085 8.91576 8.625 8.75 8.625ZM3.75 11.125C3.62639 11.125 3.50555 11.1617 3.40277 11.2303C3.29999 11.299 3.21988 11.3966 3.17258 11.5108C3.12527 11.625 3.11289 11.7507 3.13701 11.8719C3.16112 11.9932 3.22065 12.1045 3.30806 12.1919C3.39547 12.2794 3.50683 12.3389 3.62807 12.363C3.74931 12.3871 3.87497 12.3747 3.98918 12.3274C4.10338 12.2801 4.20099 12.2 4.26967 12.0972C4.33834 11.9945 4.375 11.8736 4.375 11.75C4.375 11.5842 4.30915 11.4253 4.19194 11.3081C4.07473 11.1908 3.91576 11.125 3.75 11.125ZM6.25 11.125C6.12639 11.125 6.00555 11.1617 5.90277 11.2303C5.79999 11.299 5.71988 11.3966 5.67257 11.5108C5.62527 11.625 5.61289 11.7507 5.63701 11.8719C5.66112 11.9932 5.72065 12.1045 5.80806 12.1919C5.89547 12.2794 6.00683 12.3389 6.12807 12.363C6.24931 12.3871 6.37497 12.3747 6.48918 12.3274C6.60338 12.2801 6.70099 12.2 6.76967 12.0972C6.83834 11.9945 6.875 11.8736 6.875 11.75C6.875 11.5842 6.80915 11.4253 6.69194 11.3081C6.57473 11.1908 6.41576 11.125 6.25 11.125ZM11.25 8.625C11.1264 8.625 11.0055 8.66166 10.9028 8.73033C10.8 8.79901 10.7199 8.89662 10.6726 9.01082C10.6253 9.12503 10.6129 9.25069 10.637 9.37193C10.6611 9.49317 10.7206 9.60453 10.8081 9.69194C10.8955 9.77935 11.0068 9.83887 11.1281 9.86299C11.2493 9.88711 11.375 9.87473 11.4892 9.82743C11.6034 9.78012 11.701 9.70001 11.7697 9.59723C11.8383 9.49445 11.875 9.37361 11.875 9.25C11.875 9.08424 11.8092 8.92527 11.6919 8.80806C11.5747 8.69085 11.4158 8.625 11.25 8.625ZM11.875 11.75C11.875 11.5842 11.8092 11.4253 11.6919 11.3081C11.5747 11.1908 11.4158 11.125 11.25 11.125H8.75C8.58424 11.125 8.42527 11.1908 8.30806 11.3081C8.19085 11.4253 8.125 11.5842 8.125 11.75C8.125 11.9158 8.19085 12.0747 8.30806 12.1919C8.42527 12.3092 8.58424 12.375 8.75 12.375H11.25C11.4158 12.375 11.5747 12.3092 11.6919 12.1919C11.8092 12.0747 11.875 11.9158 11.875 11.75Z" fill="black" fill-opacity="0.2"/>
<path d="M11.25 15.5H3.75C2.9215 15.499 2.12722 15.1694 1.54139 14.5836C0.955551 13.9978 0.625992 13.2035 0.625 12.375V3.625C0.625992 2.7965 0.955551 2.00222 1.54139 1.41639C2.12722 0.830551 2.9215 0.500992 3.75 0.5L11.25 0.5C12.0785 0.500992 12.8728 0.830551 13.4586 1.41639C14.0444 2.00222 14.374 2.7965 14.375 3.625V12.375C14.374 13.2035 14.0444 13.9978 13.4586 14.5836C12.8728 15.1694 12.0785 15.499 11.25 15.5ZM3.75 1.75C3.25272 1.75 2.77581 1.94754 2.42417 2.29917C2.07254 2.65081 1.875 3.12772 1.875 3.625V12.375C1.875 12.8723 2.07254 13.3492 2.42417 13.7008C2.77581 14.0525 3.25272 14.25 3.75 14.25H11.25C11.7473 14.25 12.2242 14.0525 12.5758 13.7008C12.9275 13.3492 13.125 12.8723 13.125 12.375V3.625C13.125 3.12772 12.9275 2.65081 12.5758 2.29917C12.2242 1.94754 11.7473 1.75 11.25 1.75H3.75ZM10 6.75H5C4.50272 6.75 4.02581 6.55246 3.67417 6.20083C3.32254 5.84919 3.125 5.37228 3.125 4.875C3.125 4.37772 3.32254 3.90081 3.67417 3.54917C4.02581 3.19754 4.50272 3 5 3H10C10.4973 3 10.9742 3.19754 11.3258 3.54917C11.6775 3.90081 11.875 4.37772 11.875 4.875C11.875 5.37228 11.6775 5.84919 11.3258 6.20083C10.9742 6.55246 10.4973 6.75 10 6.75ZM5 4.25C4.83424 4.25 4.67527 4.31585 4.55806 4.43306C4.44085 4.55027 4.375 4.70924 4.375 4.875C4.375 5.04076 4.44085 5.19973 4.55806 5.31694C4.67527 5.43415 4.83424 5.5 5 5.5H10C10.1658 5.5 10.3247 5.43415 10.4419 5.31694C10.5592 5.19973 10.625 5.04076 10.625 4.875C10.625 4.70924 10.5592 4.55027 10.4419 4.43306C10.3247 4.31585 10.1658 4.25 10 4.25H5ZM3.75 8.625C3.62639 8.625 3.50555 8.66166 3.40277 8.73033C3.29999 8.79901 3.21988 8.89662 3.17258 9.01082C3.12527 9.12503 3.11289 9.25069 3.13701 9.37193C3.16112 9.49317 3.22065 9.60453 3.30806 9.69194C3.39547 9.77935 3.50683 9.83887 3.62807 9.86299C3.74931 9.88711 3.87497 9.87473 3.98918 9.82743C4.10338 9.78012 4.20099 9.70001 4.26967 9.59723C4.33834 9.49445 4.375 9.37361 4.375 9.25C4.375 9.08424 4.30915 8.92527 4.19194 8.80806C4.07473 8.69085 3.91576 8.625 3.75 8.625ZM6.25 8.625C6.12639 8.625 6.00555 8.66166 5.90277 8.73033C5.79999 8.79901 5.71988 8.89662 5.67257 9.01082C5.62527 9.12503 5.61289 9.25069 5.63701 9.37193C5.66112 9.49317 5.72065 9.60453 5.80806 9.69194C5.89547 9.77935 6.00683 9.83887 6.12807 9.86299C6.24931 9.88711 6.37497 9.87473 6.48918 9.82743C6.60338 9.78012 6.70099 9.70001 6.76967 9.59723C6.83834 9.49445 6.875 9.37361 6.875 9.25C6.875 9.08424 6.80915 8.92527 6.69194 8.80806C6.57473 8.69085 6.41576 8.625 6.25 8.625ZM8.75 8.625C8.62639 8.625 8.50555 8.66166 8.40277 8.73033C8.29999 8.79901 8.21988 8.89662 8.17257 9.01082C8.12527 9.12503 8.11289 9.25069 8.13701 9.37193C8.16112 9.49317 8.22065 9.60453 8.30806 9.69194C8.39547 9.77935 8.50683 9.83887 8.62807 9.86299C8.74931 9.88711 8.87497 9.87473 8.98918 9.82743C9.10338 9.78012 9.20099 9.70001 9.26967 9.59723C9.33834 9.49445 9.375 9.37361 9.375 9.25C9.375 9.08424 9.30915 8.92527 9.19194 8.80806C9.07473 8.69085 8.91576 8.625 8.75 8.625ZM3.75 11.125C3.62639 11.125 3.50555 11.1617 3.40277 11.2303C3.29999 11.299 3.21988 11.3966 3.17258 11.5108C3.12527 11.625 3.11289 11.7507 3.13701 11.8719C3.16112 11.9932 3.22065 12.1045 3.30806 12.1919C3.39547 12.2794 3.50683 12.3389 3.62807 12.363C3.74931 12.3871 3.87497 12.3747 3.98918 12.3274C4.10338 12.2801 4.20099 12.2 4.26967 12.0972C4.33834 11.9945 4.375 11.8736 4.375 11.75C4.375 11.5842 4.30915 11.4253 4.19194 11.3081C4.07473 11.1908 3.91576 11.125 3.75 11.125ZM6.25 11.125C6.12639 11.125 6.00555 11.1617 5.90277 11.2303C5.79999 11.299 5.71988 11.3966 5.67257 11.5108C5.62527 11.625 5.61289 11.7507 5.63701 11.8719C5.66112 11.9932 5.72065 12.1045 5.80806 12.1919C5.89547 12.2794 6.00683 12.3389 6.12807 12.363C6.24931 12.3871 6.37497 12.3747 6.48918 12.3274C6.60338 12.2801 6.70099 12.2 6.76967 12.0972C6.83834 11.9945 6.875 11.8736 6.875 11.75C6.875 11.5842 6.80915 11.4253 6.69194 11.3081C6.57473 11.1908 6.41576 11.125 6.25 11.125ZM11.25 8.625C11.1264 8.625 11.0055 8.66166 10.9028 8.73033C10.8 8.79901 10.7199 8.89662 10.6726 9.01082C10.6253 9.12503 10.6129 9.25069 10.637 9.37193C10.6611 9.49317 10.7206 9.60453 10.8081 9.69194C10.8955 9.77935 11.0068 9.83887 11.1281 9.86299C11.2493 9.88711 11.375 9.87473 11.4892 9.82743C11.6034 9.78012 11.701 9.70001 11.7697 9.59723C11.8383 9.49445 11.875 9.37361 11.875 9.25C11.875 9.08424 11.8092 8.92527 11.6919 8.80806C11.5747 8.69085 11.4158 8.625 11.25 8.625ZM11.875 11.75C11.875 11.5842 11.8092 11.4253 11.6919 11.3081C11.5747 11.1908 11.4158 11.125 11.25 11.125H8.75C8.58424 11.125 8.42527 11.1908 8.30806 11.3081C8.19085 11.4253 8.125 11.5842 8.125 11.75C8.125 11.9158 8.19085 12.0747 8.30806 12.1919C8.42527 12.3092 8.58424 12.375 8.75 12.375H11.25C11.4158 12.375 11.5747 12.3092 11.6919 12.1919C11.8092 12.0747 11.875 11.9158 11.875 11.75Z" fill="black" fill-opacity="0.2"/>
<path d="M11.25 15.5H3.75C2.9215 15.499 2.12722 15.1694 1.54139 14.5836C0.955551 13.9978 0.625992 13.2035 0.625 12.375V3.625C0.625992 2.7965 0.955551 2.00222 1.54139 1.41639C2.12722 0.830551 2.9215 0.500992 3.75 0.5L11.25 0.5C12.0785 0.500992 12.8728 0.830551 13.4586 1.41639C14.0444 2.00222 14.374 2.7965 14.375 3.625V12.375C14.374 13.2035 14.0444 13.9978 13.4586 14.5836C12.8728 15.1694 12.0785 15.499 11.25 15.5ZM3.75 1.75C3.25272 1.75 2.77581 1.94754 2.42417 2.29917C2.07254 2.65081 1.875 3.12772 1.875 3.625V12.375C1.875 12.8723 2.07254 13.3492 2.42417 13.7008C2.77581 14.0525 3.25272 14.25 3.75 14.25H11.25C11.7473 14.25 12.2242 14.0525 12.5758 13.7008C12.9275 13.3492 13.125 12.8723 13.125 12.375V3.625C13.125 3.12772 12.9275 2.65081 12.5758 2.29917C12.2242 1.94754 11.7473 1.75 11.25 1.75H3.75ZM10 6.75H5C4.50272 6.75 4.02581 6.55246 3.67417 6.20083C3.32254 5.84919 3.125 5.37228 3.125 4.875C3.125 4.37772 3.32254 3.90081 3.67417 3.54917C4.02581 3.19754 4.50272 3 5 3H10C10.4973 3 10.9742 3.19754 11.3258 3.54917C11.6775 3.90081 11.875 4.37772 11.875 4.875C11.875 5.37228 11.6775 5.84919 11.3258 6.20083C10.9742 6.55246 10.4973 6.75 10 6.75ZM5 4.25C4.83424 4.25 4.67527 4.31585 4.55806 4.43306C4.44085 4.55027 4.375 4.70924 4.375 4.875C4.375 5.04076 4.44085 5.19973 4.55806 5.31694C4.67527 5.43415 4.83424 5.5 5 5.5H10C10.1658 5.5 10.3247 5.43415 10.4419 5.31694C10.5592 5.19973 10.625 5.04076 10.625 4.875C10.625 4.70924 10.5592 4.55027 10.4419 4.43306C10.3247 4.31585 10.1658 4.25 10 4.25H5ZM3.75 8.625C3.62639 8.625 3.50555 8.66166 3.40277 8.73033C3.29999 8.79901 3.21988 8.89662 3.17258 9.01082C3.12527 9.12503 3.11289 9.25069 3.13701 9.37193C3.16112 9.49317 3.22065 9.60453 3.30806 9.69194C3.39547 9.77935 3.50683 9.83887 3.62807 9.86299C3.74931 9.88711 3.87497 9.87473 3.98918 9.82743C4.10338 9.78012 4.20099 9.70001 4.26967 9.59723C4.33834 9.49445 4.375 9.37361 4.375 9.25C4.375 9.08424 4.30915 8.92527 4.19194 8.80806C4.07473 8.69085 3.91576 8.625 3.75 8.625ZM6.25 8.625C6.12639 8.625 6.00555 8.66166 5.90277 8.73033C5.79999 8.79901 5.71988 8.89662 5.67257 9.01082C5.62527 9.12503 5.61289 9.25069 5.63701 9.37193C5.66112 9.49317 5.72065 9.60453 5.80806 9.69194C5.89547 9.77935 6.00683 9.83887 6.12807 9.86299C6.24931 9.88711 6.37497 9.87473 6.48918 9.82743C6.60338 9.78012 6.70099 9.70001 6.76967 9.59723C6.83834 9.49445 6.875 9.37361 6.875 9.25C6.875 9.08424 6.80915 8.92527 6.69194 8.80806C6.57473 8.69085 6.41576 8.625 6.25 8.625ZM8.75 8.625C8.62639 8.625 8.50555 8.66166 8.40277 8.73033C8.29999 8.79901 8.21988 8.89662 8.17257 9.01082C8.12527 9.12503 8.11289 9.25069 8.13701 9.37193C8.16112 9.49317 8.22065 9.60453 8.30806 9.69194C8.39547 9.77935 8.50683 9.83887 8.62807 9.86299C8.74931 9.88711 8.87497 9.87473 8.98918 9.82743C9.10338 9.78012 9.20099 9.70001 9.26967 9.59723C9.33834 9.49445 9.375 9.37361 9.375 9.25C9.375 9.08424 9.30915 8.92527 9.19194 8.80806C9.07473 8.69085 8.91576 8.625 8.75 8.625ZM3.75 11.125C3.62639 11.125 3.50555 11.1617 3.40277 11.2303C3.29999 11.299 3.21988 11.3966 3.17258 11.5108C3.12527 11.625 3.11289 11.7507 3.13701 11.8719C3.16112 11.9932 3.22065 12.1045 3.30806 12.1919C3.39547 12.2794 3.50683 12.3389 3.62807 12.363C3.74931 12.3871 3.87497 12.3747 3.98918 12.3274C4.10338 12.2801 4.20099 12.2 4.26967 12.0972C4.33834 11.9945 4.375 11.8736 4.375 11.75C4.375 11.5842 4.30915 11.4253 4.19194 11.3081C4.07473 11.1908 3.91576 11.125 3.75 11.125ZM6.25 11.125C6.12639 11.125 6.00555 11.1617 5.90277 11.2303C5.79999 11.299 5.71988 11.3966 5.67257 11.5108C5.62527 11.625 5.61289 11.7507 5.63701 11.8719C5.66112 11.9932 5.72065 12.1045 5.80806 12.1919C5.89547 12.2794 6.00683 12.3389 6.12807 12.363C6.24931 12.3871 6.37497 12.3747 6.48918 12.3274C6.60338 12.2801 6.70099 12.2 6.76967 12.0972C6.83834 11.9945 6.875 11.8736 6.875 11.75C6.875 11.5842 6.80915 11.4253 6.69194 11.3081C6.57473 11.1908 6.41576 11.125 6.25 11.125ZM11.25 8.625C11.1264 8.625 11.0055 8.66166 10.9028 8.73033C10.8 8.79901 10.7199 8.89662 10.6726 9.01082C10.6253 9.12503 10.6129 9.25069 10.637 9.37193C10.6611 9.49317 10.7206 9.60453 10.8081 9.69194C10.8955 9.77935 11.0068 9.83887 11.1281 9.86299C11.2493 9.88711 11.375 9.87473 11.4892 9.82743C11.6034 9.78012 11.701 9.70001 11.7697 9.59723C11.8383 9.49445 11.875 9.37361 11.875 9.25C11.875 9.08424 11.8092 8.92527 11.6919 8.80806C11.5747 8.69085 11.4158 8.625 11.25 8.625ZM11.875 11.75C11.875 11.5842 11.8092 11.4253 11.6919 11.3081C11.5747 11.1908 11.4158 11.125 11.25 11.125H8.75C8.58424 11.125 8.42527 11.1908 8.30806 11.3081C8.19085 11.4253 8.125 11.5842 8.125 11.75C8.125 11.9158 8.19085 12.0747 8.30806 12.1919C8.42527 12.3092 8.58424 12.375 8.75 12.375H11.25C11.4158 12.375 11.5747 12.3092 11.6919 12.1919C11.8092 12.0747 11.875 11.9158 11.875 11.75Z" fill="black" fill-opacity="0.2"/>
<path d="M11.25 15.5H3.75C2.9215 15.499 2.12722 15.1694 1.54139 14.5836C0.955551 13.9978 0.625992 13.2035 0.625 12.375V3.625C0.625992 2.7965 0.955551 2.00222 1.54139 1.41639C2.12722 0.830551 2.9215 0.500992 3.75 0.5L11.25 0.5C12.0785 0.500992 12.8728 0.830551 13.4586 1.41639C14.0444 2.00222 14.374 2.7965 14.375 3.625V12.375C14.374 13.2035 14.0444 13.9978 13.4586 14.5836C12.8728 15.1694 12.0785 15.499 11.25 15.5ZM3.75 1.75C3.25272 1.75 2.77581 1.94754 2.42417 2.29917C2.07254 2.65081 1.875 3.12772 1.875 3.625V12.375C1.875 12.8723 2.07254 13.3492 2.42417 13.7008C2.77581 14.0525 3.25272 14.25 3.75 14.25H11.25C11.7473 14.25 12.2242 14.0525 12.5758 13.7008C12.9275 13.3492 13.125 12.8723 13.125 12.375V3.625C13.125 3.12772 12.9275 2.65081 12.5758 2.29917C12.2242 1.94754 11.7473 1.75 11.25 1.75H3.75ZM10 6.75H5C4.50272 6.75 4.02581 6.55246 3.67417 6.20083C3.32254 5.84919 3.125 5.37228 3.125 4.875C3.125 4.37772 3.32254 3.90081 3.67417 3.54917C4.02581 3.19754 4.50272 3 5 3H10C10.4973 3 10.9742 3.19754 11.3258 3.54917C11.6775 3.90081 11.875 4.37772 11.875 4.875C11.875 5.37228 11.6775 5.84919 11.3258 6.20083C10.9742 6.55246 10.4973 6.75 10 6.75ZM5 4.25C4.83424 4.25 4.67527 4.31585 4.55806 4.43306C4.44085 4.55027 4.375 4.70924 4.375 4.875C4.375 5.04076 4.44085 5.19973 4.55806 5.31694C4.67527 5.43415 4.83424 5.5 5 5.5H10C10.1658 5.5 10.3247 5.43415 10.4419 5.31694C10.5592 5.19973 10.625 5.04076 10.625 4.875C10.625 4.70924 10.5592 4.55027 10.4419 4.43306C10.3247 4.31585 10.1658 4.25 10 4.25H5ZM3.75 8.625C3.62639 8.625 3.50555 8.66166 3.40277 8.73033C3.29999 8.79901 3.21988 8.89662 3.17258 9.01082C3.12527 9.12503 3.11289 9.25069 3.13701 9.37193C3.16112 9.49317 3.22065 9.60453 3.30806 9.69194C3.39547 9.77935 3.50683 9.83887 3.62807 9.86299C3.74931 9.88711 3.87497 9.87473 3.98918 9.82743C4.10338 9.78012 4.20099 9.70001 4.26967 9.59723C4.33834 9.49445 4.375 9.37361 4.375 9.25C4.375 9.08424 4.30915 8.92527 4.19194 8.80806C4.07473 8.69085 3.91576 8.625 3.75 8.625ZM6.25 8.625C6.12639 8.625 6.00555 8.66166 5.90277 8.73033C5.79999 8.79901 5.71988 8.89662 5.67257 9.01082C5.62527 9.12503 5.61289 9.25069 5.63701 9.37193C5.66112 9.49317 5.72065 9.60453 5.80806 9.69194C5.89547 9.77935 6.00683 9.83887 6.12807 9.86299C6.24931 9.88711 6.37497 9.87473 6.48918 9.82743C6.60338 9.78012 6.70099 9.70001 6.76967 9.59723C6.83834 9.49445 6.875 9.37361 6.875 9.25C6.875 9.08424 6.80915 8.92527 6.69194 8.80806C6.57473 8.69085 6.41576 8.625 6.25 8.625ZM8.75 8.625C8.62639 8.625 8.50555 8.66166 8.40277 8.73033C8.29999 8.79901 8.21988 8.89662 8.17257 9.01082C8.12527 9.12503 8.11289 9.25069 8.13701 9.37193C8.16112 9.49317 8.22065 9.60453 8.30806 9.69194C8.39547 9.77935 8.50683 9.83887 8.62807 9.86299C8.74931 9.88711 8.87497 9.87473 8.98918 9.82743C9.10338 9.78012 9.20099 9.70001 9.26967 9.59723C9.33834 9.49445 9.375 9.37361 9.375 9.25C9.375 9.08424 9.30915 8.92527 9.19194 8.80806C9.07473 8.69085 8.91576 8.625 8.75 8.625ZM3.75 11.125C3.62639 11.125 3.50555 11.1617 3.40277 11.2303C3.29999 11.299 3.21988 11.3966 3.17258 11.5108C3.12527 11.625 3.11289 11.7507 3.13701 11.8719C3.16112 11.9932 3.22065 12.1045 3.30806 12.1919C3.39547 12.2794 3.50683 12.3389 3.62807 12.363C3.74931 12.3871 3.87497 12.3747 3.98918 12.3274C4.10338 12.2801 4.20099 12.2 4.26967 12.0972C4.33834 11.9945 4.375 11.8736 4.375 11.75C4.375 11.5842 4.30915 11.4253 4.19194 11.3081C4.07473 11.1908 3.91576 11.125 3.75 11.125ZM6.25 11.125C6.12639 11.125 6.00555 11.1617 5.90277 11.2303C5.79999 11.299 5.71988 11.3966 5.67257 11.5108C5.62527 11.625 5.61289 11.7507 5.63701 11.8719C5.66112 11.9932 5.72065 12.1045 5.80806 12.1919C5.89547 12.2794 6.00683 12.3389 6.12807 12.363C6.24931 12.3871 6.37497 12.3747 6.48918 12.3274C6.60338 12.2801 6.70099 12.2 6.76967 12.0972C6.83834 11.9945 6.875 11.8736 6.875 11.75C6.875 11.5842 6.80915 11.4253 6.69194 11.3081C6.57473 11.1908 6.41576 11.125 6.25 11.125ZM11.25 8.625C11.1264 8.625 11.0055 8.66166 10.9028 8.73033C10.8 8.79901 10.7199 8.89662 10.6726 9.01082C10.6253 9.12503 10.6129 9.25069 10.637 9.37193C10.6611 9.49317 10.7206 9.60453 10.8081 9.69194C10.8955 9.77935 11.0068 9.83887 11.1281 9.86299C11.2493 9.88711 11.375 9.87473 11.4892 9.82743C11.6034 9.78012 11.701 9.70001 11.7697 9.59723C11.8383 9.49445 11.875 9.37361 11.875 9.25C11.875 9.08424 11.8092 8.92527 11.6919 8.80806C11.5747 8.69085 11.4158 8.625 11.25 8.625ZM11.875 11.75C11.875 11.5842 11.8092 11.4253 11.6919 11.3081C11.5747 11.1908 11.4158 11.125 11.25 11.125H8.75C8.58424 11.125 8.42527 11.1908 8.30806 11.3081C8.19085 11.4253 8.125 11.5842 8.125 11.75C8.125 11.9158 8.19085 12.0747 8.30806 12.1919C8.42527 12.3092 8.58424 12.375 8.75 12.375H11.25C11.4158 12.375 11.5747 12.3092 11.6919 12.1919C11.8092 12.0747 11.875 11.9158 11.875 11.75Z" fill="black" fill-opacity="0.2"/>
</g>
<defs>
<clipPath id="clip0_6765_4081">
<rect width="15" height="15" fill="white" transform="translate(0 0.5)"/>
</clipPath>
</defs>
</svg>
