<svg width="15" height="16" viewBox="0 0 15 16" fill="none" xmlns="http://www.w3.org/2000/svg">
<g clip-path="url(#clip0_6765_4051)">
<path d="M14.3758 7.375C14.5415 7.375 14.7005 7.30915 14.8177 7.19194C14.9349 7.07473 15.0008 6.91576 15.0008 6.75C15.0008 6.58424 14.9349 6.42527 14.8177 6.30806C14.7005 6.19085 14.5415 6.125 14.3758 6.125H13.5008L13.0195 4.57438C12.8438 4.00287 12.5067 3.49431 12.0488 3.10989C11.5908 2.72547 11.0316 2.48155 10.4383 2.4075C10.2011 1.84322 9.80299 1.36134 9.29354 1.02208C8.78409 0.682817 8.18596 0.501226 7.57388 0.5L7.42764 0.5C6.81556 0.501226 6.21743 0.682817 5.70798 1.02208C5.19853 1.36134 4.80037 1.84322 4.56326 2.4075C3.97026 2.48173 3.41132 2.72565 2.95363 3.10994C2.49594 3.49424 2.15898 4.00254 1.98326 4.57375L1.50076 6.125H0.62576C0.46 6.125 0.301029 6.19085 0.183819 6.30806C0.0666083 6.42527 0.000760244 6.58424 0.000760244 6.75C0.000760244 6.91576 0.0666083 7.07473 0.183819 7.19194C0.301029 7.30915 0.46 7.375 0.62576 7.375H1.11389L0.66701 8.8125C0.411679 9.08552 0.22154 9.41285 0.110881 9.7699C0.000220956 10.1269 -0.0280822 10.5044 0.0280978 10.874C0.0842777 11.2436 0.22348 11.5956 0.435245 11.9036C0.647011 12.2117 0.925832 12.4677 1.25076 12.6525V13.625C1.25076 14.1223 1.4483 14.5992 1.79994 14.9508C2.15157 15.3025 2.62848 15.5 3.12576 15.5C3.62304 15.5 4.09995 15.3025 4.45159 14.9508C4.80322 14.5992 5.00076 14.1223 5.00076 13.625V13H10.0008V13.625C10.0008 14.1223 10.1983 14.5992 10.5499 14.9508C10.9016 15.3025 11.3785 15.5 11.8758 15.5C12.373 15.5 12.85 15.3025 13.2016 14.9508C13.5532 14.5992 13.7508 14.1223 13.7508 13.625V12.6525C14.0755 12.4677 14.3541 12.2117 14.5657 11.9037C14.7774 11.5958 14.9165 11.2439 14.9726 10.8745C15.0288 10.5052 15.0006 10.1278 14.8901 9.77092C14.7795 9.414 14.5896 9.08676 14.3345 8.81375L13.8876 7.375H14.3758ZM7.42764 1.75H7.57388C7.83669 1.75053 8.09643 1.80647 8.33615 1.91416C8.57587 2.02185 8.7902 2.17888 8.96514 2.375H6.03638C6.21125 2.17879 6.42556 2.0217 6.6653 1.914C6.90504 1.8063 7.16481 1.75041 7.42764 1.75ZM3.17764 4.94375C3.29508 4.56101 3.5325 4.22619 3.85482 3.98873C4.17714 3.75126 4.56729 3.62374 4.96764 3.625H10.0339C10.4344 3.62365 10.8248 3.7512 11.1472 3.98879C11.4697 4.22639 11.7071 4.56142 11.8245 4.94438L12.782 8.02812C12.6889 8.01337 12.595 8.00398 12.5008 8H2.50076C2.40655 8.00398 2.31264 8.01337 2.21951 8.02812L3.17764 4.94375ZM3.75076 13.625C3.75076 13.7908 3.68491 13.9497 3.5677 14.0669C3.45049 14.1842 3.29152 14.25 3.12576 14.25C2.96 14.25 2.80103 14.1842 2.68382 14.0669C2.56661 13.9497 2.50076 13.7908 2.50076 13.625V13H3.75076V13.625ZM12.5008 13.625C12.5008 13.7908 12.4349 13.9497 12.3177 14.0669C12.2005 14.1842 12.0415 14.25 11.8758 14.25C11.71 14.25 11.551 14.1842 11.4338 14.0669C11.3166 13.9497 11.2508 13.7908 11.2508 13.625V13H12.5008V13.625ZM12.5008 11.75H2.50076C2.16924 11.75 1.8513 11.6183 1.61688 11.3839C1.38246 11.1495 1.25076 10.8315 1.25076 10.5C1.25076 10.1685 1.38246 9.85054 1.61688 9.61612C1.8513 9.3817 2.16924 9.25 2.50076 9.25V9.875C2.50076 10.0408 2.56661 10.1997 2.68382 10.3169C2.80103 10.4342 2.96 10.5 3.12576 10.5C3.29152 10.5 3.45049 10.4342 3.5677 10.3169C3.68491 10.1997 3.75076 10.0408 3.75076 9.875V9.25H11.2508V9.875C11.2508 10.0408 11.3166 10.1997 11.4338 10.3169C11.551 10.4342 11.71 10.5 11.8758 10.5C12.0415 10.5 12.2005 10.4342 12.3177 10.3169C12.4349 10.1997 12.5008 10.0408 12.5008 9.875V9.25C12.8323 9.25 13.1502 9.3817 13.3846 9.61612C13.6191 9.85054 13.7508 10.1685 13.7508 10.5C13.7508 10.8315 13.6191 11.1495 13.3846 11.3839C13.1502 11.6183 12.8323 11.75 12.5008 11.75Z" fill="#1E1E1E"/>
<path d="M14.3758 7.375C14.5415 7.375 14.7005 7.30915 14.8177 7.19194C14.9349 7.07473 15.0008 6.91576 15.0008 6.75C15.0008 6.58424 14.9349 6.42527 14.8177 6.30806C14.7005 6.19085 14.5415 6.125 14.3758 6.125H13.5008L13.0195 4.57438C12.8438 4.00287 12.5067 3.49431 12.0488 3.10989C11.5908 2.72547 11.0316 2.48155 10.4383 2.4075C10.2011 1.84322 9.80299 1.36134 9.29354 1.02208C8.78409 0.682817 8.18596 0.501226 7.57388 0.5L7.42764 0.5C6.81556 0.501226 6.21743 0.682817 5.70798 1.02208C5.19853 1.36134 4.80037 1.84322 4.56326 2.4075C3.97026 2.48173 3.41132 2.72565 2.95363 3.10994C2.49594 3.49424 2.15898 4.00254 1.98326 4.57375L1.50076 6.125H0.62576C0.46 6.125 0.301029 6.19085 0.183819 6.30806C0.0666083 6.42527 0.000760244 6.58424 0.000760244 6.75C0.000760244 6.91576 0.0666083 7.07473 0.183819 7.19194C0.301029 7.30915 0.46 7.375 0.62576 7.375H1.11389L0.66701 8.8125C0.411679 9.08552 0.22154 9.41285 0.110881 9.7699C0.000220956 10.1269 -0.0280822 10.5044 0.0280978 10.874C0.0842777 11.2436 0.22348 11.5956 0.435245 11.9036C0.647011 12.2117 0.925832 12.4677 1.25076 12.6525V13.625C1.25076 14.1223 1.4483 14.5992 1.79994 14.9508C2.15157 15.3025 2.62848 15.5 3.12576 15.5C3.62304 15.5 4.09995 15.3025 4.45159 14.9508C4.80322 14.5992 5.00076 14.1223 5.00076 13.625V13H10.0008V13.625C10.0008 14.1223 10.1983 14.5992 10.5499 14.9508C10.9016 15.3025 11.3785 15.5 11.8758 15.5C12.373 15.5 12.85 15.3025 13.2016 14.9508C13.5532 14.5992 13.7508 14.1223 13.7508 13.625V12.6525C14.0755 12.4677 14.3541 12.2117 14.5657 11.9037C14.7774 11.5958 14.9165 11.2439 14.9726 10.8745C15.0288 10.5052 15.0006 10.1278 14.8901 9.77092C14.7795 9.414 14.5896 9.08676 14.3345 8.81375L13.8876 7.375H14.3758ZM7.42764 1.75H7.57388C7.83669 1.75053 8.09643 1.80647 8.33615 1.91416C8.57587 2.02185 8.7902 2.17888 8.96514 2.375H6.03638C6.21125 2.17879 6.42556 2.0217 6.6653 1.914C6.90504 1.8063 7.16481 1.75041 7.42764 1.75ZM3.17764 4.94375C3.29508 4.56101 3.5325 4.22619 3.85482 3.98873C4.17714 3.75126 4.56729 3.62374 4.96764 3.625H10.0339C10.4344 3.62365 10.8248 3.7512 11.1472 3.98879C11.4697 4.22639 11.7071 4.56142 11.8245 4.94438L12.782 8.02812C12.6889 8.01337 12.595 8.00398 12.5008 8H2.50076C2.40655 8.00398 2.31264 8.01337 2.21951 8.02812L3.17764 4.94375ZM3.75076 13.625C3.75076 13.7908 3.68491 13.9497 3.5677 14.0669C3.45049 14.1842 3.29152 14.25 3.12576 14.25C2.96 14.25 2.80103 14.1842 2.68382 14.0669C2.56661 13.9497 2.50076 13.7908 2.50076 13.625V13H3.75076V13.625ZM12.5008 13.625C12.5008 13.7908 12.4349 13.9497 12.3177 14.0669C12.2005 14.1842 12.0415 14.25 11.8758 14.25C11.71 14.25 11.551 14.1842 11.4338 14.0669C11.3166 13.9497 11.2508 13.7908 11.2508 13.625V13H12.5008V13.625ZM12.5008 11.75H2.50076C2.16924 11.75 1.8513 11.6183 1.61688 11.3839C1.38246 11.1495 1.25076 10.8315 1.25076 10.5C1.25076 10.1685 1.38246 9.85054 1.61688 9.61612C1.8513 9.3817 2.16924 9.25 2.50076 9.25V9.875C2.50076 10.0408 2.56661 10.1997 2.68382 10.3169C2.80103 10.4342 2.96 10.5 3.12576 10.5C3.29152 10.5 3.45049 10.4342 3.5677 10.3169C3.68491 10.1997 3.75076 10.0408 3.75076 9.875V9.25H11.2508V9.875C11.2508 10.0408 11.3166 10.1997 11.4338 10.3169C11.551 10.4342 11.71 10.5 11.8758 10.5C12.0415 10.5 12.2005 10.4342 12.3177 10.3169C12.4349 10.1997 12.5008 10.0408 12.5008 9.875V9.25C12.8323 9.25 13.1502 9.3817 13.3846 9.61612C13.6191 9.85054 13.7508 10.1685 13.7508 10.5C13.7508 10.8315 13.6191 11.1495 13.3846 11.3839C13.1502 11.6183 12.8323 11.75 12.5008 11.75Z" fill="black" fill-opacity="0.2"/>
<path d="M14.3758 7.375C14.5415 7.375 14.7005 7.30915 14.8177 7.19194C14.9349 7.07473 15.0008 6.91576 15.0008 6.75C15.0008 6.58424 14.9349 6.42527 14.8177 6.30806C14.7005 6.19085 14.5415 6.125 14.3758 6.125H13.5008L13.0195 4.57438C12.8438 4.00287 12.5067 3.49431 12.0488 3.10989C11.5908 2.72547 11.0316 2.48155 10.4383 2.4075C10.2011 1.84322 9.80299 1.36134 9.29354 1.02208C8.78409 0.682817 8.18596 0.501226 7.57388 0.5L7.42764 0.5C6.81556 0.501226 6.21743 0.682817 5.70798 1.02208C5.19853 1.36134 4.80037 1.84322 4.56326 2.4075C3.97026 2.48173 3.41132 2.72565 2.95363 3.10994C2.49594 3.49424 2.15898 4.00254 1.98326 4.57375L1.50076 6.125H0.62576C0.46 6.125 0.301029 6.19085 0.183819 6.30806C0.0666083 6.42527 0.000760244 6.58424 0.000760244 6.75C0.000760244 6.91576 0.0666083 7.07473 0.183819 7.19194C0.301029 7.30915 0.46 7.375 0.62576 7.375H1.11389L0.66701 8.8125C0.411679 9.08552 0.22154 9.41285 0.110881 9.7699C0.000220956 10.1269 -0.0280822 10.5044 0.0280978 10.874C0.0842777 11.2436 0.22348 11.5956 0.435245 11.9036C0.647011 12.2117 0.925832 12.4677 1.25076 12.6525V13.625C1.25076 14.1223 1.4483 14.5992 1.79994 14.9508C2.15157 15.3025 2.62848 15.5 3.12576 15.5C3.62304 15.5 4.09995 15.3025 4.45159 14.9508C4.80322 14.5992 5.00076 14.1223 5.00076 13.625V13H10.0008V13.625C10.0008 14.1223 10.1983 14.5992 10.5499 14.9508C10.9016 15.3025 11.3785 15.5 11.8758 15.5C12.373 15.5 12.85 15.3025 13.2016 14.9508C13.5532 14.5992 13.7508 14.1223 13.7508 13.625V12.6525C14.0755 12.4677 14.3541 12.2117 14.5657 11.9037C14.7774 11.5958 14.9165 11.2439 14.9726 10.8745C15.0288 10.5052 15.0006 10.1278 14.8901 9.77092C14.7795 9.414 14.5896 9.08676 14.3345 8.81375L13.8876 7.375H14.3758ZM7.42764 1.75H7.57388C7.83669 1.75053 8.09643 1.80647 8.33615 1.91416C8.57587 2.02185 8.7902 2.17888 8.96514 2.375H6.03638C6.21125 2.17879 6.42556 2.0217 6.6653 1.914C6.90504 1.8063 7.16481 1.75041 7.42764 1.75ZM3.17764 4.94375C3.29508 4.56101 3.5325 4.22619 3.85482 3.98873C4.17714 3.75126 4.56729 3.62374 4.96764 3.625H10.0339C10.4344 3.62365 10.8248 3.7512 11.1472 3.98879C11.4697 4.22639 11.7071 4.56142 11.8245 4.94438L12.782 8.02812C12.6889 8.01337 12.595 8.00398 12.5008 8H2.50076C2.40655 8.00398 2.31264 8.01337 2.21951 8.02812L3.17764 4.94375ZM3.75076 13.625C3.75076 13.7908 3.68491 13.9497 3.5677 14.0669C3.45049 14.1842 3.29152 14.25 3.12576 14.25C2.96 14.25 2.80103 14.1842 2.68382 14.0669C2.56661 13.9497 2.50076 13.7908 2.50076 13.625V13H3.75076V13.625ZM12.5008 13.625C12.5008 13.7908 12.4349 13.9497 12.3177 14.0669C12.2005 14.1842 12.0415 14.25 11.8758 14.25C11.71 14.25 11.551 14.1842 11.4338 14.0669C11.3166 13.9497 11.2508 13.7908 11.2508 13.625V13H12.5008V13.625ZM12.5008 11.75H2.50076C2.16924 11.75 1.8513 11.6183 1.61688 11.3839C1.38246 11.1495 1.25076 10.8315 1.25076 10.5C1.25076 10.1685 1.38246 9.85054 1.61688 9.61612C1.8513 9.3817 2.16924 9.25 2.50076 9.25V9.875C2.50076 10.0408 2.56661 10.1997 2.68382 10.3169C2.80103 10.4342 2.96 10.5 3.12576 10.5C3.29152 10.5 3.45049 10.4342 3.5677 10.3169C3.68491 10.1997 3.75076 10.0408 3.75076 9.875V9.25H11.2508V9.875C11.2508 10.0408 11.3166 10.1997 11.4338 10.3169C11.551 10.4342 11.71 10.5 11.8758 10.5C12.0415 10.5 12.2005 10.4342 12.3177 10.3169C12.4349 10.1997 12.5008 10.0408 12.5008 9.875V9.25C12.8323 9.25 13.1502 9.3817 13.3846 9.61612C13.6191 9.85054 13.7508 10.1685 13.7508 10.5C13.7508 10.8315 13.6191 11.1495 13.3846 11.3839C13.1502 11.6183 12.8323 11.75 12.5008 11.75Z" fill="black" fill-opacity="0.2"/>
<path d="M14.3758 7.375C14.5415 7.375 14.7005 7.30915 14.8177 7.19194C14.9349 7.07473 15.0008 6.91576 15.0008 6.75C15.0008 6.58424 14.9349 6.42527 14.8177 6.30806C14.7005 6.19085 14.5415 6.125 14.3758 6.125H13.5008L13.0195 4.57438C12.8438 4.00287 12.5067 3.49431 12.0488 3.10989C11.5908 2.72547 11.0316 2.48155 10.4383 2.4075C10.2011 1.84322 9.80299 1.36134 9.29354 1.02208C8.78409 0.682817 8.18596 0.501226 7.57388 0.5L7.42764 0.5C6.81556 0.501226 6.21743 0.682817 5.70798 1.02208C5.19853 1.36134 4.80037 1.84322 4.56326 2.4075C3.97026 2.48173 3.41132 2.72565 2.95363 3.10994C2.49594 3.49424 2.15898 4.00254 1.98326 4.57375L1.50076 6.125H0.62576C0.46 6.125 0.301029 6.19085 0.183819 6.30806C0.0666083 6.42527 0.000760244 6.58424 0.000760244 6.75C0.000760244 6.91576 0.0666083 7.07473 0.183819 7.19194C0.301029 7.30915 0.46 7.375 0.62576 7.375H1.11389L0.66701 8.8125C0.411679 9.08552 0.22154 9.41285 0.110881 9.7699C0.000220956 10.1269 -0.0280822 10.5044 0.0280978 10.874C0.0842777 11.2436 0.22348 11.5956 0.435245 11.9036C0.647011 12.2117 0.925832 12.4677 1.25076 12.6525V13.625C1.25076 14.1223 1.4483 14.5992 1.79994 14.9508C2.15157 15.3025 2.62848 15.5 3.12576 15.5C3.62304 15.5 4.09995 15.3025 4.45159 14.9508C4.80322 14.5992 5.00076 14.1223 5.00076 13.625V13H10.0008V13.625C10.0008 14.1223 10.1983 14.5992 10.5499 14.9508C10.9016 15.3025 11.3785 15.5 11.8758 15.5C12.373 15.5 12.85 15.3025 13.2016 14.9508C13.5532 14.5992 13.7508 14.1223 13.7508 13.625V12.6525C14.0755 12.4677 14.3541 12.2117 14.5657 11.9037C14.7774 11.5958 14.9165 11.2439 14.9726 10.8745C15.0288 10.5052 15.0006 10.1278 14.8901 9.77092C14.7795 9.414 14.5896 9.08676 14.3345 8.81375L13.8876 7.375H14.3758ZM7.42764 1.75H7.57388C7.83669 1.75053 8.09643 1.80647 8.33615 1.91416C8.57587 2.02185 8.7902 2.17888 8.96514 2.375H6.03638C6.21125 2.17879 6.42556 2.0217 6.6653 1.914C6.90504 1.8063 7.16481 1.75041 7.42764 1.75ZM3.17764 4.94375C3.29508 4.56101 3.5325 4.22619 3.85482 3.98873C4.17714 3.75126 4.56729 3.62374 4.96764 3.625H10.0339C10.4344 3.62365 10.8248 3.7512 11.1472 3.98879C11.4697 4.22639 11.7071 4.56142 11.8245 4.94438L12.782 8.02812C12.6889 8.01337 12.595 8.00398 12.5008 8H2.50076C2.40655 8.00398 2.31264 8.01337 2.21951 8.02812L3.17764 4.94375ZM3.75076 13.625C3.75076 13.7908 3.68491 13.9497 3.5677 14.0669C3.45049 14.1842 3.29152 14.25 3.12576 14.25C2.96 14.25 2.80103 14.1842 2.68382 14.0669C2.56661 13.9497 2.50076 13.7908 2.50076 13.625V13H3.75076V13.625ZM12.5008 13.625C12.5008 13.7908 12.4349 13.9497 12.3177 14.0669C12.2005 14.1842 12.0415 14.25 11.8758 14.25C11.71 14.25 11.551 14.1842 11.4338 14.0669C11.3166 13.9497 11.2508 13.7908 11.2508 13.625V13H12.5008V13.625ZM12.5008 11.75H2.50076C2.16924 11.75 1.8513 11.6183 1.61688 11.3839C1.38246 11.1495 1.25076 10.8315 1.25076 10.5C1.25076 10.1685 1.38246 9.85054 1.61688 9.61612C1.8513 9.3817 2.16924 9.25 2.50076 9.25V9.875C2.50076 10.0408 2.56661 10.1997 2.68382 10.3169C2.80103 10.4342 2.96 10.5 3.12576 10.5C3.29152 10.5 3.45049 10.4342 3.5677 10.3169C3.68491 10.1997 3.75076 10.0408 3.75076 9.875V9.25H11.2508V9.875C11.2508 10.0408 11.3166 10.1997 11.4338 10.3169C11.551 10.4342 11.71 10.5 11.8758 10.5C12.0415 10.5 12.2005 10.4342 12.3177 10.3169C12.4349 10.1997 12.5008 10.0408 12.5008 9.875V9.25C12.8323 9.25 13.1502 9.3817 13.3846 9.61612C13.6191 9.85054 13.7508 10.1685 13.7508 10.5C13.7508 10.8315 13.6191 11.1495 13.3846 11.3839C13.1502 11.6183 12.8323 11.75 12.5008 11.75Z" fill="black" fill-opacity="0.2"/>
<path d="M14.3758 7.375C14.5415 7.375 14.7005 7.30915 14.8177 7.19194C14.9349 7.07473 15.0008 6.91576 15.0008 6.75C15.0008 6.58424 14.9349 6.42527 14.8177 6.30806C14.7005 6.19085 14.5415 6.125 14.3758 6.125H13.5008L13.0195 4.57438C12.8438 4.00287 12.5067 3.49431 12.0488 3.10989C11.5908 2.72547 11.0316 2.48155 10.4383 2.4075C10.2011 1.84322 9.80299 1.36134 9.29354 1.02208C8.78409 0.682817 8.18596 0.501226 7.57388 0.5L7.42764 0.5C6.81556 0.501226 6.21743 0.682817 5.70798 1.02208C5.19853 1.36134 4.80037 1.84322 4.56326 2.4075C3.97026 2.48173 3.41132 2.72565 2.95363 3.10994C2.49594 3.49424 2.15898 4.00254 1.98326 4.57375L1.50076 6.125H0.62576C0.46 6.125 0.301029 6.19085 0.183819 6.30806C0.0666083 6.42527 0.000760244 6.58424 0.000760244 6.75C0.000760244 6.91576 0.0666083 7.07473 0.183819 7.19194C0.301029 7.30915 0.46 7.375 0.62576 7.375H1.11389L0.66701 8.8125C0.411679 9.08552 0.22154 9.41285 0.110881 9.7699C0.000220956 10.1269 -0.0280822 10.5044 0.0280978 10.874C0.0842777 11.2436 0.22348 11.5956 0.435245 11.9036C0.647011 12.2117 0.925832 12.4677 1.25076 12.6525V13.625C1.25076 14.1223 1.4483 14.5992 1.79994 14.9508C2.15157 15.3025 2.62848 15.5 3.12576 15.5C3.62304 15.5 4.09995 15.3025 4.45159 14.9508C4.80322 14.5992 5.00076 14.1223 5.00076 13.625V13H10.0008V13.625C10.0008 14.1223 10.1983 14.5992 10.5499 14.9508C10.9016 15.3025 11.3785 15.5 11.8758 15.5C12.373 15.5 12.85 15.3025 13.2016 14.9508C13.5532 14.5992 13.7508 14.1223 13.7508 13.625V12.6525C14.0755 12.4677 14.3541 12.2117 14.5657 11.9037C14.7774 11.5958 14.9165 11.2439 14.9726 10.8745C15.0288 10.5052 15.0006 10.1278 14.8901 9.77092C14.7795 9.414 14.5896 9.08676 14.3345 8.81375L13.8876 7.375H14.3758ZM7.42764 1.75H7.57388C7.83669 1.75053 8.09643 1.80647 8.33615 1.91416C8.57587 2.02185 8.7902 2.17888 8.96514 2.375H6.03638C6.21125 2.17879 6.42556 2.0217 6.6653 1.914C6.90504 1.8063 7.16481 1.75041 7.42764 1.75ZM3.17764 4.94375C3.29508 4.56101 3.5325 4.22619 3.85482 3.98873C4.17714 3.75126 4.56729 3.62374 4.96764 3.625H10.0339C10.4344 3.62365 10.8248 3.7512 11.1472 3.98879C11.4697 4.22639 11.7071 4.56142 11.8245 4.94438L12.782 8.02812C12.6889 8.01337 12.595 8.00398 12.5008 8H2.50076C2.40655 8.00398 2.31264 8.01337 2.21951 8.02812L3.17764 4.94375ZM3.75076 13.625C3.75076 13.7908 3.68491 13.9497 3.5677 14.0669C3.45049 14.1842 3.29152 14.25 3.12576 14.25C2.96 14.25 2.80103 14.1842 2.68382 14.0669C2.56661 13.9497 2.50076 13.7908 2.50076 13.625V13H3.75076V13.625ZM12.5008 13.625C12.5008 13.7908 12.4349 13.9497 12.3177 14.0669C12.2005 14.1842 12.0415 14.25 11.8758 14.25C11.71 14.25 11.551 14.1842 11.4338 14.0669C11.3166 13.9497 11.2508 13.7908 11.2508 13.625V13H12.5008V13.625ZM12.5008 11.75H2.50076C2.16924 11.75 1.8513 11.6183 1.61688 11.3839C1.38246 11.1495 1.25076 10.8315 1.25076 10.5C1.25076 10.1685 1.38246 9.85054 1.61688 9.61612C1.8513 9.3817 2.16924 9.25 2.50076 9.25V9.875C2.50076 10.0408 2.56661 10.1997 2.68382 10.3169C2.80103 10.4342 2.96 10.5 3.12576 10.5C3.29152 10.5 3.45049 10.4342 3.5677 10.3169C3.68491 10.1997 3.75076 10.0408 3.75076 9.875V9.25H11.2508V9.875C11.2508 10.0408 11.3166 10.1997 11.4338 10.3169C11.551 10.4342 11.71 10.5 11.8758 10.5C12.0415 10.5 12.2005 10.4342 12.3177 10.3169C12.4349 10.1997 12.5008 10.0408 12.5008 9.875V9.25C12.8323 9.25 13.1502 9.3817 13.3846 9.61612C13.6191 9.85054 13.7508 10.1685 13.7508 10.5C13.7508 10.8315 13.6191 11.1495 13.3846 11.3839C13.1502 11.6183 12.8323 11.75 12.5008 11.75Z" fill="black" fill-opacity="0.2"/>
<path d="M14.3758 7.375C14.5415 7.375 14.7005 7.30915 14.8177 7.19194C14.9349 7.07473 15.0008 6.91576 15.0008 6.75C15.0008 6.58424 14.9349 6.42527 14.8177 6.30806C14.7005 6.19085 14.5415 6.125 14.3758 6.125H13.5008L13.0195 4.57438C12.8438 4.00287 12.5067 3.49431 12.0488 3.10989C11.5908 2.72547 11.0316 2.48155 10.4383 2.4075C10.2011 1.84322 9.80299 1.36134 9.29354 1.02208C8.78409 0.682817 8.18596 0.501226 7.57388 0.5L7.42764 0.5C6.81556 0.501226 6.21743 0.682817 5.70798 1.02208C5.19853 1.36134 4.80037 1.84322 4.56326 2.4075C3.97026 2.48173 3.41132 2.72565 2.95363 3.10994C2.49594 3.49424 2.15898 4.00254 1.98326 4.57375L1.50076 6.125H0.62576C0.46 6.125 0.301029 6.19085 0.183819 6.30806C0.0666083 6.42527 0.000760244 6.58424 0.000760244 6.75C0.000760244 6.91576 0.0666083 7.07473 0.183819 7.19194C0.301029 7.30915 0.46 7.375 0.62576 7.375H1.11389L0.66701 8.8125C0.411679 9.08552 0.22154 9.41285 0.110881 9.7699C0.000220956 10.1269 -0.0280822 10.5044 0.0280978 10.874C0.0842777 11.2436 0.22348 11.5956 0.435245 11.9036C0.647011 12.2117 0.925832 12.4677 1.25076 12.6525V13.625C1.25076 14.1223 1.4483 14.5992 1.79994 14.9508C2.15157 15.3025 2.62848 15.5 3.12576 15.5C3.62304 15.5 4.09995 15.3025 4.45159 14.9508C4.80322 14.5992 5.00076 14.1223 5.00076 13.625V13H10.0008V13.625C10.0008 14.1223 10.1983 14.5992 10.5499 14.9508C10.9016 15.3025 11.3785 15.5 11.8758 15.5C12.373 15.5 12.85 15.3025 13.2016 14.9508C13.5532 14.5992 13.7508 14.1223 13.7508 13.625V12.6525C14.0755 12.4677 14.3541 12.2117 14.5657 11.9037C14.7774 11.5958 14.9165 11.2439 14.9726 10.8745C15.0288 10.5052 15.0006 10.1278 14.8901 9.77092C14.7795 9.414 14.5896 9.08676 14.3345 8.81375L13.8876 7.375H14.3758ZM7.42764 1.75H7.57388C7.83669 1.75053 8.09643 1.80647 8.33615 1.91416C8.57587 2.02185 8.7902 2.17888 8.96514 2.375H6.03638C6.21125 2.17879 6.42556 2.0217 6.6653 1.914C6.90504 1.8063 7.16481 1.75041 7.42764 1.75ZM3.17764 4.94375C3.29508 4.56101 3.5325 4.22619 3.85482 3.98873C4.17714 3.75126 4.56729 3.62374 4.96764 3.625H10.0339C10.4344 3.62365 10.8248 3.7512 11.1472 3.98879C11.4697 4.22639 11.7071 4.56142 11.8245 4.94438L12.782 8.02812C12.6889 8.01337 12.595 8.00398 12.5008 8H2.50076C2.40655 8.00398 2.31264 8.01337 2.21951 8.02812L3.17764 4.94375ZM3.75076 13.625C3.75076 13.7908 3.68491 13.9497 3.5677 14.0669C3.45049 14.1842 3.29152 14.25 3.12576 14.25C2.96 14.25 2.80103 14.1842 2.68382 14.0669C2.56661 13.9497 2.50076 13.7908 2.50076 13.625V13H3.75076V13.625ZM12.5008 13.625C12.5008 13.7908 12.4349 13.9497 12.3177 14.0669C12.2005 14.1842 12.0415 14.25 11.8758 14.25C11.71 14.25 11.551 14.1842 11.4338 14.0669C11.3166 13.9497 11.2508 13.7908 11.2508 13.625V13H12.5008V13.625ZM12.5008 11.75H2.50076C2.16924 11.75 1.8513 11.6183 1.61688 11.3839C1.38246 11.1495 1.25076 10.8315 1.25076 10.5C1.25076 10.1685 1.38246 9.85054 1.61688 9.61612C1.8513 9.3817 2.16924 9.25 2.50076 9.25V9.875C2.50076 10.0408 2.56661 10.1997 2.68382 10.3169C2.80103 10.4342 2.96 10.5 3.12576 10.5C3.29152 10.5 3.45049 10.4342 3.5677 10.3169C3.68491 10.1997 3.75076 10.0408 3.75076 9.875V9.25H11.2508V9.875C11.2508 10.0408 11.3166 10.1997 11.4338 10.3169C11.551 10.4342 11.71 10.5 11.8758 10.5C12.0415 10.5 12.2005 10.4342 12.3177 10.3169C12.4349 10.1997 12.5008 10.0408 12.5008 9.875V9.25C12.8323 9.25 13.1502 9.3817 13.3846 9.61612C13.6191 9.85054 13.7508 10.1685 13.7508 10.5C13.7508 10.8315 13.6191 11.1495 13.3846 11.3839C13.1502 11.6183 12.8323 11.75 12.5008 11.75Z" fill="black" fill-opacity="0.2"/>
<path d="M14.3758 7.375C14.5415 7.375 14.7005 7.30915 14.8177 7.19194C14.9349 7.07473 15.0008 6.91576 15.0008 6.75C15.0008 6.58424 14.9349 6.42527 14.8177 6.30806C14.7005 6.19085 14.5415 6.125 14.3758 6.125H13.5008L13.0195 4.57438C12.8438 4.00287 12.5067 3.49431 12.0488 3.10989C11.5908 2.72547 11.0316 2.48155 10.4383 2.4075C10.2011 1.84322 9.80299 1.36134 9.29354 1.02208C8.78409 0.682817 8.18596 0.501226 7.57388 0.5L7.42764 0.5C6.81556 0.501226 6.21743 0.682817 5.70798 1.02208C5.19853 1.36134 4.80037 1.84322 4.56326 2.4075C3.97026 2.48173 3.41132 2.72565 2.95363 3.10994C2.49594 3.49424 2.15898 4.00254 1.98326 4.57375L1.50076 6.125H0.62576C0.46 6.125 0.301029 6.19085 0.183819 6.30806C0.0666083 6.42527 0.000760244 6.58424 0.000760244 6.75C0.000760244 6.91576 0.0666083 7.07473 0.183819 7.19194C0.301029 7.30915 0.46 7.375 0.62576 7.375H1.11389L0.66701 8.8125C0.411679 9.08552 0.22154 9.41285 0.110881 9.7699C0.000220956 10.1269 -0.0280822 10.5044 0.0280978 10.874C0.0842777 11.2436 0.22348 11.5956 0.435245 11.9036C0.647011 12.2117 0.925832 12.4677 1.25076 12.6525V13.625C1.25076 14.1223 1.4483 14.5992 1.79994 14.9508C2.15157 15.3025 2.62848 15.5 3.12576 15.5C3.62304 15.5 4.09995 15.3025 4.45159 14.9508C4.80322 14.5992 5.00076 14.1223 5.00076 13.625V13H10.0008V13.625C10.0008 14.1223 10.1983 14.5992 10.5499 14.9508C10.9016 15.3025 11.3785 15.5 11.8758 15.5C12.373 15.5 12.85 15.3025 13.2016 14.9508C13.5532 14.5992 13.7508 14.1223 13.7508 13.625V12.6525C14.0755 12.4677 14.3541 12.2117 14.5657 11.9037C14.7774 11.5958 14.9165 11.2439 14.9726 10.8745C15.0288 10.5052 15.0006 10.1278 14.8901 9.77092C14.7795 9.414 14.5896 9.08676 14.3345 8.81375L13.8876 7.375H14.3758ZM7.42764 1.75H7.57388C7.83669 1.75053 8.09643 1.80647 8.33615 1.91416C8.57587 2.02185 8.7902 2.17888 8.96514 2.375H6.03638C6.21125 2.17879 6.42556 2.0217 6.6653 1.914C6.90504 1.8063 7.16481 1.75041 7.42764 1.75ZM3.17764 4.94375C3.29508 4.56101 3.5325 4.22619 3.85482 3.98873C4.17714 3.75126 4.56729 3.62374 4.96764 3.625H10.0339C10.4344 3.62365 10.8248 3.7512 11.1472 3.98879C11.4697 4.22639 11.7071 4.56142 11.8245 4.94438L12.782 8.02812C12.6889 8.01337 12.595 8.00398 12.5008 8H2.50076C2.40655 8.00398 2.31264 8.01337 2.21951 8.02812L3.17764 4.94375ZM3.75076 13.625C3.75076 13.7908 3.68491 13.9497 3.5677 14.0669C3.45049 14.1842 3.29152 14.25 3.12576 14.25C2.96 14.25 2.80103 14.1842 2.68382 14.0669C2.56661 13.9497 2.50076 13.7908 2.50076 13.625V13H3.75076V13.625ZM12.5008 13.625C12.5008 13.7908 12.4349 13.9497 12.3177 14.0669C12.2005 14.1842 12.0415 14.25 11.8758 14.25C11.71 14.25 11.551 14.1842 11.4338 14.0669C11.3166 13.9497 11.2508 13.7908 11.2508 13.625V13H12.5008V13.625ZM12.5008 11.75H2.50076C2.16924 11.75 1.8513 11.6183 1.61688 11.3839C1.38246 11.1495 1.25076 10.8315 1.25076 10.5C1.25076 10.1685 1.38246 9.85054 1.61688 9.61612C1.8513 9.3817 2.16924 9.25 2.50076 9.25V9.875C2.50076 10.0408 2.56661 10.1997 2.68382 10.3169C2.80103 10.4342 2.96 10.5 3.12576 10.5C3.29152 10.5 3.45049 10.4342 3.5677 10.3169C3.68491 10.1997 3.75076 10.0408 3.75076 9.875V9.25H11.2508V9.875C11.2508 10.0408 11.3166 10.1997 11.4338 10.3169C11.551 10.4342 11.71 10.5 11.8758 10.5C12.0415 10.5 12.2005 10.4342 12.3177 10.3169C12.4349 10.1997 12.5008 10.0408 12.5008 9.875V9.25C12.8323 9.25 13.1502 9.3817 13.3846 9.61612C13.6191 9.85054 13.7508 10.1685 13.7508 10.5C13.7508 10.8315 13.6191 11.1495 13.3846 11.3839C13.1502 11.6183 12.8323 11.75 12.5008 11.75Z" fill="black" fill-opacity="0.2"/>
<path d="M14.3758 7.375C14.5415 7.375 14.7005 7.30915 14.8177 7.19194C14.9349 7.07473 15.0008 6.91576 15.0008 6.75C15.0008 6.58424 14.9349 6.42527 14.8177 6.30806C14.7005 6.19085 14.5415 6.125 14.3758 6.125H13.5008L13.0195 4.57438C12.8438 4.00287 12.5067 3.49431 12.0488 3.10989C11.5908 2.72547 11.0316 2.48155 10.4383 2.4075C10.2011 1.84322 9.80299 1.36134 9.29354 1.02208C8.78409 0.682817 8.18596 0.501226 7.57388 0.5L7.42764 0.5C6.81556 0.501226 6.21743 0.682817 5.70798 1.02208C5.19853 1.36134 4.80037 1.84322 4.56326 2.4075C3.97026 2.48173 3.41132 2.72565 2.95363 3.10994C2.49594 3.49424 2.15898 4.00254 1.98326 4.57375L1.50076 6.125H0.62576C0.46 6.125 0.301029 6.19085 0.183819 6.30806C0.0666083 6.42527 0.000760244 6.58424 0.000760244 6.75C0.000760244 6.91576 0.0666083 7.07473 0.183819 7.19194C0.301029 7.30915 0.46 7.375 0.62576 7.375H1.11389L0.66701 8.8125C0.411679 9.08552 0.22154 9.41285 0.110881 9.7699C0.000220956 10.1269 -0.0280822 10.5044 0.0280978 10.874C0.0842777 11.2436 0.22348 11.5956 0.435245 11.9036C0.647011 12.2117 0.925832 12.4677 1.25076 12.6525V13.625C1.25076 14.1223 1.4483 14.5992 1.79994 14.9508C2.15157 15.3025 2.62848 15.5 3.12576 15.5C3.62304 15.5 4.09995 15.3025 4.45159 14.9508C4.80322 14.5992 5.00076 14.1223 5.00076 13.625V13H10.0008V13.625C10.0008 14.1223 10.1983 14.5992 10.5499 14.9508C10.9016 15.3025 11.3785 15.5 11.8758 15.5C12.373 15.5 12.85 15.3025 13.2016 14.9508C13.5532 14.5992 13.7508 14.1223 13.7508 13.625V12.6525C14.0755 12.4677 14.3541 12.2117 14.5657 11.9037C14.7774 11.5958 14.9165 11.2439 14.9726 10.8745C15.0288 10.5052 15.0006 10.1278 14.8901 9.77092C14.7795 9.414 14.5896 9.08676 14.3345 8.81375L13.8876 7.375H14.3758ZM7.42764 1.75H7.57388C7.83669 1.75053 8.09643 1.80647 8.33615 1.91416C8.57587 2.02185 8.7902 2.17888 8.96514 2.375H6.03638C6.21125 2.17879 6.42556 2.0217 6.6653 1.914C6.90504 1.8063 7.16481 1.75041 7.42764 1.75ZM3.17764 4.94375C3.29508 4.56101 3.5325 4.22619 3.85482 3.98873C4.17714 3.75126 4.56729 3.62374 4.96764 3.625H10.0339C10.4344 3.62365 10.8248 3.7512 11.1472 3.98879C11.4697 4.22639 11.7071 4.56142 11.8245 4.94438L12.782 8.02812C12.6889 8.01337 12.595 8.00398 12.5008 8H2.50076C2.40655 8.00398 2.31264 8.01337 2.21951 8.02812L3.17764 4.94375ZM3.75076 13.625C3.75076 13.7908 3.68491 13.9497 3.5677 14.0669C3.45049 14.1842 3.29152 14.25 3.12576 14.25C2.96 14.25 2.80103 14.1842 2.68382 14.0669C2.56661 13.9497 2.50076 13.7908 2.50076 13.625V13H3.75076V13.625ZM12.5008 13.625C12.5008 13.7908 12.4349 13.9497 12.3177 14.0669C12.2005 14.1842 12.0415 14.25 11.8758 14.25C11.71 14.25 11.551 14.1842 11.4338 14.0669C11.3166 13.9497 11.2508 13.7908 11.2508 13.625V13H12.5008V13.625ZM12.5008 11.75H2.50076C2.16924 11.75 1.8513 11.6183 1.61688 11.3839C1.38246 11.1495 1.25076 10.8315 1.25076 10.5C1.25076 10.1685 1.38246 9.85054 1.61688 9.61612C1.8513 9.3817 2.16924 9.25 2.50076 9.25V9.875C2.50076 10.0408 2.56661 10.1997 2.68382 10.3169C2.80103 10.4342 2.96 10.5 3.12576 10.5C3.29152 10.5 3.45049 10.4342 3.5677 10.3169C3.68491 10.1997 3.75076 10.0408 3.75076 9.875V9.25H11.2508V9.875C11.2508 10.0408 11.3166 10.1997 11.4338 10.3169C11.551 10.4342 11.71 10.5 11.8758 10.5C12.0415 10.5 12.2005 10.4342 12.3177 10.3169C12.4349 10.1997 12.5008 10.0408 12.5008 9.875V9.25C12.8323 9.25 13.1502 9.3817 13.3846 9.61612C13.6191 9.85054 13.7508 10.1685 13.7508 10.5C13.7508 10.8315 13.6191 11.1495 13.3846 11.3839C13.1502 11.6183 12.8323 11.75 12.5008 11.75Z" fill="black" fill-opacity="0.2"/>
<path d="M14.3758 7.375C14.5415 7.375 14.7005 7.30915 14.8177 7.19194C14.9349 7.07473 15.0008 6.91576 15.0008 6.75C15.0008 6.58424 14.9349 6.42527 14.8177 6.30806C14.7005 6.19085 14.5415 6.125 14.3758 6.125H13.5008L13.0195 4.57438C12.8438 4.00287 12.5067 3.49431 12.0488 3.10989C11.5908 2.72547 11.0316 2.48155 10.4383 2.4075C10.2011 1.84322 9.80299 1.36134 9.29354 1.02208C8.78409 0.682817 8.18596 0.501226 7.57388 0.5L7.42764 0.5C6.81556 0.501226 6.21743 0.682817 5.70798 1.02208C5.19853 1.36134 4.80037 1.84322 4.56326 2.4075C3.97026 2.48173 3.41132 2.72565 2.95363 3.10994C2.49594 3.49424 2.15898 4.00254 1.98326 4.57375L1.50076 6.125H0.62576C0.46 6.125 0.301029 6.19085 0.183819 6.30806C0.0666083 6.42527 0.000760244 6.58424 0.000760244 6.75C0.000760244 6.91576 0.0666083 7.07473 0.183819 7.19194C0.301029 7.30915 0.46 7.375 0.62576 7.375H1.11389L0.66701 8.8125C0.411679 9.08552 0.22154 9.41285 0.110881 9.7699C0.000220956 10.1269 -0.0280822 10.5044 0.0280978 10.874C0.0842777 11.2436 0.22348 11.5956 0.435245 11.9036C0.647011 12.2117 0.925832 12.4677 1.25076 12.6525V13.625C1.25076 14.1223 1.4483 14.5992 1.79994 14.9508C2.15157 15.3025 2.62848 15.5 3.12576 15.5C3.62304 15.5 4.09995 15.3025 4.45159 14.9508C4.80322 14.5992 5.00076 14.1223 5.00076 13.625V13H10.0008V13.625C10.0008 14.1223 10.1983 14.5992 10.5499 14.9508C10.9016 15.3025 11.3785 15.5 11.8758 15.5C12.373 15.5 12.85 15.3025 13.2016 14.9508C13.5532 14.5992 13.7508 14.1223 13.7508 13.625V12.6525C14.0755 12.4677 14.3541 12.2117 14.5657 11.9037C14.7774 11.5958 14.9165 11.2439 14.9726 10.8745C15.0288 10.5052 15.0006 10.1278 14.8901 9.77092C14.7795 9.414 14.5896 9.08676 14.3345 8.81375L13.8876 7.375H14.3758ZM7.42764 1.75H7.57388C7.83669 1.75053 8.09643 1.80647 8.33615 1.91416C8.57587 2.02185 8.7902 2.17888 8.96514 2.375H6.03638C6.21125 2.17879 6.42556 2.0217 6.6653 1.914C6.90504 1.8063 7.16481 1.75041 7.42764 1.75ZM3.17764 4.94375C3.29508 4.56101 3.5325 4.22619 3.85482 3.98873C4.17714 3.75126 4.56729 3.62374 4.96764 3.625H10.0339C10.4344 3.62365 10.8248 3.7512 11.1472 3.98879C11.4697 4.22639 11.7071 4.56142 11.8245 4.94438L12.782 8.02812C12.6889 8.01337 12.595 8.00398 12.5008 8H2.50076C2.40655 8.00398 2.31264 8.01337 2.21951 8.02812L3.17764 4.94375ZM3.75076 13.625C3.75076 13.7908 3.68491 13.9497 3.5677 14.0669C3.45049 14.1842 3.29152 14.25 3.12576 14.25C2.96 14.25 2.80103 14.1842 2.68382 14.0669C2.56661 13.9497 2.50076 13.7908 2.50076 13.625V13H3.75076V13.625ZM12.5008 13.625C12.5008 13.7908 12.4349 13.9497 12.3177 14.0669C12.2005 14.1842 12.0415 14.25 11.8758 14.25C11.71 14.25 11.551 14.1842 11.4338 14.0669C11.3166 13.9497 11.2508 13.7908 11.2508 13.625V13H12.5008V13.625ZM12.5008 11.75H2.50076C2.16924 11.75 1.8513 11.6183 1.61688 11.3839C1.38246 11.1495 1.25076 10.8315 1.25076 10.5C1.25076 10.1685 1.38246 9.85054 1.61688 9.61612C1.8513 9.3817 2.16924 9.25 2.50076 9.25V9.875C2.50076 10.0408 2.56661 10.1997 2.68382 10.3169C2.80103 10.4342 2.96 10.5 3.12576 10.5C3.29152 10.5 3.45049 10.4342 3.5677 10.3169C3.68491 10.1997 3.75076 10.0408 3.75076 9.875V9.25H11.2508V9.875C11.2508 10.0408 11.3166 10.1997 11.4338 10.3169C11.551 10.4342 11.71 10.5 11.8758 10.5C12.0415 10.5 12.2005 10.4342 12.3177 10.3169C12.4349 10.1997 12.5008 10.0408 12.5008 9.875V9.25C12.8323 9.25 13.1502 9.3817 13.3846 9.61612C13.6191 9.85054 13.7508 10.1685 13.7508 10.5C13.7508 10.8315 13.6191 11.1495 13.3846 11.3839C13.1502 11.6183 12.8323 11.75 12.5008 11.75Z" fill="black" fill-opacity="0.2"/>
<path d="M14.3758 7.375C14.5415 7.375 14.7005 7.30915 14.8177 7.19194C14.9349 7.07473 15.0008 6.91576 15.0008 6.75C15.0008 6.58424 14.9349 6.42527 14.8177 6.30806C14.7005 6.19085 14.5415 6.125 14.3758 6.125H13.5008L13.0195 4.57438C12.8438 4.00287 12.5067 3.49431 12.0488 3.10989C11.5908 2.72547 11.0316 2.48155 10.4383 2.4075C10.2011 1.84322 9.80299 1.36134 9.29354 1.02208C8.78409 0.682817 8.18596 0.501226 7.57388 0.5L7.42764 0.5C6.81556 0.501226 6.21743 0.682817 5.70798 1.02208C5.19853 1.36134 4.80037 1.84322 4.56326 2.4075C3.97026 2.48173 3.41132 2.72565 2.95363 3.10994C2.49594 3.49424 2.15898 4.00254 1.98326 4.57375L1.50076 6.125H0.62576C0.46 6.125 0.301029 6.19085 0.183819 6.30806C0.0666083 6.42527 0.000760244 6.58424 0.000760244 6.75C0.000760244 6.91576 0.0666083 7.07473 0.183819 7.19194C0.301029 7.30915 0.46 7.375 0.62576 7.375H1.11389L0.66701 8.8125C0.411679 9.08552 0.22154 9.41285 0.110881 9.7699C0.000220956 10.1269 -0.0280822 10.5044 0.0280978 10.874C0.0842777 11.2436 0.22348 11.5956 0.435245 11.9036C0.647011 12.2117 0.925832 12.4677 1.25076 12.6525V13.625C1.25076 14.1223 1.4483 14.5992 1.79994 14.9508C2.15157 15.3025 2.62848 15.5 3.12576 15.5C3.62304 15.5 4.09995 15.3025 4.45159 14.9508C4.80322 14.5992 5.00076 14.1223 5.00076 13.625V13H10.0008V13.625C10.0008 14.1223 10.1983 14.5992 10.5499 14.9508C10.9016 15.3025 11.3785 15.5 11.8758 15.5C12.373 15.5 12.85 15.3025 13.2016 14.9508C13.5532 14.5992 13.7508 14.1223 13.7508 13.625V12.6525C14.0755 12.4677 14.3541 12.2117 14.5657 11.9037C14.7774 11.5958 14.9165 11.2439 14.9726 10.8745C15.0288 10.5052 15.0006 10.1278 14.8901 9.77092C14.7795 9.414 14.5896 9.08676 14.3345 8.81375L13.8876 7.375H14.3758ZM7.42764 1.75H7.57388C7.83669 1.75053 8.09643 1.80647 8.33615 1.91416C8.57587 2.02185 8.7902 2.17888 8.96514 2.375H6.03638C6.21125 2.17879 6.42556 2.0217 6.6653 1.914C6.90504 1.8063 7.16481 1.75041 7.42764 1.75ZM3.17764 4.94375C3.29508 4.56101 3.5325 4.22619 3.85482 3.98873C4.17714 3.75126 4.56729 3.62374 4.96764 3.625H10.0339C10.4344 3.62365 10.8248 3.7512 11.1472 3.98879C11.4697 4.22639 11.7071 4.56142 11.8245 4.94438L12.782 8.02812C12.6889 8.01337 12.595 8.00398 12.5008 8H2.50076C2.40655 8.00398 2.31264 8.01337 2.21951 8.02812L3.17764 4.94375ZM3.75076 13.625C3.75076 13.7908 3.68491 13.9497 3.5677 14.0669C3.45049 14.1842 3.29152 14.25 3.12576 14.25C2.96 14.25 2.80103 14.1842 2.68382 14.0669C2.56661 13.9497 2.50076 13.7908 2.50076 13.625V13H3.75076V13.625ZM12.5008 13.625C12.5008 13.7908 12.4349 13.9497 12.3177 14.0669C12.2005 14.1842 12.0415 14.25 11.8758 14.25C11.71 14.25 11.551 14.1842 11.4338 14.0669C11.3166 13.9497 11.2508 13.7908 11.2508 13.625V13H12.5008V13.625ZM12.5008 11.75H2.50076C2.16924 11.75 1.8513 11.6183 1.61688 11.3839C1.38246 11.1495 1.25076 10.8315 1.25076 10.5C1.25076 10.1685 1.38246 9.85054 1.61688 9.61612C1.8513 9.3817 2.16924 9.25 2.50076 9.25V9.875C2.50076 10.0408 2.56661 10.1997 2.68382 10.3169C2.80103 10.4342 2.96 10.5 3.12576 10.5C3.29152 10.5 3.45049 10.4342 3.5677 10.3169C3.68491 10.1997 3.75076 10.0408 3.75076 9.875V9.25H11.2508V9.875C11.2508 10.0408 11.3166 10.1997 11.4338 10.3169C11.551 10.4342 11.71 10.5 11.8758 10.5C12.0415 10.5 12.2005 10.4342 12.3177 10.3169C12.4349 10.1997 12.5008 10.0408 12.5008 9.875V9.25C12.8323 9.25 13.1502 9.3817 13.3846 9.61612C13.6191 9.85054 13.7508 10.1685 13.7508 10.5C13.7508 10.8315 13.6191 11.1495 13.3846 11.3839C13.1502 11.6183 12.8323 11.75 12.5008 11.75Z" fill="black" fill-opacity="0.2"/>
<path d="M14.3758 7.375C14.5415 7.375 14.7005 7.30915 14.8177 7.19194C14.9349 7.07473 15.0008 6.91576 15.0008 6.75C15.0008 6.58424 14.9349 6.42527 14.8177 6.30806C14.7005 6.19085 14.5415 6.125 14.3758 6.125H13.5008L13.0195 4.57438C12.8438 4.00287 12.5067 3.49431 12.0488 3.10989C11.5908 2.72547 11.0316 2.48155 10.4383 2.4075C10.2011 1.84322 9.80299 1.36134 9.29354 1.02208C8.78409 0.682817 8.18596 0.501226 7.57388 0.5L7.42764 0.5C6.81556 0.501226 6.21743 0.682817 5.70798 1.02208C5.19853 1.36134 4.80037 1.84322 4.56326 2.4075C3.97026 2.48173 3.41132 2.72565 2.95363 3.10994C2.49594 3.49424 2.15898 4.00254 1.98326 4.57375L1.50076 6.125H0.62576C0.46 6.125 0.301029 6.19085 0.183819 6.30806C0.0666083 6.42527 0.000760244 6.58424 0.000760244 6.75C0.000760244 6.91576 0.0666083 7.07473 0.183819 7.19194C0.301029 7.30915 0.46 7.375 0.62576 7.375H1.11389L0.66701 8.8125C0.411679 9.08552 0.22154 9.41285 0.110881 9.7699C0.000220956 10.1269 -0.0280822 10.5044 0.0280978 10.874C0.0842777 11.2436 0.22348 11.5956 0.435245 11.9036C0.647011 12.2117 0.925832 12.4677 1.25076 12.6525V13.625C1.25076 14.1223 1.4483 14.5992 1.79994 14.9508C2.15157 15.3025 2.62848 15.5 3.12576 15.5C3.62304 15.5 4.09995 15.3025 4.45159 14.9508C4.80322 14.5992 5.00076 14.1223 5.00076 13.625V13H10.0008V13.625C10.0008 14.1223 10.1983 14.5992 10.5499 14.9508C10.9016 15.3025 11.3785 15.5 11.8758 15.5C12.373 15.5 12.85 15.3025 13.2016 14.9508C13.5532 14.5992 13.7508 14.1223 13.7508 13.625V12.6525C14.0755 12.4677 14.3541 12.2117 14.5657 11.9037C14.7774 11.5958 14.9165 11.2439 14.9726 10.8745C15.0288 10.5052 15.0006 10.1278 14.8901 9.77092C14.7795 9.414 14.5896 9.08676 14.3345 8.81375L13.8876 7.375H14.3758ZM7.42764 1.75H7.57388C7.83669 1.75053 8.09643 1.80647 8.33615 1.91416C8.57587 2.02185 8.7902 2.17888 8.96514 2.375H6.03638C6.21125 2.17879 6.42556 2.0217 6.6653 1.914C6.90504 1.8063 7.16481 1.75041 7.42764 1.75ZM3.17764 4.94375C3.29508 4.56101 3.5325 4.22619 3.85482 3.98873C4.17714 3.75126 4.56729 3.62374 4.96764 3.625H10.0339C10.4344 3.62365 10.8248 3.7512 11.1472 3.98879C11.4697 4.22639 11.7071 4.56142 11.8245 4.94438L12.782 8.02812C12.6889 8.01337 12.595 8.00398 12.5008 8H2.50076C2.40655 8.00398 2.31264 8.01337 2.21951 8.02812L3.17764 4.94375ZM3.75076 13.625C3.75076 13.7908 3.68491 13.9497 3.5677 14.0669C3.45049 14.1842 3.29152 14.25 3.12576 14.25C2.96 14.25 2.80103 14.1842 2.68382 14.0669C2.56661 13.9497 2.50076 13.7908 2.50076 13.625V13H3.75076V13.625ZM12.5008 13.625C12.5008 13.7908 12.4349 13.9497 12.3177 14.0669C12.2005 14.1842 12.0415 14.25 11.8758 14.25C11.71 14.25 11.551 14.1842 11.4338 14.0669C11.3166 13.9497 11.2508 13.7908 11.2508 13.625V13H12.5008V13.625ZM12.5008 11.75H2.50076C2.16924 11.75 1.8513 11.6183 1.61688 11.3839C1.38246 11.1495 1.25076 10.8315 1.25076 10.5C1.25076 10.1685 1.38246 9.85054 1.61688 9.61612C1.8513 9.3817 2.16924 9.25 2.50076 9.25V9.875C2.50076 10.0408 2.56661 10.1997 2.68382 10.3169C2.80103 10.4342 2.96 10.5 3.12576 10.5C3.29152 10.5 3.45049 10.4342 3.5677 10.3169C3.68491 10.1997 3.75076 10.0408 3.75076 9.875V9.25H11.2508V9.875C11.2508 10.0408 11.3166 10.1997 11.4338 10.3169C11.551 10.4342 11.71 10.5 11.8758 10.5C12.0415 10.5 12.2005 10.4342 12.3177 10.3169C12.4349 10.1997 12.5008 10.0408 12.5008 9.875V9.25C12.8323 9.25 13.1502 9.3817 13.3846 9.61612C13.6191 9.85054 13.7508 10.1685 13.7508 10.5C13.7508 10.8315 13.6191 11.1495 13.3846 11.3839C13.1502 11.6183 12.8323 11.75 12.5008 11.75Z" fill="black" fill-opacity="0.2"/>
<path d="M14.3758 7.375C14.5415 7.375 14.7005 7.30915 14.8177 7.19194C14.9349 7.07473 15.0008 6.91576 15.0008 6.75C15.0008 6.58424 14.9349 6.42527 14.8177 6.30806C14.7005 6.19085 14.5415 6.125 14.3758 6.125H13.5008L13.0195 4.57438C12.8438 4.00287 12.5067 3.49431 12.0488 3.10989C11.5908 2.72547 11.0316 2.48155 10.4383 2.4075C10.2011 1.84322 9.80299 1.36134 9.29354 1.02208C8.78409 0.682817 8.18596 0.501226 7.57388 0.5L7.42764 0.5C6.81556 0.501226 6.21743 0.682817 5.70798 1.02208C5.19853 1.36134 4.80037 1.84322 4.56326 2.4075C3.97026 2.48173 3.41132 2.72565 2.95363 3.10994C2.49594 3.49424 2.15898 4.00254 1.98326 4.57375L1.50076 6.125H0.62576C0.46 6.125 0.301029 6.19085 0.183819 6.30806C0.0666083 6.42527 0.000760244 6.58424 0.000760244 6.75C0.000760244 6.91576 0.0666083 7.07473 0.183819 7.19194C0.301029 7.30915 0.46 7.375 0.62576 7.375H1.11389L0.66701 8.8125C0.411679 9.08552 0.22154 9.41285 0.110881 9.7699C0.000220956 10.1269 -0.0280822 10.5044 0.0280978 10.874C0.0842777 11.2436 0.22348 11.5956 0.435245 11.9036C0.647011 12.2117 0.925832 12.4677 1.25076 12.6525V13.625C1.25076 14.1223 1.4483 14.5992 1.79994 14.9508C2.15157 15.3025 2.62848 15.5 3.12576 15.5C3.62304 15.5 4.09995 15.3025 4.45159 14.9508C4.80322 14.5992 5.00076 14.1223 5.00076 13.625V13H10.0008V13.625C10.0008 14.1223 10.1983 14.5992 10.5499 14.9508C10.9016 15.3025 11.3785 15.5 11.8758 15.5C12.373 15.5 12.85 15.3025 13.2016 14.9508C13.5532 14.5992 13.7508 14.1223 13.7508 13.625V12.6525C14.0755 12.4677 14.3541 12.2117 14.5657 11.9037C14.7774 11.5958 14.9165 11.2439 14.9726 10.8745C15.0288 10.5052 15.0006 10.1278 14.8901 9.77092C14.7795 9.414 14.5896 9.08676 14.3345 8.81375L13.8876 7.375H14.3758ZM7.42764 1.75H7.57388C7.83669 1.75053 8.09643 1.80647 8.33615 1.91416C8.57587 2.02185 8.7902 2.17888 8.96514 2.375H6.03638C6.21125 2.17879 6.42556 2.0217 6.6653 1.914C6.90504 1.8063 7.16481 1.75041 7.42764 1.75ZM3.17764 4.94375C3.29508 4.56101 3.5325 4.22619 3.85482 3.98873C4.17714 3.75126 4.56729 3.62374 4.96764 3.625H10.0339C10.4344 3.62365 10.8248 3.7512 11.1472 3.98879C11.4697 4.22639 11.7071 4.56142 11.8245 4.94438L12.782 8.02812C12.6889 8.01337 12.595 8.00398 12.5008 8H2.50076C2.40655 8.00398 2.31264 8.01337 2.21951 8.02812L3.17764 4.94375ZM3.75076 13.625C3.75076 13.7908 3.68491 13.9497 3.5677 14.0669C3.45049 14.1842 3.29152 14.25 3.12576 14.25C2.96 14.25 2.80103 14.1842 2.68382 14.0669C2.56661 13.9497 2.50076 13.7908 2.50076 13.625V13H3.75076V13.625ZM12.5008 13.625C12.5008 13.7908 12.4349 13.9497 12.3177 14.0669C12.2005 14.1842 12.0415 14.25 11.8758 14.25C11.71 14.25 11.551 14.1842 11.4338 14.0669C11.3166 13.9497 11.2508 13.7908 11.2508 13.625V13H12.5008V13.625ZM12.5008 11.75H2.50076C2.16924 11.75 1.8513 11.6183 1.61688 11.3839C1.38246 11.1495 1.25076 10.8315 1.25076 10.5C1.25076 10.1685 1.38246 9.85054 1.61688 9.61612C1.8513 9.3817 2.16924 9.25 2.50076 9.25V9.875C2.50076 10.0408 2.56661 10.1997 2.68382 10.3169C2.80103 10.4342 2.96 10.5 3.12576 10.5C3.29152 10.5 3.45049 10.4342 3.5677 10.3169C3.68491 10.1997 3.75076 10.0408 3.75076 9.875V9.25H11.2508V9.875C11.2508 10.0408 11.3166 10.1997 11.4338 10.3169C11.551 10.4342 11.71 10.5 11.8758 10.5C12.0415 10.5 12.2005 10.4342 12.3177 10.3169C12.4349 10.1997 12.5008 10.0408 12.5008 9.875V9.25C12.8323 9.25 13.1502 9.3817 13.3846 9.61612C13.6191 9.85054 13.7508 10.1685 13.7508 10.5C13.7508 10.8315 13.6191 11.1495 13.3846 11.3839C13.1502 11.6183 12.8323 11.75 12.5008 11.75Z" fill="black" fill-opacity="0.2"/>
<path d="M14.3758 7.375C14.5415 7.375 14.7005 7.30915 14.8177 7.19194C14.9349 7.07473 15.0008 6.91576 15.0008 6.75C15.0008 6.58424 14.9349 6.42527 14.8177 6.30806C14.7005 6.19085 14.5415 6.125 14.3758 6.125H13.5008L13.0195 4.57438C12.8438 4.00287 12.5067 3.49431 12.0488 3.10989C11.5908 2.72547 11.0316 2.48155 10.4383 2.4075C10.2011 1.84322 9.80299 1.36134 9.29354 1.02208C8.78409 0.682817 8.18596 0.501226 7.57388 0.5L7.42764 0.5C6.81556 0.501226 6.21743 0.682817 5.70798 1.02208C5.19853 1.36134 4.80037 1.84322 4.56326 2.4075C3.97026 2.48173 3.41132 2.72565 2.95363 3.10994C2.49594 3.49424 2.15898 4.00254 1.98326 4.57375L1.50076 6.125H0.62576C0.46 6.125 0.301029 6.19085 0.183819 6.30806C0.0666083 6.42527 0.000760244 6.58424 0.000760244 6.75C0.000760244 6.91576 0.0666083 7.07473 0.183819 7.19194C0.301029 7.30915 0.46 7.375 0.62576 7.375H1.11389L0.66701 8.8125C0.411679 9.08552 0.22154 9.41285 0.110881 9.7699C0.000220956 10.1269 -0.0280822 10.5044 0.0280978 10.874C0.0842777 11.2436 0.22348 11.5956 0.435245 11.9036C0.647011 12.2117 0.925832 12.4677 1.25076 12.6525V13.625C1.25076 14.1223 1.4483 14.5992 1.79994 14.9508C2.15157 15.3025 2.62848 15.5 3.12576 15.5C3.62304 15.5 4.09995 15.3025 4.45159 14.9508C4.80322 14.5992 5.00076 14.1223 5.00076 13.625V13H10.0008V13.625C10.0008 14.1223 10.1983 14.5992 10.5499 14.9508C10.9016 15.3025 11.3785 15.5 11.8758 15.5C12.373 15.5 12.85 15.3025 13.2016 14.9508C13.5532 14.5992 13.7508 14.1223 13.7508 13.625V12.6525C14.0755 12.4677 14.3541 12.2117 14.5657 11.9037C14.7774 11.5958 14.9165 11.2439 14.9726 10.8745C15.0288 10.5052 15.0006 10.1278 14.8901 9.77092C14.7795 9.414 14.5896 9.08676 14.3345 8.81375L13.8876 7.375H14.3758ZM7.42764 1.75H7.57388C7.83669 1.75053 8.09643 1.80647 8.33615 1.91416C8.57587 2.02185 8.7902 2.17888 8.96514 2.375H6.03638C6.21125 2.17879 6.42556 2.0217 6.6653 1.914C6.90504 1.8063 7.16481 1.75041 7.42764 1.75ZM3.17764 4.94375C3.29508 4.56101 3.5325 4.22619 3.85482 3.98873C4.17714 3.75126 4.56729 3.62374 4.96764 3.625H10.0339C10.4344 3.62365 10.8248 3.7512 11.1472 3.98879C11.4697 4.22639 11.7071 4.56142 11.8245 4.94438L12.782 8.02812C12.6889 8.01337 12.595 8.00398 12.5008 8H2.50076C2.40655 8.00398 2.31264 8.01337 2.21951 8.02812L3.17764 4.94375ZM3.75076 13.625C3.75076 13.7908 3.68491 13.9497 3.5677 14.0669C3.45049 14.1842 3.29152 14.25 3.12576 14.25C2.96 14.25 2.80103 14.1842 2.68382 14.0669C2.56661 13.9497 2.50076 13.7908 2.50076 13.625V13H3.75076V13.625ZM12.5008 13.625C12.5008 13.7908 12.4349 13.9497 12.3177 14.0669C12.2005 14.1842 12.0415 14.25 11.8758 14.25C11.71 14.25 11.551 14.1842 11.4338 14.0669C11.3166 13.9497 11.2508 13.7908 11.2508 13.625V13H12.5008V13.625ZM12.5008 11.75H2.50076C2.16924 11.75 1.8513 11.6183 1.61688 11.3839C1.38246 11.1495 1.25076 10.8315 1.25076 10.5C1.25076 10.1685 1.38246 9.85054 1.61688 9.61612C1.8513 9.3817 2.16924 9.25 2.50076 9.25V9.875C2.50076 10.0408 2.56661 10.1997 2.68382 10.3169C2.80103 10.4342 2.96 10.5 3.12576 10.5C3.29152 10.5 3.45049 10.4342 3.5677 10.3169C3.68491 10.1997 3.75076 10.0408 3.75076 9.875V9.25H11.2508V9.875C11.2508 10.0408 11.3166 10.1997 11.4338 10.3169C11.551 10.4342 11.71 10.5 11.8758 10.5C12.0415 10.5 12.2005 10.4342 12.3177 10.3169C12.4349 10.1997 12.5008 10.0408 12.5008 9.875V9.25C12.8323 9.25 13.1502 9.3817 13.3846 9.61612C13.6191 9.85054 13.7508 10.1685 13.7508 10.5C13.7508 10.8315 13.6191 11.1495 13.3846 11.3839C13.1502 11.6183 12.8323 11.75 12.5008 11.75Z" fill="black" fill-opacity="0.2"/>
<path d="M14.3758 7.375C14.5415 7.375 14.7005 7.30915 14.8177 7.19194C14.9349 7.07473 15.0008 6.91576 15.0008 6.75C15.0008 6.58424 14.9349 6.42527 14.8177 6.30806C14.7005 6.19085 14.5415 6.125 14.3758 6.125H13.5008L13.0195 4.57438C12.8438 4.00287 12.5067 3.49431 12.0488 3.10989C11.5908 2.72547 11.0316 2.48155 10.4383 2.4075C10.2011 1.84322 9.80299 1.36134 9.29354 1.02208C8.78409 0.682817 8.18596 0.501226 7.57388 0.5L7.42764 0.5C6.81556 0.501226 6.21743 0.682817 5.70798 1.02208C5.19853 1.36134 4.80037 1.84322 4.56326 2.4075C3.97026 2.48173 3.41132 2.72565 2.95363 3.10994C2.49594 3.49424 2.15898 4.00254 1.98326 4.57375L1.50076 6.125H0.62576C0.46 6.125 0.301029 6.19085 0.183819 6.30806C0.0666083 6.42527 0.000760244 6.58424 0.000760244 6.75C0.000760244 6.91576 0.0666083 7.07473 0.183819 7.19194C0.301029 7.30915 0.46 7.375 0.62576 7.375H1.11389L0.66701 8.8125C0.411679 9.08552 0.22154 9.41285 0.110881 9.7699C0.000220956 10.1269 -0.0280822 10.5044 0.0280978 10.874C0.0842777 11.2436 0.22348 11.5956 0.435245 11.9036C0.647011 12.2117 0.925832 12.4677 1.25076 12.6525V13.625C1.25076 14.1223 1.4483 14.5992 1.79994 14.9508C2.15157 15.3025 2.62848 15.5 3.12576 15.5C3.62304 15.5 4.09995 15.3025 4.45159 14.9508C4.80322 14.5992 5.00076 14.1223 5.00076 13.625V13H10.0008V13.625C10.0008 14.1223 10.1983 14.5992 10.5499 14.9508C10.9016 15.3025 11.3785 15.5 11.8758 15.5C12.373 15.5 12.85 15.3025 13.2016 14.9508C13.5532 14.5992 13.7508 14.1223 13.7508 13.625V12.6525C14.0755 12.4677 14.3541 12.2117 14.5657 11.9037C14.7774 11.5958 14.9165 11.2439 14.9726 10.8745C15.0288 10.5052 15.0006 10.1278 14.8901 9.77092C14.7795 9.414 14.5896 9.08676 14.3345 8.81375L13.8876 7.375H14.3758ZM7.42764 1.75H7.57388C7.83669 1.75053 8.09643 1.80647 8.33615 1.91416C8.57587 2.02185 8.7902 2.17888 8.96514 2.375H6.03638C6.21125 2.17879 6.42556 2.0217 6.6653 1.914C6.90504 1.8063 7.16481 1.75041 7.42764 1.75ZM3.17764 4.94375C3.29508 4.56101 3.5325 4.22619 3.85482 3.98873C4.17714 3.75126 4.56729 3.62374 4.96764 3.625H10.0339C10.4344 3.62365 10.8248 3.7512 11.1472 3.98879C11.4697 4.22639 11.7071 4.56142 11.8245 4.94438L12.782 8.02812C12.6889 8.01337 12.595 8.00398 12.5008 8H2.50076C2.40655 8.00398 2.31264 8.01337 2.21951 8.02812L3.17764 4.94375ZM3.75076 13.625C3.75076 13.7908 3.68491 13.9497 3.5677 14.0669C3.45049 14.1842 3.29152 14.25 3.12576 14.25C2.96 14.25 2.80103 14.1842 2.68382 14.0669C2.56661 13.9497 2.50076 13.7908 2.50076 13.625V13H3.75076V13.625ZM12.5008 13.625C12.5008 13.7908 12.4349 13.9497 12.3177 14.0669C12.2005 14.1842 12.0415 14.25 11.8758 14.25C11.71 14.25 11.551 14.1842 11.4338 14.0669C11.3166 13.9497 11.2508 13.7908 11.2508 13.625V13H12.5008V13.625ZM12.5008 11.75H2.50076C2.16924 11.75 1.8513 11.6183 1.61688 11.3839C1.38246 11.1495 1.25076 10.8315 1.25076 10.5C1.25076 10.1685 1.38246 9.85054 1.61688 9.61612C1.8513 9.3817 2.16924 9.25 2.50076 9.25V9.875C2.50076 10.0408 2.56661 10.1997 2.68382 10.3169C2.80103 10.4342 2.96 10.5 3.12576 10.5C3.29152 10.5 3.45049 10.4342 3.5677 10.3169C3.68491 10.1997 3.75076 10.0408 3.75076 9.875V9.25H11.2508V9.875C11.2508 10.0408 11.3166 10.1997 11.4338 10.3169C11.551 10.4342 11.71 10.5 11.8758 10.5C12.0415 10.5 12.2005 10.4342 12.3177 10.3169C12.4349 10.1997 12.5008 10.0408 12.5008 9.875V9.25C12.8323 9.25 13.1502 9.3817 13.3846 9.61612C13.6191 9.85054 13.7508 10.1685 13.7508 10.5C13.7508 10.8315 13.6191 11.1495 13.3846 11.3839C13.1502 11.6183 12.8323 11.75 12.5008 11.75Z" fill="black" fill-opacity="0.2"/>
<path d="M14.3758 7.375C14.5415 7.375 14.7005 7.30915 14.8177 7.19194C14.9349 7.07473 15.0008 6.91576 15.0008 6.75C15.0008 6.58424 14.9349 6.42527 14.8177 6.30806C14.7005 6.19085 14.5415 6.125 14.3758 6.125H13.5008L13.0195 4.57438C12.8438 4.00287 12.5067 3.49431 12.0488 3.10989C11.5908 2.72547 11.0316 2.48155 10.4383 2.4075C10.2011 1.84322 9.80299 1.36134 9.29354 1.02208C8.78409 0.682817 8.18596 0.501226 7.57388 0.5L7.42764 0.5C6.81556 0.501226 6.21743 0.682817 5.70798 1.02208C5.19853 1.36134 4.80037 1.84322 4.56326 2.4075C3.97026 2.48173 3.41132 2.72565 2.95363 3.10994C2.49594 3.49424 2.15898 4.00254 1.98326 4.57375L1.50076 6.125H0.62576C0.46 6.125 0.301029 6.19085 0.183819 6.30806C0.0666083 6.42527 0.000760244 6.58424 0.000760244 6.75C0.000760244 6.91576 0.0666083 7.07473 0.183819 7.19194C0.301029 7.30915 0.46 7.375 0.62576 7.375H1.11389L0.66701 8.8125C0.411679 9.08552 0.22154 9.41285 0.110881 9.7699C0.000220956 10.1269 -0.0280822 10.5044 0.0280978 10.874C0.0842777 11.2436 0.22348 11.5956 0.435245 11.9036C0.647011 12.2117 0.925832 12.4677 1.25076 12.6525V13.625C1.25076 14.1223 1.4483 14.5992 1.79994 14.9508C2.15157 15.3025 2.62848 15.5 3.12576 15.5C3.62304 15.5 4.09995 15.3025 4.45159 14.9508C4.80322 14.5992 5.00076 14.1223 5.00076 13.625V13H10.0008V13.625C10.0008 14.1223 10.1983 14.5992 10.5499 14.9508C10.9016 15.3025 11.3785 15.5 11.8758 15.5C12.373 15.5 12.85 15.3025 13.2016 14.9508C13.5532 14.5992 13.7508 14.1223 13.7508 13.625V12.6525C14.0755 12.4677 14.3541 12.2117 14.5657 11.9037C14.7774 11.5958 14.9165 11.2439 14.9726 10.8745C15.0288 10.5052 15.0006 10.1278 14.8901 9.77092C14.7795 9.414 14.5896 9.08676 14.3345 8.81375L13.8876 7.375H14.3758ZM7.42764 1.75H7.57388C7.83669 1.75053 8.09643 1.80647 8.33615 1.91416C8.57587 2.02185 8.7902 2.17888 8.96514 2.375H6.03638C6.21125 2.17879 6.42556 2.0217 6.6653 1.914C6.90504 1.8063 7.16481 1.75041 7.42764 1.75ZM3.17764 4.94375C3.29508 4.56101 3.5325 4.22619 3.85482 3.98873C4.17714 3.75126 4.56729 3.62374 4.96764 3.625H10.0339C10.4344 3.62365 10.8248 3.7512 11.1472 3.98879C11.4697 4.22639 11.7071 4.56142 11.8245 4.94438L12.782 8.02812C12.6889 8.01337 12.595 8.00398 12.5008 8H2.50076C2.40655 8.00398 2.31264 8.01337 2.21951 8.02812L3.17764 4.94375ZM3.75076 13.625C3.75076 13.7908 3.68491 13.9497 3.5677 14.0669C3.45049 14.1842 3.29152 14.25 3.12576 14.25C2.96 14.25 2.80103 14.1842 2.68382 14.0669C2.56661 13.9497 2.50076 13.7908 2.50076 13.625V13H3.75076V13.625ZM12.5008 13.625C12.5008 13.7908 12.4349 13.9497 12.3177 14.0669C12.2005 14.1842 12.0415 14.25 11.8758 14.25C11.71 14.25 11.551 14.1842 11.4338 14.0669C11.3166 13.9497 11.2508 13.7908 11.2508 13.625V13H12.5008V13.625ZM12.5008 11.75H2.50076C2.16924 11.75 1.8513 11.6183 1.61688 11.3839C1.38246 11.1495 1.25076 10.8315 1.25076 10.5C1.25076 10.1685 1.38246 9.85054 1.61688 9.61612C1.8513 9.3817 2.16924 9.25 2.50076 9.25V9.875C2.50076 10.0408 2.56661 10.1997 2.68382 10.3169C2.80103 10.4342 2.96 10.5 3.12576 10.5C3.29152 10.5 3.45049 10.4342 3.5677 10.3169C3.68491 10.1997 3.75076 10.0408 3.75076 9.875V9.25H11.2508V9.875C11.2508 10.0408 11.3166 10.1997 11.4338 10.3169C11.551 10.4342 11.71 10.5 11.8758 10.5C12.0415 10.5 12.2005 10.4342 12.3177 10.3169C12.4349 10.1997 12.5008 10.0408 12.5008 9.875V9.25C12.8323 9.25 13.1502 9.3817 13.3846 9.61612C13.6191 9.85054 13.7508 10.1685 13.7508 10.5C13.7508 10.8315 13.6191 11.1495 13.3846 11.3839C13.1502 11.6183 12.8323 11.75 12.5008 11.75Z" fill="black" fill-opacity="0.2"/>
<path d="M14.3758 7.375C14.5415 7.375 14.7005 7.30915 14.8177 7.19194C14.9349 7.07473 15.0008 6.91576 15.0008 6.75C15.0008 6.58424 14.9349 6.42527 14.8177 6.30806C14.7005 6.19085 14.5415 6.125 14.3758 6.125H13.5008L13.0195 4.57438C12.8438 4.00287 12.5067 3.49431 12.0488 3.10989C11.5908 2.72547 11.0316 2.48155 10.4383 2.4075C10.2011 1.84322 9.80299 1.36134 9.29354 1.02208C8.78409 0.682817 8.18596 0.501226 7.57388 0.5L7.42764 0.5C6.81556 0.501226 6.21743 0.682817 5.70798 1.02208C5.19853 1.36134 4.80037 1.84322 4.56326 2.4075C3.97026 2.48173 3.41132 2.72565 2.95363 3.10994C2.49594 3.49424 2.15898 4.00254 1.98326 4.57375L1.50076 6.125H0.62576C0.46 6.125 0.301029 6.19085 0.183819 6.30806C0.0666083 6.42527 0.000760244 6.58424 0.000760244 6.75C0.000760244 6.91576 0.0666083 7.07473 0.183819 7.19194C0.301029 7.30915 0.46 7.375 0.62576 7.375H1.11389L0.66701 8.8125C0.411679 9.08552 0.22154 9.41285 0.110881 9.7699C0.000220956 10.1269 -0.0280822 10.5044 0.0280978 10.874C0.0842777 11.2436 0.22348 11.5956 0.435245 11.9036C0.647011 12.2117 0.925832 12.4677 1.25076 12.6525V13.625C1.25076 14.1223 1.4483 14.5992 1.79994 14.9508C2.15157 15.3025 2.62848 15.5 3.12576 15.5C3.62304 15.5 4.09995 15.3025 4.45159 14.9508C4.80322 14.5992 5.00076 14.1223 5.00076 13.625V13H10.0008V13.625C10.0008 14.1223 10.1983 14.5992 10.5499 14.9508C10.9016 15.3025 11.3785 15.5 11.8758 15.5C12.373 15.5 12.85 15.3025 13.2016 14.9508C13.5532 14.5992 13.7508 14.1223 13.7508 13.625V12.6525C14.0755 12.4677 14.3541 12.2117 14.5657 11.9037C14.7774 11.5958 14.9165 11.2439 14.9726 10.8745C15.0288 10.5052 15.0006 10.1278 14.8901 9.77092C14.7795 9.414 14.5896 9.08676 14.3345 8.81375L13.8876 7.375H14.3758ZM7.42764 1.75H7.57388C7.83669 1.75053 8.09643 1.80647 8.33615 1.91416C8.57587 2.02185 8.7902 2.17888 8.96514 2.375H6.03638C6.21125 2.17879 6.42556 2.0217 6.6653 1.914C6.90504 1.8063 7.16481 1.75041 7.42764 1.75ZM3.17764 4.94375C3.29508 4.56101 3.5325 4.22619 3.85482 3.98873C4.17714 3.75126 4.56729 3.62374 4.96764 3.625H10.0339C10.4344 3.62365 10.8248 3.7512 11.1472 3.98879C11.4697 4.22639 11.7071 4.56142 11.8245 4.94438L12.782 8.02812C12.6889 8.01337 12.595 8.00398 12.5008 8H2.50076C2.40655 8.00398 2.31264 8.01337 2.21951 8.02812L3.17764 4.94375ZM3.75076 13.625C3.75076 13.7908 3.68491 13.9497 3.5677 14.0669C3.45049 14.1842 3.29152 14.25 3.12576 14.25C2.96 14.25 2.80103 14.1842 2.68382 14.0669C2.56661 13.9497 2.50076 13.7908 2.50076 13.625V13H3.75076V13.625ZM12.5008 13.625C12.5008 13.7908 12.4349 13.9497 12.3177 14.0669C12.2005 14.1842 12.0415 14.25 11.8758 14.25C11.71 14.25 11.551 14.1842 11.4338 14.0669C11.3166 13.9497 11.2508 13.7908 11.2508 13.625V13H12.5008V13.625ZM12.5008 11.75H2.50076C2.16924 11.75 1.8513 11.6183 1.61688 11.3839C1.38246 11.1495 1.25076 10.8315 1.25076 10.5C1.25076 10.1685 1.38246 9.85054 1.61688 9.61612C1.8513 9.3817 2.16924 9.25 2.50076 9.25V9.875C2.50076 10.0408 2.56661 10.1997 2.68382 10.3169C2.80103 10.4342 2.96 10.5 3.12576 10.5C3.29152 10.5 3.45049 10.4342 3.5677 10.3169C3.68491 10.1997 3.75076 10.0408 3.75076 9.875V9.25H11.2508V9.875C11.2508 10.0408 11.3166 10.1997 11.4338 10.3169C11.551 10.4342 11.71 10.5 11.8758 10.5C12.0415 10.5 12.2005 10.4342 12.3177 10.3169C12.4349 10.1997 12.5008 10.0408 12.5008 9.875V9.25C12.8323 9.25 13.1502 9.3817 13.3846 9.61612C13.6191 9.85054 13.7508 10.1685 13.7508 10.5C13.7508 10.8315 13.6191 11.1495 13.3846 11.3839C13.1502 11.6183 12.8323 11.75 12.5008 11.75Z" fill="black" fill-opacity="0.2"/>
<path d="M14.3758 7.375C14.5415 7.375 14.7005 7.30915 14.8177 7.19194C14.9349 7.07473 15.0008 6.91576 15.0008 6.75C15.0008 6.58424 14.9349 6.42527 14.8177 6.30806C14.7005 6.19085 14.5415 6.125 14.3758 6.125H13.5008L13.0195 4.57438C12.8438 4.00287 12.5067 3.49431 12.0488 3.10989C11.5908 2.72547 11.0316 2.48155 10.4383 2.4075C10.2011 1.84322 9.80299 1.36134 9.29354 1.02208C8.78409 0.682817 8.18596 0.501226 7.57388 0.5L7.42764 0.5C6.81556 0.501226 6.21743 0.682817 5.70798 1.02208C5.19853 1.36134 4.80037 1.84322 4.56326 2.4075C3.97026 2.48173 3.41132 2.72565 2.95363 3.10994C2.49594 3.49424 2.15898 4.00254 1.98326 4.57375L1.50076 6.125H0.62576C0.46 6.125 0.301029 6.19085 0.183819 6.30806C0.0666083 6.42527 0.000760244 6.58424 0.000760244 6.75C0.000760244 6.91576 0.0666083 7.07473 0.183819 7.19194C0.301029 7.30915 0.46 7.375 0.62576 7.375H1.11389L0.66701 8.8125C0.411679 9.08552 0.22154 9.41285 0.110881 9.7699C0.000220956 10.1269 -0.0280822 10.5044 0.0280978 10.874C0.0842777 11.2436 0.22348 11.5956 0.435245 11.9036C0.647011 12.2117 0.925832 12.4677 1.25076 12.6525V13.625C1.25076 14.1223 1.4483 14.5992 1.79994 14.9508C2.15157 15.3025 2.62848 15.5 3.12576 15.5C3.62304 15.5 4.09995 15.3025 4.45159 14.9508C4.80322 14.5992 5.00076 14.1223 5.00076 13.625V13H10.0008V13.625C10.0008 14.1223 10.1983 14.5992 10.5499 14.9508C10.9016 15.3025 11.3785 15.5 11.8758 15.5C12.373 15.5 12.85 15.3025 13.2016 14.9508C13.5532 14.5992 13.7508 14.1223 13.7508 13.625V12.6525C14.0755 12.4677 14.3541 12.2117 14.5657 11.9037C14.7774 11.5958 14.9165 11.2439 14.9726 10.8745C15.0288 10.5052 15.0006 10.1278 14.8901 9.77092C14.7795 9.414 14.5896 9.08676 14.3345 8.81375L13.8876 7.375H14.3758ZM7.42764 1.75H7.57388C7.83669 1.75053 8.09643 1.80647 8.33615 1.91416C8.57587 2.02185 8.7902 2.17888 8.96514 2.375H6.03638C6.21125 2.17879 6.42556 2.0217 6.6653 1.914C6.90504 1.8063 7.16481 1.75041 7.42764 1.75ZM3.17764 4.94375C3.29508 4.56101 3.5325 4.22619 3.85482 3.98873C4.17714 3.75126 4.56729 3.62374 4.96764 3.625H10.0339C10.4344 3.62365 10.8248 3.7512 11.1472 3.98879C11.4697 4.22639 11.7071 4.56142 11.8245 4.94438L12.782 8.02812C12.6889 8.01337 12.595 8.00398 12.5008 8H2.50076C2.40655 8.00398 2.31264 8.01337 2.21951 8.02812L3.17764 4.94375ZM3.75076 13.625C3.75076 13.7908 3.68491 13.9497 3.5677 14.0669C3.45049 14.1842 3.29152 14.25 3.12576 14.25C2.96 14.25 2.80103 14.1842 2.68382 14.0669C2.56661 13.9497 2.50076 13.7908 2.50076 13.625V13H3.75076V13.625ZM12.5008 13.625C12.5008 13.7908 12.4349 13.9497 12.3177 14.0669C12.2005 14.1842 12.0415 14.25 11.8758 14.25C11.71 14.25 11.551 14.1842 11.4338 14.0669C11.3166 13.9497 11.2508 13.7908 11.2508 13.625V13H12.5008V13.625ZM12.5008 11.75H2.50076C2.16924 11.75 1.8513 11.6183 1.61688 11.3839C1.38246 11.1495 1.25076 10.8315 1.25076 10.5C1.25076 10.1685 1.38246 9.85054 1.61688 9.61612C1.8513 9.3817 2.16924 9.25 2.50076 9.25V9.875C2.50076 10.0408 2.56661 10.1997 2.68382 10.3169C2.80103 10.4342 2.96 10.5 3.12576 10.5C3.29152 10.5 3.45049 10.4342 3.5677 10.3169C3.68491 10.1997 3.75076 10.0408 3.75076 9.875V9.25H11.2508V9.875C11.2508 10.0408 11.3166 10.1997 11.4338 10.3169C11.551 10.4342 11.71 10.5 11.8758 10.5C12.0415 10.5 12.2005 10.4342 12.3177 10.3169C12.4349 10.1997 12.5008 10.0408 12.5008 9.875V9.25C12.8323 9.25 13.1502 9.3817 13.3846 9.61612C13.6191 9.85054 13.7508 10.1685 13.7508 10.5C13.7508 10.8315 13.6191 11.1495 13.3846 11.3839C13.1502 11.6183 12.8323 11.75 12.5008 11.75Z" fill="black" fill-opacity="0.2"/>
</g>
<defs>
<clipPath id="clip0_6765_4051">
<rect width="15" height="15" fill="white" transform="translate(0 0.5)"/>
</clipPath>
</defs>
</svg>
