<svg width="15" height="16" viewBox="0 0 15 16" fill="none" xmlns="http://www.w3.org/2000/svg">
<g clip-path="url(#clip0_7243_39304)">
<path d="M7.5 8C8.24168 8 8.9667 7.78007 9.58339 7.36801C10.2001 6.95596 10.6807 6.37029 10.9645 5.68506C11.2484 4.99984 11.3226 4.24584 11.1779 3.51841C11.0333 2.79098 10.6761 2.1228 10.1517 1.59835C9.6272 1.0739 8.95902 0.716751 8.23159 0.572057C7.50416 0.427362 6.75016 0.501625 6.06494 0.785453C5.37971 1.06928 4.79404 1.54993 4.38199 2.16661C3.96993 2.7833 3.75 3.50832 3.75 4.25C3.75099 5.24426 4.1464 6.19751 4.84945 6.90056C5.55249 7.6036 6.50574 7.99901 7.5 8ZM7.5 1.75C7.99445 1.75 8.4778 1.89662 8.88893 2.17133C9.30005 2.44603 9.62048 2.83648 9.8097 3.29329C9.99892 3.75011 10.0484 4.25277 9.95196 4.73773C9.8555 5.22268 9.6174 5.66814 9.26777 6.01777C8.91814 6.3674 8.47268 6.6055 7.98773 6.70197C7.50277 6.79843 7.00011 6.74892 6.54329 6.5597C6.08648 6.37048 5.69603 6.05005 5.42133 5.63893C5.14662 5.2278 5 4.74445 5 4.25C5 3.58696 5.26339 2.95108 5.73223 2.48223C6.20107 2.01339 6.83696 1.75 7.5 1.75Z" fill="#1E1E1E"/>
<path d="M7.5 8C8.24168 8 8.9667 7.78007 9.58339 7.36801C10.2001 6.95596 10.6807 6.37029 10.9645 5.68506C11.2484 4.99984 11.3226 4.24584 11.1779 3.51841C11.0333 2.79098 10.6761 2.1228 10.1517 1.59835C9.6272 1.0739 8.95902 0.716751 8.23159 0.572057C7.50416 0.427362 6.75016 0.501625 6.06494 0.785453C5.37971 1.06928 4.79404 1.54993 4.38199 2.16661C3.96993 2.7833 3.75 3.50832 3.75 4.25C3.75099 5.24426 4.1464 6.19751 4.84945 6.90056C5.55249 7.6036 6.50574 7.99901 7.5 8ZM7.5 1.75C7.99445 1.75 8.4778 1.89662 8.88893 2.17133C9.30005 2.44603 9.62048 2.83648 9.8097 3.29329C9.99892 3.75011 10.0484 4.25277 9.95196 4.73773C9.8555 5.22268 9.6174 5.66814 9.26777 6.01777C8.91814 6.3674 8.47268 6.6055 7.98773 6.70197C7.50277 6.79843 7.00011 6.74892 6.54329 6.5597C6.08648 6.37048 5.69603 6.05005 5.42133 5.63893C5.14662 5.2278 5 4.74445 5 4.25C5 3.58696 5.26339 2.95108 5.73223 2.48223C6.20107 2.01339 6.83696 1.75 7.5 1.75Z" fill="black" fill-opacity="0.2"/>
<path d="M7.5 8C8.24168 8 8.9667 7.78007 9.58339 7.36801C10.2001 6.95596 10.6807 6.37029 10.9645 5.68506C11.2484 4.99984 11.3226 4.24584 11.1779 3.51841C11.0333 2.79098 10.6761 2.1228 10.1517 1.59835C9.6272 1.0739 8.95902 0.716751 8.23159 0.572057C7.50416 0.427362 6.75016 0.501625 6.06494 0.785453C5.37971 1.06928 4.79404 1.54993 4.38199 2.16661C3.96993 2.7833 3.75 3.50832 3.75 4.25C3.75099 5.24426 4.1464 6.19751 4.84945 6.90056C5.55249 7.6036 6.50574 7.99901 7.5 8ZM7.5 1.75C7.99445 1.75 8.4778 1.89662 8.88893 2.17133C9.30005 2.44603 9.62048 2.83648 9.8097 3.29329C9.99892 3.75011 10.0484 4.25277 9.95196 4.73773C9.8555 5.22268 9.6174 5.66814 9.26777 6.01777C8.91814 6.3674 8.47268 6.6055 7.98773 6.70197C7.50277 6.79843 7.00011 6.74892 6.54329 6.5597C6.08648 6.37048 5.69603 6.05005 5.42133 5.63893C5.14662 5.2278 5 4.74445 5 4.25C5 3.58696 5.26339 2.95108 5.73223 2.48223C6.20107 2.01339 6.83696 1.75 7.5 1.75Z" fill="black" fill-opacity="0.2"/>
<path d="M7.5 8C8.24168 8 8.9667 7.78007 9.58339 7.36801C10.2001 6.95596 10.6807 6.37029 10.9645 5.68506C11.2484 4.99984 11.3226 4.24584 11.1779 3.51841C11.0333 2.79098 10.6761 2.1228 10.1517 1.59835C9.6272 1.0739 8.95902 0.716751 8.23159 0.572057C7.50416 0.427362 6.75016 0.501625 6.06494 0.785453C5.37971 1.06928 4.79404 1.54993 4.38199 2.16661C3.96993 2.7833 3.75 3.50832 3.75 4.25C3.75099 5.24426 4.1464 6.19751 4.84945 6.90056C5.55249 7.6036 6.50574 7.99901 7.5 8ZM7.5 1.75C7.99445 1.75 8.4778 1.89662 8.88893 2.17133C9.30005 2.44603 9.62048 2.83648 9.8097 3.29329C9.99892 3.75011 10.0484 4.25277 9.95196 4.73773C9.8555 5.22268 9.6174 5.66814 9.26777 6.01777C8.91814 6.3674 8.47268 6.6055 7.98773 6.70197C7.50277 6.79843 7.00011 6.74892 6.54329 6.5597C6.08648 6.37048 5.69603 6.05005 5.42133 5.63893C5.14662 5.2278 5 4.74445 5 4.25C5 3.58696 5.26339 2.95108 5.73223 2.48223C6.20107 2.01339 6.83696 1.75 7.5 1.75Z" fill="black" fill-opacity="0.2"/>
<path d="M7.5 8C8.24168 8 8.9667 7.78007 9.58339 7.36801C10.2001 6.95596 10.6807 6.37029 10.9645 5.68506C11.2484 4.99984 11.3226 4.24584 11.1779 3.51841C11.0333 2.79098 10.6761 2.1228 10.1517 1.59835C9.6272 1.0739 8.95902 0.716751 8.23159 0.572057C7.50416 0.427362 6.75016 0.501625 6.06494 0.785453C5.37971 1.06928 4.79404 1.54993 4.38199 2.16661C3.96993 2.7833 3.75 3.50832 3.75 4.25C3.75099 5.24426 4.1464 6.19751 4.84945 6.90056C5.55249 7.6036 6.50574 7.99901 7.5 8ZM7.5 1.75C7.99445 1.75 8.4778 1.89662 8.88893 2.17133C9.30005 2.44603 9.62048 2.83648 9.8097 3.29329C9.99892 3.75011 10.0484 4.25277 9.95196 4.73773C9.8555 5.22268 9.6174 5.66814 9.26777 6.01777C8.91814 6.3674 8.47268 6.6055 7.98773 6.70197C7.50277 6.79843 7.00011 6.74892 6.54329 6.5597C6.08648 6.37048 5.69603 6.05005 5.42133 5.63893C5.14662 5.2278 5 4.74445 5 4.25C5 3.58696 5.26339 2.95108 5.73223 2.48223C6.20107 2.01339 6.83696 1.75 7.5 1.75Z" fill="black" fill-opacity="0.2"/>
<path d="M7.5 8C8.24168 8 8.9667 7.78007 9.58339 7.36801C10.2001 6.95596 10.6807 6.37029 10.9645 5.68506C11.2484 4.99984 11.3226 4.24584 11.1779 3.51841C11.0333 2.79098 10.6761 2.1228 10.1517 1.59835C9.6272 1.0739 8.95902 0.716751 8.23159 0.572057C7.50416 0.427362 6.75016 0.501625 6.06494 0.785453C5.37971 1.06928 4.79404 1.54993 4.38199 2.16661C3.96993 2.7833 3.75 3.50832 3.75 4.25C3.75099 5.24426 4.1464 6.19751 4.84945 6.90056C5.55249 7.6036 6.50574 7.99901 7.5 8ZM7.5 1.75C7.99445 1.75 8.4778 1.89662 8.88893 2.17133C9.30005 2.44603 9.62048 2.83648 9.8097 3.29329C9.99892 3.75011 10.0484 4.25277 9.95196 4.73773C9.8555 5.22268 9.6174 5.66814 9.26777 6.01777C8.91814 6.3674 8.47268 6.6055 7.98773 6.70197C7.50277 6.79843 7.00011 6.74892 6.54329 6.5597C6.08648 6.37048 5.69603 6.05005 5.42133 5.63893C5.14662 5.2278 5 4.74445 5 4.25C5 3.58696 5.26339 2.95108 5.73223 2.48223C6.20107 2.01339 6.83696 1.75 7.5 1.75Z" fill="black" fill-opacity="0.2"/>
<path d="M7.5 8C8.24168 8 8.9667 7.78007 9.58339 7.36801C10.2001 6.95596 10.6807 6.37029 10.9645 5.68506C11.2484 4.99984 11.3226 4.24584 11.1779 3.51841C11.0333 2.79098 10.6761 2.1228 10.1517 1.59835C9.6272 1.0739 8.95902 0.716751 8.23159 0.572057C7.50416 0.427362 6.75016 0.501625 6.06494 0.785453C5.37971 1.06928 4.79404 1.54993 4.38199 2.16661C3.96993 2.7833 3.75 3.50832 3.75 4.25C3.75099 5.24426 4.1464 6.19751 4.84945 6.90056C5.55249 7.6036 6.50574 7.99901 7.5 8ZM7.5 1.75C7.99445 1.75 8.4778 1.89662 8.88893 2.17133C9.30005 2.44603 9.62048 2.83648 9.8097 3.29329C9.99892 3.75011 10.0484 4.25277 9.95196 4.73773C9.8555 5.22268 9.6174 5.66814 9.26777 6.01777C8.91814 6.3674 8.47268 6.6055 7.98773 6.70197C7.50277 6.79843 7.00011 6.74892 6.54329 6.5597C6.08648 6.37048 5.69603 6.05005 5.42133 5.63893C5.14662 5.2278 5 4.74445 5 4.25C5 3.58696 5.26339 2.95108 5.73223 2.48223C6.20107 2.01339 6.83696 1.75 7.5 1.75Z" fill="black" fill-opacity="0.2"/>
<path d="M7.5 8C8.24168 8 8.9667 7.78007 9.58339 7.36801C10.2001 6.95596 10.6807 6.37029 10.9645 5.68506C11.2484 4.99984 11.3226 4.24584 11.1779 3.51841C11.0333 2.79098 10.6761 2.1228 10.1517 1.59835C9.6272 1.0739 8.95902 0.716751 8.23159 0.572057C7.50416 0.427362 6.75016 0.501625 6.06494 0.785453C5.37971 1.06928 4.79404 1.54993 4.38199 2.16661C3.96993 2.7833 3.75 3.50832 3.75 4.25C3.75099 5.24426 4.1464 6.19751 4.84945 6.90056C5.55249 7.6036 6.50574 7.99901 7.5 8ZM7.5 1.75C7.99445 1.75 8.4778 1.89662 8.88893 2.17133C9.30005 2.44603 9.62048 2.83648 9.8097 3.29329C9.99892 3.75011 10.0484 4.25277 9.95196 4.73773C9.8555 5.22268 9.6174 5.66814 9.26777 6.01777C8.91814 6.3674 8.47268 6.6055 7.98773 6.70197C7.50277 6.79843 7.00011 6.74892 6.54329 6.5597C6.08648 6.37048 5.69603 6.05005 5.42133 5.63893C5.14662 5.2278 5 4.74445 5 4.25C5 3.58696 5.26339 2.95108 5.73223 2.48223C6.20107 2.01339 6.83696 1.75 7.5 1.75Z" fill="black" fill-opacity="0.2"/>
<path d="M7.5 8C8.24168 8 8.9667 7.78007 9.58339 7.36801C10.2001 6.95596 10.6807 6.37029 10.9645 5.68506C11.2484 4.99984 11.3226 4.24584 11.1779 3.51841C11.0333 2.79098 10.6761 2.1228 10.1517 1.59835C9.6272 1.0739 8.95902 0.716751 8.23159 0.572057C7.50416 0.427362 6.75016 0.501625 6.06494 0.785453C5.37971 1.06928 4.79404 1.54993 4.38199 2.16661C3.96993 2.7833 3.75 3.50832 3.75 4.25C3.75099 5.24426 4.1464 6.19751 4.84945 6.90056C5.55249 7.6036 6.50574 7.99901 7.5 8ZM7.5 1.75C7.99445 1.75 8.4778 1.89662 8.88893 2.17133C9.30005 2.44603 9.62048 2.83648 9.8097 3.29329C9.99892 3.75011 10.0484 4.25277 9.95196 4.73773C9.8555 5.22268 9.6174 5.66814 9.26777 6.01777C8.91814 6.3674 8.47268 6.6055 7.98773 6.70197C7.50277 6.79843 7.00011 6.74892 6.54329 6.5597C6.08648 6.37048 5.69603 6.05005 5.42133 5.63893C5.14662 5.2278 5 4.74445 5 4.25C5 3.58696 5.26339 2.95108 5.73223 2.48223C6.20107 2.01339 6.83696 1.75 7.5 1.75Z" fill="black" fill-opacity="0.2"/>
<path d="M7.5 8C8.24168 8 8.9667 7.78007 9.58339 7.36801C10.2001 6.95596 10.6807 6.37029 10.9645 5.68506C11.2484 4.99984 11.3226 4.24584 11.1779 3.51841C11.0333 2.79098 10.6761 2.1228 10.1517 1.59835C9.6272 1.0739 8.95902 0.716751 8.23159 0.572057C7.50416 0.427362 6.75016 0.501625 6.06494 0.785453C5.37971 1.06928 4.79404 1.54993 4.38199 2.16661C3.96993 2.7833 3.75 3.50832 3.75 4.25C3.75099 5.24426 4.1464 6.19751 4.84945 6.90056C5.55249 7.6036 6.50574 7.99901 7.5 8ZM7.5 1.75C7.99445 1.75 8.4778 1.89662 8.88893 2.17133C9.30005 2.44603 9.62048 2.83648 9.8097 3.29329C9.99892 3.75011 10.0484 4.25277 9.95196 4.73773C9.8555 5.22268 9.6174 5.66814 9.26777 6.01777C8.91814 6.3674 8.47268 6.6055 7.98773 6.70197C7.50277 6.79843 7.00011 6.74892 6.54329 6.5597C6.08648 6.37048 5.69603 6.05005 5.42133 5.63893C5.14662 5.2278 5 4.74445 5 4.25C5 3.58696 5.26339 2.95108 5.73223 2.48223C6.20107 2.01339 6.83696 1.75 7.5 1.75Z" fill="black" fill-opacity="0.2"/>
<path d="M7.5 8C8.24168 8 8.9667 7.78007 9.58339 7.36801C10.2001 6.95596 10.6807 6.37029 10.9645 5.68506C11.2484 4.99984 11.3226 4.24584 11.1779 3.51841C11.0333 2.79098 10.6761 2.1228 10.1517 1.59835C9.6272 1.0739 8.95902 0.716751 8.23159 0.572057C7.50416 0.427362 6.75016 0.501625 6.06494 0.785453C5.37971 1.06928 4.79404 1.54993 4.38199 2.16661C3.96993 2.7833 3.75 3.50832 3.75 4.25C3.75099 5.24426 4.1464 6.19751 4.84945 6.90056C5.55249 7.6036 6.50574 7.99901 7.5 8ZM7.5 1.75C7.99445 1.75 8.4778 1.89662 8.88893 2.17133C9.30005 2.44603 9.62048 2.83648 9.8097 3.29329C9.99892 3.75011 10.0484 4.25277 9.95196 4.73773C9.8555 5.22268 9.6174 5.66814 9.26777 6.01777C8.91814 6.3674 8.47268 6.6055 7.98773 6.70197C7.50277 6.79843 7.00011 6.74892 6.54329 6.5597C6.08648 6.37048 5.69603 6.05005 5.42133 5.63893C5.14662 5.2278 5 4.74445 5 4.25C5 3.58696 5.26339 2.95108 5.73223 2.48223C6.20107 2.01339 6.83696 1.75 7.5 1.75Z" fill="black" fill-opacity="0.2"/>
<path d="M7.5 8C8.24168 8 8.9667 7.78007 9.58339 7.36801C10.2001 6.95596 10.6807 6.37029 10.9645 5.68506C11.2484 4.99984 11.3226 4.24584 11.1779 3.51841C11.0333 2.79098 10.6761 2.1228 10.1517 1.59835C9.6272 1.0739 8.95902 0.716751 8.23159 0.572057C7.50416 0.427362 6.75016 0.501625 6.06494 0.785453C5.37971 1.06928 4.79404 1.54993 4.38199 2.16661C3.96993 2.7833 3.75 3.50832 3.75 4.25C3.75099 5.24426 4.1464 6.19751 4.84945 6.90056C5.55249 7.6036 6.50574 7.99901 7.5 8ZM7.5 1.75C7.99445 1.75 8.4778 1.89662 8.88893 2.17133C9.30005 2.44603 9.62048 2.83648 9.8097 3.29329C9.99892 3.75011 10.0484 4.25277 9.95196 4.73773C9.8555 5.22268 9.6174 5.66814 9.26777 6.01777C8.91814 6.3674 8.47268 6.6055 7.98773 6.70197C7.50277 6.79843 7.00011 6.74892 6.54329 6.5597C6.08648 6.37048 5.69603 6.05005 5.42133 5.63893C5.14662 5.2278 5 4.74445 5 4.25C5 3.58696 5.26339 2.95108 5.73223 2.48223C6.20107 2.01339 6.83696 1.75 7.5 1.75Z" fill="black" fill-opacity="0.2"/>
<path d="M7.5 8C8.24168 8 8.9667 7.78007 9.58339 7.36801C10.2001 6.95596 10.6807 6.37029 10.9645 5.68506C11.2484 4.99984 11.3226 4.24584 11.1779 3.51841C11.0333 2.79098 10.6761 2.1228 10.1517 1.59835C9.6272 1.0739 8.95902 0.716751 8.23159 0.572057C7.50416 0.427362 6.75016 0.501625 6.06494 0.785453C5.37971 1.06928 4.79404 1.54993 4.38199 2.16661C3.96993 2.7833 3.75 3.50832 3.75 4.25C3.75099 5.24426 4.1464 6.19751 4.84945 6.90056C5.55249 7.6036 6.50574 7.99901 7.5 8ZM7.5 1.75C7.99445 1.75 8.4778 1.89662 8.88893 2.17133C9.30005 2.44603 9.62048 2.83648 9.8097 3.29329C9.99892 3.75011 10.0484 4.25277 9.95196 4.73773C9.8555 5.22268 9.6174 5.66814 9.26777 6.01777C8.91814 6.3674 8.47268 6.6055 7.98773 6.70197C7.50277 6.79843 7.00011 6.74892 6.54329 6.5597C6.08648 6.37048 5.69603 6.05005 5.42133 5.63893C5.14662 5.2278 5 4.74445 5 4.25C5 3.58696 5.26339 2.95108 5.73223 2.48223C6.20107 2.01339 6.83696 1.75 7.5 1.75Z" fill="black" fill-opacity="0.2"/>
<path d="M7.5 8C8.24168 8 8.9667 7.78007 9.58339 7.36801C10.2001 6.95596 10.6807 6.37029 10.9645 5.68506C11.2484 4.99984 11.3226 4.24584 11.1779 3.51841C11.0333 2.79098 10.6761 2.1228 10.1517 1.59835C9.6272 1.0739 8.95902 0.716751 8.23159 0.572057C7.50416 0.427362 6.75016 0.501625 6.06494 0.785453C5.37971 1.06928 4.79404 1.54993 4.38199 2.16661C3.96993 2.7833 3.75 3.50832 3.75 4.25C3.75099 5.24426 4.1464 6.19751 4.84945 6.90056C5.55249 7.6036 6.50574 7.99901 7.5 8ZM7.5 1.75C7.99445 1.75 8.4778 1.89662 8.88893 2.17133C9.30005 2.44603 9.62048 2.83648 9.8097 3.29329C9.99892 3.75011 10.0484 4.25277 9.95196 4.73773C9.8555 5.22268 9.6174 5.66814 9.26777 6.01777C8.91814 6.3674 8.47268 6.6055 7.98773 6.70197C7.50277 6.79843 7.00011 6.74892 6.54329 6.5597C6.08648 6.37048 5.69603 6.05005 5.42133 5.63893C5.14662 5.2278 5 4.74445 5 4.25C5 3.58696 5.26339 2.95108 5.73223 2.48223C6.20107 2.01339 6.83696 1.75 7.5 1.75Z" fill="black" fill-opacity="0.2"/>
<path d="M7.5 8C8.24168 8 8.9667 7.78007 9.58339 7.36801C10.2001 6.95596 10.6807 6.37029 10.9645 5.68506C11.2484 4.99984 11.3226 4.24584 11.1779 3.51841C11.0333 2.79098 10.6761 2.1228 10.1517 1.59835C9.6272 1.0739 8.95902 0.716751 8.23159 0.572057C7.50416 0.427362 6.75016 0.501625 6.06494 0.785453C5.37971 1.06928 4.79404 1.54993 4.38199 2.16661C3.96993 2.7833 3.75 3.50832 3.75 4.25C3.75099 5.24426 4.1464 6.19751 4.84945 6.90056C5.55249 7.6036 6.50574 7.99901 7.5 8ZM7.5 1.75C7.99445 1.75 8.4778 1.89662 8.88893 2.17133C9.30005 2.44603 9.62048 2.83648 9.8097 3.29329C9.99892 3.75011 10.0484 4.25277 9.95196 4.73773C9.8555 5.22268 9.6174 5.66814 9.26777 6.01777C8.91814 6.3674 8.47268 6.6055 7.98773 6.70197C7.50277 6.79843 7.00011 6.74892 6.54329 6.5597C6.08648 6.37048 5.69603 6.05005 5.42133 5.63893C5.14662 5.2278 5 4.74445 5 4.25C5 3.58696 5.26339 2.95108 5.73223 2.48223C6.20107 2.01339 6.83696 1.75 7.5 1.75Z" fill="black" fill-opacity="0.2"/>
<path d="M7.5 8C8.24168 8 8.9667 7.78007 9.58339 7.36801C10.2001 6.95596 10.6807 6.37029 10.9645 5.68506C11.2484 4.99984 11.3226 4.24584 11.1779 3.51841C11.0333 2.79098 10.6761 2.1228 10.1517 1.59835C9.6272 1.0739 8.95902 0.716751 8.23159 0.572057C7.50416 0.427362 6.75016 0.501625 6.06494 0.785453C5.37971 1.06928 4.79404 1.54993 4.38199 2.16661C3.96993 2.7833 3.75 3.50832 3.75 4.25C3.75099 5.24426 4.1464 6.19751 4.84945 6.90056C5.55249 7.6036 6.50574 7.99901 7.5 8ZM7.5 1.75C7.99445 1.75 8.4778 1.89662 8.88893 2.17133C9.30005 2.44603 9.62048 2.83648 9.8097 3.29329C9.99892 3.75011 10.0484 4.25277 9.95196 4.73773C9.8555 5.22268 9.6174 5.66814 9.26777 6.01777C8.91814 6.3674 8.47268 6.6055 7.98773 6.70197C7.50277 6.79843 7.00011 6.74892 6.54329 6.5597C6.08648 6.37048 5.69603 6.05005 5.42133 5.63893C5.14662 5.2278 5 4.74445 5 4.25C5 3.58696 5.26339 2.95108 5.73223 2.48223C6.20107 2.01339 6.83696 1.75 7.5 1.75Z" fill="black" fill-opacity="0.2"/>
<path d="M7.5 8C8.24168 8 8.9667 7.78007 9.58339 7.36801C10.2001 6.95596 10.6807 6.37029 10.9645 5.68506C11.2484 4.99984 11.3226 4.24584 11.1779 3.51841C11.0333 2.79098 10.6761 2.1228 10.1517 1.59835C9.6272 1.0739 8.95902 0.716751 8.23159 0.572057C7.50416 0.427362 6.75016 0.501625 6.06494 0.785453C5.37971 1.06928 4.79404 1.54993 4.38199 2.16661C3.96993 2.7833 3.75 3.50832 3.75 4.25C3.75099 5.24426 4.1464 6.19751 4.84945 6.90056C5.55249 7.6036 6.50574 7.99901 7.5 8ZM7.5 1.75C7.99445 1.75 8.4778 1.89662 8.88893 2.17133C9.30005 2.44603 9.62048 2.83648 9.8097 3.29329C9.99892 3.75011 10.0484 4.25277 9.95196 4.73773C9.8555 5.22268 9.6174 5.66814 9.26777 6.01777C8.91814 6.3674 8.47268 6.6055 7.98773 6.70197C7.50277 6.79843 7.00011 6.74892 6.54329 6.5597C6.08648 6.37048 5.69603 6.05005 5.42133 5.63893C5.14662 5.2278 5 4.74445 5 4.25C5 3.58696 5.26339 2.95108 5.73223 2.48223C6.20107 2.01339 6.83696 1.75 7.5 1.75Z" fill="black" fill-opacity="0.2"/>
<path d="M7.5 8C8.24168 8 8.9667 7.78007 9.58339 7.36801C10.2001 6.95596 10.6807 6.37029 10.9645 5.68506C11.2484 4.99984 11.3226 4.24584 11.1779 3.51841C11.0333 2.79098 10.6761 2.1228 10.1517 1.59835C9.6272 1.0739 8.95902 0.716751 8.23159 0.572057C7.50416 0.427362 6.75016 0.501625 6.06494 0.785453C5.37971 1.06928 4.79404 1.54993 4.38199 2.16661C3.96993 2.7833 3.75 3.50832 3.75 4.25C3.75099 5.24426 4.1464 6.19751 4.84945 6.90056C5.55249 7.6036 6.50574 7.99901 7.5 8ZM7.5 1.75C7.99445 1.75 8.4778 1.89662 8.88893 2.17133C9.30005 2.44603 9.62048 2.83648 9.8097 3.29329C9.99892 3.75011 10.0484 4.25277 9.95196 4.73773C9.8555 5.22268 9.6174 5.66814 9.26777 6.01777C8.91814 6.3674 8.47268 6.6055 7.98773 6.70197C7.50277 6.79843 7.00011 6.74892 6.54329 6.5597C6.08648 6.37048 5.69603 6.05005 5.42133 5.63893C5.14662 5.2278 5 4.74445 5 4.25C5 3.58696 5.26339 2.95108 5.73223 2.48223C6.20107 2.01339 6.83696 1.75 7.5 1.75Z" fill="black" fill-opacity="0.2"/>
<path d="M7.5 8C8.24168 8 8.9667 7.78007 9.58339 7.36801C10.2001 6.95596 10.6807 6.37029 10.9645 5.68506C11.2484 4.99984 11.3226 4.24584 11.1779 3.51841C11.0333 2.79098 10.6761 2.1228 10.1517 1.59835C9.6272 1.0739 8.95902 0.716751 8.23159 0.572057C7.50416 0.427362 6.75016 0.501625 6.06494 0.785453C5.37971 1.06928 4.79404 1.54993 4.38199 2.16661C3.96993 2.7833 3.75 3.50832 3.75 4.25C3.75099 5.24426 4.1464 6.19751 4.84945 6.90056C5.55249 7.6036 6.50574 7.99901 7.5 8ZM7.5 1.75C7.99445 1.75 8.4778 1.89662 8.88893 2.17133C9.30005 2.44603 9.62048 2.83648 9.8097 3.29329C9.99892 3.75011 10.0484 4.25277 9.95196 4.73773C9.8555 5.22268 9.6174 5.66814 9.26777 6.01777C8.91814 6.3674 8.47268 6.6055 7.98773 6.70197C7.50277 6.79843 7.00011 6.74892 6.54329 6.5597C6.08648 6.37048 5.69603 6.05005 5.42133 5.63893C5.14662 5.2278 5 4.74445 5 4.25C5 3.58696 5.26339 2.95108 5.73223 2.48223C6.20107 2.01339 6.83696 1.75 7.5 1.75Z" fill="black" fill-opacity="0.2"/>
<path d="M7.5 8C8.24168 8 8.9667 7.78007 9.58339 7.36801C10.2001 6.95596 10.6807 6.37029 10.9645 5.68506C11.2484 4.99984 11.3226 4.24584 11.1779 3.51841C11.0333 2.79098 10.6761 2.1228 10.1517 1.59835C9.6272 1.0739 8.95902 0.716751 8.23159 0.572057C7.50416 0.427362 6.75016 0.501625 6.06494 0.785453C5.37971 1.06928 4.79404 1.54993 4.38199 2.16661C3.96993 2.7833 3.75 3.50832 3.75 4.25C3.75099 5.24426 4.1464 6.19751 4.84945 6.90056C5.55249 7.6036 6.50574 7.99901 7.5 8ZM7.5 1.75C7.99445 1.75 8.4778 1.89662 8.88893 2.17133C9.30005 2.44603 9.62048 2.83648 9.8097 3.29329C9.99892 3.75011 10.0484 4.25277 9.95196 4.73773C9.8555 5.22268 9.6174 5.66814 9.26777 6.01777C8.91814 6.3674 8.47268 6.6055 7.98773 6.70197C7.50277 6.79843 7.00011 6.74892 6.54329 6.5597C6.08648 6.37048 5.69603 6.05005 5.42133 5.63893C5.14662 5.2278 5 4.74445 5 4.25C5 3.58696 5.26339 2.95108 5.73223 2.48223C6.20107 2.01339 6.83696 1.75 7.5 1.75Z" fill="black" fill-opacity="0.2"/>
<path d="M7.5 8C8.24168 8 8.9667 7.78007 9.58339 7.36801C10.2001 6.95596 10.6807 6.37029 10.9645 5.68506C11.2484 4.99984 11.3226 4.24584 11.1779 3.51841C11.0333 2.79098 10.6761 2.1228 10.1517 1.59835C9.6272 1.0739 8.95902 0.716751 8.23159 0.572057C7.50416 0.427362 6.75016 0.501625 6.06494 0.785453C5.37971 1.06928 4.79404 1.54993 4.38199 2.16661C3.96993 2.7833 3.75 3.50832 3.75 4.25C3.75099 5.24426 4.1464 6.19751 4.84945 6.90056C5.55249 7.6036 6.50574 7.99901 7.5 8ZM7.5 1.75C7.99445 1.75 8.4778 1.89662 8.88893 2.17133C9.30005 2.44603 9.62048 2.83648 9.8097 3.29329C9.99892 3.75011 10.0484 4.25277 9.95196 4.73773C9.8555 5.22268 9.6174 5.66814 9.26777 6.01777C8.91814 6.3674 8.47268 6.6055 7.98773 6.70197C7.50277 6.79843 7.00011 6.74892 6.54329 6.5597C6.08648 6.37048 5.69603 6.05005 5.42133 5.63893C5.14662 5.2278 5 4.74445 5 4.25C5 3.58696 5.26339 2.95108 5.73223 2.48223C6.20107 2.01339 6.83696 1.75 7.5 1.75Z" fill="black" fill-opacity="0.2"/>
<path d="M7.5 8C8.24168 8 8.9667 7.78007 9.58339 7.36801C10.2001 6.95596 10.6807 6.37029 10.9645 5.68506C11.2484 4.99984 11.3226 4.24584 11.1779 3.51841C11.0333 2.79098 10.6761 2.1228 10.1517 1.59835C9.6272 1.0739 8.95902 0.716751 8.23159 0.572057C7.50416 0.427362 6.75016 0.501625 6.06494 0.785453C5.37971 1.06928 4.79404 1.54993 4.38199 2.16661C3.96993 2.7833 3.75 3.50832 3.75 4.25C3.75099 5.24426 4.1464 6.19751 4.84945 6.90056C5.55249 7.6036 6.50574 7.99901 7.5 8ZM7.5 1.75C7.99445 1.75 8.4778 1.89662 8.88893 2.17133C9.30005 2.44603 9.62048 2.83648 9.8097 3.29329C9.99892 3.75011 10.0484 4.25277 9.95196 4.73773C9.8555 5.22268 9.6174 5.66814 9.26777 6.01777C8.91814 6.3674 8.47268 6.6055 7.98773 6.70197C7.50277 6.79843 7.00011 6.74892 6.54329 6.5597C6.08648 6.37048 5.69603 6.05005 5.42133 5.63893C5.14662 5.2278 5 4.74445 5 4.25C5 3.58696 5.26339 2.95108 5.73223 2.48223C6.20107 2.01339 6.83696 1.75 7.5 1.75Z" fill="black" fill-opacity="0.2"/>
<path d="M7.5 9.25037C6.00867 9.25202 4.57889 9.84518 3.52435 10.8997C2.46982 11.9543 1.87665 13.384 1.875 14.8754C1.875 15.0411 1.94085 15.2001 2.05806 15.3173C2.17527 15.4345 2.33424 15.5004 2.5 15.5004C2.66576 15.5004 2.82473 15.4345 2.94194 15.3173C3.05915 15.2001 3.125 15.0411 3.125 14.8754C3.125 13.715 3.58594 12.6022 4.40641 11.7818C5.22688 10.9613 6.33968 10.5004 7.5 10.5004C8.66032 10.5004 9.77312 10.9613 10.5936 11.7818C11.4141 12.6022 11.875 13.715 11.875 14.8754C11.875 15.0411 11.9408 15.2001 12.0581 15.3173C12.1753 15.4345 12.3342 15.5004 12.5 15.5004C12.6658 15.5004 12.8247 15.4345 12.9419 15.3173C13.0592 15.2001 13.125 15.0411 13.125 14.8754C13.1233 13.384 12.5302 11.9543 11.4756 10.8997C10.4211 9.84518 8.99133 9.25202 7.5 9.25037Z" fill="#1E1E1E"/>
<path d="M7.5 9.25037C6.00867 9.25202 4.57889 9.84518 3.52435 10.8997C2.46982 11.9543 1.87665 13.384 1.875 14.8754C1.875 15.0411 1.94085 15.2001 2.05806 15.3173C2.17527 15.4345 2.33424 15.5004 2.5 15.5004C2.66576 15.5004 2.82473 15.4345 2.94194 15.3173C3.05915 15.2001 3.125 15.0411 3.125 14.8754C3.125 13.715 3.58594 12.6022 4.40641 11.7818C5.22688 10.9613 6.33968 10.5004 7.5 10.5004C8.66032 10.5004 9.77312 10.9613 10.5936 11.7818C11.4141 12.6022 11.875 13.715 11.875 14.8754C11.875 15.0411 11.9408 15.2001 12.0581 15.3173C12.1753 15.4345 12.3342 15.5004 12.5 15.5004C12.6658 15.5004 12.8247 15.4345 12.9419 15.3173C13.0592 15.2001 13.125 15.0411 13.125 14.8754C13.1233 13.384 12.5302 11.9543 11.4756 10.8997C10.4211 9.84518 8.99133 9.25202 7.5 9.25037Z" fill="black" fill-opacity="0.2"/>
<path d="M7.5 9.25037C6.00867 9.25202 4.57889 9.84518 3.52435 10.8997C2.46982 11.9543 1.87665 13.384 1.875 14.8754C1.875 15.0411 1.94085 15.2001 2.05806 15.3173C2.17527 15.4345 2.33424 15.5004 2.5 15.5004C2.66576 15.5004 2.82473 15.4345 2.94194 15.3173C3.05915 15.2001 3.125 15.0411 3.125 14.8754C3.125 13.715 3.58594 12.6022 4.40641 11.7818C5.22688 10.9613 6.33968 10.5004 7.5 10.5004C8.66032 10.5004 9.77312 10.9613 10.5936 11.7818C11.4141 12.6022 11.875 13.715 11.875 14.8754C11.875 15.0411 11.9408 15.2001 12.0581 15.3173C12.1753 15.4345 12.3342 15.5004 12.5 15.5004C12.6658 15.5004 12.8247 15.4345 12.9419 15.3173C13.0592 15.2001 13.125 15.0411 13.125 14.8754C13.1233 13.384 12.5302 11.9543 11.4756 10.8997C10.4211 9.84518 8.99133 9.25202 7.5 9.25037Z" fill="black" fill-opacity="0.2"/>
<path d="M7.5 9.25037C6.00867 9.25202 4.57889 9.84518 3.52435 10.8997C2.46982 11.9543 1.87665 13.384 1.875 14.8754C1.875 15.0411 1.94085 15.2001 2.05806 15.3173C2.17527 15.4345 2.33424 15.5004 2.5 15.5004C2.66576 15.5004 2.82473 15.4345 2.94194 15.3173C3.05915 15.2001 3.125 15.0411 3.125 14.8754C3.125 13.715 3.58594 12.6022 4.40641 11.7818C5.22688 10.9613 6.33968 10.5004 7.5 10.5004C8.66032 10.5004 9.77312 10.9613 10.5936 11.7818C11.4141 12.6022 11.875 13.715 11.875 14.8754C11.875 15.0411 11.9408 15.2001 12.0581 15.3173C12.1753 15.4345 12.3342 15.5004 12.5 15.5004C12.6658 15.5004 12.8247 15.4345 12.9419 15.3173C13.0592 15.2001 13.125 15.0411 13.125 14.8754C13.1233 13.384 12.5302 11.9543 11.4756 10.8997C10.4211 9.84518 8.99133 9.25202 7.5 9.25037Z" fill="black" fill-opacity="0.2"/>
<path d="M7.5 9.25037C6.00867 9.25202 4.57889 9.84518 3.52435 10.8997C2.46982 11.9543 1.87665 13.384 1.875 14.8754C1.875 15.0411 1.94085 15.2001 2.05806 15.3173C2.17527 15.4345 2.33424 15.5004 2.5 15.5004C2.66576 15.5004 2.82473 15.4345 2.94194 15.3173C3.05915 15.2001 3.125 15.0411 3.125 14.8754C3.125 13.715 3.58594 12.6022 4.40641 11.7818C5.22688 10.9613 6.33968 10.5004 7.5 10.5004C8.66032 10.5004 9.77312 10.9613 10.5936 11.7818C11.4141 12.6022 11.875 13.715 11.875 14.8754C11.875 15.0411 11.9408 15.2001 12.0581 15.3173C12.1753 15.4345 12.3342 15.5004 12.5 15.5004C12.6658 15.5004 12.8247 15.4345 12.9419 15.3173C13.0592 15.2001 13.125 15.0411 13.125 14.8754C13.1233 13.384 12.5302 11.9543 11.4756 10.8997C10.4211 9.84518 8.99133 9.25202 7.5 9.25037Z" fill="black" fill-opacity="0.2"/>
<path d="M7.5 9.25037C6.00867 9.25202 4.57889 9.84518 3.52435 10.8997C2.46982 11.9543 1.87665 13.384 1.875 14.8754C1.875 15.0411 1.94085 15.2001 2.05806 15.3173C2.17527 15.4345 2.33424 15.5004 2.5 15.5004C2.66576 15.5004 2.82473 15.4345 2.94194 15.3173C3.05915 15.2001 3.125 15.0411 3.125 14.8754C3.125 13.715 3.58594 12.6022 4.40641 11.7818C5.22688 10.9613 6.33968 10.5004 7.5 10.5004C8.66032 10.5004 9.77312 10.9613 10.5936 11.7818C11.4141 12.6022 11.875 13.715 11.875 14.8754C11.875 15.0411 11.9408 15.2001 12.0581 15.3173C12.1753 15.4345 12.3342 15.5004 12.5 15.5004C12.6658 15.5004 12.8247 15.4345 12.9419 15.3173C13.0592 15.2001 13.125 15.0411 13.125 14.8754C13.1233 13.384 12.5302 11.9543 11.4756 10.8997C10.4211 9.84518 8.99133 9.25202 7.5 9.25037Z" fill="black" fill-opacity="0.2"/>
<path d="M7.5 9.25037C6.00867 9.25202 4.57889 9.84518 3.52435 10.8997C2.46982 11.9543 1.87665 13.384 1.875 14.8754C1.875 15.0411 1.94085 15.2001 2.05806 15.3173C2.17527 15.4345 2.33424 15.5004 2.5 15.5004C2.66576 15.5004 2.82473 15.4345 2.94194 15.3173C3.05915 15.2001 3.125 15.0411 3.125 14.8754C3.125 13.715 3.58594 12.6022 4.40641 11.7818C5.22688 10.9613 6.33968 10.5004 7.5 10.5004C8.66032 10.5004 9.77312 10.9613 10.5936 11.7818C11.4141 12.6022 11.875 13.715 11.875 14.8754C11.875 15.0411 11.9408 15.2001 12.0581 15.3173C12.1753 15.4345 12.3342 15.5004 12.5 15.5004C12.6658 15.5004 12.8247 15.4345 12.9419 15.3173C13.0592 15.2001 13.125 15.0411 13.125 14.8754C13.1233 13.384 12.5302 11.9543 11.4756 10.8997C10.4211 9.84518 8.99133 9.25202 7.5 9.25037Z" fill="black" fill-opacity="0.2"/>
<path d="M7.5 9.25037C6.00867 9.25202 4.57889 9.84518 3.52435 10.8997C2.46982 11.9543 1.87665 13.384 1.875 14.8754C1.875 15.0411 1.94085 15.2001 2.05806 15.3173C2.17527 15.4345 2.33424 15.5004 2.5 15.5004C2.66576 15.5004 2.82473 15.4345 2.94194 15.3173C3.05915 15.2001 3.125 15.0411 3.125 14.8754C3.125 13.715 3.58594 12.6022 4.40641 11.7818C5.22688 10.9613 6.33968 10.5004 7.5 10.5004C8.66032 10.5004 9.77312 10.9613 10.5936 11.7818C11.4141 12.6022 11.875 13.715 11.875 14.8754C11.875 15.0411 11.9408 15.2001 12.0581 15.3173C12.1753 15.4345 12.3342 15.5004 12.5 15.5004C12.6658 15.5004 12.8247 15.4345 12.9419 15.3173C13.0592 15.2001 13.125 15.0411 13.125 14.8754C13.1233 13.384 12.5302 11.9543 11.4756 10.8997C10.4211 9.84518 8.99133 9.25202 7.5 9.25037Z" fill="black" fill-opacity="0.2"/>
<path d="M7.5 9.25037C6.00867 9.25202 4.57889 9.84518 3.52435 10.8997C2.46982 11.9543 1.87665 13.384 1.875 14.8754C1.875 15.0411 1.94085 15.2001 2.05806 15.3173C2.17527 15.4345 2.33424 15.5004 2.5 15.5004C2.66576 15.5004 2.82473 15.4345 2.94194 15.3173C3.05915 15.2001 3.125 15.0411 3.125 14.8754C3.125 13.715 3.58594 12.6022 4.40641 11.7818C5.22688 10.9613 6.33968 10.5004 7.5 10.5004C8.66032 10.5004 9.77312 10.9613 10.5936 11.7818C11.4141 12.6022 11.875 13.715 11.875 14.8754C11.875 15.0411 11.9408 15.2001 12.0581 15.3173C12.1753 15.4345 12.3342 15.5004 12.5 15.5004C12.6658 15.5004 12.8247 15.4345 12.9419 15.3173C13.0592 15.2001 13.125 15.0411 13.125 14.8754C13.1233 13.384 12.5302 11.9543 11.4756 10.8997C10.4211 9.84518 8.99133 9.25202 7.5 9.25037Z" fill="black" fill-opacity="0.2"/>
<path d="M7.5 9.25037C6.00867 9.25202 4.57889 9.84518 3.52435 10.8997C2.46982 11.9543 1.87665 13.384 1.875 14.8754C1.875 15.0411 1.94085 15.2001 2.05806 15.3173C2.17527 15.4345 2.33424 15.5004 2.5 15.5004C2.66576 15.5004 2.82473 15.4345 2.94194 15.3173C3.05915 15.2001 3.125 15.0411 3.125 14.8754C3.125 13.715 3.58594 12.6022 4.40641 11.7818C5.22688 10.9613 6.33968 10.5004 7.5 10.5004C8.66032 10.5004 9.77312 10.9613 10.5936 11.7818C11.4141 12.6022 11.875 13.715 11.875 14.8754C11.875 15.0411 11.9408 15.2001 12.0581 15.3173C12.1753 15.4345 12.3342 15.5004 12.5 15.5004C12.6658 15.5004 12.8247 15.4345 12.9419 15.3173C13.0592 15.2001 13.125 15.0411 13.125 14.8754C13.1233 13.384 12.5302 11.9543 11.4756 10.8997C10.4211 9.84518 8.99133 9.25202 7.5 9.25037Z" fill="black" fill-opacity="0.2"/>
<path d="M7.5 9.25037C6.00867 9.25202 4.57889 9.84518 3.52435 10.8997C2.46982 11.9543 1.87665 13.384 1.875 14.8754C1.875 15.0411 1.94085 15.2001 2.05806 15.3173C2.17527 15.4345 2.33424 15.5004 2.5 15.5004C2.66576 15.5004 2.82473 15.4345 2.94194 15.3173C3.05915 15.2001 3.125 15.0411 3.125 14.8754C3.125 13.715 3.58594 12.6022 4.40641 11.7818C5.22688 10.9613 6.33968 10.5004 7.5 10.5004C8.66032 10.5004 9.77312 10.9613 10.5936 11.7818C11.4141 12.6022 11.875 13.715 11.875 14.8754C11.875 15.0411 11.9408 15.2001 12.0581 15.3173C12.1753 15.4345 12.3342 15.5004 12.5 15.5004C12.6658 15.5004 12.8247 15.4345 12.9419 15.3173C13.0592 15.2001 13.125 15.0411 13.125 14.8754C13.1233 13.384 12.5302 11.9543 11.4756 10.8997C10.4211 9.84518 8.99133 9.25202 7.5 9.25037Z" fill="black" fill-opacity="0.2"/>
<path d="M7.5 9.25037C6.00867 9.25202 4.57889 9.84518 3.52435 10.8997C2.46982 11.9543 1.87665 13.384 1.875 14.8754C1.875 15.0411 1.94085 15.2001 2.05806 15.3173C2.17527 15.4345 2.33424 15.5004 2.5 15.5004C2.66576 15.5004 2.82473 15.4345 2.94194 15.3173C3.05915 15.2001 3.125 15.0411 3.125 14.8754C3.125 13.715 3.58594 12.6022 4.40641 11.7818C5.22688 10.9613 6.33968 10.5004 7.5 10.5004C8.66032 10.5004 9.77312 10.9613 10.5936 11.7818C11.4141 12.6022 11.875 13.715 11.875 14.8754C11.875 15.0411 11.9408 15.2001 12.0581 15.3173C12.1753 15.4345 12.3342 15.5004 12.5 15.5004C12.6658 15.5004 12.8247 15.4345 12.9419 15.3173C13.0592 15.2001 13.125 15.0411 13.125 14.8754C13.1233 13.384 12.5302 11.9543 11.4756 10.8997C10.4211 9.84518 8.99133 9.25202 7.5 9.25037Z" fill="black" fill-opacity="0.2"/>
<path d="M7.5 9.25037C6.00867 9.25202 4.57889 9.84518 3.52435 10.8997C2.46982 11.9543 1.87665 13.384 1.875 14.8754C1.875 15.0411 1.94085 15.2001 2.05806 15.3173C2.17527 15.4345 2.33424 15.5004 2.5 15.5004C2.66576 15.5004 2.82473 15.4345 2.94194 15.3173C3.05915 15.2001 3.125 15.0411 3.125 14.8754C3.125 13.715 3.58594 12.6022 4.40641 11.7818C5.22688 10.9613 6.33968 10.5004 7.5 10.5004C8.66032 10.5004 9.77312 10.9613 10.5936 11.7818C11.4141 12.6022 11.875 13.715 11.875 14.8754C11.875 15.0411 11.9408 15.2001 12.0581 15.3173C12.1753 15.4345 12.3342 15.5004 12.5 15.5004C12.6658 15.5004 12.8247 15.4345 12.9419 15.3173C13.0592 15.2001 13.125 15.0411 13.125 14.8754C13.1233 13.384 12.5302 11.9543 11.4756 10.8997C10.4211 9.84518 8.99133 9.25202 7.5 9.25037Z" fill="black" fill-opacity="0.2"/>
<path d="M7.5 9.25037C6.00867 9.25202 4.57889 9.84518 3.52435 10.8997C2.46982 11.9543 1.87665 13.384 1.875 14.8754C1.875 15.0411 1.94085 15.2001 2.05806 15.3173C2.17527 15.4345 2.33424 15.5004 2.5 15.5004C2.66576 15.5004 2.82473 15.4345 2.94194 15.3173C3.05915 15.2001 3.125 15.0411 3.125 14.8754C3.125 13.715 3.58594 12.6022 4.40641 11.7818C5.22688 10.9613 6.33968 10.5004 7.5 10.5004C8.66032 10.5004 9.77312 10.9613 10.5936 11.7818C11.4141 12.6022 11.875 13.715 11.875 14.8754C11.875 15.0411 11.9408 15.2001 12.0581 15.3173C12.1753 15.4345 12.3342 15.5004 12.5 15.5004C12.6658 15.5004 12.8247 15.4345 12.9419 15.3173C13.0592 15.2001 13.125 15.0411 13.125 14.8754C13.1233 13.384 12.5302 11.9543 11.4756 10.8997C10.4211 9.84518 8.99133 9.25202 7.5 9.25037Z" fill="black" fill-opacity="0.2"/>
<path d="M7.5 9.25037C6.00867 9.25202 4.57889 9.84518 3.52435 10.8997C2.46982 11.9543 1.87665 13.384 1.875 14.8754C1.875 15.0411 1.94085 15.2001 2.05806 15.3173C2.17527 15.4345 2.33424 15.5004 2.5 15.5004C2.66576 15.5004 2.82473 15.4345 2.94194 15.3173C3.05915 15.2001 3.125 15.0411 3.125 14.8754C3.125 13.715 3.58594 12.6022 4.40641 11.7818C5.22688 10.9613 6.33968 10.5004 7.5 10.5004C8.66032 10.5004 9.77312 10.9613 10.5936 11.7818C11.4141 12.6022 11.875 13.715 11.875 14.8754C11.875 15.0411 11.9408 15.2001 12.0581 15.3173C12.1753 15.4345 12.3342 15.5004 12.5 15.5004C12.6658 15.5004 12.8247 15.4345 12.9419 15.3173C13.0592 15.2001 13.125 15.0411 13.125 14.8754C13.1233 13.384 12.5302 11.9543 11.4756 10.8997C10.4211 9.84518 8.99133 9.25202 7.5 9.25037Z" fill="black" fill-opacity="0.2"/>
<path d="M7.5 9.25037C6.00867 9.25202 4.57889 9.84518 3.52435 10.8997C2.46982 11.9543 1.87665 13.384 1.875 14.8754C1.875 15.0411 1.94085 15.2001 2.05806 15.3173C2.17527 15.4345 2.33424 15.5004 2.5 15.5004C2.66576 15.5004 2.82473 15.4345 2.94194 15.3173C3.05915 15.2001 3.125 15.0411 3.125 14.8754C3.125 13.715 3.58594 12.6022 4.40641 11.7818C5.22688 10.9613 6.33968 10.5004 7.5 10.5004C8.66032 10.5004 9.77312 10.9613 10.5936 11.7818C11.4141 12.6022 11.875 13.715 11.875 14.8754C11.875 15.0411 11.9408 15.2001 12.0581 15.3173C12.1753 15.4345 12.3342 15.5004 12.5 15.5004C12.6658 15.5004 12.8247 15.4345 12.9419 15.3173C13.0592 15.2001 13.125 15.0411 13.125 14.8754C13.1233 13.384 12.5302 11.9543 11.4756 10.8997C10.4211 9.84518 8.99133 9.25202 7.5 9.25037Z" fill="black" fill-opacity="0.2"/>
<path d="M7.5 9.25037C6.00867 9.25202 4.57889 9.84518 3.52435 10.8997C2.46982 11.9543 1.87665 13.384 1.875 14.8754C1.875 15.0411 1.94085 15.2001 2.05806 15.3173C2.17527 15.4345 2.33424 15.5004 2.5 15.5004C2.66576 15.5004 2.82473 15.4345 2.94194 15.3173C3.05915 15.2001 3.125 15.0411 3.125 14.8754C3.125 13.715 3.58594 12.6022 4.40641 11.7818C5.22688 10.9613 6.33968 10.5004 7.5 10.5004C8.66032 10.5004 9.77312 10.9613 10.5936 11.7818C11.4141 12.6022 11.875 13.715 11.875 14.8754C11.875 15.0411 11.9408 15.2001 12.0581 15.3173C12.1753 15.4345 12.3342 15.5004 12.5 15.5004C12.6658 15.5004 12.8247 15.4345 12.9419 15.3173C13.0592 15.2001 13.125 15.0411 13.125 14.8754C13.1233 13.384 12.5302 11.9543 11.4756 10.8997C10.4211 9.84518 8.99133 9.25202 7.5 9.25037Z" fill="black" fill-opacity="0.2"/>
<path d="M7.5 9.25037C6.00867 9.25202 4.57889 9.84518 3.52435 10.8997C2.46982 11.9543 1.87665 13.384 1.875 14.8754C1.875 15.0411 1.94085 15.2001 2.05806 15.3173C2.17527 15.4345 2.33424 15.5004 2.5 15.5004C2.66576 15.5004 2.82473 15.4345 2.94194 15.3173C3.05915 15.2001 3.125 15.0411 3.125 14.8754C3.125 13.715 3.58594 12.6022 4.40641 11.7818C5.22688 10.9613 6.33968 10.5004 7.5 10.5004C8.66032 10.5004 9.77312 10.9613 10.5936 11.7818C11.4141 12.6022 11.875 13.715 11.875 14.8754C11.875 15.0411 11.9408 15.2001 12.0581 15.3173C12.1753 15.4345 12.3342 15.5004 12.5 15.5004C12.6658 15.5004 12.8247 15.4345 12.9419 15.3173C13.0592 15.2001 13.125 15.0411 13.125 14.8754C13.1233 13.384 12.5302 11.9543 11.4756 10.8997C10.4211 9.84518 8.99133 9.25202 7.5 9.25037Z" fill="black" fill-opacity="0.2"/>
<path d="M7.5 9.25037C6.00867 9.25202 4.57889 9.84518 3.52435 10.8997C2.46982 11.9543 1.87665 13.384 1.875 14.8754C1.875 15.0411 1.94085 15.2001 2.05806 15.3173C2.17527 15.4345 2.33424 15.5004 2.5 15.5004C2.66576 15.5004 2.82473 15.4345 2.94194 15.3173C3.05915 15.2001 3.125 15.0411 3.125 14.8754C3.125 13.715 3.58594 12.6022 4.40641 11.7818C5.22688 10.9613 6.33968 10.5004 7.5 10.5004C8.66032 10.5004 9.77312 10.9613 10.5936 11.7818C11.4141 12.6022 11.875 13.715 11.875 14.8754C11.875 15.0411 11.9408 15.2001 12.0581 15.3173C12.1753 15.4345 12.3342 15.5004 12.5 15.5004C12.6658 15.5004 12.8247 15.4345 12.9419 15.3173C13.0592 15.2001 13.125 15.0411 13.125 14.8754C13.1233 13.384 12.5302 11.9543 11.4756 10.8997C10.4211 9.84518 8.99133 9.25202 7.5 9.25037Z" fill="black" fill-opacity="0.2"/>
<path d="M7.5 9.25037C6.00867 9.25202 4.57889 9.84518 3.52435 10.8997C2.46982 11.9543 1.87665 13.384 1.875 14.8754C1.875 15.0411 1.94085 15.2001 2.05806 15.3173C2.17527 15.4345 2.33424 15.5004 2.5 15.5004C2.66576 15.5004 2.82473 15.4345 2.94194 15.3173C3.05915 15.2001 3.125 15.0411 3.125 14.8754C3.125 13.715 3.58594 12.6022 4.40641 11.7818C5.22688 10.9613 6.33968 10.5004 7.5 10.5004C8.66032 10.5004 9.77312 10.9613 10.5936 11.7818C11.4141 12.6022 11.875 13.715 11.875 14.8754C11.875 15.0411 11.9408 15.2001 12.0581 15.3173C12.1753 15.4345 12.3342 15.5004 12.5 15.5004C12.6658 15.5004 12.8247 15.4345 12.9419 15.3173C13.0592 15.2001 13.125 15.0411 13.125 14.8754C13.1233 13.384 12.5302 11.9543 11.4756 10.8997C10.4211 9.84518 8.99133 9.25202 7.5 9.25037Z" fill="black" fill-opacity="0.2"/>
<path d="M7.5 9.25037C6.00867 9.25202 4.57889 9.84518 3.52435 10.8997C2.46982 11.9543 1.87665 13.384 1.875 14.8754C1.875 15.0411 1.94085 15.2001 2.05806 15.3173C2.17527 15.4345 2.33424 15.5004 2.5 15.5004C2.66576 15.5004 2.82473 15.4345 2.94194 15.3173C3.05915 15.2001 3.125 15.0411 3.125 14.8754C3.125 13.715 3.58594 12.6022 4.40641 11.7818C5.22688 10.9613 6.33968 10.5004 7.5 10.5004C8.66032 10.5004 9.77312 10.9613 10.5936 11.7818C11.4141 12.6022 11.875 13.715 11.875 14.8754C11.875 15.0411 11.9408 15.2001 12.0581 15.3173C12.1753 15.4345 12.3342 15.5004 12.5 15.5004C12.6658 15.5004 12.8247 15.4345 12.9419 15.3173C13.0592 15.2001 13.125 15.0411 13.125 14.8754C13.1233 13.384 12.5302 11.9543 11.4756 10.8997C10.4211 9.84518 8.99133 9.25202 7.5 9.25037Z" fill="black" fill-opacity="0.2"/>
<path d="M7.5 9.25037C6.00867 9.25202 4.57889 9.84518 3.52435 10.8997C2.46982 11.9543 1.87665 13.384 1.875 14.8754C1.875 15.0411 1.94085 15.2001 2.05806 15.3173C2.17527 15.4345 2.33424 15.5004 2.5 15.5004C2.66576 15.5004 2.82473 15.4345 2.94194 15.3173C3.05915 15.2001 3.125 15.0411 3.125 14.8754C3.125 13.715 3.58594 12.6022 4.40641 11.7818C5.22688 10.9613 6.33968 10.5004 7.5 10.5004C8.66032 10.5004 9.77312 10.9613 10.5936 11.7818C11.4141 12.6022 11.875 13.715 11.875 14.8754C11.875 15.0411 11.9408 15.2001 12.0581 15.3173C12.1753 15.4345 12.3342 15.5004 12.5 15.5004C12.6658 15.5004 12.8247 15.4345 12.9419 15.3173C13.0592 15.2001 13.125 15.0411 13.125 14.8754C13.1233 13.384 12.5302 11.9543 11.4756 10.8997C10.4211 9.84518 8.99133 9.25202 7.5 9.25037Z" fill="black" fill-opacity="0.2"/>
</g>
<defs>
<clipPath id="clip0_7243_39304">
<rect width="15" height="15" fill="white" transform="translate(0 0.5)"/>
</clipPath>
</defs>
</svg>
